<?xml version="1.0" encoding="UTF-8"?>
<svg id="Layer_2" data-name="Layer 2" xmlns="http://www.w3.org/2000/svg" viewBox="0 0 2000 3000">
  <path d="M810.35,1620.37c-21.49-19.25-46.11-36.38-74.49-43.39-25.83-6.38-55.47-3.76-77.75,11.68-45.17,31.31-41.49,93.81-32.86,141.52,5.7,31.52,14.57,62.47,26.41,92.23,10.71,26.93,23.33,53.6,40.27,77.23,15.52,21.63,35.18,41.5,59.59,52.89,21.79,10.17,46.84,13.56,70.42,8.41,23.41-5.11,46.99-20.5,55.16-43.95,3.96-11.37,2.88-25.46-6.65-33.79-7.68-6.71-19.67-9.72-29.02-4.7-12.22,6.56-11.59,21.43-9.42,33.15,2.27,12.25,5.14,24.4,8.44,36.41,6.54,23.79,15.01,47.02,25.06,69.55,20.32,45.51,47.57,87.81,80,125.63,32.46,37.86,70.33,71.12,112.05,98.45,41.41,27.13,86.85,48.34,134.44,62.06,60.43,17.42,124.54,22.05,187.15,23.6,32.48.81,65.54,1.1,97.82-3.03,28.35-3.62,56.63-11.56,79.49-29.36,20.17-15.7,35.37-38.25,38.15-64.03,3.14-29.07-13.18-55.04-15.2-83.44-1.91-26.85,15.78-46.46,27.19-69.01,5.19-10.27,9.2-21.55,8.59-33.23s-6.06-23.36-15.04-31.49c-17.17-15.56-47.3-19.25-60.55,3.25-5.46,9.27-4.97,21.58,5.06,27.51,11.19,6.62,25.21-.27,32.57-9.41,8.02-9.96,12.18-21.77,24.03-28.02,9.21-4.85,19.59-6.93,29.28-10.57,9.32-3.49,18.49-8.32,23.78-17.12,6.04-10.05,5.12-21.65.48-32-4.9-10.93-13.03-20.03-19.29-30.15-6.86-11.09-9.88-23.02-5.8-35.77,4.06-12.68,14.55-21.7,27.44-24.62,6.26-1.41,12.83-1.21,18.98.63,5.05,1.51,9.88,3.01,15.22,2.99,20.87-.09,35.53-18.19,43.21-35.76,9.64-22.07,11.96-46.58,6.53-70.06-13.48-58.25-63.8-96.2-99.09-140.96-18.62-23.61-31.5-50.02-37.45-79.56-5.93-29.43-5.54-59.83-3.56-89.66,3.79-57.22,14.03-114.57,3.84-171.74-4.68-26.28-14.14-51.77-29.79-73.54-1.9-2.64-5.18-3.9-8.21-2.15-59.41,34.38-124.18,58.11-190.5,75.21-67.77,17.47-136.96,27.85-206.26,36.96-75.41,9.92-151.07,18.26-227,22.92-74.98,4.6-150.26,5.6-225.26.88-71.77-4.52-143.25-14.26-213.25-30.86-35.01-8.3-69.63-18.3-103.6-30.19-16.36-5.72-32.81-11.6-48.68-18.59-12.37-5.45-25.76-12.37-32.91-24.38-3.62-6.07-4.68-12.5-2.72-19.35,2-7.01,6.48-11.09,11.47-16.02,11.3-11.15,18-24.64,21.56-39.97,6.72-28.98,20.45-55.77,38.21-79.51,38.64-51.67,94.64-86.58,152.31-113.47,61.21-28.54,125.8-49.2,186.45-79.01,55.53-27.29,108.6-62.68,145.67-113.1,32.44-44.13,49.59-96.97,72.71-146.07,21.6-45.87,51.08-93.02,100.49-112.36,47.96-18.78,103.63-9.08,145.98,18.88,47.02,31.04,71.87,84.5,72.35,140.13.49,58.37-24.04,114.83-66.8,154.45-43.44,40.26-102.19,62.52-160.93,66.13-61.41,3.78-121.26-13.8-177.43-37.08-57.99-24.03-113.28-54.14-171.8-76.94-60.03-23.39-123.56-37.38-188.23-30.86-62.91,6.34-123.55,30.92-169.43,75.05-41.67,40.08-69.99,94.68-73.04,152.89-2.9,55.34,17.16,110.32,50.26,154.2,34.22,45.38,81.67,79.8,136.05,96.73,60.02,18.68,125.06,17.07,185.45.93,60.02-16.05,113.95-46.36,162.04-85.26,45.1-36.48,85.45-78.34,129.52-115.99,42.36-36.19,89.31-68.78,143.75-83.39,51.45-13.81,106.78-8.12,155.53,12.83,48.44,20.81,91.01,56.18,117.84,101.8,27.38,46.58,41.38,111.65,11.32,160.42-15.49,25.14-41.65,39.91-69.32,48.14-30.14,8.97-62.04,11.86-93.25,14.6-68.18,5.97-138.03,4.01-200.38-27.25-52.45-26.3-96.03-66.41-141.09-103.26-22.45-18.35-45.44-36.21-70.14-51.46-26.22-16.19-54.23-28.35-83.71-37.27-60.9-18.42-127.03-26.39-179.32-65.56-46.31-34.69-75.87-87.9-91.34-142.82-16.35-58.06-18.33-120.82-5.82-179.81,12.65-59.65,41.28-116.98,87.98-157.17,43.17-37.15,100.66-59.35,157.9-56.26,30.13,1.63,58.81,11.11,84.92,26.03,27.73,15.84,52.14,36.65,75.8,57.92,24.61,22.12,48.97,44.45,74.73,65.25,26.16,21.12,53.28,41.07,81.49,59.36,56.63,36.71,117.87,66.92,182.62,86.3,67.26,20.14,138.59,28.87,208.6,21.81,32.11-3.24,64.8-8.98,95.02-20.6,27.17-10.45,52.93-26.38,68.98-51.3,17.29-26.83,20.06-60.26,16.22-91.24-3.58-28.88-11.95-57.03-23.32-83.77-21.68-51-55.61-96.83-97.62-132.93-41.94-36.03-92.1-62.8-146.11-75.25-54.42-12.54-111.75-9.96-165.27,5.67-53.12,15.52-102.73,43.71-142.46,82.32-19.88,19.31-37.28,41.32-51.21,65.3-17.19,29.59-29.17,61.78-43.87,92.6-13.65,28.6-29.93,55.94-53.79,77.24-22.04,19.67-49.8,32.47-79.77,30.44-32.41-2.2-62.4-17.68-94.98-19.04-29.82-1.24-56.1,12.54-75.21,34.91-19.01,22.26-31.46,49.92-39.59,77.84-8.43,28.93-11.93,59.62-7.77,89.56,4.03,29,16.11,56.63,36.51,77.87,20.6,21.44,48.24,35.51,77,42.31,66.42,15.7,135.24-7.69,193.79-38.37,55.09-28.87,104.93-68.05,146.07-114.7,20.04-22.72,37.74-47.25,53.79-72.93,14.91-23.86,28.79-48.35,43.93-72.08,29.39-46.06,66.08-92.21,120.29-109.15,31.04-9.7,64.86-9.28,95.7,1.02,28.24,9.43,53.16,27.71,71.3,51.26,17.91,23.26,29.14,51.53,31.4,80.84,2.25,29.15-3.8,58.47-15.53,85.14-25.4,57.77-72.54,102.02-125.78,134.27-57.96,35.11-121.79,58.7-182.26,88.89-61.09,30.49-117.54,69.6-166.82,116.92-22.15,21.27-46.24,46.67-51.25,78.27-4.45,28.07,8.55,53.09,30.93,69.53,47.61,34.96,114.11,25.3,166.56,8.4,59.32-19.11,114.1-50.42,174.42-66.67,34.37-9.26,69.31-11.18,104.77-10.14,35.55,1.05,71.15,4.32,106.72,2.06,59.49-3.78,121.9-24.27,152.09-79.66,26.61-48.84,23.75-111.36-12.29-154.65-36.08-43.34-97.58-61.45-150.93-42.75-29.95,10.5-55.74,29.4-81.12,47.96-25.88,18.92-52.47,36.48-80.82,51.52-56.39,29.9-117.2,50.58-179.19,65.34-62.93,14.98-127.12,23.96-191.42,30.42-32.1,3.23-64.26,5.83-96.43,8.21-33.62,2.49-67.65,6.21-101.38,4.27-17.15-.99-34.21-3.83-50.4-9.71-13.96-5.07-26.84-12.74-39.34-20.67-23.74-15.08-47.36-33.15-75.25-39.7-25.81-6.05-52.03.1-71.52,18.27-18.62,17.36-29.34,42.84-30.41,68.12-2.47,58.4,48.12,104.04,98.62,123.15,33.05,12.51,68.62,16.5,103.67,18.54,36.2,2.11,72.51,3.21,108.76,4.33,72.83,2.26,145.88,2.72,218.53-3.67,72.72-6.4,143.89-20.49,213.06-43.93,67.58-22.9,133.91-51.45,204.55-63.8,60.28-10.54,125.01-9.08,180.77,18.55,6.9,3.42,12.98-6.93,6.06-10.36-60.21-29.84-129.34-30.96-194.3-18.99-70.63,13.01-136.95,41.83-204.73,64.53-69.1,23.14-140.32,36.71-212.91,42.63-72.7,5.93-145.76,5.17-218.6,2.79-36.16-1.18-72.41-2.12-108.51-4.55-34.17-2.3-69.33-6.86-100.93-20.82-48.76-21.56-94.71-71.18-78.82-128.22,6.46-23.2,22.72-45.56,46.17-53.62,26.5-9.11,53.17,1.98,75.92,15.52,25.35,15.08,48.8,33.76,76.86,43.76,32.31,11.52,67.45,11.28,101.24,9.28,64.94-3.84,130.01-9.05,194.59-16.93,63.86-7.79,127.52-18.66,189.46-36.3,60.85-17.33,120.1-41.33,174.13-74.45,27.43-16.81,52.41-37.01,79.15-54.8,25.1-16.7,53.05-31.15,83.79-32.26,54.24-1.95,108.35,33.71,124.43,86.17,16.4,53.51-5.19,114.84-52.16,145.41-56.39,36.7-127.63,30.3-191.52,27.59-36.17-1.53-72.43-1.56-107.97,6.19-30.3,6.61-59.39,17.72-87.94,29.63-56.33,23.5-113.64,52.7-175.8,55.23-27.36,1.11-55.15-3.16-78.57-18.16-23.05-14.77-36.19-39.77-28.75-67.12,8.55-31.42,35.55-55.56,58.75-76.72,25.3-23.07,52.4-44.12,81.02-62.92,56.71-37.24,119.35-62.58,180.51-91.3,58.76-27.59,116.65-59.8,159.6-109.56,38.32-44.4,66.25-102.34,60.19-162.27-6-59.36-45-112.74-100.2-135.74-29.67-12.36-62.79-15.51-94.36-9.75-28.55,5.21-54.76,18.53-77.23,36.67-43.47,35.09-71.17,85.72-99.49,132.82-15.01,24.97-30.51,49.66-48.66,72.51-19.28,24.28-40.82,46.76-64.21,67.1-48.23,41.95-105.65,76.48-166.93,95.36-60.01,18.49-131.93,18.29-180.47-27.06-45.48-42.49-46.5-110.07-28.94-165.83,8.54-27.14,21.42-54.57,41.89-74.8,9.85-9.73,21.64-17.51,35.06-21.26,15.31-4.28,31.32-2.87,46.67.4,30.91,6.58,61.26,19.6,93.46,15.36,29.22-3.84,55.15-20.04,75.6-40.71,47.09-47.58,61.17-115.31,95.42-171.02,28.97-47.11,71.54-84.92,120.3-110.64,48.88-25.79,104.26-39.48,159.57-38.49,55.44.99,109.53,17.75,156.83,46.47,47.29,28.72,87.57,68.88,116.72,115.88,14.52,23.41,26.31,48.47,34.75,74.71,9.32,28.95,15.65,59.92,12.51,90.43-3.15,30.65-18.58,57.06-44.1,74.36-25.31,17.16-55.48,25.54-85.18,31.33-68.96,13.44-140.7,9.94-208.95-5.91-66.64-15.47-129.9-42.8-188.6-77.72-57.62-34.28-110.45-75.66-160.06-120.63-46.08-41.77-94.05-87.58-156.65-101.88-56.13-12.82-115.89.28-164.78,29.62-51.93,31.16-89.35,80.27-111.04,136.37-22.19,57.39-28.23,121.26-20.55,182.13,7.21,57.18,26.66,114.02,62.05,160.03,17.29,22.48,38.25,42.06,62.51,56.84,27.73,16.91,58.91,27.12,90.11,35.52,31.66,8.52,63.83,15.36,94.79,26.31,28.03,9.91,54.06,24.11,78.58,40.85,48.34,33.01,90.38,74.18,137.68,108.57,23.42,17.03,48.17,32.26,74.9,43.51,31.3,13.18,64.69,19.9,98.49,22.24,35.39,2.45,70.92.24,106.15-3.39,30.26-3.12,61.16-6.44,89.98-16.74,27.32-9.76,52.03-26.31,67.12-51.6,14.57-24.4,19.1-53.8,16.9-81.83-4.31-54.93-32.53-105.92-72.11-143.48-38.43-36.47-88.01-61.59-140.27-70.46-26.14-4.44-52.69-4.88-78.9-.87s-53.92,13.62-78.68,25.97c-50.7,25.29-93.72,63.4-135.03,101.56-42.44,39.2-84.03,80.3-132.77,111.79-52.78,34.09-113.96,56.55-176.76,61.63-60.12,4.87-122.04-6.39-173.67-38.47-47.07-29.23-85.46-74.12-105.27-126.03-20.17-52.85-19.27-110.91,5.13-162.25,25.5-53.67,71.62-95.86,126.06-119.07,61.09-26.05,130.48-28.97,194.83-14.58,61.02,13.65,117.66,41.03,173.9,67.54,55.71,26.26,112.44,52.74,173.28,64.56,59.07,11.46,120.13,7.18,175.8-16.39,53.83-22.79,100.32-63.37,124.5-117.2,23.48-52.27,27.33-114.21,4.88-167.52-20.85-49.51-64.31-85.69-115.9-99.88-24.92-6.86-51.3-8.39-76.75-3.68-25.48,4.72-48.76,16.39-68.61,32.93-40.72,33.94-62.21,84.56-82.61,132.09-10.73,25.01-21.37,50.15-34.58,73.99-14.18,25.59-31.76,48.66-53.02,68.79-45.67,43.23-103.25,71.75-160.8,95.66-63.32,26.3-128.88,48.52-188.06,83.7-52.16,31.01-100.37,73.62-127.08,129.05-6.4,13.29-11.57,27.21-15.02,41.56-1.83,7.6-3.66,14.76-7.57,21.61-3.93,6.87-9.04,12.48-14.8,17.84-10.01,9.33-15.36,24.79-11,38.12,4.3,13.15,15.09,22.95,26.67,29.85,13.47,8.03,28.65,13.33,43.26,18.86,16.83,6.37,33.85,12.26,51,17.69,34.02,10.77,68.6,19.74,103.52,27.08,70.23,14.77,141.77,23.05,213.43,26.36,75.22,3.48,150.62,1.45,225.7-3.96,76.09-5.48,151.88-14.44,227.46-24.7,68.09-9.24,135.99-20.52,202.26-38.96,60.67-16.89,119.89-39.77,174.48-71.36l-8.21-2.15c31.08,43.24,34.66,98.03,31.9,149.51-2.96,55.26-13.61,110.48-6.33,165.86,3.63,27.61,11.93,54.33,26.62,78.12,14.38,23.28,33.33,43.26,51.79,63.3,33.6,36.47,71.81,81.85,61.84,135.23-3.24,17.38-10.82,38.58-27.1,47.86-7.77,4.43-15.19,3.53-23.36.99-12.09-3.76-25.31-2.47-36.7,2.9-22.19,10.45-33.26,38.08-24.76,61.08,3.99,10.8,11.09,19.87,17.54,29.26,5.39,7.85,12.22,17.53,10.3,27.61-1.77,9.28-9.78,14.34-17.97,17.56-9.15,3.6-18.78,5.81-27.84,9.67-10.25,4.37-17.87,10.77-23.98,20.15-3.41,5.24-6.23,11.21-10.83,15.54-3.39,3.19-9.33,6.7-14.15,4.76-9.52-3.84.81-16.09,5.64-19.03,9.26-5.64,21.76-2.14,30.21,3.41,8.85,5.82,15.12,15.54,15.68,26.22s-3.54,20.91-8.56,30.26c-11.08,20.6-26.33,39.55-27.35,63.91-1.13,27.18,13.57,51.63,15.53,78.35,1.77,24.23-9.89,46.31-27.39,62.44-20.06,18.48-46.55,27.19-73.05,31.33-29.38,4.59-59.71,4.42-89.38,4.06-32.21-.39-64.42-2.18-96.49-5.27-51.63-4.97-101.97-15.43-150.05-35.15-85.76-35.18-161.3-95.57-216.09-170.18-27.43-37.35-50-78.41-66.04-121.91-7.95-21.55-14.35-43.68-19.04-66.17-1.59-7.63-7.48-26.26,4.23-28.71,9.55-2,17.47,6.27,17.81,15.29.45,12.03-7.86,22.9-16.46,30.42-8.03,7.01-17.88,11.74-28.13,14.48-21.57,5.76-45.67,3.02-65.77-6.53-47.15-22.4-74.01-73.91-92.69-120.08-11.32-27.98-20-57.03-25.89-86.64-4.9-24.63-8.37-49.92-5.72-75.05,2.41-22.82,11.18-46.19,30.25-60.2,20.26-14.87,47.6-17.2,71.39-10.95,25.72,6.76,48,22.35,67.57,39.89,5.74,5.14,14.25-3.32,8.49-8.49h0Z"/>
  <path d="M326.2,1178.16c-48.44,74.63-63.85,165.95-58.15,253.65,6.31,97.1,38.18,190.19,73.62,280.04,36.56,92.7,77.81,184.12,101.9,281.15,21.83,87.94,26.04,178.74,9.21,267.94-16.16,85.65-50.15,167.82-100.06,239.33-6.16,8.82-12.55,17.47-19.18,25.93-4.71,6.01,3.72,14.56,8.49,8.49,53.95-68.79,92.83-148.77,114.18-233.53,21.71-86.18,24.93-176.24,9.18-263.7-17.71-98.39-56.49-191.16-93.89-283.32-37.21-91.69-74.22-185.23-87.61-283.91-11.76-86.69-4.35-179.39,36.38-258.04,4.97-9.59,10.42-18.92,16.3-27.98,4.22-6.5-6.17-12.52-10.36-6.06h0Z"/>
  <path d="M1501.12,2309.8c-46.79,17.73-97.24,12.78-145.72,6.16-24.51-3.35-49-7.14-73.67-9.09-23.77-1.88-49.24-3.44-71.22,7.45-19.89,9.85-34.73,27.71-48.04,44.95-13.47,17.43-25.45,35.97-35.79,55.43-20.41,38.41-34.66,80.13-42,122.99-8.36,48.82-7.95,98.8,1.8,147.39,1.52,7.57,13.09,4.36,11.57-3.19-16.77-83.57-4.55-172.41,32.78-248.93,9.3-19.06,20.13-37.38,32.4-54.69,12.27-17.29,26-35.73,43.66-47.86,19.99-13.73,43.35-13.53,66.66-12.11,24.53,1.5,48.86,5.12,73.19,8.49,52.28,7.24,106.95,13.77,157.57-5.41,7.15-2.71,4.05-14.31-3.19-11.57h0Z"/>
</svg>