<?xml version="1.0" encoding="UTF-8"?><svg id="Layer_1" xmlns="http://www.w3.org/2000/svg" viewBox="0 0 2000 3000"><path d="M1082.311,2867.474c-.697,0-1.377-.04-2.046-.122-11.18-1.364-20.432-18.134-28.286-51.267-6.435-27.141-12.08-66.096-16.78-115.781-7.875-83.231-11.887-182.067-14.748-259.442-41.592,3.238-84.011,8.562-123.898,13.729-.57,3.025-1.145,6.042-1.73,9.072l-2.455-.474,2.455.474c-5.916,30.629-23.917,123.836-49.817,209.536-29.29,96.918-60.113,156.658-91.613,177.562-11.385,7.555-23.024,10.146-34.592,7.704-32.3-6.824-64.653-36.18-91.1-82.659-38.188-67.112-56.135-154.854-40.859-199.752,21.714-63.816,99.485-100.562,252.165-119.146,14.413-1.754,29.455-3.71,45.379-5.779,2.628-.342,5.27-.686,7.922-1.029,26.767-143.675,35.481-281.285,25.201-398.748-8.688-99.269-30.487-181.777-61.382-232.328-30.676-50.196-47.135-59.188-51.548-56.943-5.301,2.704-7.285,27.115,23.148,100.147,23.896,57.346,29.945,100.729,19.034,136.532-10.421,34.196-35.64,60.337-65.082,88.555-30.937,29.651-50.905,44.353-74.257,42.374-23.651-1.999-50.16-21.737-90.804-57.461-37.21-32.698-53.464-49.37-57.792-67.976-4.474-19.231,4.383-39.678,20.461-76.796,5.59-12.907,11.927-27.535,18.984-44.992,39.656-98.1,31.644-156.577,20.657-175.664-2.688-4.671-5.737-7.468-8.583-7.875-4.564-.675-21.161,18.701-46.32,73.411-22.1,48.059-40.059,100.472-46.869,136.785-4.951,26.403-13.322,39.966-24.878,40.31-.14.004-.284.006-.425.006-20.085.005-42.584-42.081-52.84-83.12-.964-3.859-2.042-7.979-3.185-12.342-8.527-32.577-20.205-77.193-14.995-127.103,2.856-27.363,10.661-53.474,23.196-77.607,14.62-28.147,36.148-54.559,63.989-78.5,33.781-29.051,60.443-54.41,77.104-73.335,22.229-25.251,19.436-30.706,19.044-31.245-.281-.388-7.746-8.989-80.588,35.351-108.762,66.206-117.164,96.689-126.06,128.963-.549,1.992-1.1,3.992-1.676,6.009-2.898,10.138-7.934,10.437-10.676,9.709-8.743-2.312-17.958-22.655-22.933-50.621-3.451-19.397-7.582-58.75,3.516-104.366,9.154-37.628,8.822-70.508,8.528-99.518-.431-42.591-.742-73.363,30.673-89.077,27.931-13.962,83.471-6.967,132.472-.794,39.674,4.998,77.148,9.718,86.776,1.161,2.891-2.569,2.65-4.392,2.118-5.692-2.883-7.049-22.207-15.426-50.43-21.86-27.189-6.199-58.101-9.538-78.743-8.501-9.008.451-18.281,1.471-27.248,2.457-26.021,2.861-48.492,5.333-56.582-6.562-5.717-8.407-3.1-22.315,8.234-43.77,18.762-35.514,67.289-92.221,118.01-137.9,36.172-32.577,103.711-86.553,149.709-81.95,18.702,1.87,34.055,11.71,45.634,29.246,31.534,47.759,27.279,140.293,12.083,188.73l-1.18,3.761q-18.61,59.271-6.78,138.517l.468,3.135c6.519,43.681-1.07,117.84-9.105,196.355-4.092,39.983-8.255,80.666-10.977,119.993,30.183-126.781,30.464-138.289,31.517-181.627l.013-.522c.644-26.459,15.402-81.077,31.027-138.901,15.211-56.291,30.939-114.498,34.665-150.555,5.356-51.762,14.034-75.583,29.953-82.22,11.991-4.998,27.897.683,48.631,17.37l1.413,1.137c26.057,20.968,55.59,44.733,76.549,69.332.94,1.104,1.855,2.2,2.746,3.291,2.175-4.407,4.567-8.962,7.192-13.662,50.016-89.563,65.327-175.218,58.386-216.9-2.591-15.562-13.052-19.144-25.165-23.291-15.183-5.198-32.39-11.09-33.537-42.709-1.871-51.835,33.048-113.025,109.891-192.567,48.833-50.55,54.053-68.562,52.031-70.887-.053-.062-5.868-5.814-48.763,25.386-53.377,38.824-152.73,111.091-160.685,158.809-3.462,20.767-8.787,31.107-16.759,32.544-.607.109-1.225.165-1.85.165-9.811.001-21.987-13.521-39.075-43.243-30.24-52.601-77.266-187.716-64.688-241.812,12.051-51.829,60.399-51.625,148.179-51.26,7.752.032,15.823.066,24.216.066,74.204,0,122.841-14.93,123.725-25.208.133-1.542-1.243-9.594-41.482-16.568-93.207-16.155-195.445-30.38-228.903,5.56-8.318,8.933-14.939,12.053-20.235,9.543-12.579-5.963-12.716-43.209-.492-132.845,1.228-8.999,2.225-17.498,3.189-25.717,3.955-33.695,7.078-60.31,21.571-78.215,15.328-18.938,42.752-26.904,88.936-25.809,103.504,2.438,122.441,21.896,122.441,59.339,0,53.758,18.792,84.365,57.449,93.568,33.867,8.063,101.081,102.194,165.18,200.077-3.882-10.218-7.328-19.477-10.24-27.535-19.701-54.519-44.507-86.364-62.618-109.617-16.891-21.685-29.095-37.352-27.2-58.2,1.004-11.042,4.012-20.743,6.664-29.302,7.488-24.157,12.436-40.117-34.272-61.671-22.604-10.432-36.435-31.04-39.993-59.596-2.4-19.252.005-41.583,6.771-62.879,6.119-19.26,15.038-35.02,23.857-42.158,15.363-12.433,85.041-17.001,140.041-17.136,57.794-.113,131.947,4.179,166.799,16.727,3.916,1.41,7.947,2.838,12.039,4.289,42.281,14.986,86.002,30.482,86.013,51.755.006,13.468-18.021,26.426-55.11,39.613-68.741,24.441-106.347,66.329-133.565,99.194,11.642-5.101,25.26-10.381,41.015-15.507,32.518-10.58,59.754-22.825,81.638-32.666,49.176-22.109,78.854-35.454,98.201,2.324,24.751,48.337,76.85,202.346,60.621,233.456-4.142,7.936-17.988,12.254-44.896,14.002-22.623,1.471-51.889.853-80.191.255-50.27-1.06-102.254-2.158-118.308,8.159-1.269.815-1.903,1.393-2.216,1.739,4.554,2.991,32.671,3.397,57.583,3.758,66.016.955,156.426,2.262,175.342,35.37,18.224,31.886,17.819,84.801,15.957,113.506-2.55,39.286-10.843,79.695-19.72,96.085-1.593,2.94-4.054,4.808-7.314,5.549-1.043.237-2.161.353-3.348.353-15.783.002-43.861-20.352-76.021-43.662-34.452-24.973-73.501-53.271-88.891-47.006-2.207.899-2.63,2.035-2.756,2.812-1.752,10.802,34.814,42.123,67.076,69.757,41.152,35.249,83.704,71.697,87.521,93.954,4.046,23.599-19.014,54.668-45.715,90.645-24.621,33.175-52.528,70.777-61.693,107.435-5.567,22.267-11.649,33.906-20.335,38.918-9.531,5.5-20.666,2.309-36.074-2.104-17.488-5.01-39.256-11.247-69.573-8.401-29.088,2.728-45.172.296-53.787-8.13-9.647-9.438-8.536-24.965-6.998-46.458.839-11.719,1.79-25.001,1.214-40.016-2.824-73.301-20.203-200.013-35.537-212.756-1.523.719-6.69,6.373-18.803,45.609-8.396,27.2-18.02,63.359-27.327,98.328-8.852,33.259-18.005,67.65-25.835,93.225-11.753,38.386-16.836,44.832-20.579,46.081-.973.324-1.999.482-3.074.482-14.29.001-37.519-27.876-66.023-63.96-5.589-7.074-10.749-13.606-15.241-19.016-5.092,17.132-9.842,35.594-13.791,55.342-7.895,39.475-16.777,71.018-24.614,98.848-17.231,61.189-27.632,98.124-7.119,145.997,8.6,20.065,17.614,36.682,24.856,50.034,10.788,19.888,16.203,29.871,11.732,34.797-3.946,4.349-13.687,2.256-38.602-8.284-33.774-14.289-77.995-26.2-115.402-31.086-42.053-5.493-70.686-1.426-78.553,11.159-1.296,2.074-1.014,3.36-.689,4.147,3.192,7.731,30.726,14.155,59.877,20.955,55.133,12.861,130.639,30.475,161.801,75.735,40.518,58.848,37.308,140.847,22.086,180.277-3.266,8.461-8.691,18.906-15.993,20.624-.561.132-1.172.197-1.83.197-9.901.002-30.967-14.734-65.853-39.742-48.508-34.774-114.947-82.39-151.11-77.878-10.331,1.292-11.278,3.624-11.363,4.078-.172.919.444,4.678,15.598,14.428,10.833,6.969,26.278,15.291,42.63,24.102,36.237,19.525,77.31,41.655,96.422,63.14,10.636,11.957,23.169,22.294,35.289,32.292,35.95,29.654,69.906,57.664,36.777,117.117-30.484,54.707-69.565,93.999-98.685,113.183,7.948,36.845,15.697,88.554,23.186,154.848,10.263,90.843,18.481,197.063,22.75,266.179,1.158,18.741,2.255,48.764,3.525,83.527.182,4.97.367,10.052.558,15.239,29.024-2.141,57.594-3.225,84.587-2.485,83.161,2.269,134.204,21.648,156.047,59.247,14.698,25.302,12.251,68.261-7.079,124.231-16.057,46.492-43.706,101.122-75.859,149.881-32.585,49.415-75.651,101.112-100.64,101.117ZM1025.439,2440.482c2.859,77.344,6.868,176.185,14.736,259.35,12.466,131.771,29.011,161.131,40.694,162.557,18.159,2.218,57.484-37.486,97.906-98.785,31.933-48.425,59.381-102.646,75.308-148.761,18.841-54.555,21.428-96.08,7.48-120.087-20.899-35.976-70.573-54.543-151.859-56.761-26.858-.734-55.326.35-84.266,2.487ZM891.336,2455.267c-2.109.274-4.214.548-6.308.82-15.935,2.071-30.987,4.027-45.419,5.784-150.524,18.321-227.021,54.034-248.036,115.795-7.165,21.057-6.902,52.917.739,89.711,7.618,36.687,21.729,74.316,39.733,105.958,25.729,45.218,56.906,73.714,87.788,80.238,10.206,2.159,20.567-.191,30.793-6.978,34.089-22.623,85.925-107.586,139.286-383.881.48-2.487.954-4.963,1.424-7.448ZM806.041,1756.755c16.047,0,42.907,40.938,54.35,59.661,31.29,51.196,53.343,134.478,62.097,234.5,10.281,117.468,1.644,254.974-24.97,398.508,39.548-5.119,81.539-10.362,122.748-13.563-.193-5.255-.381-10.402-.565-15.435-1.269-34.729-2.365-64.724-3.519-83.401-7.641-123.707-24.135-317.205-45.479-418.46-10.028,6.101-18.652,9.593-25.024,10.262-7.107.749-13.189-5.737-17.593-18.759-7.144-21.122-8.554-58.051,4.137-65.784,5.521-3.362,12.264-.99,20.042,7.06,7.408,7.665,14.699,27.452,21.833,59.173,7.598-5.129,16.221-11.897,25.687-20.589,18.405-16.9,45.449-46.208,69.77-89.854,31.101-55.814.194-81.308-35.592-110.826-12.267-10.118-24.951-20.581-35.843-32.826-18.525-20.824-59.185-42.732-95.059-62.061-41.173-22.185-62.575-34.21-60.771-43.852,1.058-5.655,9.442-7.343,15.657-8.119,38.11-4.765,102.725,41.557,154.644,78.775,27.732,19.881,56.399,40.441,63.624,38.741,3.922-.923,8.586-7.486,12.474-17.558,14.826-38.407,17.945-118.292-21.541-175.641-30.063-43.666-104.481-61.025-158.818-73.701-35.643-8.315-59.19-13.808-63.363-23.917-1.153-2.794-.793-5.723,1.071-8.706,11.64-18.618,51.801-17.6,83.441-13.466,37.823,4.94,82.542,16.987,116.703,31.439,11.385,4.816,19.258,7.706,24.775,9.094,6.782,1.707,8.053.569,8.176.434,2.087-2.299-5.623-16.512-12.426-29.052-7.291-13.442-16.366-30.172-25.057-50.449-21.208-49.498-10.025-89.21,6.902-149.322,7.812-27.743,16.667-59.188,24.524-98.473,4.225-21.125,9.354-40.784,14.835-58.912-1.948-2.242-3.728-4.187-5.312-5.771-15.914-15.914-1.623-81.705,16.133-116.211,9.925-19.288,20.381-28.615,30.256-26.972,4.162.693,7.15,2.601,8.881,5.671,5.465,9.691-2.389,29.42-15.4,62.107-8.657,21.748-19.319,48.532-28.973,80.008,5.021,5.917,10.942,13.414,17.438,21.635,11.664,14.765,24.885,31.5,36.795,43.929,16.108,16.811,23.468,19.017,26.798,17.905,1.459-.558,6.09-5.877,17.466-43.081,7.783-25.452,16.891-59.673,25.698-92.767,25.995-97.669,39.358-144.055,49.559-147.463,1.529-.51,3.074-.239,4.353.766,19.894,15.64,35.361,158.919,37.584,216.609.587,15.29-.374,28.718-1.223,40.565-1.441,20.15-2.484,34.709,5.508,42.526,7.354,7.193,22.721,9.268,49.823,6.726,31.258-2.932,54.47,3.718,71.417,8.573,14.226,4.076,24.506,7.019,32.198,2.58,7.3-4.212,12.846-15.253,17.983-35.8,9.406-37.625,37.629-75.651,62.529-109.201,26.018-35.055,48.486-65.33,44.802-86.82-3.511-20.478-47.253-57.945-85.846-91.001-43.995-37.685-70.854-61.437-68.759-74.355.339-2.089,1.621-4.938,5.806-6.641,17.955-7.317,54.755,19.352,93.711,47.588,30.779,22.31,62.613,45.374,75.326,42.482,1.846-.42,3.125-1.391,4.026-3.056,16.104-29.735,33.82-152.235,3.817-204.729-17.5-30.63-109.917-31.967-171.072-32.852-45.888-.664-60.867-1.39-62.608-7.481-1.027-3.598,3.068-6.23,4.61-7.221,17.337-11.143,67.748-10.079,121.117-8.952,53.087,1.118,113.262,2.39,120.548-11.572,14.214-27.244-32.606-174.12-60.639-228.864-17.179-33.547-42.082-22.351-91.699-.042-21.994,9.889-49.367,22.196-82.142,32.86-19.943,6.488-36.413,13.212-49.781,19.519-14.301,17.387-26.827,32.275-40.77,39.682-15.166,8.056-18.69,5.558-19.849,4.738-1.404-.997-2.044-2.655-1.756-4.55.924-6.067,12-16.531,28.906-27.307,7.303-4.656,17.302-10.401,30.306-16.589.317-.386.636-.773.955-1.162,28.048-34.128,66.461-80.868,141.316-107.483,34.368-12.22,51.791-23.962,51.786-34.9-.01-17.742-45.85-33.99-82.683-47.044-4.1-1.454-8.14-2.885-12.062-4.298-65.913-23.731-277.591-20.161-302.001-.409-14.951,12.1-34.068,58.367-28.812,100.532,2.325,18.655,10.654,43.458,37.128,55.674,50.686,23.39,44.625,42.94,36.953,67.692-2.58,8.322-5.504,17.756-6.46,28.274-1.717,18.88,9.375,33.12,26.164,54.674,18.318,23.517,43.405,55.724,63.377,110.99,4.843,13.402,11.206,30.23,18.62,49.323,17.712,27.335,34.979,54.512,51.025,79.769,13.72,21.594,26.679,41.99,37.488,58.604,38.481,59.147,59.182,113.276,69.771,148.268,11.989,39.625,16.958,75.432,12.656,91.223-.811,2.977-2.861,3.377-3.706,3.411-2.774.122-7.507.313-33.666-53.684-14.391-29.703-33.538-72.354-55.375-123.343-28.671-66.946-60.326-144.434-82.642-201.88-65.811-101.448-140.748-209.521-174.973-217.669-24.163-5.753-41.416-19.827-51.28-41.831-6.736-15.025-10.011-33.54-10.011-56.602,0-16.03-3.147-28.564-18.507-37.633-17.299-10.214-48.773-15.522-99.051-16.707-44.48-1.053-70.674,6.34-84.932,23.956-13.582,16.78-16.631,42.76-20.491,75.652-.967,8.242-1.967,16.765-3.201,25.81-5.413,39.69-8.146,66.414-8.86,86.646-1.146,32.437,3.605,39.613,6.539,41.004,2.948,1.396,8.071-1.598,14.434-8.432,35.16-37.769,138.919-23.458,233.416-7.08,31.491,5.458,46.41,12.63,45.61,21.924-1.582,18.394-68.04,29.779-128.707,29.779-8.4,0-16.478-.034-24.237-.066-42.93-.182-76.843-.321-100.61,5.741-24.584,6.271-37.349,18.728-42.678,41.651-12.316,52.969,34.256,186.187,64.152,238.188,16.275,28.31,28.283,41.991,35.703,40.65,3.749-.675,8.998-6.159,12.713-28.445,3.497-20.975,22.603-47.06,58.412-79.748,30.54-27.877,68.159-56.022,104.263-82.283,14.869-10.815,27.097-18.491,36.344-22.815,10.043-4.696,16.123-5.27,19.134-1.808,3.67,4.22.894,12.721-8.737,26.752-9.138,13.312-24.17,30.91-43.472,50.89-75.834,78.5-110.308,138.528-108.489,188.913,1.022,28.184,15.175,33.029,30.159,38.16,12.486,4.275,25.397,8.695,28.478,27.2,3.604,21.646,1.092,53.885-6.895,88.451-9.922,42.946-27.924,88.49-52.058,131.709-2.994,5.359-5.689,10.555-8.104,15.575,19.817,25.765,25.584,47.917,17.639,67.515-5.406,13.333-13.25,21.441-21.521,22.246-5.209.511-9.903-2.005-13.219-7.076-7.724-11.811-8.541-39.762,11.25-82.049-1.324-1.661-2.708-3.34-4.153-5.036-20.653-24.241-49.992-47.85-75.878-68.679l-1.413-1.137c-19.177-15.433-33.431-20.88-43.572-16.65-13.787,5.748-21.833,29.111-26.903,78.12-3.767,36.458-19.549,94.863-34.812,151.345-15.544,57.526-30.227,111.861-30.856,137.719l-.012.521c-1.136,46.729-1.378,56.773-38.237,210.186-1.317,26.391-1.783,51.907-.911,75.881,2.527,69.549-12.692,116.423-24.179,122.236-2.283,1.155-4.585.961-6.487-.546-11.081-8.78-6.059-63.344,13.107-142.398,4.973-20.513,9.457-39.063,13.499-55.886,2.411-47.978,7.608-98.768,12.694-148.47,8.002-78.192,15.56-152.048,9.134-195.107l-.468-3.134q-11.999-80.383,6.955-140.752l1.181-3.76c7.941-25.313,12.119-60.118,11.175-93.102-1.101-38.459-9.148-70.911-22.661-91.376-10.709-16.22-24.826-25.312-41.958-27.026-44.065-4.396-110.306,48.666-145.866,80.69-50.331,45.33-98.417,101.468-116.935,136.521-10.091,19.102-12.958,32.096-8.521,38.622,6.398,9.41,28.502,6.978,51.901,4.404,9.04-.994,18.387-2.022,27.544-2.48,42.281-2.122,126.063,13.937,134.051,33.462,1.133,2.77,1.458,6.983-3.425,11.323-11.324,10.063-48.118,5.429-90.722.062-48.296-6.084-103.038-12.979-129.611.306-28.621,14.315-28.322,43.777-27.91,84.554.282,27.852.633,62.515-8.669,100.75-10.881,44.727-6.833,83.297-3.452,102.308,5.351,30.083,14.5,45.396,19.289,46.663,2.346.614,3.993-4.162,4.589-6.249.571-2.001,1.119-3.986,1.664-5.964,9.167-33.256,17.825-64.668,128.28-131.904,24.802-15.098,44.817-25.764,59.49-31.701,15.515-6.279,24.33-7.016,27.743-2.318,2.653,3.65,3.536,11.507-19.335,37.488-16.811,19.096-43.644,44.623-77.597,73.822-117.069,100.674-86.849,216.128-70.613,278.152,1.146,4.377,2.228,8.511,3.198,12.396,10.792,43.186,32.688,79.334,47.979,79.334.096,0,.19-.002.286-.005,8.762-.261,15.716-12.79,20.113-36.233,8.224-43.853,29.795-100.016,47.241-137.952,10.173-22.122,20.127-40.942,28.786-54.426,13.236-20.609,19.346-22.343,22.785-21.846,4.465.639,8.687,4.211,12.209,10.33,7.571,13.154,10.925,36.117,9.201,63-2.189,34.148-12.41,74.617-29.556,117.032-7.08,17.514-13.43,32.173-19.032,45.105-31.779,73.366-33.681,77.759,36.043,139.028,39.841,35.019,65.653,54.353,87.924,56.234,21.436,1.81,40.519-12.387,70.376-41.001,60.424-57.913,94.918-99.502,44.892-219.554-12.104-29.046-38.36-97.57-20.805-106.525,1.162-.592,2.413-.871,3.736-.871ZM937.388,1847.851c-.903,0-1.766.216-2.564.702-8.627,5.257-9.694,37.173-2.003,59.912,3.463,10.24,7.947,15.854,12.334,15.389,5.352-.562,13.705-3.716,24.445-10.416-6.568-29.938-13.584-51.019-20.931-58.62-3.276-3.389-7.605-6.967-11.282-6.967ZM711.704,1732.473c-2.407,9.966-4.944,20.448-7.627,31.517-24.872,102.589-19.161,133.896-14.862,137.302.226.179.441.35,1.125.004,8.57-4.337,23.904-49.775,21.439-117.594-.597-16.44-.571-33.583-.075-51.229ZM976.981,1225.733c-16.749,36.888-17.889,63.567-10.523,74.83,1.59,2.431,4.367,5.243,8.55,4.836,6.264-.61,12.758-7.769,17.372-19.149,7.019-17.311,1.985-37.182-15.399-60.517ZM1298.98,644.253c20.948,53.061,47.601,118.002,72.093,175.292,21.544,50.396,40.574,92.935,55.034,123.018,19.837,41.27,27.353,51.367,30.001,53.776,6.637-28.382-15.238-131.87-82.027-234.526-10.824-16.637-23.79-37.044-37.517-58.649-11.707-18.425-24.383-38.375-37.584-58.91ZM1126.817,857.545c-7.054,0-15.579,8.774-23.639,24.438-19.826,38.53-29.065,98.367-17.044,110.388,1.086,1.086,2.254,2.327,3.496,3.705,9.458-30.36,19.771-56.267,28.192-77.425,11.6-29.14,19.98-50.193,15.69-57.801-.615-1.092-1.839-2.61-5.348-3.195-.442-.074-.893-.11-1.349-.11ZM1291.223,393.282c1.319.171,5.52-.476,14.302-5.14,10.801-5.737,21.009-16.636,32.098-29.815-8.798,4.566-15.864,8.78-21.362,12.358-18.148,11.808-24.553,20.074-25.037,22.597Z" style="stroke-width:0px;"/></svg>