<?xml version="1.0" encoding="utf-8"?>
<!-- Generator: Adobe Illustrator 24.0.1, SVG Export Plug-In . SVG Version: 6.00 Build 0)  -->
<svg version="1.1" id="Слой_3" xmlns="http://www.w3.org/2000/svg" xmlns:xlink="http://www.w3.org/1999/xlink" x="0px" y="0px"
	 viewBox="0 0 1600 1600" style="enable-background:new 0 0 1600 1600;" xml:space="preserve">
<style type="text/css">
	.st0{fill:#EBF0EE;}
	.st1{fill:#0A0A09;}
</style>
<g>
	<path class="st1" d="M697.9,1335.78c-3.82,0-7.5-0.78-10.52-2.3c-6.98-3.53-9.39-10.18-6.61-18.24
		c3.45-10.03,13.73-23.67,23.67-36.86c10.67-14.16,21.7-28.81,22.56-37.02c0.98-9.36-0.33-45.33-1.59-80.12
		c-0.94-25.89-1.82-50.35-1.82-64.41c0-13.71,2.27-28.75,4.27-42.03c2.46-16.33,5-33.21,0.25-34.48c-6.2-1.65-8.16-1.21-15.46,0.43
		c-4.19,0.94-9.92,2.24-18.97,3.72c-25,4.09-77.97,5.42-78.5,5.43c-20,0.66-31.91-2.48-37.45-9.87c-7.2-9.61-3.13-24.88,3.62-45.71
		c-7.77,0.59-15.65,1.11-23.06,1.11c-28.84,0-40.84-20.53-54.63-49.54c-2.49-5.24-4.33-10.12-5.79-14.71
		c-17.76,0.17-30.61-2.47-53.96-51.67c-8.46-17.84-10.51-31.64-6.26-42.2c6.12-15.2,24.02-21.97,44.74-29.82
		c4.14-1.57,8.41-3.19,12.69-4.91c17.95-7.24,49.12-10.07,82.11-13.05c39.28-3.56,79.91-7.23,103.68-18.57
		c5.22-2.49,9.82-6.21,13.75-11.11c-1.8-2.46-2.72-4.96-1.91-7.06c0.92-2.37,3.72-3.5,8.45-3.4c1.27-2.6,2.43-5.41,3.48-8.4
		c12.97-37.18,4.44-91.39-0.64-101.8c-1.4-2.88-2.84-4.41-4.53-4.83c-3.68-0.92-9.63,3.4-17.87,9.38
		c-5.66,4.11-12.71,9.22-21.44,14.46c-29.52,17.71-46.43,25.72-74.79,29.48c-27.6,3.66-73.94-6.6-77.79-7.47
		c-6.15,0.22-22.36,1.99-26.56,7.72c-1.68,2.29-2.91,4.47-4.22,6.78c-2.98,5.29-6.07,10.75-14.76,17.99
		c-5.49,4.58-7.18,8.02-8.19,10.07c-1.73,3.53-3.07,3.87-7.5,1.89c-1.79-0.8-2.98-2.17-3.42-3.96c-0.03-0.11-0.05-0.22-0.07-0.34
		c-1.28,2.24-2.66,4.76-4.1,7.53c-6.79,13.1-8.41,13.9-10.11,13.62c-1.66-0.27-1.97-2.21-2.07-2.85c-0.18-1.14,0.49-3.6,2.08-7.95
		c-2.73,4.43-5.12,7.2-7.37,7.45c-1.03,0.11-2-0.29-2.72-1.14c-1.79-2.12-0.53-6.09,2.9-11.96c-1.36,1.08-2.55,1.58-3.78,1.3
		c-1.88-0.42-2.7-2.49-3.15-4.01c-2.51-8.37,27.99-43.86,44.03-57.74c16.45-14.24,41.59-15.85,79.65-18.29
		c3.89-0.25,7.93-0.51,12.12-0.79c32.25-2.17,51.06-10.87,77.1-22.92c10.03-4.64,21.39-9.89,34.78-15.28
		c31.02-12.48,43.66-28.39,52.02-38.91c4.3-5.41,7.4-9.32,11.39-10.65c3.09-1.03,5.7-1.39,7.79-1.68c5.25-0.72,7.43-1.02,9.78-10.87
		c0.94-3.95,1.75-7.33,2.1-9.34c-0.61,0.54-1.33,1.2-2.04,1.86l-0.82,0.76c-4.45,4.1-9.26,3.18-15.93,1.9
		c-4.66-0.9-10.46-2.01-18.28-2.01c-5.44,0-7.16,0.91-7.64,1.68c-0.79,1.25,0.61,4.19,2.1,7.29c1.85,3.87,4.15,8.68,4.15,13.87
		c0,14.19-5.91,17.83-30.93,30.95c-13.83,7.25-22.04,10.73-28.64,13.53c-5.26,2.23-9.41,3.99-14.65,6.88
		c-7.1,3.93-9.05,3.52-12.77,2.21c-2.44-0.85-5.77-2.03-13.23-2.03c-7.41,0-9.44,3.14-11.8,6.77c-2.95,4.56-6.31,9.73-19.74,8.55
		c-9.1-0.8-14.75-2.96-17.79-6.8c-3.99-5.04-2.96-12.05-1.66-20.91c0.16-1.09,0.32-2.21,0.48-3.35
		c1.51-10.92,14.29-18.95,23.87-23.49c-3.64,1.06-8.15,2.86-13.47,5.85c-15.71,8.84-24.56,27.97-24.65,28.17l-2.86,6.29l0-13.81
		c0-7.57,9.12-19.44,15.25-25.57c2.75-2.75,8.07-4.58,12.15-5.85c-0.14-0.01-0.29-0.01-0.44-0.02c-15.69-0.71-20.64,5.47-20.69,5.53
		l-8.16,10.56l5.6-12.1c0.21-0.45,5.25-11.11,15.46-14.33c4.19-1.32,12.52-3.41,22.16-5.83c12.99-3.25,27.71-6.94,37.32-10
		c14.24-4.53,45.87-24.77,54.41-30.32c-7.17-3.62-30.14-15.01-55.27-25.07c-31.64-12.65-63.34-8.73-131.75,48.78
		c-39.75,33.41-59.92,89.55-77.72,139.08c-13.73,38.21-26.7,74.31-46.75,95.69c-13.04,13.91-24.4,19.73-34.71,17.77
		c-17.35-3.28-27.1-27.78-35.7-49.38c-2.28-5.73-4.44-11.15-6.59-15.76c-2.29-4.91-4.44-7.45-6.4-7.56
		c-3.62-0.19-8.37,7.56-13.86,16.54c-8.36,13.69-19.82,32.45-37.95,41.76c-8.84,4.54-17.4,5.08-25.46,1.61
		c-21.87-9.43-32.4-44.93-32.84-46.44l2.88-0.84c0.1,0.36,10.58,35.66,31.15,44.52c7.19,3.1,14.89,2.59,22.9-1.52
		c17.38-8.92,28.58-27.26,36.76-40.65c6.48-10.61,11.17-18.29,16.59-17.98c3.23,0.18,6.07,3.13,8.95,9.29
		c2.19,4.69,4.36,10.15,6.66,15.92c7.91,19.86,17.74,44.57,33.47,47.55c9.09,1.72,19.85-3.96,31.97-16.88
		c19.62-20.93,32.49-56.74,46.11-94.65c17.93-49.89,38.24-106.43,78.61-140.36c33.69-28.32,59.77-44.71,82.1-51.6
		c18.54-5.72,34.3-5.02,52.7,2.34c30.36,12.14,57.56,26.22,57.84,26.36l2.26,1.17l-2.13,1.41c-1.64,1.09-40.45,26.73-57.31,32.09
		c-9.7,3.09-24.47,6.79-37.5,10.05c-9.6,2.41-17.89,4.48-21.99,5.78c-4.17,1.32-7.41,4.16-9.68,6.82c3.63-1.49,9.02-2.69,16.7-2.34
		c6,0.27,7.54,0.52,7.75,2.16c0.21,1.65-1.25,2.1-5.17,3.29c-3.89,1.19-9.77,2.98-12.31,5.53c-5.97,5.97-14.37,17.19-14.37,23.45
		v0.88c3.89-6.63,11.67-17.75,23.04-24.15c16.63-9.36,25.92-7.65,26.31-7.57l5.68,1.13l-5.51,1.76c-0.3,0.1-30.28,9.86-32.42,25.33
		c-0.16,1.15-0.32,2.28-0.48,3.37c-1.19,8.15-2.13,14.59,1.05,18.62c2.49,3.15,7.48,4.95,15.7,5.67
		c11.64,1.02,14.22-2.97,16.96-7.19c2.47-3.81,5.27-8.14,14.31-8.14c7.98,0,11.74,1.32,14.23,2.2c2.98,1.04,4.09,1.44,10.32-2.01
		c5.37-2.97,9.59-4.76,14.93-7.02c6.55-2.78,14.7-6.23,28.42-13.42c25.27-13.24,29.32-16.25,29.32-28.29c0-4.5-2.05-8.79-3.86-12.57
		c-1.93-4.04-3.6-7.53-1.93-10.19c1.19-1.88,3.78-2.84,8.29-3.04c-0.87-0.21-1.65-0.4-2.32-0.58c-6.72-1.75-10.59-3.4-13.13-5.63
		c-6.58,14.84-19.33,29.83-35.33,29.09l0.14-3c14.86,0.68,26.98-14.37,32.98-28.63c-1.51-2.28-2.45-5.14-3.7-8.97
		c-1-3.05-2.24-6.85-4.18-11.56c-6.77-16.49-0.08-32.16,6.39-47.32c1.57-3.69,3.2-7.5,4.57-11.22c5.78-15.63,11.04-20.36,21.5-29.77
		c2.27-2.04,4.85-4.36,7.73-7.06c16.29-15.25,50.89-12.52,62.7-5.29c11.37,6.96,29.53,37.2,30.79,41.87
		c0.42,1.56,4.26,2.31,7.34,2.91c4.04,0.79,7.87,1.53,9.37,4.14c1.72,2.99,0.84,6.48,0.13,9.29c-0.4,1.57-0.81,3.19-0.53,3.99
		c0.41,1.19,0.96,2.04,1.39,2.72c0.64,0.99,1.36,2.11,0.7,3.43c-0.09,0.53,0.92,2.54,1.4,3.51c0.48,0.95,0.59,2.02,0.73,3.37
		c0.19,1.83,0.45,4.34,1.77,8.02c2.77,7.68,1.95,16.19-2.18,22.75c-1.78,2.83-6.34,6.73-11.62,11.25
		c-8.2,7.02-18.4,15.76-21.61,23.42c-1.13,2.71-1.18,4.8-0.12,6.24c2.22,3.03,8.92,3.15,11.43,2.93
		c1.77-0.38,31.64-6.84,49.44-18.49c19.61-12.84,102.4-69.55,127.6-87.79c25.7-18.6,47.46-50.17,49.67-56.79
		c2.83-8.48,5.21-8.56,5.99-8.58c0.54-0.01,1.87,0.15,2.62,2.03c0.47,1.18,0.37,3.48,0.04,5.93c1.16-2.06,2.4-4.37,3.51-6.69
		c1.35-2.83,3.02-5.64,5.22-5.01c1.76,0.51,2.39,2.93,1.88,7.19c-0.21,1.75-0.78,4.11-1.46,6.56c4.36-6.53,5.61-6.84,6.83-6.52
		c0.44,0.12,1.46,0.58,1.46,2.34c0,0.6,0.04,1.19,0.07,1.78c0.3,4.95,0.63,10.56-15.44,28.33c-19.01,21.02-18.3,24.61-17.97,25.11
		c0.01,0.01,0.9,0.9,6.32-0.98c9.88-3.44,14.44-3.93,16.27-1.77c1.62,1.92,0.31,4.95-1.18,7.66c-3.18,5.79-17.34,9.52-29.83,12.81
		c-3.43,0.9-6.67,1.76-9.17,2.54c-6.75,2.11-20.79,16.19-40.23,35.68c-10.74,10.77-22.92,22.98-36.8,36.15
		c-14.4,13.66-29.69,26.92-43.18,38.61c-23.69,20.54-44.15,38.28-48.92,48.75c-8.62,18.97-9.06,84.91-9.06,97.93
		c0,5.96-0.82,11.76-2.32,17.2c7.17-3.06,15.36-3.57,23.07-1.24c12.44,3.75,28.95,4.58,49.08,2.46
		c38.37-4.04,85.06-20.66,119.15-32.8c17.87-6.36,31.98-11.39,40.54-13.13c20.77-4.24,23.37,2.68,31.08,23.21
		c2.14,5.7,4.8,12.79,8.38,21.07c10.65,24.62,17.72,73.38-0.91,99.87c-2.78,3.95-6,7.21-9.65,9.77c-1.07,2.87-2.07,5.77-3.11,8.79
		c-6.86,19.92-13.96,40.51-43.65,57.59c-35.49,20.42-38.87,28.67-60.87,82.33l-0.28,0.68c-6.94,16.93-19.88,24.62-36.57,21.8
		c8.37,6.07,14.79,11.77,18.34,16.57c2.98,4.03,6.67,8.39,10.58,13.02c12.91,15.28,28.98,34.29,38.66,62.28
		c12.26,35.46,34.75,73.98,49.41,90.74c14.89,17.02,15.37,25.83,16.03,38.01c0.3,5.47,2.56,11.84,5.19,19.22
		c3.25,9.14,6.94,19.5,8.08,31.44c1.37,14.35,1.1,24.85-4.64,29.44c-3.5,2.8-8.63,3.03-15.71,0.72
		c-13.42-4.39-19.89-32.93-25.09-55.87c-2.42-10.69-4.51-19.91-6.75-24.18c-5.75-10.95-6.95-15.85-9.58-26.6
		c-0.69-2.81-1.47-6-2.46-9.81c-3.74-14.41-19.9-27.12-32.88-37.33c-3.07-2.42-5.98-4.7-8.51-6.84
		c-8.92-7.55-31.23-34.27-49.16-55.74c-9.25-11.08-17.24-20.65-22.13-26.11c-17.72-19.78-47.32-38.53-59.23-45.67
		c-20.04-12.02-64.22-4.24-67.57-0.61c-1.48,1.61-3.85,12.45-3.01,67.04c0.21,13.71-0.57,49.36-12.33,84.25
		c-10.27,30.47-16.99,67.47-17.96,98.97c-1.03,33.26-5.57,41.83-23.13,43.66c-9.77,1.02-10.46,2.81-12.5,8.13
		c-1.12,2.91-2.65,6.91-6.17,12C713.45,1332.75,705.42,1335.78,697.9,1335.78z M721.61,1016.28c2.1,0,4.27,0.35,7.26,1.14
		c7.35,1.96,5.08,17,1.94,37.83c-1.98,13.17-4.23,28.1-4.23,41.58c0,14,0.89,38.44,1.82,64.3c1.26,34.89,2.57,70.96,1.57,80.53
		c-0.94,9.04-11.73,23.35-23.15,38.51c-9.8,13-19.93,26.45-23.23,36.03c-2.27,6.59-0.45,11.77,5.13,14.59
		c7.69,3.88,20.98,2.08,26.6-6.06c3.31-4.8,4.71-8.44,5.83-11.37c2.35-6.12,3.86-8.88,14.99-10.04
		c14.67-1.53,19.41-7.35,20.44-40.77c0.98-31.78,7.76-69.1,18.12-99.84c11.62-34.45,12.39-69.69,12.18-83.24
		c-0.87-56.67,1.57-66.71,3.8-69.13c2.59-2.81,15.59-5.69,29.6-6.56c10.37-0.65,29.58-0.65,41.72,6.64
		c12.02,7.21,41.93,26.16,59.92,46.24c4.93,5.5,12.93,15.09,22.2,26.19c17.85,21.38,40.07,47.99,48.8,55.37
		c2.49,2.11,5.37,4.38,8.43,6.77c13.34,10.49,29.94,23.54,33.93,38.93c0.99,3.83,1.78,7.03,2.47,9.85
		c2.57,10.5,3.75,15.29,9.32,25.92c2.42,4.62,4.55,14.02,7.02,24.91c4.76,21.02,11.29,49.81,23.09,53.68
		c6.03,1.97,10.25,1.91,12.9-0.21c4.98-3.98,4.58-15.79,3.53-26.82c-1.1-11.57-4.73-21.74-7.92-30.72
		c-2.7-7.59-5.04-14.16-5.36-20.06c-0.65-12.02-1.08-19.96-15.29-36.2c-14.85-16.97-37.61-55.92-49.99-91.73
		c-9.5-27.46-25.36-46.24-38.11-61.32c-3.94-4.66-7.66-9.07-10.7-13.17c-4.27-5.77-13.12-13.03-24.67-20.71
		c-4.1-1.5-8.25-3.55-12.33-6.06c-26.21,3.59-58.68-3.27-98.53-11.69c-9.94-2.1-20.22-4.27-31.02-6.41
		c-11.29-2.24-19.86-5.94-26.13-8.64c-5.81-2.51-10-4.32-12.03-3.06c-1.81,1.13-2.85,5.17-3.26,12.74
		c-0.46,8.55,4.7,11.03,10.17,13.65c3.94,1.89,8.01,3.84,9.44,8.19c1.34,4.09,0.07,9.56-4.01,17.2c-3.13,5.86-5.6,9.42-8.98,10.29
		c-3.9,1-8.03-1.7-15.52-6.6c-2.11-1.38-4.5-2.94-7.23-4.65c-3.42-2.14-5.4-5.36-7.15-8.2c-2.1-3.42-3.92-6.37-7.74-7.27
		c-6.91-1.63-19.79,3.61-40.55,16.5c-6.47,4.01-10.25,2.49-12.29,0.5c-7.61-7.43-2.73-34.96,10.03-56.66
		c7.89-13.42,28.86-28.83,57.52-42.28c26.16-12.28,52.32-19.73,66.66-18.97c37.89,2,38.17,20.75,38.39,35.81
		c0.14,9.65,0.25,17.28,8.74,20.18c17.74,6.06,36.7,14.39,54.04,23.37c-15-15.88-25.97-37.29-25.38-57.91
		c0.9-31.15,12.27-53.54,33.82-66.57c16.49-9.97,38.49-14.5,67.29-13.87c10.72,0.24,18.29,5.93,21.87,16.47
		c10.97,32.28-16.94,102.26-43.43,123.56c-8.33,6.7-17.64,10.87-28,13.13c2.5,1.56,4.91,3.11,7.21,4.64
		c1.99,0.7,3.96,1.25,5.91,1.67c11.32,2.4,26.58,0.94,35.02-19.65l0.28-0.68c22.33-54.49,25.77-62.86,62.15-83.79
		c28.71-16.52,35.62-36.58,42.31-55.97c0.61-1.76,1.22-3.54,1.86-5.33c-6.68,3.46-14.56,4.92-23.59,4.36
		c-24.68-1.56-42.02-12.92-47.58-31.18c-5.66-18.58,2.05-39.89,19.19-53.04c20.43-15.68,33.83-11.98,41.47-6.13
		c19.64,15.05,23.19,60.54,16.84,77.8c1.8-1.7,3.45-3.63,4.96-5.78c17.97-25.55,10.98-72.96,0.61-96.96
		c-3.61-8.35-6.29-15.48-8.44-21.2c-7.79-20.74-9.41-25.05-27.67-21.33c-8.35,1.7-22.38,6.7-40.13,13.02
		c-34.24,12.19-81.12,28.88-119.84,32.96c-20.53,2.16-37.44,1.3-50.26-2.57c-7.9-2.38-16.35-1.51-23.41,2.27
		c-6.19,17.92-19.81,31.18-35.18,31.96c-13.82,0.71-21.34-0.07-36.42-4.84c-3.76,1.24-6.93,2.35-9.66,3.29
		c-18.9,6.57-19.31,6.53-43.94-3.67c-3.31-1.37-7.81-4.39-11.07-7.78c-4.13,5.03-8.96,8.87-14.44,11.49
		c-24.26,11.57-65.15,15.27-104.7,18.85c-32.77,2.97-63.71,5.77-81.26,12.85c-4.31,1.74-8.6,3.36-12.75,4.93
		c-20.06,7.59-37.39,14.15-43.02,28.13c-3.92,9.74-1.9,22.75,6.18,39.79c21.98,46.33,34.04,49.96,50.1,49.96c0.08,0,0.15,0,0.23,0
		c-1.28-4.38-2.25-8.47-3.17-12.34c-2.88-12.19-5.16-21.82-15.1-30.04c-11.36-9.4-16.56-17.06-16.88-24.85
		c-0.42-10.43,7.97-20.82,20.7-33.21c6.82-6.64,16.36-9.44,27.58-8.1c21.89,2.62,45.86,20.77,62.56,47.36
		c7.12,11.33,8.12,21.89,2.98,31.37c-12.26,22.62-56.22,32.42-72.48,32.7l-1.92,0.04c-0.08,0-0.16,0-0.24,0
		c1.38,4.23,3.1,8.71,5.36,13.47c13.32,28,24.84,47.83,51.92,47.83c7.72,0,15.69-0.55,24.06-1.2c0.36-1.11,0.73-2.24,1.11-3.38
		c2.93-8.91,6.24-19.01,9.13-29.72c7.78-28.87,21.25-37.32,31.19-39.32c15.41-3.1,31.38,6.99,39.7,17.69
		c11.12,14.29,12.7,40.36,3.27,53.64c-5.06,7.12-12.55,9.46-21.1,6.57c-17.8-6.01-39.17-4.34-59.85-2.74
		c-0.4,0.03-0.81,0.06-1.21,0.09c-6.48,19.91-10.88,35.58-4.45,44.16c4.9,6.54,16.01,9.29,34.96,8.67c0.54-0.01,53.3-1.33,78.1-5.39
		c8.97-1.47,14.65-2.75,18.8-3.68C716.22,1016.87,718.86,1016.28,721.61,1016.28z M724.63,993.56c1.21,0,2.31,0.12,3.33,0.36
		c5.03,1.19,7.36,4.97,9.6,8.62c1.65,2.68,3.36,5.46,6.19,7.23c2.76,1.73,5.16,3.3,7.28,4.69c6.56,4.29,10.51,6.88,13.13,6.21
		c1.99-0.51,3.98-2.98,7.08-8.8c3.61-6.78,4.86-11.64,3.8-14.86c-1.02-3.13-4.2-4.65-7.88-6.42c-5.54-2.66-12.44-5.97-11.87-16.52
		c0.49-9.11,1.8-13.35,4.67-15.13c3.36-2.08,7.91-0.12,14.8,2.85c6.14,2.65,14.54,6.28,25.52,8.45c10.82,2.14,21.11,4.32,31.06,6.42
		c37.78,7.98,68.85,14.54,93.97,12.04c-2.39-1.66-4.75-3.47-7.05-5.42c-19.8-10.94-42.69-21.43-63.45-28.53
		c-10.49-3.58-10.63-13.44-10.77-22.97c-0.22-15.25-0.46-31.01-35.55-32.86c-27.69-1.48-104.45,30.89-121.44,59.77
		c-12.73,21.64-16.43,47.23-10.52,52.99c1.85,1.8,4.74,1.5,8.61-0.9C704.09,999.02,716.55,993.56,724.63,993.56z M919.32,980.37
		c4.46,2.45,8.76,4.93,12.86,7.41c11.23-1.99,21.18-6.1,29.92-13.14c25.84-20.78,53.13-88.9,42.47-120.25
		c-3.18-9.37-9.61-14.23-19.09-14.44c-64.43-1.43-96.5,23.94-98.04,77.52C886.77,940.62,901.22,964.78,919.32,980.37z
		 M614.56,969.48c11.22,0,22.1,1.05,32.02,4.4c9.2,3.11,14.7-1.26,17.7-5.47c7.89-11.11,8.22-35.4-3.19-50.06
		c-7.77-9.99-22.58-19.44-36.74-16.59c-13.05,2.63-23.04,15.48-28.88,37.16c-2.91,10.78-6.23,20.92-9.17,29.87
		c-0.24,0.74-0.48,1.47-0.72,2.2C595.22,970.24,605.01,969.48,614.56,969.48z M504.76,802.33c-8.12,0-15.03,2.58-20.16,7.57
		c-14.38,13.99-20.12,22.96-19.8,30.94c0.28,6.87,5.15,13.86,15.79,22.66c10.71,8.86,13.09,18.92,16.1,31.66
		c0.96,4.06,1.98,8.37,3.36,13c0.37-0.01,0.74-0.01,1.11-0.02l1.93-0.04c15.23-0.26,58.39-9.9,69.9-31.13
		c4.58-8.46,3.61-18-2.89-28.35c-16.23-25.84-39.36-43.46-60.38-45.98C508.03,802.43,506.37,802.33,504.76,802.33z M1065.38,742.9
		c-7.32,0-15.62,3.54-24.83,10.61c-15.9,12.2-23.36,32.67-18.15,49.79c5.18,16.99,21.54,27.58,44.91,29.06
		c9.85,0.62,18.23-1.33,25.03-5.82c0.5-1.34,1.03-2.67,1.57-3.98c6.37-15.41,3.1-60.88-15.54-75.17
		C1074.47,744.4,1070.13,742.9,1065.38,742.9z M698.47,739.75c2.66,2.88,6.65,5.91,10.34,7.44c23.81,9.86,23.81,9.86,41.8,3.61
		c1.76-0.61,3.7-1.29,5.86-2.02c-6.14-2.05-13.48-4.67-22.7-7.98c-16.07-5.77-25.4-7.82-30.82-8.3
		C701.58,735.11,700.08,737.53,698.47,739.75z M766.22,748.73c12.43,3.66,19.16,4.08,31.3,3.46c13.11-0.67,24.85-11.33,31.1-26.22
		c-7.82,5.95-19.51,10.96-34.73,14.87C782.43,743.78,773.42,746.44,766.22,748.73z M704.37,729.62c7,0.79,17.1,3.57,30.41,8.35
		c11.29,4.05,19.69,7.04,26.45,9.21c7.84-2.57,18.11-5.71,31.9-9.25c14.94-3.84,26.32-8.71,33.82-14.47
		c1.1-0.85,2.25-1.62,3.45-2.31c1.91-5.93,2.97-12.38,2.97-19.04c0-13.13,0.45-79.65,9.33-99.17c5.03-11.07,24.73-28.15,49.68-49.78
		c13.47-11.67,28.73-24.91,43.08-38.52c13.85-13.14,26.01-25.33,36.74-36.09c20.48-20.53,34.01-34.1,41.46-36.42
		c2.56-0.8,5.84-1.66,9.3-2.58c10.72-2.82,25.4-6.69,27.96-11.35c1.97-3.58,1.52-4.27,1.52-4.28c-0.12-0.15-1.54-1.31-12.99,2.67
		c-3.66,1.27-8.08,2.4-9.81-0.19c-1.71-2.58-0.68-7.85,18.24-28.78c15.22-16.83,14.93-21.78,14.67-26.14c0-0.03,0-0.05,0-0.08
		c-2.21,2.72-6.16,8.94-9.36,14.53l-2.71-1.26c0.04-0.12,4.54-12.5,5.2-17.88c0.18-1.5,0.17-2.55,0.1-3.23
		c-0.36,0.5-0.86,1.33-1.51,2.69c-3.41,7.16-7.91,14.02-8.1,14.31l-4.84,7.35l2.13-8.54c1.22-4.87,2.23-10.88,1.8-12.4
		c-0.6,0.63-1.72,2.38-3.01,6.26c-2.36,7.07-24.11,38.99-50.76,58.27c-25.23,18.26-108.08,75.02-127.72,87.87
		c-18.75,12.27-49.27,18.67-50.56,18.94l-0.17,0.02c-0.43,0.04-10.51,0.91-14.21-4.13c-1.72-2.34-1.79-5.43-0.22-9.17
		c3.49-8.32,13.99-17.31,22.43-24.54c5.09-4.36,9.49-8.13,11.03-10.57c3.65-5.79,4.36-13.32,1.9-20.14
		c-1.45-4.02-1.74-6.86-1.93-8.73c-0.11-1.05-0.19-1.88-0.42-2.34c-1.05-2.11-2.14-4.28-1.51-5.94c-0.09-0.18-0.28-0.47-0.43-0.71
		c-0.49-0.77-1.17-1.83-1.7-3.35c-0.57-1.64-0.07-3.62,0.45-5.71c0.63-2.52,1.29-5.12,0.17-7.06c-0.82-1.42-4.28-2.09-7.34-2.69
		c-4.3-0.84-8.75-1.7-9.66-5.07c-1.18-4.37-18.89-33.62-29.46-40.09c-1.32-0.81-2.97-1.55-4.88-2.22c0.23,0.4,0.23,0.8,0.21,0.97
		c-0.13,1.33-1.58,1.61-2.06,1.7c-6.04,1.16-9.46,10.55-11.81,32.39c-2.62,24.34-2.94,30.67-0.12,37.02
		c2.48,5.59,4.07,16.75,1.27,19.44c-0.82,0.79-1.96,0.93-3.05,0.39c-1.91-0.95-2.67-2.94-3.48-5.05c-1.14-2.98-2.44-6.36-7.18-8.45
		c-0.78-0.34-2.18-0.84-2.82-0.35c-1.85,1.43-0.62,9.19,0.28,14.86c0.19,1.2,0.38,2.39,0.55,3.56c0.5,3.39,1.48,5.75,2.43,8.03
		c1.9,4.54,3.54,8.47-0.24,17.29c-0.81,1.89-1.94,3.48-3.33,4.79c1.17,1.15,0.56,3.71-1.78,13.52c-2.7,11.32-6.07,12.29-12.29,13.14
		c-2.07,0.28-4.42,0.61-7.25,1.55c-3.14,1.05-6.01,4.66-9.99,9.67c-8.56,10.77-21.49,27.06-53.25,39.83
		c-13.32,5.36-24.65,10.6-34.64,15.22c-25.34,11.72-45.35,20.97-78.16,23.19c-4.19,0.28-8.23,0.54-12.13,0.79
		c-37.45,2.4-62.19,3.99-77.88,17.57c-8.45,7.32-19.84,19.51-29,31.07c-12.13,15.3-14.58,21.99-14.12,23.53
		c0.52,1.72,0.95,1.94,0.95,1.95c0.81,0.07,3.6-2.96,5.81-5.39c1.13-1.25,2.41-2.66,3.82-4.14c1.65-1.72,2.55-2.67,3.73-1.71
		c1.18,0.96,0.73,1.61-1.75,5.23c-9.37,13.66-9.73,16.93-9.12,17.65c0.07,0.08,0.11,0.11,0.11,0.11c0.01,0,0.02,0,0.03,0
		c2.19,0,8.33-11.63,10.65-16.03c1.28-2.43,2.39-4.54,3.29-6.02c0.53-0.88,1.34-2.21,2.68-1.54c1.37,0.68,0.88,1.97,0,4.32
		c-0.55,1.48-1.36,3.5-2.25,5.75c-1.91,4.79-5.32,13.36-5.78,15.99c1.01-1.29,2.92-4.27,6.49-11.17c4.67-9,8.65-15.23,10.92-18.54
		c0.96-1.46,1.76-2.5,2-2.81l2.37,1.84c-0.02,0.02-0.69,0.9-1.84,2.59c-2.02,3.1-4.38,7.62-3.7,10.38c0.22,0.9,0.77,1.51,1.72,1.94
		c2.04,0.91,2.64,0.98,2.82,0.94c0.14-0.11,0.49-0.83,0.78-1.41c1.12-2.27,2.98-6.06,8.97-11.05c8.26-6.89,11.21-12.11,14.06-17.16
		c1.29-2.29,2.62-4.65,4.41-7.08c5.98-8.16,28.14-8.92,29.08-8.95l0.19-0.01l0.19,0.04c0.49,0.11,49.25,11.13,76.92,7.46
		c27.83-3.69,44.5-11.59,73.64-29.08c8.62-5.17,15.61-10.24,21.22-14.32c9.55-6.93,15.31-11.12,20.36-9.86
		c2.61,0.65,4.67,2.69,6.5,6.42c5.22,10.68,14.01,66.18,0.78,104.11C706.53,724.68,705.5,727.22,704.37,729.62z M699.59,732.4
		c-3.37,0.16-3.99,1.22-4.09,1.48c-0.32,0.82,0.1,2.04,1.02,3.44C697.6,735.77,698.63,734.13,699.59,732.4z M731.11,518.21
		c3.73,0.58,6.32,0.5,8.71-1.39C737.12,517.62,734.15,518.04,731.11,518.21z M692.13,506.27c2.18,2.43,5.63,3.87,12.65,5.7
		c8.72,2.27,37.64,8.6,43.69-5.52c3.28-7.66,2-10.72,0.23-14.95c-0.98-2.34-2.08-4.99-2.64-8.75c-0.17-1.15-0.36-2.33-0.54-3.52
		c-1.29-8.15-2.4-15.2,0.86-17.71c1.43-1.1,3.4-1.11,5.86-0.02c5.89,2.6,7.55,6.95,8.77,10.12c0.59,1.54,1.07,2.79,1.81,3.32
		c0.87-1.85,0.42-10.13-2.09-15.8c-3.28-7.38-2.64-15.14-0.12-38.56c2.1-19.55,5.05-29.48,10.27-33.31
		c-8.45-0.24-27.06,1.87-37.22,14.74c-3.72,4.71-5.73,10.29-6.31,15.6c11.96-3.69,22.8-3.05,26.87,1.15
		c2.01,2.08,4.2,6.77-3.82,14.78c-10.38,10.38-17.56,6.11-20.17,3.79c-3.65-3.24-5.84-8.95-6.06-15.39
		c-6.62,2.56-13.46,6.5-19.41,12.06c-0.85,1.16-9.22,12.86-8.87,25.32c1.14-1.82,2.54-3.82,4.26-6.04c2.83-3.67,5.44-5.13,7.76-4.33
		c4.06,1.39,4.46,8.86,4.44,12c-0.04,7.33-2.15,15.9-6.68,17.4c-2.48,0.82-5.02-0.47-7.57-3.85c-1.42-1.89-2.51-3.84-3.31-5.82
		c-0.91,3.52-0.46,6.35,0.12,9.9c0.57,3.51,1.21,7.49,0.78,13.26C695.38,496.04,694.15,501.08,692.13,506.27z M756.18,382.72
		c-12.12,0-25.17,2.8-33.14,10.27c-2.9,2.72-5.49,5.05-7.78,7.1c-10.42,9.37-15.17,13.64-20.69,28.58
		c-1.4,3.78-3.04,7.63-4.63,11.35c-6.22,14.59-12.66,29.68-6.37,45.01c1.98,4.82,3.24,8.67,4.25,11.77c0.84,2.56,1.5,4.59,2.26,6.25
		c1.46-4.15,2.35-8.1,2.6-11.43c0.4-5.41-0.21-9.21-0.75-12.56c-0.8-4.93-1.44-8.93,1.44-15.16c-3.01-15.77,8.92-31.61,9.07-31.81
		l0.16-0.18c6.58-6.17,14.22-10.52,21.62-13.24c0.42-6.24,2.64-12.88,7.08-18.51c11.32-14.34,31.67-16.29,40.71-15.77
		C767.36,383.34,761.87,382.72,756.18,382.72z M696.52,464.23c0.68,2.89,1.93,5.75,3.98,8.46c0.95,1.26,2.76,3.29,4.23,2.81
		c2.47-0.82,4.59-7.49,4.63-14.57c0.03-5.45-1.19-8.73-2.41-9.15c-0.71-0.25-2.24,0.5-4.41,3.32
		C699.71,458.77,697.79,461.72,696.52,464.23z M727.17,420.88c-0.01,6.01,1.83,11.35,5.06,14.22c4.23,3.76,9.93,2.46,16.05-3.67
		c2.66-2.66,6.69-7.58,3.79-10.58C748.85,417.53,738.59,417.13,727.17,420.88z"/>
</g>
</svg>
