<?xml version='1.0' encoding='UTF-8'?>
<!DOCTYPE svg PUBLIC "-//W3C//DTD SVG 20010904//EN" "http://www.w3.org/TR/2001/REC-SVG-20010904/DTD/svg10.dtd">
<svg xmlns="http://www.w3.org/2000/svg" id="Silhouette" version="1.0" width="1024.000000pt" height="1024.000000pt" viewBox="0 0 1024.000000 1024.000000" preserveAspectRatio="xMidYMid meet">
<g transform="translate(0.000000,1024.000000) scale(0.100000,-0.100000)" fill="#000000" stroke="none" id="Silhouette">
<path d="M4852 7950 c-99 -26 -174 -71 -248 -146 -67 -69 -125 -173 -149 -269 -26 -102 -17 -252 20 -337 5 -13 3 -18 -9 -18 -57 0 -10 -248 61 -319 34 -34 34 -35 23 -80 -6 -25 -35 -98 -65 -161 -67 -144 -79 -192 -71 -278 3 -37 9 -95 12 -130 14 -135 -40 -177 -301 -233 -232 -50 -339 -143 -390 -338 -33 -129 -37 -164 -45 -461 -8 -325 -17 -393 -100 -810 -16 -79 -28 -146 -26 -148 2 -1 -28 -33 -66 -70 -90 -86 -128 -143 -218 -322 -115 -230 -177 -325 -298 -454 -56 -61 -61 -64 -81 -50 -11 8 -53 20 -93 27 -72 12 -73 13 -106 62 -18 28 -47 57 -63 65 -27 13 -34 13 -57 -1 -21 -11 -28 -23 -30 -54 -2 -22 -7 -44 -12 -50 -5 -6 -23 -53 -40 -105 -26 -78 -31 -107 -28 -167 4 -85 -10 -96 -36 -29 -35 92 -93 126 -118 72 -20 -46 32 -198 84 -241 37 -31 72 -32 139 -1 l53 25 33 -30 c19 -16 37 -29 42 -29 4 0 -6 -26 -22 -59 -53 -108 -45 -289 18 -397 49 -84 200 -187 310 -213 26 -6 -358 -9 -1072 -10 -982 -1 -1113 -3 -1113 -16 0 -13 136 -15 1163 -15 639 0 1178 4 1198 9 23 5 59 3 100 -5 312 -64 657 -68 1094 -13 405 51 1088 159 1101 175 8 10 55 2 247 -46 474 -118 642 -144 927 -143 139 0 228 6 310 19 106 17 211 19 1315 24 792 3 1199 8 1198 15 -2 7 -390 12 -1128 15 l-1125 5 58 30 c31 16 82 54 113 85 71 71 93 135 92 265 0 102 -17 159 -64 217 l-30 38 26 0 c15 0 36 11 51 27 23 25 27 26 57 14 103 -42 115 -45 139 -34 56 25 123 170 116 250 -3 36 -5 38 -38 38 -34 0 -36 -3 -70 -72 -19 -40 -38 -73 -42 -73 -4 0 -4 30 -1 68 4 59 1 81 -31 179 -20 62 -41 115 -46 118 -6 4 -10 21 -10 39 0 55 -50 82 -101 56 -10 -6 -28 -28 -39 -50 -26 -50 -55 -70 -105 -70 -22 0 -60 -10 -85 -21 l-45 -21 -68 74 c-100 109 -182 229 -285 421 -118 219 -147 260 -240 349 -67 63 -79 79 -88 123 -122 530 -144 668 -150 930 -11 450 -80 637 -270 733 -38 20 -97 36 -274 77 -177 41 -212 92 -184 264 24 149 12 217 -75 409 -54 120 -60 156 -32 186 28 30 68 145 77 219 5 44 3 62 -10 82 -15 23 -15 30 -2 78 51 184 1 408 -123 548 -71 81 -188 149 -221 129 -8 -5 -24 -1 -39 11 -58 42 -182 49 -299 19z m253 -28 c35 -12 50 -22 49 -34 0 -10 -1 -56 -2 -104 l-2 -85 -52 -24 c-40 -18 -82 -26 -168 -33 -160 -13 -226 -48 -288 -152 -32 -55 -81 -210 -90 -286 l-7 -69 -27 45 c-37 64 -48 112 -48 218 0 247 160 465 388 527 68 19 187 17 247 -3z m208 -79 c133 -92 227 -304 213 -481 -8 -101 -23 -151 -55 -191 l-28 -34 -5 109 c-9 177 -54 270 -169 354 -88 64 -95 78 -73 136 12 32 15 61 11 104 l-5 59 36 -15 c21 -8 54 -27 75 -41z m-63 -263 c66 -45 100 -89 131 -169 19 -52 39 -192 39 -288 0 -31 5 -53 12 -55 7 -3 -10 -38 -45 -94 -65 -103 -92 -171 -108 -276 -14 -90 -26 -114 -78 -156 -143 -115 -298 -99 -450 47 -75 72 -115 152 -142 287 -11 54 -24 105 -30 115 -23 44 -6 227 33 349 66 204 133 262 323 274 106 8 185 27 206 52 10 12 15 10 30 -15 10 -16 45 -48 79 -71z m-743 -497 c12 -32 23 -85 27 -119 3 -33 8 -69 12 -80 5 -13 4 -16 -4 -9 -28 26 -90 243 -76 266 10 16 21 1 41 -58z m1010 7 c-8 -68 -42 -178 -63 -199 -27 -29 -5 116 30 191 17 37 33 67 35 67 2 1 1 -26 -2 -59z m-110 -183 c-8 -23 -24 -73 -36 -112 -11 -38 -32 -88 -46 -110 l-26 -40 6 50 c10 75 40 160 76 221 37 60 50 56 26 -9z m-764 -222 c15 -27 39 -65 53 -82 15 -18 21 -33 15 -33 -7 0 -11 -31 -11 -95 0 -206 -47 -299 -186 -366 -34 -16 -66 -29 -72 -29 -5 0 -3 19 6 43 14 38 14 55 3 128 -23 143 -14 194 59 353 41 90 65 157 68 189 l5 50 17 -54 c9 -30 29 -76 43 -104z m788 104 c6 -23 32 -92 59 -153 61 -137 74 -198 66 -290 -19 -205 -19 -212 -2 -244 9 -18 15 -32 12 -32 -25 0 -145 68 -179 103 -63 62 -79 114 -84 277 l-5 135 36 59 c37 62 76 155 76 183 0 27 11 7 21 -38z m-151 -215 c0 -3 -25 -32 -57 -65 -45 -47 -62 -59 -87 -59 -30 0 -30 1 19 29 28 16 66 45 85 64 37 38 40 40 40 31z m-377 -150 c49 -16 159 -15 229 2 39 9 61 -39 61 -131 1 -89 -21 -159 -78 -260 -64 -110 -66 -132 -22 -182 42 -46 57 -80 57 -129 0 -47 -16 -83 -88 -192 -59 -89 -84 -151 -97 -236 l-6 -39 -47 7 c-105 14 -226 95 -292 194 -65 98 -123 362 -118 535 l2 77 51 29 c114 65 163 158 172 332 l6 107 60 -49 c33 -27 83 -56 110 -65z m390 -145 c22 -73 63 -128 126 -168 28 -18 49 -36 47 -40 -2 -3 -1 -36 3 -73 l7 -66 -29 -6 c-16 -3 -57 -6 -91 -6 -82 0 -186 -18 -214 -36 -18 -12 -26 -13 -38 -3 -23 19 -17 45 35 142 27 51 56 116 65 146 22 75 21 186 -2 231 l-18 35 40 43 41 43 6 -93 c3 -51 13 -118 22 -149z m-275 154 c-10 -2 -26 -2 -35 0 -10 3 -2 5 17 5 19 0 27 -2 18 -5z m577 -448 c31 -41 34 -257 6 -448 -24 -166 -27 -290 -7 -362 7 -27 34 -97 59 -155 76 -175 84 -238 43 -325 -30 -65 -65 -101 -121 -126 -52 -23 -191 -41 -284 -37 -85 4 -92 -15 -14 -38 59 -18 253 -24 304 -9 18 5 20 4 9 -4 -13 -9 -15 -43 -13 -213 1 -112 3 -228 5 -258 l3 -54 -58 -18 c-103 -31 -257 -41 -584 -35 -169 3 -342 10 -383 17 -100 15 -228 50 -237 64 -4 6 -9 67 -10 136 -3 158 -32 333 -77 453 -29 76 -31 87 -13 62 109 -149 344 -214 502 -139 69 33 46 42 -117 46 -139 3 -158 6 -208 29 -76 35 -121 77 -158 146 -59 112 -65 234 -16 394 14 46 34 113 45 149 30 98 47 215 64 430 22 277 34 312 113 335 21 6 22 4 22 -47 0 -87 37 -310 65 -394 61 -184 164 -288 334 -338 86 -25 109 -22 119 17 l8 32 12 -34 c11 -32 14 -33 52 -28 67 9 162 60 232 126 106 99 160 200 193 355 16 82 23 286 10 326 l-7 23 43 -25 c24 -14 53 -38 64 -53z m240 -26 c251 -57 326 -118 388 -314 34 -109 45 -203 52 -446 3 -113 12 -248 20 -300 19 -119 100 -511 124 -604 l19 -70 -38 -8 c-38 -8 -90 -47 -90 -67 0 -31 57 -24 112 14 l36 24 59 -57 c86 -82 130 -146 233 -336 116 -216 182 -314 275 -413 41 -44 75 -82 75 -85 0 -2 -30 -23 -66 -47 -64 -41 -124 -108 -124 -138 0 -9 -39 22 -87 69 -49 47 -153 144 -233 215 -226 204 -425 421 -497 542 -44 75 -183 679 -219 952 -18 144 -15 187 26 319 35 111 47 186 32 195 -6 4 -19 -5 -28 -19 -23 -35 -64 -181 -64 -227 0 -21 -4 -38 -9 -38 -12 0 -64 119 -99 230 -36 114 -49 200 -61 423 -8 131 -14 177 -29 207 l-18 38 40 -15 c23 -8 99 -28 171 -44z m-1514 14 c-26 -53 -39 -125 -51 -302 -13 -177 -19 -211 -67 -378 -35 -119 -53 -146 -53 -80 0 71 -62 257 -86 257 -21 0 -18 -55 13 -188 26 -114 26 -120 14 -252 -11 -127 -20 -178 -85 -455 -34 -146 -47 -273 -45 -426 2 -121 1 -127 -29 -190 -66 -136 -268 -364 -598 -670 l-182 -168 -12 29 c-14 33 -60 77 -134 128 l-47 33 66 71 c94 102 170 220 281 439 88 173 104 198 176 275 81 84 105 97 129 68 33 -40 105 -57 116 -27 9 22 -37 60 -85 69 -58 11 -58 5 -21 184 11 52 36 187 56 300 33 191 36 226 43 505 8 293 15 363 51 475 36 109 108 193 202 234 29 13 106 36 172 51 65 15 135 33 155 41 19 7 36 13 38 13 1 1 -6 -16 -17 -36z m6 -85 c-3 -8 -6 -5 -6 6 -1 11 2 17 5 13 3 -3 4 -12 1 -19z m1147 -60 c-19 -207 -94 -364 -226 -475 -52 -44 -138 -85 -181 -87 -32 -1 -32 -1 -37 56 -3 31 -8 60 -12 63 -10 10 25 76 84 159 77 110 95 207 51 275 -21 33 -10 37 111 45 56 4 124 13 152 21 27 7 53 14 57 14 5 1 5 -32 1 -71z m-1157 -20 c-2 -13 -4 -5 -4 17 -1 22 1 32 4 23 2 -10 2 -28 0 -40z m-10 -125 c-2 -21 -4 -6 -4 32 0 39 2 55 4 38 2 -18 2 -50 0 -70z m1377 -263 c10 -36 42 -138 72 -228 42 -122 57 -183 61 -240 9 -124 -29 -240 -104 -322 -47 -53 -61 -51 -23 2 17 23 38 66 46 96 26 88 12 149 -80 357 -52 118 -62 200 -41 355 9 69 19 152 23 185 l6 60 12 -100 c7 -55 19 -129 28 -165z m-1388 128 c-9 -116 -39 -256 -81 -378 -38 -113 -56 -225 -49 -305 3 -37 1 -44 -5 -25 -5 14 -9 73 -10 132 -1 59 -5 110 -11 113 -15 9 -12 25 3 19 22 -8 32 13 75 151 43 139 72 273 72 336 0 21 3 39 6 39 4 0 4 -37 0 -82z m-199 -220 c-3 -8 -6 -5 -6 6 -1 11 2 17 5 13 3 -3 4 -12 1 -19z m10 -40 c-3 -8 -6 -5 -6 6 -1 11 2 17 5 13 3 -3 4 -12 1 -19z m10 -40 c-3 -8 -6 -5 -6 6 -1 11 2 17 5 13 3 -3 4 -12 1 -19z m1720 -210 c-3 -7 -5 -2 -5 12 0 14 2 19 5 13 2 -7 2 -19 0 -25z m-1710 -10 c-3 -7 -5 -2 -5 12 0 14 2 19 5 13 2 -7 2 -19 0 -25z m-27 -266 c-11 -75 -40 -234 -64 -352 -36 -176 -44 -205 -45 -160 -2 89 17 213 59 391 21 91 45 203 52 250 10 66 14 76 16 46 2 -21 -6 -100 -18 -175z m1794 -147 c41 -211 128 -579 152 -639 46 -117 250 -351 513 -588 86 -78 194 -178 241 -223 l85 -81 -65 18 c-36 10 -126 30 -200 44 -84 17 -146 34 -163 47 -35 24 -106 34 -135 18 -16 -9 -31 -7 -69 8 -44 17 -149 41 -250 56 -38 6 -42 9 -48 43 -9 52 -102 299 -183 488 l-68 159 7 165 c9 207 28 322 79 486 23 71 44 151 47 179 8 66 13 52 57 -180z m-1685 -55 c49 -140 71 -272 76 -449 2 -110 6 -137 19 -147 15 -11 15 -12 1 -18 -9 -3 -32 -40 -51 -82 -83 -184 -215 -444 -225 -444 -6 0 -31 5 -55 11 -52 13 -123 2 -199 -32 -34 -15 -56 -18 -98 -13 -71 8 -117 -7 -160 -55 -39 -44 -54 -90 -37 -121 13 -24 20 -21 -105 -45 -49 -9 -112 -25 -140 -36 l-50 -18 125 116 c343 320 575 577 641 709 24 49 45 132 99 400 37 187 71 366 76 399 l7 60 18 -60 c10 -33 36 -112 58 -175z m160 -4 c60 -31 134 -46 229 -47 l77 -2 -54 -10 c-107 -21 -241 20 -326 98 -30 28 -32 31 -6 10 19 -14 55 -37 80 -49z m1380 22 c-40 -120 -72 -351 -68 -498 2 -88 0 -94 -39 -108 -27 -9 -28 -9 -28 27 0 20 -5 70 -11 111 -7 46 -10 128 -6 215 l6 140 31 30 c17 17 42 40 56 50 14 11 37 35 50 53 13 17 24 32 25 32 1 0 -6 -24 -16 -52z m-49 7 c0 -2 -21 -20 -46 -40 -42 -31 -53 -35 -108 -35 l-61 0 89 31 c49 16 96 34 105 39 19 11 21 12 21 5z m-247 -82 c-13 -2 -35 -2 -50 0 -16 2 -5 4 22 4 28 0 40 -2 28 -4z m941 -328 c-10 -8 -26 -14 -34 -14 -9 0 -4 6 10 14 33 19 49 19 24 0z m-2709 -16 c16 -16 -19 -9 -40 7 -19 16 -19 16 5 9 14 -4 29 -11 35 -16z m2057 -352 c47 -110 54 -133 41 -140 -25 -15 -169 -46 -286 -62 -152 -22 -569 -31 -722 -16 -66 6 -205 23 -310 37 -118 16 -208 24 -237 20 -56 -8 -58 -19 21 144 28 58 51 111 51 118 0 15 -3 16 122 -7 277 -51 646 -73 867 -52 121 12 290 48 354 76 18 8 34 14 37 15 3 0 30 -60 62 -133z m82 -194 c18 -36 106 -291 106 -308 0 -8 -27 -17 -80 -24 -138 -21 -267 -76 -348 -150 -75 -69 -53 -79 62 -26 42 19 133 55 203 80 71 26 137 52 147 59 16 10 36 10 105 -1 109 -16 270 -55 254 -60 -7 -3 -37 3 -67 11 -128 37 -208 14 -341 -99 -44 -38 -105 -80 -135 -94 -51 -24 -69 -26 -230 -31 -179 -5 -208 -11 -240 -51 -14 -17 -25 -18 -141 -10 -70 4 -131 11 -138 15 -7 5 -9 21 -5 46 5 29 0 51 -19 93 -54 118 -177 162 -342 122 -85 -20 -175 -19 -236 4 -27 11 -84 46 -126 78 -82 63 -160 120 -179 131 -9 5 1 34 36 106 27 54 53 103 59 109 7 7 22 2 48 -16 50 -34 92 -51 188 -76 277 -70 674 -84 964 -35 161 27 360 93 416 138 25 20 22 21 39 -11z m-1293 -24 c387 -51 739 -51 1047 2 63 10 117 19 120 18 32 -3 -217 -75 -326 -94 -317 -56 -791 -29 -1049 59 -165 56 -124 59 208 15z m-1896 -135 c9 -4 25 -23 35 -44 28 -55 62 -78 128 -86 76 -9 98 -18 118 -48 37 -58 -5 -98 -119 -114 l-66 -8 -6 38 c-4 23 -16 46 -32 58 -17 13 -29 37 -37 72 -9 45 -16 55 -43 68 -21 10 -33 22 -33 36 0 33 18 42 55 28z m4845 -35 c13 -24 15 -22 -27 -38 -32 -13 -53 -50 -53 -94 0 -11 -13 -35 -30 -54 -18 -20 -30 -45 -30 -62 l0 -27 -71 8 c-111 13 -156 47 -129 98 18 34 60 54 129 61 70 7 94 25 133 97 20 38 61 44 78 11z m-3450 -34 c26 -9 91 -51 153 -99 59 -47 132 -97 162 -112 73 -35 159 -42 259 -20 172 39 273 9 327 -96 10 -21 19 -55 19 -77 l0 -40 -93 6 c-75 5 -95 3 -105 -9 -10 -12 -9 -18 2 -27 20 -17 118 -26 153 -14 21 8 46 6 96 -6 l67 -17 -39 -38 c-22 -21 -52 -66 -68 -100 -23 -51 -28 -74 -28 -141 l0 -81 -101 28 c-137 37 -224 71 -298 115 -156 94 -301 200 -414 301 -197 178 -286 226 -447 244 -115 13 -135 21 -135 52 0 35 38 61 117 81 38 9 100 28 138 41 39 13 79 25 90 28 28 6 92 -2 145 -19z m-1453 -40 c-4 -8 -12 -15 -19 -14 -10 0 -10 2 0 6 6 2 12 12 12 21 0 8 3 13 6 9 4 -3 4 -13 1 -22z m14 -120 c-25 -127 -26 -149 -6 -165 18 -15 21 -110 4 -110 -22 0 -78 71 -89 111 -21 77 21 232 67 250 14 5 28 19 31 32 5 17 7 18 10 5 2 -9 -6 -64 -17 -123z m1009 119 c-19 -8 -48 -27 -64 -42 l-29 -27 17 26 c17 27 69 59 96 58 8 0 -1 -7 -20 -15z m3893 -34 c65 -76 95 -223 61 -296 -16 -33 -57 -74 -75 -74 -13 0 -11 84 2 97 14 14 6 118 -14 188 -22 77 -29 125 -18 125 5 0 25 -18 44 -40z m15 15 c-3 -3 -9 2 -12 12 -6 14 -5 15 5 6 7 -7 10 -15 7 -18z m-4871 -76 c-15 -24 -20 -18 -11 16 4 18 9 23 14 14 5 -7 3 -20 -3 -30z m423 -46 c12 -11 9 -13 -23 -13 -74 0 -156 -54 -188 -125 -10 -22 -19 -33 -19 -24 0 9 -11 32 -24 51 l-24 36 40 6 c96 15 151 71 128 130 l-10 28 52 -38 c29 -20 60 -43 68 -51z m4379 18 c1 -10 -2 -11 -13 -2 -8 7 -11 22 -8 39 l6 27 7 -25 c4 -14 7 -31 8 -39z m-328 26 c-6 -15 -4 -34 5 -55 18 -43 69 -64 156 -66 54 -1 68 -4 68 -16 0 -12 -8 -15 -34 -12 -32 4 -36 1 -57 -39 l-22 -44 -8 30 c-18 65 -129 140 -199 133 -47 -4 -42 3 36 57 59 41 66 42 55 12z m-3587 -37 c10 -13 9 -13 -6 -1 -10 7 -17 23 -17 35 1 20 2 20 6 1 3 -11 10 -27 17 -35z m2355 46 c-2 -2 -60 -24 -129 -49 -69 -25 -143 -52 -165 -61 -37 -15 -39 -15 -20 0 35 28 137 73 215 93 72 19 108 25 99 17z m-3185 -43 c4 -10 4 -52 0 -94 -9 -110 -1 -146 42 -171 19 -11 34 -26 34 -34 0 -20 -89 -19 -119 3 -24 16 -24 17 -17 149 3 74 9 140 12 149 8 20 40 19 48 -2z m4725 -35 c18 -57 25 -232 11 -259 -18 -34 -28 -39 -87 -39 -45 0 -51 2 -46 19 2 10 16 24 29 30 35 16 44 49 44 165 0 56 3 106 7 109 15 16 32 5 42 -25z m-970 -14 c17 -14 31 -31 31 -37 0 -6 -11 0 -25 13 -13 12 -46 29 -72 36 l-48 13 42 0 c31 1 49 -6 72 -25z m-2669 -10 c59 -16 177 -81 201 -110 8 -10 -7 -3 -33 14 -60 41 -122 68 -228 98 -59 16 -71 22 -40 18 25 -3 70 -12 100 -20z m2510 8 c74 -5 113 -13 132 -26 26 -17 45 -52 35 -62 -2 -3 -46 -11 -97 -18 -57 -9 -111 -24 -142 -40 -41 -21 -64 -26 -126 -26 -71 0 -299 -21 -382 -35 l-35 -6 36 14 c53 20 100 51 182 119 39 34 90 69 112 80 42 20 36 20 285 0z m-2617 -23 c67 -17 154 -45 192 -64 68 -33 182 -112 218 -153 18 -20 18 -20 -45 -6 -131 28 -413 12 -558 -32 -105 -31 -191 -87 -175 -113 10 -17 25 -14 162 30 241 77 393 94 564 64 163 -28 222 -57 383 -190 149 -121 204 -142 718 -276 137 -35 245 -65 240 -66 -4 -1 -182 -30 -397 -63 -695 -108 -981 -137 -1265 -127 -159 6 -391 31 -434 46 -20 8 -20 8 2 20 12 6 22 21 22 33 0 18 -4 20 -36 15 -20 -3 -51 -18 -70 -32 -33 -26 -35 -26 -116 -15 -146 20 -275 83 -355 174 -60 68 -78 128 -78 257 0 98 2 110 30 165 30 58 31 59 80 65 28 3 58 2 67 -2 71 -37 231 48 290 153 18 32 33 42 97 67 73 27 163 50 281 69 30 5 56 10 58 11 2 0 58 -13 125 -30z m-582 0 c81 -81 -162 -297 -269 -240 -14 8 -29 37 -47 92 -29 94 -30 99 -9 99 9 0 25 -22 39 -54 23 -52 55 -86 82 -86 19 0 16 21 -7 45 -18 19 -19 26 -10 51 36 94 166 148 221 93z m-688 -59 c25 -58 45 -80 72 -80 18 0 73 -56 63 -64 -37 -32 -98 -33 -126 -3 -41 43 -82 166 -68 203 9 24 34 0 59 -56z m4690 57 c43 -19 107 -91 107 -122 0 -14 -8 -29 -20 -35 -24 -13 -27 -40 -4 -40 31 0 55 22 84 80 47 94 63 79 34 -33 -26 -101 -38 -117 -86 -117 -76 0 -198 82 -238 161 -24 46 -25 67 -4 97 18 26 76 30 127 9z m-4486 -44 c-3 -10 -5 -2 -5 17 0 19 2 27 5 18 2 -10 2 -26 0 -35z m4074 12 c162 -32 194 -43 121 -44 -29 -1 -66 -8 -82 -16 -57 -30 -79 -119 -40 -167 19 -25 18 -25 -48 8 -72 36 -191 69 -287 80 -96 11 -94 20 5 33 135 17 179 47 166 112 -5 26 -3 29 17 24 12 -2 79 -16 148 -30z m-3937 11 c-21 -15 -30 -14 -19 3 3 6 14 11 23 11 13 0 13 -2 -4 -14z m4976 -19 c0 -83 -59 -201 -106 -213 -20 -5 -104 20 -104 31 0 12 62 65 70 60 20 -12 58 24 76 72 30 82 64 108 64 50z m-4976 -101 c6 -26 5 -28 -8 -17 -10 9 -16 29 -15 55 1 43 4 37 23 -38z m4119 29 c32 -8 61 -14 65 -13 4 1 34 -24 67 -57 71 -71 152 -115 212 -115 23 0 44 4 48 9 7 12 73 -14 102 -41 30 -28 61 -105 69 -171 8 -65 -10 -176 -36 -227 -35 -68 -120 -132 -236 -176 -58 -22 -80 -25 -143 -21 -54 3 -76 9 -83 20 -17 32 -128 34 -128 3 0 -22 -254 -31 -473 -17 -221 14 -401 40 -607 87 -208 49 -730 191 -746 205 -38 32 -18 175 36 259 51 77 51 77 275 83 135 3 259 14 380 31 415 59 695 39 938 -69 142 -64 137 -62 151 -43 12 17 14 17 31 -2 22 -24 53 -26 62 -4 7 20 -31 60 -82 86 -63 32 -75 46 -75 93 0 46 19 70 66 85 41 12 43 12 107 -5z m464 -62 c-13 -13 -13 -9 -3 34 11 47 11 47 14 14 2 -20 -2 -40 -11 -48z m-3306 50 c13 -16 12 -17 -3 -4 -17 13 -22 21 -14 21 2 0 10 -8 17 -17z m2289 -72 c166 -19 318 -67 380 -119 19 -17 3 -12 -72 18 -161 67 -367 107 -575 112 l-78 2 100 5 c55 3 111 3 125 -1 14 -4 68 -11 120 -17z m-800 0 c54 -6 53 -6 -55 -19 -175 -19 -210 -16 -128 13 41 15 96 17 183 6z m423 2 c-13 -2 -33 -2 -45 0 -13 2 -3 4 22 4 25 0 35 -2 23 -4z m-105 -10 c-10 -2 -26 -2 -35 0 -10 3 -2 5 17 5 19 0 27 -2 18 -5z m-81 -9 c-3 -3 -12 -4 -19 -1 -8 3 -5 6 6 6 11 1 17 -2 13 -5z m-70 -10 c-3 -3 -12 -4 -19 -1 -8 3 -5 6 6 6 11 1 17 -2 13 -5z m-84 -11 c-7 -2 -19 -2 -25 0 -7 3 -2 5 12 5 14 0 19 -2 13 -5z m-1978 -33 c-60 -16 -146 -40 -190 -54 -67 -21 -77 -22 -58 -7 27 23 137 58 234 76 124 22 130 16 14 -15z m545 15 c11 -13 10 -14 -4 -9 -9 3 -16 10 -16 15 0 13 6 11 20 -6z m1353 8 c-7 -2 -21 -2 -30 0 -10 3 -4 5 12 5 17 0 24 -2 18 -5z m-85 -10 c-10 -2 -28 -2 -40 0 -13 2 -5 4 17 4 22 1 32 -1 23 -4z m1382 -94 c0 -11 -55 19 -73 40 -7 8 6 5 31 -8 23 -12 42 -26 42 -32z m-2154 -227 c-5 -4 -146 66 -146 73 0 3 34 -12 75 -32 41 -20 73 -39 71 -41z m119 -32 c13 -5 14 -9 5 -9 -8 0 -24 4 -35 9 -13 5 -14 9 -5 9 8 0 24 -4 35 -9z m52 -16 c-3 -3 -12 -4 -19 -1 -8 3 -5 6 6 6 11 1 17 -2 13 -5z m118 -29 c54 -17 33 -18 -30 -1 -27 8 -41 14 -30 14 11 0 38 -5 60 -13z m72 -21 c-3 -3 -12 -4 -19 -1 -8 3 -5 6 6 6 11 1 17 -2 13 -5z m1231 -271 c-10 -2 -26 -2 -35 0 -10 3 -2 5 17 5 19 0 27 -2 18 -5z m690 -8 c2 -2 -36 -7 -85 -12 -115 -11 -453 -7 -523 6 -45 8 -26 9 100 6 85 -2 205 0 265 4 94 7 233 4 243 -4z"/>
<path d="M4515 5911 c-11 -20 37 -32 167 -42 73 -5 153 -14 177 -20 24 -5 46 -7 49 -4 11 10 -32 45 -67 54 -54 14 -319 23 -326 12z"/>
</g>
</svg>
