<?xml version="1.0" encoding="UTF-8"?>
<svg id="Layer_1" xmlns="http://www.w3.org/2000/svg" version="1.1" viewBox="0 0 3000 4000">
  <!-- Generator: Adobe Illustrator 29.5.1, SVG Export Plug-In . SVG Version: 2.1.0 Build 141)  -->
  <path d="M1810.8,2878.4h-11.4c-5.7,0-11.6-.1-17.4,0-38.5.5-76.9-7.9-117.3-26-59.9-26.8-118.2-67.1-183.3-127.1-26.6-24.5-50.2-52.3-73.1-79.3-14.8-17.4-30-35.4-45.9-52.3-30.1-31.9-46.8-62-52.7-94.6-.4-2.1-.3-4.3-.2-6.4,0-4,0-6.8-1.9-9.1-14.8,6.6-30.2,12.1-45.2,17.4-11.3,4-22.9,8.1-34.2,12.7-75.4,30.7-140.2,39.2-203.9,26.9-48.9-9.5-86.6-23-118.6-42.7-51.1-31.4-94.2-76.3-139.9-145.4-33-50-57.2-104.5-81.2-160.6-36-84.4-64.4-169.8-84.4-253.8-15.1-63.5-22.6-132-24.5-222.2-1.1-53.8-1.7-111.5,1.3-169.1.3-5.6.6-11.1.9-16.7,1.2-24.2,2.5-49.3,4.7-73.9,4.8-53,12.3-101.9,22.8-149.7,12.4-56.2,27.9-104.2,47.3-146.7,30-65.7,71.6-127.5,123.7-183.6,60.7-65.4,133.2-120.2,215.5-162.7,75.5-39,156.5-61.7,240.7-67.5,61.2-4.2,123.9-1.6,186.2,7.9,54.8,8.3,108.4,27.3,159.2,56.5,27.1,15.6,49.7,34.6,67,56.5,31.9,40.3,50.8,88.4,56.2,143.1,3.1,30.9,2.6,75.7-36.9,106.5-18.4,14.4-39.6,20.6-59.8,17.3-18.2-3-34.2-13.7-45.1-30.3-14.6-22.2-19.5-48.7-14.6-78.7,10.5-63.7,40.9-117.7,90.3-160.5-16.1-18.8-36.4-35.2-60.2-48.9-50.2-28.8-103.1-47.6-157.2-55.8-61.9-9.4-124.1-12-184.9-7.8-83.4,5.7-163.6,28.2-238.4,66.9-81.7,42.2-153.7,96.6-213.9,161.5-51.6,55.7-92.9,116.9-122.6,182.1-19.3,42.2-34.6,89.8-46.9,145.6-10.5,47.5-17.9,96.2-22.7,148.9-2.2,24.5-3.5,49.5-4.7,73.7-.3,5.6-.6,11.1-.9,16.7-3,57.4-2.4,115-1.3,168.7,1.8,89.8,9.3,157.9,24.3,220.9,19.9,83.7,48.2,168.8,84,252.9,23.8,55.8,47.9,110.1,80.7,159.7,45.2,68.4,87.8,112.7,138.1,143.7,31.4,19.3,68.4,32.6,116.6,41.9,62.5,12.1,126.2,3.6,200.6-26.6,11.3-4.6,23.1-8.8,34.4-12.8,15.4-5.5,31.4-11.1,46.5-18,1-.4,2.1-.3,3,.3,5.8,4.4,5.5,10.3,5.4,15.1,0,1.9,0,3.6,0,5.1,5.7,31.5,22,60.6,51.2,91.7,16,17,31.3,35.1,46.1,52.5,22.7,26.8,46.2,54.5,72.6,78.8,64.7,59.5,122.4,99.6,181.7,126.1,39.6,17.7,77.2,26.1,114.8,25.5h17.5c16.4.2,33.4.4,49.8-3,1.6-.3,3.1.7,3.5,2.3s-.7,3.1-2.3,3.5c-13.2,2.7-26.5,3.2-39.6,3.2l.4-.3ZM1639.2,868.6c-48.3,41.8-78.1,94.6-88.3,156.9-4.7,28.6,0,53.6,13.7,74.6,10.1,15.4,24.3,25,41.1,27.7,18.5,3,38.1-2.7,55.2-16.1,28.3-22.2,39.3-54.4,34.7-101.4-5.3-53.6-23.8-100.7-55-140-.4-.6-.9-1.1-1.4-1.7h0Z"/>
  <path d="M1851.3,2876.8c-1.4,0-2.6-1-2.9-2.4-.3-1.6.8-3.1,2.3-3.4,7.9-1.5,16-2.9,23.8-4.3,24.9-4.4,50.7-9,75.6-15.3,74.8-19,135.5-58,185.7-119.4,34.2-41.8,61.1-83.7,82.1-127.9,24.7-52,40.5-106.6,52.8-153.2,21.9-83.3,39.6-166.4,52.8-247,11.8-72.2,25.2-154.1,22.2-236.2-1.5-42.3-7.6-91.1-41.1-132.6-14.3-17.6-32.8-32.6-58.3-47.1-26.9-15.3-56.4-30.3-89.4-36.2-54.5-9.9-101.2-3.1-142.8,20.9l-4.3,2.5c-18.5,10.6-37.6,21.5-52.4,37.6-11.4,12.3-16.2,22.7-14.8,31.9,1.4,9,9,17.4,23.2,25.5,29.4,16.8,62.5,25.6,107.3,28.7,57.5,3.9,107.7-17.7,149.3-39.3,5.9-3,11.9-5.9,17.8-8.6,12.3-5.7,25-11.6,36.1-19.8,1.3-1,3.1-.7,4.1.6,1,1.3.7,3.1-.6,4.1-11.6,8.5-24.6,14.6-37.1,20.4-5.8,2.7-11.8,5.5-17.6,8.5-38.9,20.2-85.3,40.4-138.3,40.4s-9.3-.2-14-.5c-45.7-3.1-79.6-12.2-109.8-29.4-15.9-9.1-24.4-18.8-26.1-29.7-1.7-11,3.6-23,16.3-36.7,15.5-16.8,35-27.9,53.8-38.7l4.3-2.4c42.8-24.6,90.8-31.7,146.7-21.6,33.9,6.1,63.8,21.4,91.2,36.9,26.2,14.9,45.2,30.3,60,48.5,34.8,43.1,41,95.4,42.4,136.1,3,82.7-10.5,164.8-22.3,237.3-13.2,80.8-31,164.1-52.9,247.6-12.3,46.8-28.2,101.8-53.1,154.2-21.2,44.7-48.3,86.9-82.9,129.1-25.1,30.6-53.5,56.3-84.5,76.3-31.4,20.3-66.5,35.4-104.3,45-25.1,6.4-51,11-76,15.4-7.8,1.4-15.8,2.8-23.7,4.3h-.6Z"/>
  <path d="M2384.2,1707.9c-.8,0-1.6,0-2.4-.2-11.4-1.6-13.7-11.2-15.6-18.9-.6-2.4-1.1-4.7-1.9-6.7-.3-.9-.3-1.7-.2-2.1h0c-6.8-39.1-13.3-74.2-23.7-109.8-35.3-120.5-76.7-225.4-126.9-320.5-32.7-62.2-85-91.4-155.5-87-20.6,1.3-41.4,3.7-61.6,6-24.3,2.8-49.3,5.7-74.2,6.7-32.1,1.3-66.2,1.4-99.4-13.1-35.3-15.4-44-37.5-29-73.7,11.9-29,32-48.8,57-71.7,1.2-1.1,3-1,4.1.2s1,3-.2,4.1c-24.5,22.4-44.1,41.7-55.6,69.6-13.8,33.4-6.5,51.9,26,66.1,32.1,14,65.4,13.9,96.9,12.6,24.6-1,49.6-3.9,73.8-6.7,20.3-2.3,41.2-4.8,61.9-6.1,36-2.3,67.8,4.1,94.7,19.1,27.1,15.1,49.4,39,66.3,71,50.3,95.5,91.9,200.7,127.3,321.6,10.5,35.8,17.3,72.7,23.9,110.5v1.4c.8,2.3,1.4,4.7,1.9,7,2,8.3,3.6,13.5,10.7,14.5,7,1,9.7-4.3,13.1-12.5.5-1.3,1-2.5,1.6-3.7,13.6-29.4,17.6-61.6,19.6-86.3,4.1-50.1,2.8-102.7-4-165.4-9.1-84.1-34.6-167.4-75.9-247.6-42.3-82.2-103.9-147.1-182.9-192.9-7.6-4.4-15.6-8.3-23.9-11.8,0,.2,0,.3-.1.5-1.6,4.7-1.3,9.6-1.1,14.7.2,4.4.4,9-.5,13.5-9.6,45.3-34.2,72.3-73.1,80.3-43.3,8.9-80.1-2.9-106.5-34-10.1-12-14.9-25.4-13.7-38.9,1.2-13.9,8.9-27.5,21.1-37.6,24.3-20,53.3-22.6,75.9-22.5,47.9,0,89.9,10.4,124.8,30.6,80,46.3,142.3,112,185.2,195.3,41.6,80.8,67.3,164.8,76.5,249.6,6.8,63.1,8.1,116,4,166.5-2.1,25.2-6.2,58-20.2,88.3-.5,1.1-1,2.2-1.5,3.5-2.7,6.6-6.7,16.2-16.8,16.2v.3ZM2364.1,1680.1h0ZM2031.6,963.8c-21.5,0-48.9,2.5-71.5,21.2-11,9-17.9,21.3-19,33.6-1.1,12,3.1,23.7,12.3,34.6,24.9,29.4,59.7,40.5,100.8,32.1,36.4-7.5,59.5-32.9,68.5-75.8.8-3.8.6-7.8.4-12-.3-5.5-.5-11.2,1.4-16.9,0-.3.2-.5.4-.7-27.5-10.5-58.5-15.8-92.6-15.9h-.6v-.2Z"/>
  <path d="M990.2,2009.1c-4.5,0-9-.9-13.2-1.7-1.8-.4-3.6-.7-5.3-1-17.1-2.7-36.5-7.1-48.8-25-10.3-15-12.6-33.1-6-48.6,6.3-15,19.7-25.2,36.8-28.1,25.2-4.3,38-12.8,38.2-47.2.2-38.4,2.3-77.4,4.4-115.1,1.6-30,3.3-61,4-91.6,1.1-48.1.4-103.7-23.2-154-21.9-46.8-58.2-74.4-111-84.3-51.8-9.8-104.6-7.7-157,6.2-20.4,5.4-46.6,13.9-68.4,32.3-5.4,4.5-9.8,9.7-14.7,17.4-2.1,3.3-2.9,6.2-2.1,7.8.9,2.1,3.4,2.1,8.3,1.4h.4c11.6-1.7,23.1-4.9,34.3-7.9,5-1.4,10.1-2.8,15.2-4,64.9-16.1,125.6-14.3,185.8,5.5,23.7,7.8,51.2,14.9,77.4.8,1.4-.8,3.2-.2,4,1.2.8,1.4.2,3.2-1.2,4-28.3,15.2-57.2,7.7-82-.4-59.1-19.4-118.8-21.2-182.6-5.3-5,1.2-10.1,2.7-15.1,4-11.3,3.1-23,6.3-35,8h-.4c-4.3.7-11.5,1.7-14.4-4.7-1.7-3.6-.8-8.3,2.5-13.4,5.2-8,10.1-13.8,15.9-18.7,22.7-19.1,49.7-27.9,70.7-33.4,53.2-14.1,106.9-16.2,159.6-6.3,54.1,10.2,92.8,39.7,115.2,87.6,24.1,51.5,24.9,107.9,23.7,156.6-.7,30.6-2.4,61.7-4,91.7-2,37.6-4.1,76.5-4.4,114.8-.2,33.7-11.5,47.6-43.1,53-15,2.6-26.8,11.5-32.4,24.6-5.7,13.6-3.7,29.7,5.5,43,11.1,16.1,28.3,20,44.9,22.6,1.8.3,3.7.7,5.5,1,9.1,1.8,17.7,3.4,25.2-3.1,1.2-1.1,3.1-.9,4.1.3,1.1,1.2.9,3.1-.3,4.1-5.4,4.7-11.2,6.1-17,6.1v-.2Z"/>
  <path d="M1127.2,2312.3c-6.3,0-12.9-.6-19.7-1.9-27.1-4.9-55.1-5.1-88.2-.4-23.1,3.3-42.5-1.2-61.1-14.1-15.8-10.9-29.2-25.1-41.1-43.4-4.3-6.6-5.5-12.1-3.6-16.9,2-5.3,7.6-9,17.1-11.5,10.8-2.8,21.9-4.2,32.6-5.4,8.2-1,16.7-2,24.8-3.6,27.1-5.6,49.6-5.7,70.8-.2,13.1,3.3,26.6-1.2,39.7-5.6l.7-.2c25.8-8.7,47.6-8.6,68.5.2,16.7,7,34.8,8,55.4,2.9,1.6-.4,3.2.6,3.5,2.1s-.6,3.2-2.1,3.5c-21.9,5.4-41.2,4.3-59.1-3.2-19.6-8.2-40-8.3-64.4,0l-.7.2c-13.2,4.5-28.2,9.5-43,5.7-20.3-5.2-41.9-5.1-68.1.3-8.4,1.7-17,2.7-25.3,3.7-10.5,1.2-21.4,2.5-31.8,5.3-7.4,2-11.9,4.7-13.1,8-1.1,2.9,0,6.8,3.1,11.6,11.5,17.6,24.4,31.3,39.5,41.8,17.3,12,35.4,16.2,56.9,13.1,33.7-4.8,62.3-4.6,90,.4,23.6,4.3,56.3,2.7,78.3-29.6,17.7-26,38.2-45.5,62.8-59.8,17.3-10,22.9-28.3,15.1-49-15.3-40.6-20.7-79-16.6-117.6,6.5-61.2,24-107.2,55.1-144.8,25.4-30.7,56.8-41.7,93.4-32.6,28.1,6.9,58,12,91.6,15.4,49.6,5.1,96.4-4.3,143.2-28.8,1.4-.8,3.2-.2,4,1.2.8,1.4.2,3.2-1.2,4-47.8,25-95.7,34.7-146.5,29.4-33.8-3.5-64-8.6-92.4-15.6-34.2-8.4-63.6,1.9-87.4,30.7-30.3,36.6-47.4,81.6-53.8,141.6-4,37.6,1.3,75.2,16.2,114.9,10.5,27.8-2.3,47.2-17.7,56.2-23.8,13.8-43.7,32.8-60.8,58-15.3,22.4-37.3,34-64.5,34h-.1Z"/>
  <path d="M1145.7,2005.4c-7.5,0-14.6-1.9-20.2-5.4-1.3-.8-1.7-2.5-1-3.8,2.5-4.9,7.2-7.6,11.3-9.9,4.4-2.5,8.2-4.7,9.5-9.1-3.8-5.5-8.7-4.7-16-3-1.9.4-3.9.9-5.9,1.1l-1.9.2c-8.2,1-12.3,1.5-15.1-.9-2.8-2.5-2.8-6.5-2.9-14.5,0-14.9,0-30-.2-44.6,0-35.3-.2-71.8-1.1-107.7-1-42.7-.2-85.3.9-125.3.9-34.5,2.5-69,4.7-102.7,4.2-62.6,11.9-116.5,23.4-164.7,19.7-82.4,47.1-154.3,83.8-219.7,34.6-61.7,77.6-118.6,127.7-169.1,51.6-52,111.6-92.6,163.4-125.4,25-15.8,52.5-29.2,81.8-39.9,1.5-.6,3.2.2,3.8,1.8.6,1.5-.2,3.2-1.8,3.8-28.8,10.5-56,23.7-80.6,39.3-51.6,32.6-111.2,72.9-162.4,124.6-49.7,50.2-92.4,106.7-126.7,167.9-36.5,65-63.7,136.4-83.2,218.2-11.4,47.9-19,101.5-23.3,163.7-2.3,33.5-3.9,68-4.7,102.4-1,39.9-1.9,82.5-.9,125,.9,35.9,1,72.5,1.1,107.8,0,14.6,0,29.7.2,44.6,0,4.6,0,9.4.9,10.1.8.7,5.6,0,10.5-.5l1.9-.2c1.7-.2,3.4-.6,5.3-1,7-1.6,16.6-3.8,22.9,6.7.4.6.5,1.3.4,2-1.4,7.9-7.4,11.2-12.6,14.2-2.8,1.6-5.4,3.1-7.3,5.2,6.9,3.3,15.9,4,24.6,1.7,9.1-2.3,16.3-7.5,20-14.1,7-12.8,9.9-25,9-37.5-.9-12-4.8-20.6-11.3-24.8-6.5-4.2-15.9-4.1-27.2,0-2.1.8-4.1,1.8-6.2,2.9-2.3,1.2-4.7,2.4-7.4,3.3s-3.2-.3-3.7-1.8.3-3.2,1.8-3.7c2.2-.8,4.4-1.9,6.6-3s4.4-2.3,6.8-3.1c13.1-4.8,24.3-4.6,32.4.5,8.1,5.2,12.9,15.3,13.9,29.3,1,13.6-2.2,26.9-9.7,40.7-4.4,8-13,14.2-23.6,16.9-3.9,1-7.8,1.5-11.7,1.5h0Z"/>
  <path d="M1795.1,2320.9c-1.5,0-2.9,0-4.4-.2-10.9-.8-21.3-2.3-29.2-12-.7-.9-.9-2.1-.4-3.1,3.5-7.6,4.4-13.5,2.7-18.1-1.4-3.9-4.8-7.1-10.3-9.6-8.9-4.1-29.3,1.5-34,9.4-2.1,3.4-1.1,4.8,2.2,8.1.7.7,1.3,1.4,2,2.1.6.7,1.8,1.3,3.1,2,3,1.5,8,4,6.7,11-.2,1.2-1.2,2.2-2.4,2.3-12.3,2-24.3-1.6-32.7-9.9-9-8.8-13.1-21.8-11.3-35.6,2.1-15.3,4.5-30.8,6.9-45.8,2.9-18.1,5.8-36.8,8.2-55.2,2.7-21.2,3.7-42.8,4.6-63.8.4-8.2.8-16.7,1.2-25,2.6-45.3,2.1-91.4,1.6-136,0-9.4-.2-18.8-.3-28.2-.5-58.4-7.9-105.1-23.2-147-18-49.3-51.6-80.7-102.7-95.9-64.9-19.3-122.4-18.9-176,1.3-45.4,17.1-83.1,43.7-111.9,79-.7.9-1.4,1.9-2.1,2.9-2.5,3.6-5.5,8.2-11.9,8.8-1.6.2-3-1-3.2-2.6s1-3,2.6-3.2c3.5-.3,5.1-2.6,7.6-6.2.7-1.1,1.5-2.3,2.4-3.3,29.5-36.1,68-63.2,114.4-80.7,54.8-20.7,113.6-21.2,179.8-1.5,52.9,15.8,87.8,48.3,106.5,99.5,15.6,42.6,23.1,89.9,23.6,148.9,0,9.4.2,18.8.3,28.2.5,44.7,1,90.9-1.6,136.4-.5,8.3-.9,16.8-1.2,24.9-1,21.1-2,42.9-4.7,64.3-2.4,18.5-5.3,37.3-8.2,55.4-2.4,15-4.8,30.4-6.9,45.7-1.6,11.9,1.8,23.1,9.5,30.6,6.6,6.4,15.7,9.5,25.3,8.6-.3-1-1.4-1.6-3.5-2.6-1.7-.8-3.5-1.8-4.9-3.4-.5-.6-1.1-1.2-1.8-1.9-3.2-3.3-7.6-7.8-3.1-15.3,6.3-10.4,29.9-17,41.5-11.7,7,3.2,11.4,7.5,13.4,12.9,2.1,5.8,1.4,12.6-2.1,20.9,6.3,6.7,14.6,7.8,23.9,8.5,9.8.7,19-1.3,28.6-3.5,4.7-1,9.6-2.1,14.5-2.9,1.6-.2,3.1.9,3.3,2.5.2,1.6-.9,3.1-2.5,3.3-4.7.7-9.5,1.8-14.1,2.8-8.3,1.9-16.9,3.8-25.9,3.8h0Z"/>
  <path d="M1646.1,2537.4h-6.9c-3.6,0-7.4-.1-11.1,0-.9,0-4.3,0-6.7-2.7-1.2-1.3-2.6-3.7-2.1-7.7.7-5.5,6.3-6.2,9.3-6.6.8,0,1.5-.2,2-.3,14.2-3.4,26.4-10.9,40.9-25.1,4.6-4.5,9.2-9.3,13.6-14,13.9-14.7,28.3-29.9,47.4-39.3,20.2-10,40.4-9.5,60,1.5,15.3,8.6,23.9,11.1,29.6,8.7,5.8-2.4,10-10.5,14.6-28,4.2-15.8,2.2-31,0-47.1-.9-7-1.9-14.2-2.2-21.4,0-1.6-.2-3.2-.3-4.9-1.2-21.3-2.4-43.4,11.6-63.4,9.9-14.2,21.7-20.8,37-20.8h.2c9.9,0,16.5,4.8,19.2,13.9.2.8,0,1.6-.3,2.3-4.8,8.5-12.1,14-19.2,19.3-1.3,1-2.7,2-4,3-3.2,2.5-4.2,3.7-3.5,5.7,1,2.9,3,3.6,8,4.2,13,1.4,27.7-5.4,38.3-17.7,10.4-12.1,14.7-26.7,11.4-39.1-3.3-12.6-18.7-22.1-33-20.3-10,1.2-18.8,2.7-26.8,4.5-13.9,3.1-22.7,2.5-28.4-2-5.3-4.2-7.9-11.7-8.1-23.6-.6-43.5-1.4-97.6,1-149.5.6-13.1.8-26.4,1-39.4.2-13.3.4-27,1.1-40.5.8-16.4,1.3-33.1,1.8-49.3,1.4-44.4,2.7-90.2,10.1-135,3.8-23.6,10.1-51,27.3-75.3,13.5-19.1,30.4-25.3,51.7-19,26.4,7.9,53.2,3.6,79.2-.6,2.3-.4,4.6-.7,7-1.1,12.5-2,25.3-4.2,37.6-6.4,37-6.5,75.2-13.3,113.9-13.3s1.9,0,2.8,0c35.6.3,70.1,9.1,103.4,17.7l7.4,1.9c8.3,2.1,17.3,4.3,26.6,4.9,1.5,0,3,.4,4.4.6,5,.9,7.3,1.1,9.4-2.5,2.8-4.7.6-7.7-3.9-13l-.2-.2c-23.6-28.2-53.3-47.1-90.6-57.9-47.9-13.8-99.7-15.8-167.8-6.4-46.5,6.4-90.7,21.6-132,36.5-1.5.6-3.2-.2-3.8-1.8-.6-1.5.2-3.2,1.8-3.8,41.6-15.1,86.2-30.3,133.2-36.8,68.9-9.5,121.4-7.5,170.2,6.5,38,10.9,69.4,31,93.5,59.7l.2.2c4.2,5,9.5,11.3,4.5,19.8-4.3,7.2-10.8,6.1-15.5,5.3-1.3-.2-2.6-.4-3.8-.5-9.8-.7-19.4-3-27.6-5.1l-7.4-1.9c-33-8.4-67.1-17.2-102-17.5-39.1-.3-78,6.5-115.6,13.2-12.3,2.2-25.1,4.4-37.7,6.4-2.3.4-4.6.7-6.9,1.1-26.6,4.3-54.1,8.7-81.8.4-18.8-5.6-33.2-.3-45.2,16.8-16.5,23.3-22.6,49.9-26.3,72.9-7.2,44.4-8.6,90.1-10,134.3-.5,16.2-1,32.9-1.8,49.4-.6,13.4-.9,27.1-1,40.4-.2,13-.4,26.4-1,39.5-2.4,51.7-1.6,105.7-1,149.1,0,10,2,16.1,5.8,19.1,4.2,3.3,11.5,3.6,23.5.9,8.2-1.9,17.2-3.4,27.4-4.6,17.3-2.1,35.3,9.2,39.4,24.6,3.8,14.2-1,30.8-12.6,44.4-12,13.9-28.2,21.3-43.3,19.7-4.2-.4-10.6-1.1-13-8.1-2.1-6.3,2.6-10,5.5-12.2,1.3-1,2.7-2.1,4.1-3.1,6.6-4.9,12.8-9.6,16.9-16.4-2.1-5.8-6.3-8.5-13.2-8.5h-.2c-13.2,0-23.5,5.8-32.2,18.3-12.8,18.3-11.7,38.4-10.5,59.7,0,1.6.2,3.3.3,4.9.4,7,1.3,14.1,2.2,21,2.1,16,4.2,32.5-.2,49.3-4.3,16.4-9,28.1-18,31.9-8.9,3.8-20.3-.9-34.7-9-17.8-10-36.1-10.5-54.5-1.4-18.2,9-32.2,23.8-45.8,38.1-4.4,4.7-9,9.5-13.7,14.1-10.8,10.6-24.4,22-43.6,26.6-.8.2-1.7.3-2.6.4-3.1.4-4.1.7-4.2,1.5,0,1.3,0,2.4.6,3,.6.7,1.8.9,2.3.9h11.3c7.6.1,15.4.2,23-1,17.2-2.7,33.9-8.6,50-14.2,5.6-2,11.4-4,17.2-5.9,21.8-7.1,41.6-12.4,63.7-5.7,27.5,8.3,52.5,6.5,76.4-5.4,18.8-9.4,39.7-9.1,65.6.8,4.6,1.8,9.1,3.6,13.6,5.4,11.2,4.6,22.7,9.3,34.4,12.4,2,.5,4.1,1.2,6.1,1.7,10.8,3.2,21.1,6.3,30.9-.5-1.5-6.4-5.8-10-10.8-14.1-.6-.5-1.2-1-1.7-1.5-12.9-10.9-27.3-20.4-41.2-29.5-8.3-5.5-16.9-11.1-25.1-17-28.4-20.5-53.8-23.8-80.1-10.5-1.7.8-4.4,2.3-7.5,2-1.6-.1-2.8-1.5-2.7-3.1s1.5-2.8,3.1-2.7c1.4,0,3.2-.8,4.4-1.4,28.4-14.4,55.8-10.9,86.1,11,8.1,5.8,16.6,11.5,24.9,16.9,14,9.2,28.6,18.8,41.7,29.9.6.5,1.1,1,1.7,1.4,5.7,4.8,11.7,9.7,13.1,19.4.2,1-.3,2.1-1.1,2.7-12.7,10.1-26,6.1-37.7,2.6-2-.6-4-1.2-5.9-1.7-12-3.2-23.8-8-35.1-12.6-4.4-1.8-9-3.7-13.5-5.4-24.3-9.4-43.6-9.7-60.9-1.1-25.3,12.7-51.7,14.6-80.7,5.8-20.5-6.2-39.4-1.1-60.2,5.7-5.7,1.9-11.5,3.9-17.1,5.9-16.4,5.7-33.3,11.7-51,14.5-5.8.9-11.5,1.1-17.1,1.1h-.2Z"/>
  <path d="M920.4,2208.9c-6.5,0-13.2-.8-20.1-2.8-7.4-2.2-14.3-4.8-16.7-13.1-1.5-4.9-1.2-12.3,8.5-19.6,10.5-8,21.6-15.3,32.4-22.4,8.3-5.4,16.8-11.1,25-16.9,2.6-1.8,5.1-3.6,7.7-5.4,3.9-2.7,7.9-5.5,11.7-8.3,21.7-16.2,43.6-17.1,65.2-2.8,13.6,9,26.4,8.5,40.5-1.6,1.3-.9,3.1-.6,4.1.7s.6,3.1-.7,4.1c-16.1,11.6-31.5,12.1-47.2,1.7-19.6-13-38.7-12.1-58.5,2.6-3.9,2.9-7.9,5.7-11.8,8.4-2.6,1.8-5.1,3.6-7.7,5.4-8.3,5.9-16.9,11.6-25.2,17.1-10.7,7-21.7,14.3-32,22.1-5.6,4.3-7.7,8.7-6.4,13.3,1.5,5.1,5.2,6.9,12.8,9.1,20.2,5.9,39.3.6,57.1-5.2h.3c27.3-9,55.6-18.3,85.9-10.4,13,3.4,25.6,1.2,40.6-3.2,16.8-4.9,33.1-6.1,51.1-3.7,12.2,1.6,24.3,4.3,35.9,6.9,13.3,3,27,6,40.8,7.4,2.1.2,4.3.5,6.4.8,9.8,1.3,19.1,2.5,28.1-2-2.1-3.1-4.7-4.5-7.7-6.1-.5-.3-.9-.5-1.4-.8-23.5-13.2-53.8-31.3-80.3-54.8-20.5-18.2-41.5-25.7-65.8-23.5-20.7,1.9-28.9-8.3-34.7-24.2-5.1-13.9-3.2-27.5-1.4-40.7.5-3.4,1-6.9,1.3-10.4.2-1.6,1.6-2.8,3.2-2.6,1.6.2,2.8,1.6,2.6,3.2-.4,3.6-.9,7.1-1.3,10.6-1.8,13.1-3.5,25.4,1.1,37.9,6.1,16.6,13.4,21.8,28.7,20.4,26.1-2.3,48.4,5.6,70.3,25,26,23.1,56,41,79.3,54.1.4.2.9.5,1.3.7,4,2.2,8.4,4.6,11.5,11.2.6,1.3,0,2.9-1.1,3.7-11.5,7.1-23.1,5.6-34.4,4.2-2-.3-4.2-.5-6.2-.7-14.1-1.4-28-4.5-41.5-7.5-11.6-2.6-23.5-5.2-35.4-6.8-17.2-2.3-32.7-1.1-48.7,3.5-13.8,4-28.6,7.2-43.7,3.2-28.6-7.5-54.8,1.1-82.6,10.2h-.3c-12.8,4.3-26.3,8.2-40.5,8.2v-.2Z"/>
  <path d="M1644.9,3334c-12.3,0-25-.5-38.1-1.5-12.2-.9-24.8-.7-37-.4-5.6.1-11.4.2-17.1.2s-2.9-1.3-2.9-2.9,1.3-2.9,2.9-2.9c5.6,0,11.4-.1,16.9-.2,12.3-.2,25-.5,37.5.5,50.3,3.9,93.3.3,131.6-11,43-12.7,70.7-39.3,82.2-79.2,7.2-24.9,11.2-52.7,12.1-85.1.9-32.5,3.8-65.3,6.5-97.1,1.4-15.7,2.8-31.9,3.9-47.8.8-10.8,1.8-21.7,2.8-32.2,2.7-28.3,5.4-57.6,3.6-86.5-1.8-29.3-13.3-48.7-36.2-61.1-7-3.8-14.3-7.4-21.3-10.9-7.4-3.7-15.1-7.5-22.5-11.6-18.6-10.1-30-22.5-33.8-36.8-3.8-14-.3-29.8,10.2-47.1,28.7-47.2,77.3-61.1,116.5-67.9,2.4-.4,4.8-.8,7.2-1.2,17.7-2.9,36-5.8,48.1-20.5,9.5-11.6,21.5-19.9,37.6-26.3,1.5-.6,3.2.1,3.8,1.7.6,1.5,0,3.2-1.7,3.8-15.2,6-26.4,13.8-35.3,24.6-13.5,16.4-32.9,19.6-51.7,22.6-2.4.4-4.8.8-7.1,1.2-40.3,7-85.1,20.2-112.5,65.2-9.7,15.9-12.9,30.2-9.5,42.5,3.4,12.7,13.8,23.8,31,33.2,7.3,4,15,7.8,22.3,11.5,7.1,3.5,14.4,7.2,21.4,11,24.5,13.2,37.3,34.8,39.3,65.9,1.8,29.4-.9,58.9-3.6,87.4-1,10.5-2,21.4-2.8,32.1-1.2,16-2.6,32.2-3.9,47.9-2.7,31.7-5.6,64.4-6.5,96.8-1,32.9-5,61.2-12.3,86.6-12,41.3-41.8,70.1-86.2,83.2-28.9,8.5-60.4,12.7-95.5,12.7v-.4Z"/>
  <path d="M1835.3,2627.9c-39.6,0-78.9-5.1-117.4-15.3-21.2-5.6-37-15.7-48.5-31-7.7-10.3-7.1-19.9,1.7-29.5,4.9-5.3,11.2-9.2,18.1-11.1,34.7-9.9,66.7-12.4,97.7-7.8l3.1.5c19.7,2.9,38.2,5.7,57.7,1.4,4.3-.9,8.6-2,12.9-2.9,14.1-3.3,28.6-6.7,43.3-7.8,29.8-2.3,54.3-1.1,77,12.3,6,3.5,9.5,7.8,10.4,12.6s-.8,10.1-5.1,15.7c-1.7,2.2-3.7,4-5.7,5.8-3.2,2.9-6.3,5.7-7.3,9.7s-2,2.5-3.6,2.1-2.5-2-2.1-3.6c1.5-5.8,5.5-9.4,9.1-12.7,1.9-1.7,3.6-3.2,5-5,3.2-4.2,4.6-7.9,4-11.1-.6-3.1-3.2-6-7.7-8.7-21.4-12.7-44.9-13.8-73.6-11.5-14.2,1.1-28.5,4.4-42.4,7.7-4.2,1-8.6,2-12.9,3-20.6,4.5-40.6,1.5-59.9-1.4l-3.1-.5c-30.2-4.5-61.3-2-95.2,7.6-5.8,1.7-11.1,4.9-15.3,9.5-6.9,7.4-7.3,14-1.3,22,10.6,14.2,25.4,23.6,45.2,28.9,52.9,13.9,107.3,18.2,161.8,12.8,3.1-.3,6.4-.7,9.5-1.2,12.5-1.7,25.4-3.4,38.3.6,1.5.5,2.4,2.1,1.9,3.7-.5,1.5-2.1,2.4-3.7,1.9-11.7-3.6-24-2-35.8-.4-3.2.4-6.5.9-9.7,1.2-15.5,1.6-31,2.3-46.5,2.3v.2Z"/>
  <path d="M2121.2,976.8h-.2c-1.6,0-2.8-1.5-2.7-3.1,1.6-20.3-10.9-33.9-24.9-47.2-33.1-31.4-76.3-54.2-135.9-71.6-47.4-13.9-90.6-22.2-132.1-25.4-55.7-4.3-120.5-3.4-179.1,35.3-1.3.9-3.2.5-4.1-.8-.9-1.4-.5-3.2.8-4.1,60.4-39.9,129.4-40.3,182.8-36.2,41.9,3.2,85.5,11.6,133.3,25.6,60.5,17.7,104.5,40.9,138.3,73,14.5,13.8,28.5,29.1,26.7,51.9-.1,1.5-1.4,2.7-2.9,2.7h0Z"/>
  <path d="M1060.3,2010.3c-2.9,0-5.8-.3-8.8-1.1-7.4-1.9-15.3-3.2-22.8-4.4-16.6-2.7-33.8-5.4-49-15.2-1-.7-2.1-1.3-3.2-1.9-5.9-3.4-13.2-7.7-14.2-18.8,0-.7,0-1.4.5-1.9,7.3-10.6,20.3-9.2,30-4.4,1.7.8,3.4,1.6,5.2,2.4,11.7,5.3,26.2,11.9,23.8,31.7,0,.4-.2.8-.4,1.1,2.7.5,5.4.9,8.1,1.3,7.7,1.2,15.7,2.5,23.4,4.5,11.6,3,23.2-2,34.5-6.9,2.4-1,4.9-2.1,7.3-3.1,1.5-.6,3.2,0,3.8,1.6.6,1.5,0,3.2-1.6,3.8-2.4,1-4.8,2-7.2,3-9.4,4.1-19.1,8.3-29.4,8.3ZM968.2,1969.4c1.1,7.3,5.8,10,11.2,13.2,1.1.7,2.3,1.3,3.4,2.1,10.3,6.6,21.4,9.8,33.2,12.1v-.8c1.9-15.5-9-20.4-20.4-25.6-1.8-.8-3.6-1.7-5.4-2.5-3.5-1.8-15.3-6.6-21.9,1.6h0Z"/>
  <path d="M800.2,1714.2h0c-1.6,0-2.9-1.3-2.9-2.9,0-10.4-.4-21.1-.9-31.4-.6-13.9-1.3-28.4-.6-42.6,0-1.6,1.4-2.9,3.1-2.8,1.6,0,2.9,1.4,2.8,3.1-.6,14,0,28.3.6,42.1.5,10.4.9,21.1.9,31.7s-1.3,2.9-2.9,2.9h0Z"/>
  <path d="M871.1,1705.1c-1.2,0-2.3-.8-2.8-2-3.2-9-6.1-18.2-8.9-27.2-4.6-14.4-9.3-29.4-15.2-43.5-.6-1.5,0-3.2,1.6-3.8,1.5-.6,3.2,0,3.8,1.6,6,14.4,10.7,29.5,15.3,44,2.8,8.9,5.7,18.1,8.9,27,.5,1.5-.3,3.2-1.8,3.7-.3,0-.7.2-1,.2h.1Z"/>
  <path d="M729.3,1708.1h-.7c-1.6-.4-2.6-1.9-2.2-3.5,4.7-19.9,11.3-46,21.2-71.3.6-1.5,2.3-2.2,3.8-1.7,1.5.6,2.2,2.3,1.7,3.8-9.8,24.9-16.3,50.7-21,70.5-.3,1.3-1.5,2.3-2.8,2.3h0Z"/>
  <path d="M934.4,1681c-1,0-2-.5-2.5-1.4-6.1-10.3-12.8-20.6-19.2-30.5-7.2-11.1-14.7-22.6-21.5-34.4-.8-1.4-.3-3.2,1.1-4,1.4-.8,3.2-.3,4,1.1,6.7,11.6,14.2,23,21.3,34.1,6.5,10,13.2,20.3,19.4,30.7.8,1.4.4,3.2-1,4-.5.3-1,.4-1.5.4h0Z"/>
  <path d="M672,1684c-.4,0-.8,0-1.2-.2-1.5-.6-2.2-2.4-1.5-3.9,3-6.8,5.8-13.7,8.5-20.5,5.6-13.8,11.4-28.1,18.7-41.6.8-1.4,2.5-2,4-1.2,1.4.8,2,2.5,1.2,4-7.1,13.2-12.9,27.3-18.4,41-2.8,6.8-5.6,13.8-8.6,20.6-.5,1.1-1.6,1.8-2.7,1.8h0Z"/>
  <path d="M619.2,1652.3c-.5,0-1.1-.2-1.6-.5-1.4-.9-1.7-2.7-.9-4.1,11-17.1,23.7-33.3,35.9-49l1.9-2.4c1-1.3,2.8-1.5,4.1-.5s1.5,2.8.5,4.1l-1.9,2.4c-12.2,15.6-24.8,31.7-35.6,48.6-.6.9-1.5,1.3-2.5,1.3h0Z"/>
  <path d="M788.5,1638c-31.2,0-61.1-5.8-89.1-17.3-23.2-9.6-49.4-22.9-67.6-49.5-.9-1.3-.6-3.2.8-4.1,1.3-.9,3.2-.6,4.1.8,17.3,25.3,42.5,38.2,65,47.4,29.3,12.1,60.9,17.7,93.9,16.8,52.4-1.5,92.7-15.7,123.3-43.6.2-.2.4-.4.5-.5,0-1.2.5-2.4,1.6-3,1.4-.7,3.2,0,3.9,1.3,1.6,3.1-1,5.5-2.1,6.5-31.7,28.8-73.2,43.6-127.1,45.1-2.4,0-4.8,0-7.2,0h0Z"/>
</svg>