<?xml version='1.0' encoding='UTF-8'?>
<!DOCTYPE svg PUBLIC "-//W3C//DTD SVG 20010904//EN" "http://www.w3.org/TR/2001/REC-SVG-20010904/DTD/svg10.dtd">
<svg xmlns="http://www.w3.org/2000/svg" id="Silhouette" version="1.0" width="1024.000000pt" height="1024.000000pt" viewBox="0 0 1024.000000 1024.000000" preserveAspectRatio="xMidYMid meet">
<g transform="translate(0.000000,1024.000000) scale(0.100000,-0.100000)" fill="#000000" stroke="none" id="Silhouette">
<path d="M6435 8380 c-15 -16 -21 -18 -33 -8 -12 11 -21 6 -49 -27 -25 -29 -41 -39 -57 -37 -28 4 -33 -4 -120 -169 -62 -119 -83 -179 -106 -300 -8 -42 -34 -95 -103 -210 -51 -85 -119 -200 -150 -256 -58 -103 -183 -374 -207 -448 -7 -22 -41 -105 -75 -185 -100 -232 -165 -415 -191 -534 -50 -233 -51 -234 -244 -389 -63 -51 -124 -107 -135 -124 -13 -20 -28 -32 -42 -33 -22 0 -155 -110 -385 -319 -57 -51 -134 -121 -171 -155 -38 -33 -97 -75 -133 -93 -146 -73 -361 -237 -465 -355 -133 -151 -198 -251 -284 -438 -50 -110 -74 -173 -201 -525 -96 -268 -195 -450 -337 -622 -103 -124 -164 -220 -218 -344 -45 -104 -231 -643 -233 -674 -1 -11 -13 -36 -27 -55 -14 -19 -37 -55 -51 -80 -15 -25 -60 -77 -102 -116 -54 -50 -78 -80 -82 -102 l-6 -32 -234 0 c-201 0 -234 -2 -234 -15 0 -13 34 -15 248 -15 198 0 256 -3 292 -16 62 -22 225 -24 264 -4 16 8 32 22 37 30 50 102 104 268 97 303 -3 15 -2 24 3 21 10 -6 24 14 104 149 35 59 110 168 165 242 111 148 153 214 223 350 51 98 77 132 244 320 61 69 166 198 234 288 137 181 338 427 407 500 77 79 71 82 332 -176 259 -256 321 -312 520 -467 271 -211 300 -242 397 -423 122 -228 203 -320 383 -439 106 -69 365 -282 434 -356 16 -17 32 -29 37 -27 11 7 22 -89 14 -124 -9 -42 11 -108 40 -127 38 -25 124 -28 264 -9 125 17 135 17 213 1 132 -28 166 -31 293 -30 66 0 416 1 778 2 580 1 657 3 657 17 0 17 -27 18 -802 15 -475 -2 -478 -2 -478 19 0 24 -11 31 -117 69 -43 16 -126 56 -184 89 -57 33 -145 81 -194 106 -50 26 -117 70 -150 98 -33 28 -70 56 -82 62 -13 5 -23 15 -23 20 0 6 -9 20 -20 32 -18 20 -19 23 -5 35 8 7 15 19 15 26 0 8 6 11 15 8 28 -11 38 36 26 117 -7 41 -14 83 -17 95 -5 18 -2 20 24 16 40 -6 44 13 17 78 -13 30 -29 77 -36 103 -9 38 -26 65 -79 121 -73 79 -73 78 -104 261 -18 105 -32 247 -41 395 -10 170 -24 259 -60 365 -22 67 -35 130 -39 190 -4 50 -16 161 -27 248 -19 149 -19 164 -5 269 30 209 18 317 -50 472 -22 49 -42 117 -50 171 l-15 90 25 19 c14 11 49 30 78 42 47 20 54 20 86 7 23 -10 48 -12 76 -7 50 8 174 51 201 70 11 8 31 14 45 14 75 0 205 101 250 194 34 71 39 177 11 241 -11 26 -21 55 -21 65 0 54 -108 157 -200 189 -135 48 -299 24 -391 -57 -25 -22 -39 -28 -50 -21 -37 23 -116 5 -163 -39 -69 -65 -77 -191 -16 -252 l20 -20 -27 -11 c-16 -6 -46 -14 -69 -16 -34 -4 -45 -1 -65 19 -14 14 -31 27 -39 30 -11 3 -11 15 5 69 20 72 25 196 12 329 -9 84 -8 87 41 252 28 91 56 204 63 250 11 68 19 91 47 127 58 77 100 175 157 364 77 256 109 338 184 464 28 48 43 64 66 69 55 12 103 43 152 99 26 30 72 72 101 92 38 26 52 43 52 60 0 48 -84 49 -144 2 -14 -11 -26 -16 -26 -11 0 6 23 74 50 152 49 138 61 202 40 215 -5 3 -10 19 -10 35 0 19 -7 33 -19 40 -26 13 -25 13 -46 -10z m31 -47 c-4 -16 -29 -75 -57 -132 -34 -72 -47 -107 -39 -115 15 -15 27 1 76 101 24 48 40 75 37 58 -7 -35 -89 -258 -109 -297 -36 -70 -1 -82 79 -28 33 22 69 40 79 40 25 0 -151 -172 -204 -200 -52 -28 -77 -25 -127 16 -49 38 -84 42 -89 8 -3 -20 33 -59 81 -89 14 -9 11 -18 -23 -74 -49 -80 -106 -226 -155 -396 -20 -71 -47 -160 -60 -197 -26 -75 -75 -163 -75 -135 0 9 -7 17 -16 17 -22 0 -68 -104 -60 -137 9 -35 -17 -158 -76 -353 l-50 -165 13 -96 c16 -130 8 -270 -19 -333 -12 -26 -20 -52 -17 -56 6 -10 -100 -55 -173 -74 -169 -44 -268 -58 -362 -54 -53 3 -104 9 -114 15 -17 10 -17 11 5 27 13 9 58 40 99 69 42 29 101 84 136 126 69 82 150 143 164 121 22 -36 -37 -148 -116 -218 -54 -47 -64 -72 -28 -72 21 0 105 87 137 140 58 100 59 190 2 190 -14 0 -36 -7 -49 -15 l-23 -15 15 62 c61 266 95 367 207 623 31 72 69 166 85 210 37 101 139 328 190 421 21 39 86 150 143 245 120 201 122 206 142 319 12 66 30 114 81 215 74 146 109 195 65 90 -28 -66 -28 -97 -1 -80 6 4 26 40 45 80 39 87 85 158 85 132 0 -10 -20 -58 -45 -107 -48 -96 -54 -120 -30 -120 10 0 38 48 78 130 59 124 87 163 73 103z m45 -2222 c31 -12 75 -39 99 -61 l43 -40 -7 -56 c-3 -31 -9 -61 -12 -66 -3 -4 -25 9 -50 30 -76 67 -183 82 -316 43 -66 -19 -68 -19 -68 -1 0 32 -12 51 -37 61 -29 11 -58 -1 -92 -39 l-23 -27 18 34 c33 58 122 121 201 141 60 15 181 5 244 -19z m-467 -67 c13 -5 12 -11 -8 -42 -25 -39 -48 -98 -66 -169 -8 -32 -16 -43 -30 -43 -37 0 -67 74 -56 135 14 73 104 140 160 119z m96 -87 c0 -51 34 -58 150 -27 135 35 209 21 291 -55 27 -25 52 -45 57 -45 5 0 8 -33 8 -73 -1 -62 -5 -80 -28 -114 -72 -109 -301 -233 -430 -233 -50 0 -84 34 -128 125 -42 87 -41 153 0 219 39 61 49 103 26 112 -38 15 0 108 47 113 4 1 7 -9 7 -22z m-104 -53 c-4 -16 -1 -35 8 -49 14 -21 13 -23 -10 -34 -22 -10 -24 -9 -20 12 3 12 8 39 11 60 3 20 8 37 12 37 3 0 2 -12 -1 -26z m678 -77 c13 -85 -27 -189 -95 -252 -28 -26 -27 -23 12 29 l44 59 0 91 c1 88 7 116 24 116 5 0 12 -20 15 -43z m-769 -104 c-8 -16 -69 -88 -135 -162 -159 -178 -158 -196 3 -167 51 9 116 21 146 26 56 10 81 24 81 45 0 7 -15 38 -34 69 -47 78 -54 126 -26 171 12 19 23 35 24 35 2 0 -2 -18 -8 -40 -13 -52 11 -151 54 -222 17 -26 30 -50 30 -52 0 -2 -28 -17 -62 -34 -72 -34 -108 -64 -108 -92 0 -27 -96 -137 -163 -187 -105 -77 -167 -76 -236 2 -50 58 -73 119 -79 211 -4 76 -2 86 24 135 30 54 112 127 223 199 45 28 65 34 110 35 38 1 74 9 111 27 30 15 56 27 58 27 1 1 -4 -11 -13 -26z m-225 10 c-1 -5 -44 -37 -97 -73 -164 -111 -219 -179 -230 -285 -13 -124 67 -293 160 -342 87 -44 237 37 345 186 31 42 32 43 32 17 0 -29 -17 -54 -115 -176 -33 -41 -99 -124 -145 -184 -135 -174 -226 -222 -400 -210 l-95 6 -91 -60 c-50 -33 -98 -70 -107 -82 l-16 -23 -38 31 c-65 51 -173 170 -270 297 -112 147 -183 226 -244 275 l-47 37 77 61 c42 33 121 103 177 154 55 51 146 133 202 181 l101 88 59 -16 c162 -41 455 -1 637 89 68 34 105 44 105 29z m250 -211 c16 -23 30 -47 30 -52 0 -5 -15 -11 -32 -14 -18 -3 -74 -12 -124 -20 -51 -9 -97 -16 -103 -16 -7 0 30 48 81 106 51 58 95 111 97 117 3 7 8 -8 13 -33 4 -25 21 -64 38 -88z m64 -597 c24 -85 27 -165 11 -285 -19 -144 -19 -211 0 -347 8 -59 19 -160 25 -223 7 -76 21 -144 40 -200 41 -121 48 -165 60 -366 13 -228 38 -410 76 -573 3 -13 34 -54 69 -90 58 -60 68 -77 99 -166 l34 -100 -29 35 c-16 19 -29 38 -29 43 0 5 -9 22 -21 38 -14 20 -29 29 -48 29 -41 0 -113 41 -139 80 -20 29 -23 43 -18 83 6 53 -10 70 -45 49 -26 -16 -26 -16 -34 25 -3 20 -35 134 -70 252 -70 239 -150 573 -159 666 -3 34 -21 125 -40 204 -41 163 -56 270 -56 386 0 111 -16 204 -38 234 -11 15 -37 33 -60 41 -35 13 -39 18 -30 33 9 18 10 18 23 0 11 -15 26 -18 92 -16 52 2 88 -2 108 -12 28 -14 25 -15 -55 -10 -78 5 -83 4 -65 -10 61 -48 185 -44 185 5 0 36 -46 55 -137 56 -46 1 -86 4 -89 7 -6 6 53 85 180 241 l79 96 34 -77 c18 -43 40 -100 47 -128z m-1589 103 c45 -46 126 -141 180 -213 55 -71 118 -150 140 -174 22 -25 33 -41 25 -36 -41 23 -194 148 -263 214 -77 74 -234 258 -226 265 11 9 45 25 54 26 5 0 46 -37 90 -82z m-242 -8 c-32 -65 13 -163 129 -286 92 -96 179 -162 298 -223 106 -55 185 -81 242 -81 47 0 49 -15 13 -86 -39 -78 -36 -89 66 -210 139 -166 239 -304 336 -464 48 -80 123 -197 165 -260 75 -111 77 -115 55 -123 -71 -27 -112 -52 -177 -106 -70 -59 -131 -88 -154 -73 -26 16 -367 291 -436 351 -41 36 -179 167 -305 292 -146 144 -240 230 -258 234 -61 16 -98 -18 -312 -280 -59 -71 -158 -198 -220 -281 -63 -83 -165 -208 -227 -279 -180 -203 -204 -235 -277 -372 -55 -104 -248 -392 -294 -438 -14 -14 128 257 173 330 20 33 61 98 91 144 69 109 72 147 16 236 -20 33 -37 64 -37 68 0 4 24 -6 53 -22 95 -53 161 -49 212 10 55 66 8 170 -88 194 -42 11 -36 -28 8 -55 52 -32 65 -48 65 -80 0 -38 -41 -70 -89 -70 -21 0 -59 12 -91 30 -115 61 -138 26 -61 -95 46 -73 42 -104 -25 -211 -110 -174 -131 -211 -242 -427 -62 -120 -124 -236 -137 -258 -25 -38 -26 -39 -53 -25 -15 8 -47 19 -70 26 -34 9 -43 15 -38 28 57 174 182 529 210 598 54 133 113 231 219 362 52 64 114 146 137 182 64 100 162 309 219 470 157 439 245 644 332 767 68 95 200 242 278 308 53 44 273 201 288 205 1 0 -5 -14 -14 -30z m150 -62 c119 -150 277 -289 480 -423 101 -68 103 -85 5 -66 -152 30 -309 121 -454 266 -107 106 -154 178 -154 237 0 33 23 78 40 78 5 0 42 -42 83 -92z m1322 -260 c34 -15 45 -61 45 -190 0 -137 12 -224 60 -433 21 -93 43 -204 49 -245 13 -100 74 -364 123 -530 82 -276 118 -421 118 -478 0 -53 10 -98 54 -237 l15 -50 -41 45 c-22 25 -126 148 -229 275 -148 179 -189 236 -189 258 0 41 -28 95 -71 138 -21 21 -43 48 -50 61 -6 13 -38 59 -69 103 -32 44 -97 145 -145 225 -107 179 -171 270 -300 428 -55 68 -113 141 -129 163 l-29 39 28 55 c15 31 30 79 33 106 3 29 9 49 17 49 6 0 22 11 35 25 13 14 58 49 99 78 l76 52 108 -3 c122 -4 173 8 247 58 48 33 87 35 145 8z m-72 -1497 c20 -27 37 -60 37 -74 0 -22 -5 -25 -48 -31 -66 -9 -137 -45 -137 -71 0 -31 86 -27 153 6 l53 26 122 -151 c173 -215 422 -507 511 -601 l76 -80 -33 -24 c-17 -14 -59 -52 -93 -86 l-61 -60 -96 86 c-139 125 -267 226 -384 303 -150 99 -234 199 -353 420 -29 54 -72 122 -95 151 l-43 52 32 11 c17 7 58 35 91 63 82 70 152 109 195 108 30 0 40 -7 73 -48z m604 -474 c21 -14 57 -32 81 -39 50 -15 70 -49 102 -172 22 -85 28 -184 9 -136 -6 14 -21 63 -33 110 -16 59 -28 86 -39 88 -24 5 -22 -15 14 -135 17 -57 28 -107 25 -110 -10 -11 -15 1 -47 108 -36 121 -45 139 -64 139 -19 0 -19 -2 10 -100 14 -46 23 -85 21 -87 -2 -3 -18 33 -35 79 -37 99 -43 110 -61 116 -10 4 -12 -4 -7 -33 8 -52 4 -44 -33 60 -34 98 -53 196 -43 233 5 21 9 16 34 -36 19 -39 42 -68 66 -85z m27 -303 c5 -14 4 -15 -9 -4 -17 14 -19 20 -6 20 5 0 12 -7 15 -16z m100 -110 c5 -14 4 -15 -9 -4 -17 14 -19 20 -6 20 5 0 12 -7 15 -16z m146 -190 c36 -31 92 -69 125 -86 33 -17 129 -69 214 -116 84 -47 187 -98 228 -112 41 -14 75 -31 76 -36 1 -5 -54 -10 -128 -12 -104 -2 -150 2 -229 19 -80 17 -116 20 -190 15 -277 -20 -302 -20 -325 3 -18 18 -21 33 -21 112 l0 90 88 88 c48 48 89 88 92 89 3 1 34 -23 70 -54z m-150 23 c0 -1 -24 -25 -52 -52 l-53 -50 50 53 c46 48 55 57 55 49z m-3725 -68 c35 -17 36 -18 10 -13 -16 3 -48 14 -70 24 -35 17 -36 18 -10 13 17 -3 48 -14 70 -24z m-59 -25 c22 -9 58 -19 81 -23 l41 -6 -21 -68 c-17 -53 -25 -66 -34 -56 -10 10 -16 9 -28 -1 -13 -11 -16 -28 -13 -84 3 -66 2 -71 -22 -84 -31 -16 -211 -10 -252 9 -45 20 -35 45 51 126 55 51 90 94 113 139 18 35 36 64 39 64 4 0 24 -7 45 -16z"/>
</g>
</svg>
