<?xml version="1.0" encoding="utf-8"?>
<!-- Generator: Adobe Illustrator 24.0.1, SVG Export Plug-In . SVG Version: 6.00 Build 0)  -->
<svg version="1.1" id="Слой_2" xmlns="http://www.w3.org/2000/svg" xmlns:xlink="http://www.w3.org/1999/xlink" x="0px" y="0px"
	 viewBox="0 0 2000 1600" style="enable-background:new 0 0 2000 1600;" xml:space="preserve">
<style type="text/css">
	.st0{fill:#EFEFEF;}
</style>
<g>
	<path d="M1310.61,1554.71c-3.81,0-7.46-1.59-8.88-2.28c-5.23-2.57-7.76-30.51-10.36-77.9c-0.43-7.83-0.77-14.02-1.06-16.84
		c-0.28-2.74-1.23-4.68-2.91-5.94c-3.76-2.81-10.5-1.58-15.41-0.67c-1.15,0.21-2.24,0.41-3.17,0.54
		c-3.54,0.47-11.45-0.28-19.24-2.76c-2.39,1.36-5.03,2.02-7.76,1.68c-6.13-0.78-11.13-4.38-14.08-10.16
		c-3.3-6.46-3.45-14.59-0.37-20.23c5.42-9.94,22.07-12.77,28.97-10.93c3.31,0.88,5.48-2.58,9.33-9.32c0.15-0.27,0.31-0.54,0.47-0.82
		c-3.29-0.12-6.39-0.2-9.17-0.28l-0.69-0.02c-6.28-0.18-10.11,2.67-14.17,5.68c-6.08,4.5-12.38,9.15-26.5,1.82
		c-10.59-5.5-19.35-6.55-26.03-3.11c-7.22,3.71-11.88,12.56-13.84,26.29c-3.96,27.72-42.15,39.06-43.77,39.53l-0.55-1.92
		c0.38-0.11,38.57-11.45,42.34-37.89c2.06-14.41,7.07-23.75,14.91-27.78c7.29-3.75,16.66-2.7,27.86,3.11
		c13.01,6.76,18.28,2.86,24.39-1.65c4.16-3.07,8.48-6.25,15.41-6.07l0.69,0.02c3.09,0.08,6.56,0.17,10.25,0.32
		c1.65-2.82,3.52-5.84,5.85-8.86c3.42-4.44,15.13-2,31.33,1.38c20.8,4.34,46.68,9.74,60.01,0.43c4.73-3.31,7.51-8.16,8.49-14.83
		c2.46-16.75,1.44-28.32-1.45-36.43c-24.06-5.4-82.52-3.89-103.35-1.58c-3.52,0.39-11.65,2.02-22.94,4.47
		c-26.97,14.78-77.91,31.57-101.72,39.04c-51.1,16.04-105.94,30.12-130.4,33.47c-14.92,2.04-27.82-5.48-37.31-21.75
		c-16.83-28.83-18.22-78.92-2.76-99.24c0.35-0.43,33.16-40.84,52.79-67.55c19.11-25.99-21.41-62.97-21.82-63.34l-0.21-0.19
		l-0.08-0.27c-0.56-1.87-5.64-4-23.79-4.98c-10.06,0.03-20.13,0.05-30.15,0.07c-7.86,0.01-18.77,0.03-32.03,0.04
		c-21.12,0.63-44.14,1.63-66.69,2.61c-32.56,1.41-63.32,2.74-86.97,2.95c-38.49,0.34-113.72-2.89-177.61-7.59
		c-75.48-1.3-133.22-3.41-137.21-6.82c-2.46-2.1-5.17-14.71-0.35-99.6c2.88-50.69,8.02-119.55,15.28-204.67
		c12.38-145.3,27.28-294.33,28.23-296.24c1.21-2.42,14.13-3.61,38.37-3.52l1.17,0l0.08,0.95c0.03,0.57,0.04,0.8-1.02,1.02l0,0.03
		l-0.18,0c-0.78,0.14-2.05,0.28-4.12,0.51c-6.67,0.73-26.45,2.89-29.53,3.94c-1.06,8.89-12.05,148.87-22.64,288.39
		c-13.55,178.5-21.37,288.71-20.91,294.8c0.08,1.03,3,4.76,37.38,9.71c21.53,3.1,52.23,6.21,88.78,8.99
		c2.17,0.17,4.35,0.33,6.55,0.49c81.71,1.43,196.21,2.17,332.38,2.05c25.41-0.75,46.08-0.92,60.88-0.11
		c258.92-0.71,462.51-4.29,469.12-8.34c1.4-1.02,4.06-12.42-1.58-96.17c-3.34-49.54-9.09-117.83-17.1-202.98
		c-4.81-51.18-9.88-102.43-14.43-147.39c-5.94-47.47-13.46-102.91-20.52-145.22c-7.98-1.93-21.15-5.11-24.59-5.91
		c-0.95,4.85-1.92,33.33-2.33,51.2l27.59,284.16l-1.07,0.03L970.41,898l-274.61-4.1l-0.12,3.1c96.38,1.89,208.32,3.23,269.91,3.8
		l0.98,0.01l2.08,212.42H685.58l8.03-214.25c-173.68-3.41-175.16-6.37-175.82-7.7c-3.45-6.89,9.39-266.35,10.86-295.92l0.05-0.96
		l8.21,0.05l3-50.16h823.22c1.23-0.21,17.37-3.05,28.09-11.63c-4.52-24.32-8.67-41.14-11.86-44.33
		c-2.01-1.94-26.46-4.82-134.78-7.18c-231.85-1.17-717.92-3.87-724.17-3.91l0-2c2.11-0.01,213.91-0.59,424.66,0.52
		c142.15,0.75,237.7,1.99,302,3.4c63.07,0.32,106.84,0.52,116.14,0.52c3.76,0,8.25-2.71,13.35-8.07
		c29.95-31.41,69.83-139.45,85.59-184.45c27.18-77.6,48.62-154.74,47.8-171.97c-0.03-0.62-0.64-1.22-1.14-1.61
		c-18.6-14.52-216.94-22.23-558.49-21.74c-271.87,0.4-532.3,5.97-545.13,8.54c-0.5,0.1-0.92,0.46-1.29,1.09
		c-16.16,28.4,126.61,434.21,128.06,438.31l0.6,1.71l-1.77-0.4c-3.52-0.8-34.53-8.02-38.52-13.65c-3.85-5.44-5.07-22.41-5.2-24.35
		c-1.77-4.56-42.97-110.95-82.76-217.45c-82.04-219.58-78.3-225.7-77.07-227.71c0.32-0.53,0.97-0.91,3.31-1.31
		c33.07-5.62,363.24-3.61,635.93-0.18c236.51,2.98,590.56,9.18,596.57,14.1c1.59,1.3,4.89,4-34.91,112.94
		c-22.72,62.19-52.66,140.42-76.72,203.28c-24.19,63.19-45.07,117.76-45.17,121.07c0,9.57,0,13.53-11.58,24.48
		c-0.42,0.4-0.86,0.79-1.3,1.17c1.15,6.17,2.3,12.77,3.47,19.68c2.77,0.67,4.7,1.14,5,1.21l0.68,0.17l0.08,0.7
		c0.1,0.95,6.75,62.79,15.15,145.78c3.12,24.93,5.25,43.11,5.75,47.39c8.17,2.66,96.3,30.63,127.37,10.98
		c6.13-3.88,9.67-9.45,10.52-16.57c3.18-26.49,13.91-26.79,27.5-27.17c14.54-0.4,32.63-0.9,51.79-31.46
		c19.77-31.53,48.59-37.4,69.26-36.77c22.33,0.68,40.26,8.9,40.43,8.99l3.64,1.69c9.35-2.49,23.73-1.44,41.97,3.18
		c17.63,4.47,41.19,34.71,63.02,80.9c20.49,43.37,33.73,88.76,33.73,115.64c0,25.56-12.26,44.46-36.44,56.18
		c-22.59,10.95-50.96,13.25-70.78,13.25c-47.3,0-77.12-48.88-81.17-94.87c-1.97-22.36-10.49-41.9-18.72-60.81
		c-8.73-20.03-17.76-40.74-18.56-64.35c-0.64-19.02,9.52-33.8,29.38-42.75c14.86-6.7,30.13-7.8,30.28-7.81l18.23-0.27
		c-6.64-2.44-19.84-6.51-35.15-6.97c-29.32-0.88-51.98,11.18-67.44,35.83c-19.73,31.47-39.21,32-53.43,32.4
		c-13.61,0.38-22.6,0.62-25.57,25.4c-0.93,7.75-4.78,13.81-11.44,18.03c-8.43,5.33-20.68,7.33-34.33,7.33
		c-38.89,0-89.16-16.26-94.92-18.17c3.11,31.37,6.32,64.42,9.42,97.43c27.67,294.24,20.18,299,17.72,300.57
		c-7.45,4.74-230.72,7.85-452.73,8.6c4.79,1.02,7.66,2.39,8.43,4.17c1.44,1.33,11.05,10.41,18.43,22.25
		c10.67,17.11,11.87,32.19,3.48,43.6c-19.66,26.74-52.5,67.19-52.83,67.6c-15.04,19.77-13.58,68.73,2.91,96.99
		c6.31,10.82,17.58,23.21,35.32,20.77c38.87-5.32,170.89-42.07,225.01-68.92c-10.13,2.23-22.14,4.94-35.25,7.9
		c-15.02,3.39-29.81,6.71-44.14,9.87c-53.47,19.41-116.38,39.44-139.61,39.44c-13.9,0-26.29-8.57-34.89-24.12
		c-13.27-24-15.01-59.37-3.79-77.22c17.99-28.65,171.47-80.21,225.78-87.88c21.44-3.03,40.91,10.03,53.39,35.83
		c15.25,31.51,15.08,70.56-0.37,85.27c-2.04,1.94-4.81,3.97-8.18,6.07c8.26-1.75,14.24-2.9,17.16-3.22
		c15.38-1.71,75.82-4.16,102.72,1.4c-2.37-5.51-5.68-9.22-9.26-11.8c-1.48,1.36-3.02,2.5-4.49,3.4c-5.52,3.36-11.23,4.12-15.27,2.03
		c-9.82-5.08-17.99-22.2-13.19-34.21c3.28-8.21,16.22-12.37,38.44-12.37c3.84,0,4.66-1.69,5.6-3.64c0.87-1.79,1.85-3.82,5.05-4.18
		c5.4-0.59,40.23,3.08,50.46,15.36c10.39,12.47-2.74,33.48-9.05,43.58c-6.29,10.06-21.37,101.86-22.03,109.16
		c-0.39,4.33-6.13,6.9-11.3,7.45c-5.59,0.6-12.82-0.94-14.79-7.24c-2.42-7.73,3.49-47.38,7.8-76.34
		c1.61-10.83,2.89-19.39,3.25-23.21c0.06-0.67-0.22-1.31-0.87-1.95c-1.3-1.29-3.78-2.37-7.15-3.29c2.64,8.32,3.47,19.89,1.08,36.14
		c-1.05,7.15-4.19,12.59-9.33,16.18c-14.04,9.8-40.39,4.3-61.56-0.11c-13.72-2.86-26.69-5.57-29.34-2.12
		c-2.01,2.61-3.69,5.24-5.17,7.74c16.31,0.74,36.18,2.68,47.1,9.5c12.83,8.02,9.2,16.54,3.18,30.67c-0.88,2.08-1.83,4.29-2.79,6.66
		c-7.66,18.93,0.48,69.56,3.54,88.63c1.65,10.28,0.34,17.07-3.89,20.2C1314.83,1554.24,1312.69,1554.71,1310.61,1554.71z
		 M1280.72,1448.02c2.92,0,5.72,0.52,7.88,2.14c2.11,1.58,3.36,4.05,3.7,7.33c0.3,2.87,0.64,9.08,1.07,16.93
		c1.21,22.04,4.05,73.66,9.25,76.21c1.94,0.95,8.58,3.81,12.87,0.63c3.53-2.61,4.6-8.93,3.1-18.28
		c-4.85-30.15-10.48-72.26-3.42-89.69c0.96-2.38,1.91-4.6,2.8-6.69c5.98-14.03,8.98-21.07-2.4-28.19
		c-10.76-6.73-30.9-8.56-47.18-9.25c-0.34,0.58-0.66,1.16-0.99,1.72c-3.7,6.47-6.61,11.59-11.58,10.26
		c-6.53-1.74-21.92,1.2-26.7,9.95c-2.78,5.09-2.62,12.47,0.39,18.37c2.64,5.17,7.1,8.39,12.55,9.09c1.64,0.21,3.26-0.04,4.81-0.63
		c-6.45-2.43-12.46-6.12-15.37-11.37c-2.61-4.69-2.55-9.24,0.16-12.8c3.88-5.1,12.39-7.09,21.17-4.97
		c5.82,1.41,8.59,6.87,7.23,14.24c-1.02,5.54-4.15,11.05-8.36,14.39c6.96,2.01,13.78,2.64,16.85,2.23c0.88-0.12,1.94-0.31,3.07-0.52
		C1274.35,1448.62,1277.6,1448.02,1280.72,1448.02z M1373.08,1337.2c4.39,1.08,7.64,2.42,9.32,4.06c1.09,1.07,1.58,2.27,1.45,3.56
		c-0.37,3.87-1.65,12.45-3.26,23.32c-4.04,27.14-10.15,68.16-7.87,75.45c1.61,5.14,7.83,6.36,12.67,5.85
		c5.18-0.55,9.28-2.98,9.52-5.64c0.67-7.33,15.7-99.43,22.33-110.04c6.06-9.7,18.68-29.88,9.21-41.23
		c-9.19-11.03-42.23-15.38-48.7-14.65c-2.11,0.23-2.68,1.42-3.47,3.06c-1.03,2.13-2.31,4.77-7.4,4.77c-6.31,0-11.57,0.34-15.95,0.93
		c0.78,0,1.58,0.06,2.4,0.19c8.25,1.23,17.16,8.76,17.16,18.76c0,7.28-3.44,13.44-7.62,17.82
		C1366.9,1326.37,1370.58,1330.68,1373.08,1337.2z M1245.88,1419.93c-5.46,0-10.16,1.79-12.63,5.03c-2.23,2.93-2.24,6.61-0.01,10.62
		c2.91,5.24,9.35,8.83,16.05,11.08c4.38-2.88,7.79-8.5,8.8-14c0.44-2.37,1.31-10.22-5.74-11.93
		C1250.15,1420.19,1247.96,1419.93,1245.88,1419.93z M1211.94,1212.88c-1.9,0-3.81,0.14-5.74,0.41
		c-27.26,3.85-79.31,18.71-126.56,36.14c-54.5,20.1-90.15,38.63-97.8,50.82c-10.87,17.31-9.11,51.75,3.85,75.19
		c5.82,10.53,16.3,23.09,33.14,23.09c21.05,0,74.9-16.56,124.56-34.13c-58.96,12.87-107.94,22.5-127.96,22.5
		c-4.62,0-7.69-0.51-8.99-1.62c-13.86-11.78-20.4-60.76-13.34-79.4c3.47-9.14,31.89-23.5,76.05-38.43
		c43.18-14.6,91.09-26.11,125.05-30.06c40.26-4.67,54.09,18.36,58.76,32.5c7.84,23.74,0.3,50.83-11.18,57.43
		c-8.08,4.65-35.77,16.11-69.35,28.62c10.48-2.34,20.5-4.6,29.7-6.68c16.35-3.69,30.99-6.99,42.44-9.47
		c5.69-3.15,10.12-6.12,12.98-8.84c14.62-13.92,14.59-52.68-0.05-82.95C1246.56,1225.39,1230.19,1212.88,1211.94,1212.88z
		 M1204.32,1238.79c-3.1,0-6.39,0.19-9.89,0.6c-33.83,3.93-81.59,15.41-124.64,29.96c-42.94,14.52-71.61,28.79-74.82,37.25
		c-7.29,19.22,0.58,66.82,12.76,77.17c7.03,5.97,84.26-10,150.3-24.61c39.41-14.33,73.63-28.3,82.76-33.55
		c10.77-6.2,17.62-32.83,10.28-55.08C1246.99,1258.18,1235.59,1238.79,1204.32,1238.79z M1346.43,1287.38
		c-10.68,2.15-14.77,6.02-16.14,9.44c-4.33,10.82,3.23,27.02,12.25,31.69c3.42,1.76,8.39,1.03,13.31-1.96
		c1.25-0.76,2.55-1.71,3.82-2.83c-2.58-1.59-5.26-2.67-7.79-3.47c-9.74-3.11-18.04-7.34-12.72-24.73
		C1340.41,1291.43,1342.98,1288.63,1346.43,1287.38z M1350.96,1288.65c-3.24,0-7.96,1.17-9.88,7.44
		c-4.8,15.69,2.01,19.24,11.42,22.24c2.82,0.9,5.81,2.12,8.69,3.93c3.98-4.07,7.29-9.85,7.29-16.68c0-8.94-8.02-15.67-15.46-16.78
		C1352.47,1288.72,1351.76,1288.65,1350.96,1288.65z M625.1,1155.57c53.41,3.25,108.05,5.29,138.96,5.01
		c23.61-0.21,54.35-1.54,86.9-2.95c4.91-0.21,9.73-0.42,14.45-0.62C797.52,1156.94,705.43,1156.62,625.1,1155.57z M494.24,548.57
		c-1.21,6.1-15.69,150.26-28.2,297.23c-22.49,264.28-18.32,298.44-15.48,300.86c2.73,2.31,39.44,4.24,102.6,5.66
		c-25.01-2.19-46.28-4.52-62.42-6.85c-34.25-4.93-38.88-8.76-39.08-11.54c-0.67-8.96,14.51-210.75,21.06-297.1
		c0.22-2.86,21.75-285.96,22.74-287.44c0.44-0.66,1.97-1.28,15-2.88C501.33,546.92,495.29,547.65,494.24,548.57z M687.65,1111.23
		h278.98l-2.04-208.44c-11.25-0.11-116.68-1.13-221.19-2.9c-17.22-0.29-33.11-0.58-47.79-0.87L687.65,1111.23z M1753.42,658.29
		l-26.62,0.39c-0.1,0.01-15.05,1.09-29.59,7.66c-19.3,8.71-28.77,22.45-28.15,40.84c0.78,23.23,9.34,42.85,18.39,63.62
		c8.3,19.05,16.89,38.74,18.88,61.43c3.96,45.11,33.06,93.04,79.17,93.04c19.61,0,47.65-2.26,69.9-13.05
		c23.43-11.36,35.31-29.65,35.31-54.38c0-26.61-13.17-71.66-33.54-114.79c-21.57-45.66-44.64-75.5-61.7-79.82
		c-25.04-6.34-42.41-5.94-48.93,1.13c-3.17,3.44-3.66,8.46-1.45,14.94c7.17,20.99,25.44,55.17,35.03,57.57
		c7.06,1.76,15.79,1.72,19.4-2.34c2.23-2.52,2.36-6.44,0.37-11.65c-2.93-7.67-10.06-21.72-18-33.63c2.13,7.64,2.76,14.77,1.27,18.75
		c-0.63,1.69-1.63,2.77-2.95,3.21c-1.33,0.44-2.81,0.22-4.4-0.66c-1.3-0.72-2.69-1.93-4.08-3.5c-0.93-0.24-1.9-0.56-2.91-0.96
		c-6.95-2.78-16-13.11-17.89-23.49c-1.07-5.89,0.42-10.88,4.31-14.43c1.82-1.66,4.02-2.2,6.55-1.6c3.96,0.94,8.52,4.77,13.13,10.09
		c-0.63-1.25-1.3-2.47-2-3.67c-8.11-13.74-18-9.02-18.1-8.98l-0.89-1.79c0.12-0.06,11.67-5.57,20.71,9.75
		c1.97,3.34,3.7,7.02,5.12,10.77c9.54,12.92,18.5,30.23,22.01,39.43c2.28,5.96,2.03,10.57-0.74,13.69
		c-4.44,5.01-14.29,4.72-21.38,2.96c-10.74-2.68-29.04-37.2-36.43-58.86c-2.47-7.22-1.84-12.92,1.87-16.94
		C1747.03,660.9,1749.84,659.32,1753.42,658.29z M519.53,890.24c5.42,2.61,82.5,4.92,174.15,6.73l0.19-5.09l276.52,4.13
		l423.17-13.67l-27.4-282.16l0-0.06c1.19-51.65,2.59-52.77,3.05-53.13l0.36-0.29l0.52,0.07c1.07,0.21,15.6,3.72,24.63,5.91
		c-1.05-6.25-2.09-12.2-3.12-17.78c-11.44,8.68-27.52,11.28-28.26,11.4l-0.15,0.01H541.79l-2.88,48.17l826.51,5.43l0.08,0.91
		l22.71,277.99l-1.08,0l-867.45,4.12l0.06-1.06l17.05-285.4l-6.19-0.04C526.62,676.34,517.07,880.9,519.53,890.24z M538.79,596.48
		L521.8,880.92l864.24-4.1l-22.46-274.92L538.79,596.48z M1775.05,707.6c0.58,0.5,1.16,0.91,1.71,1.22c1.08,0.6,2.02,0.77,2.8,0.51
		c0.72-0.24,1.3-0.92,1.71-2.02c0.37-0.98,0.58-2.26,0.66-3.75c-0.17,0.68-0.47,1.29-0.88,1.82
		C1779.83,706.97,1777.73,707.72,1775.05,707.6z M1772.76,705.25c3.13,0.69,5.61,0.33,6.7-1.09c1.75-2.28,0.12-7.09-4.46-13.2
		c-10.17-13.56-13.62-16.52-14.7-16.56c-0.12,0.23-0.47,1.41,0.64,6.02C1763.2,689.73,1768.11,699.76,1772.76,705.25z
		 M1759.85,668.34c-1.24,0-2.33,0.43-3.29,1.31c-3.4,3.11-4.65,7.35-3.69,12.6c1.71,9.4,10.12,19.3,16.56,21.95
		c-4.28-5.96-8.38-14.82-10.42-23.3c-1.25-5.17-1.12-7.58,0.43-8.31c2.11-0.99,5.34,1.39,17.18,17.18c2.79,3.72,4.54,7.03,5.21,9.77
		c-0.41-4.56-1.72-10.19-3.85-15.88c-5.83-7.89-11.79-13.98-16.65-15.13C1760.8,668.4,1760.32,668.34,1759.85,668.34z
		 M1397.19,555.32c3.88,23.26,7.79,49.91,11.38,75.87c-4.34-41.88-7.38-70.26-7.9-75.03
		C1399.97,555.99,1398.75,555.7,1397.19,555.32z M328.92,59.08c-1.36,3.58,7.16,38.19,77.45,226.33
		c40.41,108.15,82.21,216.04,82.63,217.11l0.07,0.3c0.01,0.18,1.17,18.29,4.84,23.47c2.57,3.63,22.03,9.26,35.56,12.44
		c-11.52-32.75-143.53-409.72-127.3-438.25c0.65-1.15,1.54-1.84,2.63-2.06c12.89-2.58,273.54-8.18,545.52-8.58
		c241.94-0.35,535.44,3.2,559.73,22.16c1.22,0.95,1.86,1.99,1.91,3.09c0.84,17.74-20.2,93.61-47.91,172.72
		c-15.8,45.12-55.82,153.48-86.03,185.17c-5.5,5.76-10.48,8.69-14.8,8.69c-4.54,0-17.29-0.05-36.49-0.13
		c50.83,2.17,52.98,4.3,54.05,5.37c3.42,3.42,7.67,20.42,12.16,44.27c0.12-0.11,0.24-0.22,0.36-0.33
		c10.96-10.37,10.96-13.82,10.96-23.03c0-3.28,15.53-44.01,45.3-121.78c23.81-62.2,53.44-139.62,76.07-201.48
		c32.11-87.8,37.43-109.71,36.15-112.46c-9.46-3.65-285.01-9.87-616.08-13.91C585.32,53.8,337.89,54.16,328.92,59.08z M328.83,59.13
		C328.83,59.13,328.83,59.13,328.83,59.13L328.83,59.13z"/>
</g>
</svg>
