<?xml version="1.0" encoding="UTF-8" standalone="no"?>
<!DOCTYPE svg PUBLIC "-//W3C//DTD SVG 1.1//EN" "http://www.w3.org/Graphics/SVG/1.1/DTD/svg11.dtd">
<!-- Created with Vectornator (http://vectornator.io/) -->
<svg height="100%" stroke-miterlimit="10" style="fill-rule:nonzero;clip-rule:evenodd;stroke-linecap:round;stroke-linejoin:round;" version="1.1" viewBox="0 0 3000 3000" width="100%" xml:space="preserve" xmlns="http://www.w3.org/2000/svg" xmlns:xlink="http://www.w3.org/1999/xlink">
<defs/>
<clipPath id="ArtboardFrame">
<rect height="3000" width="3000" x="0" y="0"/>
</clipPath>
<g clip-path="url(#ArtboardFrame)" id="Hand">
<path d="M1459.5 1503.06L1325.16 1506.66C1322.82 1506.72 1320.83 1508.4 1320.38 1510.69L1290.41 1660.62C1290.31 1661.09 1290.27 1661.59 1290.31 1662.06L1311.91 1903.12L1311.91 1903.19L1309.5 2132.16L1181.78 2477.25C1181.48 2478.06 1181.39 2478.93 1181.53 2479.78L1201.59 2604.56L1211.47 2602.97L1191.62 2479.47L1319.19 2134.81C1319.39 2134.27 1319.49 2133.7 1319.5 2133.12L1321.91 1902.81C1321.91 1902.65 1321.89 1902.48 1321.88 1902.31L1300.34 1661.84L1329.41 1516.56L1459.78 1513.06L1459.5 1503.06Z" fill="#2a2e31" fill-rule="nonzero" opacity="1" stroke="none"/>
<path d="M1459.47 1503L1450.06 1506.38L1492.56 1625.38L1501.25 1788.25C1501.27 1788.53 1501.31 1788.82 1501.38 1789.09L1557.16 2035.59L1566.91 2033.41L1511.22 1787.34L1502.53 1624.12C1502.51 1623.64 1502.41 1623.14 1502.25 1622.69L1459.47 1503Z" fill="#2a2e31" fill-rule="nonzero" opacity="1" stroke="none"/>
<path d="M1301.19 1759.62L1139.91 1897.41C1139.03 1898.16 1138.46 1899.18 1138.25 1900.31L1091.19 2160.53C1090.75 2162.96 1092.13 2165.35 1094.47 2166.16L1167.31 2191.12C1169.05 2191.72 1170.96 2191.33 1172.31 2190.09L1240.22 2127.72C1241.04 2126.96 1241.6 2125.94 1241.78 2124.84L1260.06 2014.59L1319.75 1957.19L1312.81 1949.97L1251.94 2008.53C1251.16 2009.28 1250.64 2010.28 1250.47 2011.34L1232.19 2121.53L1167.72 2180.72L1101.78 2158.06L1147.75 1903.84L1307.69 1767.22L1301.19 1759.62Z" fill="#2a2e31" fill-rule="nonzero" opacity="1" stroke="none"/>
<path d="M1174.84 2186.38L1164.84 2186.44L1165.97 2330.44C1165.99 2333.23 1168.3 2335.48 1171.09 2335.41L1238.41 2333.69L1238.12 2323.72L1175.94 2325.28L1174.84 2186.38Z" fill="#2a2e31" fill-rule="nonzero" opacity="1" stroke="none"/>
<path d="M1486 1583.66L1481.12 1592.41L1613.22 1666.03L1642.47 1816.03L1503.12 1704.19L1496.88 1711.97L1646.88 1832.34C1650.51 1835.26 1655.8 1832.07 1654.91 1827.5L1622.59 1661.84C1622.31 1660.4 1621.41 1659.15 1620.12 1658.44L1486 1583.66Z" fill="#2a2e31" fill-rule="nonzero" opacity="1" stroke="none"/>
<path d="M1675.5 1467.09L1670.28 1475.66L1755.78 1527.66L1947.72 2004.44L1645.44 2670.06L1654.53 2674.19L1957.72 2006.62C1958.28 2005.38 1958.32 2003.99 1957.81 2002.72L1764.44 1522.34C1764.03 1521.34 1763.33 1520.5 1762.41 1519.94L1675.5 1467.09Z" fill="#2a2e31" fill-rule="nonzero" opacity="1" stroke="none"/>
<path d="M1201.53 2599.72L1201.19 3000L1211.19 3000L1211.53 2599.72L1201.53 2599.72Z" fill="#2a2e31" fill-rule="nonzero" opacity="1" stroke="none"/>
<path d="M1686.69 2603.56L1676.69 2603.97L1693.22 3000.22L1703.19 2999.78L1686.69 2603.56Z" fill="#2a2e31" fill-rule="nonzero" opacity="1" stroke="none"/>
<path d="M1450.81 1421.16L1233.97 1452.84C1231.57 1453.19 1229.76 1455.23 1229.69 1457.66L1227.03 1553.12C1226.96 1555.72 1228.86 1557.92 1231.44 1558.22L1315.72 1568.03L1316.88 1558.09L1237.12 1548.81L1239.56 1462.12L1451.41 1431.19L1676.25 1477.84L1678.28 1468.06L1452.53 1421.22C1451.96 1421.1 1451.39 1421.07 1450.81 1421.16Z" fill="#2a2e31" fill-rule="nonzero" opacity="1" stroke="none"/>
</g>
<g id="Heart">
<path d="M1154.97 385.875C1153.7 385.912 1152.45 386.415 1151.5 387.406L668.938 893.281C667.204 895.099 667.078 897.921 668.656 899.875L1291.03 1670.53L1298.81 1664.25L679.188 897L1155.34 397.906L1400.12 626.125L1406.94 618.812L1158.53 387.219C1157.53 386.285 1156.24 385.838 1154.97 385.875Z" fill="#2a2e31" fill-rule="nonzero" opacity="1" stroke="none"/>
<path d="M1655.5 379.562C1654.23 379.525 1652.97 379.978 1651.97 380.906L1399.69 614.969L1406.47 622.281L1655.12 391.562L2128.09 885.25L1498.97 1692.62L1506.88 1698.78L2138.66 888C2140.18 886.042 2140.03 883.262 2138.31 881.469L1658.97 381.094C1658.02 380.108 1656.77 379.6 1655.5 379.562Z" fill="#2a2e31" fill-rule="nonzero" opacity="1" stroke="none"/>
</g>
<g id="Hole">
<path d="M1424.33 952.483L1399.84 938.806L1410.36 881.21L1391.48 883.322L1380.96 902.161L1349.78 916.385L1354.89 950.97L1339 968.791L1251.26 941.441L1230.87 974.241L1321.8 983.306L1324.25 1014.33L1345.08 1042.87L1343.57 1057.45L1373.27 1067.81L1374.13 1090.34L1393.44 1088.17L1393.61 1105.56L1413.12 1108.16L1440.32 1087.07L1453.09 1101.02L1461.04 1114.75L1505.67 1096.97L1522.58 1128.66L1554.69 1127.81L1565.47 1091.51L1534.59 1043.42L1555.81 1029.67L1550.94 1012.91L1523.73 1011.36L1523.4 966.982L1480.65 914.834L1424.33 952.483Z" fill="#2a2e31" fill-rule="nonzero" opacity="1" stroke="none"/>
</g>
<g id="Cracks">
<path d="M1656.38 618.812L1648.72 673.281L1626.28 739.312L1595.38 814.75L1556.91 848.5L1479.47 916.031L1482.78 919.781L1560.22 852.281L1599.12 818.094C1599.42 817.839 1599.63 817.514 1599.78 817.156L1630.94 741.062L1653.53 674.594C1653.58 674.445 1653.63 674.312 1653.66 674.156L1661.34 619.5L1656.38 618.812Z" fill="#2a2e31" fill-rule="nonzero" opacity="1" stroke="none"/>
<path d="M1533.78 818.094L1528.84 818.812L1532.53 843.688L1509.84 832.719C1508.84 832.236 1507.65 832.486 1506.91 833.312L1485.16 857.5C1484.05 858.729 1484.43 860.67 1485.91 861.406L1509.44 873.125L1515.41 886.656L1520 884.625L1513.62 870.281C1513.39 869.748 1512.99 869.291 1512.47 869.031L1491.09 858.375L1509.38 838.031L1534.59 850.219C1536.4 851.09 1538.45 849.578 1538.16 847.594L1533.78 818.094Z" fill="#2a2e31" fill-rule="nonzero" opacity="1" stroke="none"/>
<path d="M1534.62 762.125L1481.09 800.156C1480.16 800.82 1479.8 802.026 1480.22 803.094L1496.97 846.281L1501.62 844.469L1485.59 803.125L1537.5 766.188L1534.62 762.125Z" fill="#2a2e31" fill-rule="nonzero" opacity="1" stroke="none"/>
<path d="M1566.38 892.344L1534.47 917.625L1504.84 894.219L1501.75 898.125L1532.94 922.75C1533.85 923.468 1535.15 923.47 1536.06 922.75L1569.47 896.25L1566.38 892.344Z" fill="#2a2e31" fill-rule="nonzero" opacity="1" stroke="none"/>
<path d="M1609.03 897.625C1608.6 897.672 1608.2 897.83 1607.81 898.125L1578.47 920.594L1517.91 968.156L1521 972.062L1581.53 924.562L1607.34 904.781L1610.69 933.562C1610.74 934.007 1610.89 934.425 1611.16 934.781L1619.44 945.688L1579.56 939.312C1578.37 939.121 1577.22 939.803 1576.81 940.938L1567.22 967.781L1571.94 969.469L1580.81 944.562L1624.81 951.625C1627.04 951.983 1628.58 949.453 1627.22 947.656L1615.59 932.312L1611.81 899.812C1611.65 898.366 1610.32 897.484 1609.03 897.625Z" fill="#2a2e31" fill-rule="nonzero" opacity="1" stroke="none"/>
<path d="M1650.91 955L1609.28 989.312L1558.94 986.062C1558.41 986.028 1557.89 986.183 1557.44 986.469L1521.5 1009.41L1524.19 1013.59L1559.41 991.125L1609.97 994.344C1610.6 994.384 1611.23 994.186 1611.72 993.781L1654.06 958.875L1650.91 955Z" fill="#2a2e31" fill-rule="nonzero" opacity="1" stroke="none"/>
<path d="M1873.12 955.938L1771.47 978.75L1720.31 961.5C1719.61 961.262 1718.82 961.326 1718.19 961.719L1658.03 999.062L1605.59 1022.72L1578.03 987.469L1574.09 990.531L1602.88 1027.34C1603.58 1028.25 1604.82 1028.57 1605.88 1028.09L1660.19 1003.56C1660.29 1003.52 1660.38 1003.46 1660.47 1003.41L1719.81 966.594L1770.59 983.719C1771.03 983.865 1771.49 983.882 1771.94 983.781L1874.22 960.812L1873.12 955.938Z" fill="#2a2e31" fill-rule="nonzero" opacity="1" stroke="none"/>
<path d="M1672.16 792.594L1639.44 827.562L1597.41 815.344L1596 820.156L1639.53 832.812C1640.44 833.076 1641.42 832.813 1642.06 832.125L1675.81 796.031L1672.16 792.594Z" fill="#2a2e31" fill-rule="nonzero" opacity="1" stroke="none"/>
<path d="M1615.66 776.281L1610.94 777.938L1628.22 827.344L1632.94 825.688L1615.66 776.281Z" fill="#2a2e31" fill-rule="nonzero" opacity="1" stroke="none"/>
<path d="M1542.91 953.031L1537.94 953.562L1542.72 997.719L1547.69 997.156L1542.91 953.031Z" fill="#2a2e31" fill-rule="nonzero" opacity="1" stroke="none"/>
<path d="M1404.34 905.438L1401.69 909.656L1451.34 940.594L1453.97 936.344L1404.34 905.438Z" fill="#2a2e31" fill-rule="nonzero" opacity="1" stroke="none"/>
<path d="M1428.06 833.5L1423.19 834.531L1435.41 892.875L1405.47 893.688L1405.62 898.688L1438.56 897.781C1440.12 897.739 1441.26 896.308 1440.94 894.781L1428.06 833.5Z" fill="#2a2e31" fill-rule="nonzero" opacity="1" stroke="none"/>
<path d="M1436.94 792.312L1432.31 794.25L1454.66 847.812L1432.66 873.188L1436.44 876.469L1459.44 849.938C1460.06 849.221 1460.21 848.188 1459.84 847.312L1436.94 792.312Z" fill="#2a2e31" fill-rule="nonzero" opacity="1" stroke="none"/>
<path d="M1405.56 618.469L1400.59 619.094L1408.25 679.719L1362.38 724.5C1361.76 725.104 1361.5 725.968 1361.69 726.812L1380.19 810.25L1350.66 849.062C1350.07 849.838 1349.98 850.889 1350.44 851.75L1378.12 903.938L1382.56 901.594L1355.62 850.812L1384.88 812.344C1385.32 811.758 1385.47 810.999 1385.31 810.281L1366.88 727.094L1412.62 682.438C1413.19 681.891 1413.44 681.121 1413.34 680.344L1405.56 618.469Z" fill="#2a2e31" fill-rule="nonzero" opacity="1" stroke="none"/>
<path d="M1412.41 726.531L1407.75 728.375L1420.06 759.469L1378.81 791.125L1381.88 795.094L1424.62 762.281C1425.51 761.601 1425.82 760.413 1425.41 759.375L1412.41 726.531Z" fill="#2a2e31" fill-rule="nonzero" opacity="1" stroke="none"/>
<path d="M1332.5 753.812L1327.84 755.625L1360.38 838.344L1365.03 836.5L1332.5 753.812Z" fill="#2a2e31" fill-rule="nonzero" opacity="1" stroke="none"/>
<path d="M1247.38 681.094L1233.41 723.062C1233.07 724.073 1233.4 725.195 1234.25 725.844L1298.97 775.5L1299.12 811.781C1299.13 812.155 1299.21 812.539 1299.38 812.875L1350.41 918.219L1354.91 916.031L1304.12 811.188L1303.97 774.25C1303.97 773.477 1303.61 772.752 1303 772.281L1238.72 722.938L1252.12 682.656L1247.38 681.094Z" fill="#2a2e31" fill-rule="nonzero" opacity="1" stroke="none"/>
<path d="M1169.91 787.219L1168.97 792.125L1301.69 817.344L1302.62 812.438L1169.91 787.219Z" fill="#2a2e31" fill-rule="nonzero" opacity="1" stroke="none"/>
<path d="M1124.59 900.469L1122.72 905.094L1200.56 936.875C1201.33 937.19 1202.18 937.091 1202.88 936.625L1220.25 924.938L1253.06 948.844L1256 944.781L1221.78 919.875C1220.93 919.256 1219.78 919.225 1218.91 919.812L1201.22 931.719L1124.59 900.469Z" fill="#2a2e31" fill-rule="nonzero" opacity="1" stroke="none"/>
<path d="M1222.34 809.812L1219.72 869.031C1219.65 870.494 1220.85 871.715 1222.31 871.656L1262.81 870.031L1270.5 902.438C1270.75 903.477 1271.66 904.24 1272.72 904.344L1308.88 907.875L1319.09 939.25C1319.51 940.532 1320.89 941.251 1322.19 940.875L1361.72 929.375L1360.31 924.594L1323.12 935.375L1313.12 904.75C1312.82 903.806 1311.96 903.159 1310.97 903.062L1274.97 899.562L1267.22 866.875C1266.94 865.711 1265.88 864.889 1264.69 864.938L1224.84 866.531L1227.34 810.031L1222.34 809.812Z" fill="#2a2e31" fill-rule="nonzero" opacity="1" stroke="none"/>
<path d="M1294.62 904.031L1275.62 952.406L1280.25 954.219L1299.28 905.875L1294.62 904.031Z" fill="#2a2e31" fill-rule="nonzero" opacity="1" stroke="none"/>
<path d="M1310.69 910.125L1294.59 956.125L1299.31 957.75L1315.41 911.781L1310.69 910.125Z" fill="#2a2e31" fill-rule="nonzero" opacity="1" stroke="none"/>
<path d="M1114.06 966.812C1113.92 966.809 1113.77 966.822 1113.62 966.844L929.156 994.969L929.906 999.906L1114.12 971.812L1240.5 974.656L1240.62 969.656L1114.06 966.812Z" fill="#2a2e31" fill-rule="nonzero" opacity="1" stroke="none"/>
<path d="M1132.25 968.094L1048.03 1030.47L1051 1034.5L1135.22 972.125L1132.25 968.094Z" fill="#2a2e31" fill-rule="nonzero" opacity="1" stroke="none"/>
<path d="M1328.28 1013.94L1252 1023.31C1251.62 1023.36 1251.23 1023.5 1250.91 1023.72L1032.75 1168.34L1035.5 1172.53L1253.19 1028.22L1328.88 1018.88L1328.28 1013.94Z" fill="#2a2e31" fill-rule="nonzero" opacity="1" stroke="none"/>
<path d="M1344.56 1037.5L1107.75 1303.78L1111.5 1307.09L1348.31 1040.84L1344.56 1037.5Z" fill="#2a2e31" fill-rule="nonzero" opacity="1" stroke="none"/>
<path d="M1376.16 1080.06L1336.03 1148.19C1335.78 1148.61 1335.66 1149.1 1335.69 1149.59L1342.06 1261.78L1347.03 1261.5L1340.69 1150.06L1380.47 1082.59L1376.16 1080.06Z" fill="#2a2e31" fill-rule="nonzero" opacity="1" stroke="none"/>
<path d="M1440.97 1085.81L1436 1086.22L1444.78 1192.09C1444.81 1192.41 1444.89 1192.72 1445.03 1193L1519.66 1343.62L1524.12 1341.41L1449.75 1191.22L1440.97 1085.81Z" fill="#2a2e31" fill-rule="nonzero" opacity="1" stroke="none"/>
<path d="M1552.06 1074.19L1548.12 1077.25L1632.94 1186.81L1687.94 1340.16L1692.66 1338.47L1637.53 1184.75C1637.44 1184.5 1637.32 1184.27 1637.16 1184.06L1552.06 1074.19Z" fill="#2a2e31" fill-rule="nonzero" opacity="1" stroke="none"/>
<path d="M1682.78 1083.66L1584.75 1117.75L1586.41 1122.47L1684.41 1088.38L1682.78 1083.66Z" fill="#2a2e31" fill-rule="nonzero" opacity="1" stroke="none"/>
<path d="M1632.47 1102.19L1630.09 1106.59L1722.59 1156.56L1724.97 1152.16L1632.47 1102.19Z" fill="#2a2e31" fill-rule="nonzero" opacity="1" stroke="none"/>
<path d="M1552.12 1123.28L1548.06 1126.25L1597.78 1194.28L1601.84 1191.31L1552.12 1123.28Z" fill="#2a2e31" fill-rule="nonzero" opacity="1" stroke="none"/>
<path d="M1579.62 1111L1574.62 1111.22L1577.06 1164.34L1582.06 1164.09L1579.62 1111Z" fill="#2a2e31" fill-rule="nonzero" opacity="1" stroke="none"/>
<path d="M1583.62 1171.88L1560.5 1201.47C1560 1202.12 1559.85 1202.97 1560.09 1203.75L1579.06 1264.66L1522.91 1263.41L1522.81 1268.38L1582.44 1269.72C1584.15 1269.76 1585.38 1268.1 1584.88 1266.47L1565.28 1203.5L1587.56 1174.97L1583.62 1171.88Z" fill="#2a2e31" fill-rule="nonzero" opacity="1" stroke="none"/>
<path d="M1367.81 1100.09L1363.91 1103.22L1418.09 1170.84C1419.06 1172.05 1420.88 1172.12 1421.91 1170.97L1444.62 1145.62L1440.91 1142.28L1420.16 1165.44L1367.81 1100.09Z" fill="#2a2e31" fill-rule="nonzero" opacity="1" stroke="none"/>
<path d="M1360.41 1115.84L1355.44 1116.22L1360.28 1183.16C1360.34 1184.04 1360.87 1184.82 1361.66 1185.22L1409.59 1209.28C1410.27 1209.62 1411.06 1209.62 1411.75 1209.31L1449.12 1192.5L1447.09 1187.94L1410.75 1204.28L1365.16 1181.38L1360.41 1115.84Z" fill="#2a2e31" fill-rule="nonzero" opacity="1" stroke="none"/>
<path d="M1219.44 1049.5L1214.91 1051.62L1230.69 1085.38L1217.72 1109.56C1217.36 1110.23 1217.33 1110.99 1217.62 1111.69L1238.16 1160.72L1242.75 1158.78L1222.69 1110.84L1235.69 1086.62C1236.06 1085.93 1236.08 1085.09 1235.75 1084.38L1219.44 1049.5Z" fill="#2a2e31" fill-rule="nonzero" opacity="1" stroke="none"/>
<path d="M1265.66 1022.12L1257.84 1061.5C1257.65 1062.47 1258.03 1063.46 1258.84 1064.03L1299.94 1092.81L1302.81 1088.72L1263.06 1060.88L1270.56 1023.12L1265.66 1022.12Z" fill="#2a2e31" fill-rule="nonzero" opacity="1" stroke="none"/>
<path d="M1304.34 1019L1299.97 1021.41L1322.62 1062.88L1327 1060.47L1304.34 1019Z" fill="#2a2e31" fill-rule="nonzero" opacity="1" stroke="none"/>
<path d="M1465.03 1110.38L1460.28 1111.88L1489.66 1205.06L1494.44 1203.56L1465.03 1110.38Z" fill="#2a2e31" fill-rule="nonzero" opacity="1" stroke="none"/>
<path d="M1473.56 1142.28L1471.75 1146.94L1507.84 1160.84L1509.66 1156.19L1473.56 1142.28Z" fill="#2a2e31" fill-rule="nonzero" opacity="1" stroke="none"/>
</g>
</svg>
