<?xml version="1.0" encoding="UTF-8"?>
<svg id="Line_Art" data-name="Line Art" xmlns="http://www.w3.org/2000/svg" viewBox="0 0 800 500">
  <path d="M626,191.47c-1.03-8.49-4.66-16.01-9.56-22.72,2.69-1.51,5.35-3.07,8.07-4.53,1.22-.65.86-2.47-.37-2.84-7.66-2.33-15.15-5.15-22.43-8.41-7.84-7.25-16.33-14.07-25.73-18.97-10.32-5.37-22.97-8.55-33.67-2.36-5.41,3.13-9.26,8.13-12.4,13.43-3.2,5.39-6,11.01-9.14,16.43-6.18,10.67-12.91,21.02-20.15,31-10.2,14.05-21.43,27.35-33.52,39.81-3.2-1.89-6.55-3.54-10.04-4.91-1.86-.73-2.67,2.27-.83,3,3.01,1.18,5.9,2.59,8.67,4.2-4.36,4.42-8.83,8.74-13.41,12.94-4.98,4.58-10.1,9-15.32,13.3-3.12-1.19-6.33-2.16-9.61-2.84-1.95-.4-2.79,2.59-.83,3,2.59.53,5.12,1.27,7.6,2.14-12.96,10.46-26.61,20.08-40.85,28.72-21.14,12.82-43.56,23.55-66.87,31.82-5.63,2-11.3,3.85-17.02,5.56-1.91.57-1.1,3.56.82,3-2.67,2.4-4.86,5.38-6.3,8.93-4.37,10.76-1.36,23.22,2.86,33.52,4.71,11.49,10.96,22.35,18.5,32.22,3.72,4.86,7.72,9.5,12.02,13.86,4.3,4.35,8.85,8.6,14.03,11.9,4.79,3.06,10.43,5.35,16.2,5.2,4.96-.13,9.89-2.31,13.4-5.8,2.59-2.58,4.19-5.8,4.49-9.29.25-.41.45-.84.67-1.27,16.37-13.85,28.48-32.12,40.97-49.45,7.65-10.61,15.75-20.83,24.7-30.39,6.34-6.77,13.03-13.21,19.94-19.4,0,.02,0,.04,0,.07,5.76,23.98-2.73,48.29-2.2,72.43.15,6.69,1.03,13.37,2.97,19.79.32,1.05,1.8,1.61,2.6.69,3.68-4.27,6.57-9.1,8.62-14.26,3.45,7.17,7.24,14.17,11.37,20.96.85,1.4,2.75.7,2.9-.78,2.54-26.47,5.03-53.25,3.06-79.83,5.72,16.67,13.12,32.77,22.16,47.91,4.31,7.22,8.99,14.22,14,20.98.88,1.18,2.87.87,2.9-.78.17-10.6.35-21.2.52-31.79,6.47,5.54,12.94,11.08,19.41,16.63,1.16,1,2.97.06,2.6-1.51-6.91-29.41-22.01-56.75-43.07-78.4-4.77-4.9-9.86-9.47-15.19-13.74.09-1.63.14-3.26.12-4.88,13.15-9.72,26.71-18.89,40.37-27.89,11.16-7.35,22.4-14.59,33.58-21.93,11.12-7.29,22.42-14.49,33.07-22.45,5.13-3.84,10.03-8.27,12.78-14.18,2.58-5.55,3.31-11.77,2.58-17.82ZM619.88,163.25c-1.8.98-3.59,1.99-5.37,3-2.03-2.54-4.23-4.95-6.52-7.26,3.91,1.56,7.89,2.95,11.9,4.26ZM588.97,146.24c.47.37.92.78,1.39,1.16-7.59-4.02-14.92-8.55-21.92-13.56,7.51,2.85,14.51,7.67,20.53,12.4ZM487.84,213.92c15.44-18.51,29.09-38.51,40.56-59.71,2.99-5.53,5.85-11.34,10.32-15.87,4.31-4.37,10.01-6.91,16.16-7.04,2.86-.06,5.69.3,8.46.97-.31.66-.26,1.53.47,2.08,11.2,8.34,23.27,15.44,35.97,21.18,1.28,1.17,2.59,2.32,3.84,3.52,2.88,2.75,5.63,5.66,8.16,8.74-33.19,19.04-63.85,42.47-90.84,69.6-8.57,8.61-16.76,17.59-24.56,26.89-.07.08-.09.17-.14.25-4.84-10.11-11.86-19.2-20.6-26.28-1.91-1.55-3.91-2.94-5.96-4.28,6.28-6.48,12.38-13.12,18.16-20.05ZM467.51,236.21c16.88,10.83,28.74,29.18,32.14,48.94.52,3.01.8,6.06.89,9.12-2.6,1.93-5.2,3.87-7.78,5.83-.12-.38-.21-.77-.33-1.15-.6-1.9-3.6-1.09-3,.83.25.78.46,1.57.69,2.36-3.77,2.95-7.49,5.95-11.16,9.02-4.06-18.51-16.07-35.28-32.26-45.17-2.37-1.45-4.86-2.69-7.39-3.82,9.84-8.16,19.23-16.86,28.2-25.96ZM376.15,304.73c21.28-11.34,41.42-24.78,60.14-39.97.13-.11.25-.22.38-.33,11.96,5,22.21,13.76,29.45,24.55-26.74,15.9-50.84,36.19-71.03,59.86-5.56,6.52-10.8,13.29-15.76,20.28-.43-.94-.86-1.88-1.31-2.8-5.32-10.93-12.27-21.7-21.41-29.82-7.19-6.39-16.07-11.01-25.68-11.46,15.51-5.74,30.64-12.51,45.24-20.29ZM363.21,434.53c-10.25-1.65-18.52-9.74-25.44-16.89-.27-.28-.52-.58-.79-.86,4.17,4.3,8.77,8.15,13.92,11.09,8.62,4.92,19.45,7.06,27.91,1.18-3.7,4.19-10.34,6.33-15.59,5.48ZM383.39,418.34c-.94-.11-2.1.67-1.91,1.93.02.13.01.25.03.37-2.43,1.96-4.95,3.81-7.55,5.53-.82.54-.85,1.48-.47,2.15-5.48,2.05-11.91,1.19-17.52-1.34-9.42-4.26-16.74-11.88-23.17-19.77-3.5-4.3-6.71-8.84-9.6-13.56-2.82-4.6-5.65-9.43-7.43-14.55-1.69-4.84-2.55-10.61.65-15.05,2.75-3.83,7.74-5.54,12.31-5.44,5.49.11,10.65,2.6,15.23,5.45,4.11,2.55,7.93,5.55,11.36,8.97,6.71,6.67,11.98,15.01,13.82,24.38.63,3.22,2.15,11.14-2.16,12.58-2.11.7-5.06-.24-7.12-.81-2.2-.61-4.32-1.46-6.34-2.52-8.02-4.23-14.4-11.66-16.87-20.44-1.16-4.14-1.24-8.76,3.34-10.57,3.22-1.27,7.18-.78,10.07,1.07,3.94,2.51,5.75,7.5,6.72,11.84.55,2.45.72,4.92,1.12,7.39.31,1.9-1.84,2.45-3.46,2.26-4.77-.57-5.55-6.17-5.88-10.18.26-.04.53.06.71.36,1.05,1.7,3.74.14,2.68-1.57-1.1-1.78-3.45-2.52-5.31-1.39-2.13,1.3-1.07,4.62-.69,6.66.88,4.74,3.85,9.27,9.14,9.26,1.91,0,3.84-.69,5.07-2.19,1.63-1.99.69-4.88.36-7.23-.77-5.44-2.21-10.97-5.86-15.22-5.02-5.84-17.31-7.34-21.04.84-2.19,4.8.11,10.91,2.27,15.34,2.29,4.7,5.67,8.91,9.71,12.23,4.01,3.29,8.67,5.8,13.69,7.16,4.81,1.3,10.72,2.05,12.84-3.59,1.77-4.71.54-10.77-.81-15.43-1.52-5.25-4.04-10.21-7.22-14.64-6.54-9.13-16.1-17.28-26.68-21.28-5.29-2-11.2-2.52-16.52-.35-4.97,2.03-8.66,6.15-9.53,11.52-.94,5.86,1.2,11.78,3.73,16.98,2.88,5.89,6.31,11.54,10.11,16.88,2.54,3.58,5.27,7.16,8.21,10.56-5.56-6.28-10.57-13.04-14.92-20.22-5.32-8.78-10.14-18.29-12.75-28.26-2.43-9.31-2.86-20.37,3.85-28.1,5.78-6.65,15.14-9.01,23.65-8,9.77,1.16,18.29,7.07,24.93,14.04,7.3,7.66,13.05,16.93,17.59,26.46,4.48,9.41,8.15,19.81,9.45,30.19.78,6.25.71,13.37-1.83,19.35ZM435.11,355.16c-15.78,19.67-28.42,42.05-46.81,59.54-.23.22-.47.42-.7.64,1.16-4.64,1.33-9.62.94-14.2-.86-10.04-3.98-20.04-8.04-29.35.43-.03.86-.23,1.17-.67,17.71-25.06,39.55-47.21,64.39-65.24,7.01-5.09,14.26-9.84,21.71-14.27,3.44,5.66,6.07,11.82,7.71,18.24.3,1.19.52,2.39.75,3.59-14.9,12.68-28.87,26.45-41.13,41.72ZM482.25,392.33c-.68-1.55-1.42-3.38-1.04-5.06.24-1.06,1.01-1.95,1.98-2.17-.13,2.44-.43,4.86-.93,7.23ZM496.39,394.43c-.55,7.26-1.22,14.52-1.91,21.77-2.72-4.67-5.33-9.39-7.73-14.24-.85-1.71-1.62-3.45-2.43-5.18,1.26-4.23,1.97-8.63,2.06-13.1.02-.74-.51-1.25-1.14-1.5-2.88-1.13-6,1-6.9,3.78-1.2,3.73,1.03,7.74,2.63,11.09-1.59,4.91-3.99,9.55-7.12,13.69-5.65-22.73,1.86-46.23,2.1-69.2.07-6.74-.51-13.47-2.09-20.03-.14-.59-.53-.9-.97-1.03,1.3-1.15,2.6-2.31,3.91-3.44.57,4.41.7,8.87.29,13.32-.19,1.99,2.92,1.98,3.11,0,.49-5.28.24-10.56-.61-15.74,0,0,.02-.02.03-.02,3.75-3.17,7.58-6.24,11.44-9.27.01.05.03.1.04.16-.18.3-.28.67-.2,1.1,1.19,6.2,2.65,12.35,4.3,18.44,3.51,22.87,2.93,46.33,1.19,69.39ZM551.28,369.88c2.49,6.17,4.57,12.5,6.28,18.93-5.91-5.07-11.83-10.13-17.74-15.2-.04-2.89-.47-5.88-2.77-7.74-2.42-1.96-6.29-1.89-7.99.93-.33.55-.27,1.44.24,1.88l7.45,6.38c.04,3.16-.16,6.35-.21,9.49-.11,6.71-.22,13.42-.33,20.12-16.15-22.7-28.56-47.99-36.46-74.72-.53-1.78-.96-3.58-1.44-5.38-1.1-7.18-2.63-14.28-4.61-21.27,1.39-1.07,2.78-2.14,4.17-3.21.02.02.03.04.05.06.81.61,1.61,1.25,2.41,1.88-.09,1.18-.21,2.37-.38,3.54-.28,1.96,2.71,2.8,3,.83.1-.7.14-1.41.22-2.11,21.16,17.37,37.88,40.17,48.11,65.57ZM536.4,370.68c-1.17-1-2.34-2-3.5-3,.7-.11,1.51.08,2.07.49.8.59,1.21,1.52,1.44,2.51ZM618.94,210.96c-3.68,5.66-9.42,9.6-14.87,13.39-5.37,3.74-10.79,7.42-16.23,11.05-10.93,7.3-21.96,14.44-32.98,21.61-17.36,11.31-34.65,22.77-51.36,35.03-.55-8.65-2.7-17.16-6.17-25.11.41.07.85-.04,1.22-.48,27.31-32.56,59.45-61,95.13-84.09,3.15-2.04,6.35-4.02,9.56-5.96-.34.44-.51,1.04-.23,1.68,3.6,8.4,4.3,18.76.81,27.32-1.42,3.47-4.54,7.15-8.7,6.3.97-2.67,1.35-5.58.89-8.48-.1-.65-.87-1.15-1.5-1.14-4.5.1-6.98,5.6-4.88,9.37.39.7.89,1.24,1.43,1.72-1.89,3.11-4.91,5.55-8.49,6.46-1.94.49-1.12,3.49.83,3,4.51-1.15,8.14-4.18,10.37-8.02,2.94.79,6.47-.1,8.75-2,4.57-3.8,5.96-10.58,6.47-16.2.62-6.82-.61-13.62-3.3-19.89-.28-.65-.79-.85-1.31-.79,3.1-1.86,6.22-3.68,9.36-5.48,1.05,1.41,2.06,2.87,2.99,4.37,6.56,10.66,9.42,25.24,2.19,36.34ZM592.04,208.07c.08-.86.47-1.7,1.09-2.26.02,1.44-.19,2.84-.61,4.19-.33-.55-.54-1.18-.48-1.93Z"/>
  <path d="M487.41,171.9c-21.16-15.57-45.15-26.57-69.11-37.05-23.86-10.44-48.12-20.45-70.18-34.44-6.92-4.39-13.53-9.23-19.79-14.5,1.35-1.06,2.71-2.12,4.06-3.19,2.64-2.1,5.37-4.41,6.76-7.57,2.82-6.39-2.28-12.05-8.54-12.92-7.81-1.09-13.68,5.32-18.23,10.73-.56.66-.61,1.54,0,2.2,3.5,3.78,7.23,7.28,11.08,10.66-2.63,2.06-5.26,4.11-7.91,6.15-6.26,4.82-12.57,9.59-18.91,14.3-25.09,18.64-50.81,36.42-77.11,53.3-14.84,9.52-29.86,18.76-45.06,27.71-1.72,1.01-.16,3.7,1.57,2.68,29.13-17.16,57.63-35.38,85.42-54.63,13.89-9.63,27.61-19.51,41.14-29.64,6.63-4.96,13.21-9.99,19.75-15.07,1.16-.9,2.31-1.81,3.46-2.72,14.97,12.63,32.11,22.57,49.73,31.14,23.83,11.59,48.64,21.03,72.36,32.86,12.43,6.2,24.5,13.12,35.8,21.2-40.6,22.42-80.19,46.64-118.6,72.63-1.95,1.32-3.88,2.67-5.82,4-3.46-8.35-12.56-15.04-19.77-19.25-14.93-8.72-30.6-16.19-46.75-22.46.01-.09.02-.18.03-.28.03-.21,0-.38-.04-.55,12.35-6.53,24.86-12.87,36.99-19.8,5.49-3.14,10.83-6.56,15.67-10.65,4.63-3.91,9.37-8.63,11.78-14.29,2.07-4.85,1.76-10.71-2.89-13.94-3.89-2.69-9.18-2.32-13.57-1.37-4.9,1.06-10.24,3.01-14.05,6.36-3.83,3.37-5.23,8.75-2.18,13.12,3.13,4.47,9.55,6.12,13.84,2.29,3.87-3.46,4.43-9.57,1.26-13.62-.32-.4-1.04-.56-1.51-.4-2.47.84-3.79,3.16-3.19,5.71.46,1.95,3.46,1.12,3-.83-.11-.44-.04-.86.15-1.2,1.35,2.96.1,7.01-2.67,8.68-3.86,2.33-9.08-1.19-9.49-5.39-.45-4.59,4.35-7.54,7.91-9.16,3.77-1.72,8-3.02,12.16-3.15,3.95-.12,8.37,1.18,9.29,5.58,1.02,4.9-2.67,9.77-5.69,13.2-6.84,7.79-15.77,13.29-24.77,18.24-11.72,6.44-23.61,12.59-35.42,18.86-.46.25-.69.61-.75,1-14.69-5.49-29.74-10-45.01-13.42-18.87-4.22-38.09-6.82-57.39-7.78-2-.1-1.99,3.01,0,3.11,23.22,1.15,46.28,4.77,68.75,10.67-.08.17-.15.35-.17.57-1.04,11.86-2.07,23.72-3.11,35.58-.5,5.67-.99,11.34-1.49,17.02-.33,3.78-1.98,10.02,1.72,12.74,1.66,1.23,3.71,1.19,5.69,1.09,2.58-.13,5.11.02,7.63.6,4.98,1.14,9.56,3.47,13.93,6.06,1.38.82,2.74,1.67,4.1,2.51-.43,7.03-.8,14.06-1.08,21.09-.29,7.22-.46,14.45-.6,21.67-9.35,1.76-17.34,8.83-19.85,18.07-1.37,5.05-1.18,10.59.62,15.5,1.8,4.94,5.54,8.62,7.83,13.28,1.17,2.39,1.65,4.88.63,7.41-.87,2.15-2.76,4.23-5.27,3.57-1.94-.51-2.76,2.49-.83,3,4.13,1.08,7.54-1.83,9-5.52,1.81-4.57.03-8.99-2.52-12.89-3.17-4.84-6.52-9.15-7.12-15.13-.54-5.36.77-10.79,3.89-15.19-1.45,2.33-2.38,4.99-2.46,7.88-.21,8.14,6.05,15.86,14.28,16.56,8.07.69,16.9-5.76,16.49-14.36-.42-8.83-11.13-11.58-17.81-7.57-3.75,2.25-6.93,7.01-4.99,11.44,1.58,3.6,6.49,6.04,9.96,3.48,1.59-1.18.04-3.88-1.57-2.68-2.1,1.55-5.01-.16-5.71-2.45-.98-3.18,2.05-6.24,4.63-7.52,5.22-2.6,13.14-.09,12.34,6.74-.74,6.29-7.35,10.36-13.34,9.81-6.11-.56-10.8-6.31-11.15-12.26-.42-7.12,5.51-13.51,12.48-14.31,1.03-.12,1.51-1.02,1.46-1.83.89.24,2.01-.23,2.02-1.43.23-14.86.78-29.71,1.66-44.55,7.17,4.51,14.22,9.25,21.33,13.82,4.98,3.2,9.96,6.4,14.93,9.6,2.42,1.55,5.64,3.3,7.57,5.76-2.8.74-5.5,1.89-6.62,4.33-1.56,3.42,1.48,6.61,4.82,6.95,4,.41,6.55-3.24,6.55-6.92,0-.76-.12-1.46-.29-2.15,2.42-.62,4.84-1.24,7.27-1.86,11.18-2.88,22.34-5.82,33.49-8.82,5.7-1.53,11.39-3.08,17.08-4.64,4.23-1.16,9.04-2.16,12.17-5.5,3.62-3.87,4.13-9.68,5.09-14.64,1.25-6.45,2.5-12.9,3.76-19.36,2.5-12.9,5.01-25.81,7.51-38.71.1-.53-.05-.96-.32-1.29,10.65-6.58,21.34-13.07,32.15-19.38,11.46-6.69,23.01-13.24,34.64-19.63,1.11-.61.89-2.03,0-2.68ZM315.59,73.97c3.64-4.3,8.33-9.39,14.33-8.71,2.59.29,5.46,1.66,6.55,4.17,1.36,3.14-.87,6.22-3.03,8.32-2.3,2.24-4.92,4.17-7.47,6.13-3.6-3.15-7.09-6.42-10.38-9.9ZM350.63,268.5c-4.4,2.69-9.95,3.39-14.57,1.19,7.04-5.02,14.13-9.96,21.25-14.86.69,5.48-1.74,10.65-6.68,13.67ZM283.53,271.51c-4.76-2.93-9.68-5.54-14.93-7.18-2.72-.85-5.57-1.38-8.43-1.46-2.31-.06-6.41,1.14-7.26-1.86-.37-1.32-.12-2.83,0-4.16.15-1.8.32-3.61.47-5.41l.88-10.06c1.21-13.86,2.42-27.72,3.64-41.58,7.6,2.07,15.12,4.39,22.56,6.99,3,1.05,5.98,2.17,8.95,3.3-2.58,20.41-4.55,40.9-5.88,61.43ZM329.16,314.43c-1.78.17-3.94-1.47-2.45-3.2,1.05-1.22,3.09-1.69,4.82-2.06.08.38.19.75.2,1.16.06,1.67-.63,3.92-2.58,4.11ZM410.88,250.5c-1.18,6.07-2.36,12.15-3.54,18.22-.57,2.92-1.1,5.85-1.7,8.76-.49,2.36-1.04,4.83-2.41,6.85-3.02,4.47-9.81,5.28-14.61,6.59-5.94,1.62-11.88,3.23-17.83,4.82-11.77,3.15-23.56,6.24-35.37,9.26-.64.16-1.36.32-2.12.47-1.29-2.05-3.22-3.73-5.25-5.14-9.94-6.89-20.4-13.14-30.57-19.68-3.62-2.32-7.25-4.84-10.96-7.25.85-13.54,1.94-27.06,3.34-40.56.75-7.23,1.62-14.44,2.52-21.65,11.1,4.35,21.97,9.28,32.55,14.8,6.58,3.43,13.29,6.89,19.32,11.23,5.04,3.63,10.18,8.35,12.27,14.38-8.08,5.55-16.13,11.15-24.11,16.86-1,.72-.98,1.97,0,2.68,9.23,6.73,24,1.37,27.44-9.33,1.01-3.15,1.03-6.16.38-9,18.86-12.9,38.04-25.34,57.45-37.39-2.27,11.69-4.54,23.39-6.81,35.08Z"/>
</svg>