<?xml version="1.0" encoding="utf-8"?>
<!-- Generator: Adobe Illustrator 16.0.0, SVG Export Plug-In . SVG Version: 6.00 Build 0)  -->
<!DOCTYPE svg PUBLIC "-//W3C//DTD SVG 1.1//EN" "http://www.w3.org/Graphics/SVG/1.1/DTD/svg11.dtd">
<svg version="1.1" id="Layer_2_xA0_Image_1_" xmlns="http://www.w3.org/2000/svg" xmlns:xlink="http://www.w3.org/1999/xlink"
	 x="0px" y="0px" width="5600px" height="4000px" viewBox="0 0 5600 4000" style="enable-background:new 0 0 5600 4000;"
	 xml:space="preserve">
<g>
	<path style="fill-rule:evenodd;clip-rule:evenodd;" d="M3922.055,2030.339c-0.604,1.779-1.803,3.584-1.725,5.333
		c1.813,41.034-9.177,79.717-21.666,118.099c-13.604,41.808-30.293,82.405-48.232,122.522
		c-16.839,37.654-33.672,75.317-49.898,113.238c-29.839,69.734-59.646,139.487-88.675,209.561
		c-22.663,54.708-44.377,109.815-66.029,164.935c-13.619,34.67-26.326,69.697-39.479,104.551
		c-17.964,47.605-36.025,95.174-53.927,142.803c-15.089,40.149-30.126,80.319-44.975,120.559
		c-19.562,53.012-39.048,106.053-58.293,159.181c-7.347,20.284-13.506,41.001-20.975,61.237c-10.72,29.042-25.931,55.415-49.8,75.82
		c-8.763,7.491-18.431,13.925-28.335,21.326c4.285,8.577,9.605,17.705,13.535,27.396c9.24,22.786,18.156,45.718,26.559,68.825
		c7.156,19.68,13.85,39.553,19.979,59.575c15.685,51.231,29.383,103.017,39.988,155.54c7.824,38.752,15.036,77.647,21.483,116.65
		c3.841,23.233,5.743,46.79,8.385,70.216c1.674,14.849,3.135,29.721,4.614,44.59c0.225,2.259,0.031,4.559,0.031,7.688
		c-6.499,0-12.867,0-19.372,0c-3.593-23.262-7.266-46.169-10.648-69.119c-7.607-51.631-15.846-103.168-27.329-154.087
		c-9.203-40.81-18.444-81.675-29.753-121.931c-12.027-42.813-26.601-84.908-39.881-127.374
		c-6.745-21.564-13.089-43.255-19.62-64.886c-0.763-2.526-1.568-5.039-2.403-7.719c-1.429-0.325-2.725-0.952-3.961-0.851
		c-24.209,1.987-48.44,0.785-72.59-0.428c-28.198-1.416-56.32-4.37-84.475-6.661c-29.784-2.424-59.573-4.79-89.351-7.294
		c-47.006-3.953-93.999-8.05-141.006-11.991c-31.115-2.609-62.244-5.06-93.367-7.57c-31.13-2.51-62.249-5.148-93.393-7.46
		c-23.199-1.723-46.442-2.854-69.645-4.542c-24.829-1.807-49.633-3.947-74.446-5.957c-24.506-1.985-49.03-3.766-73.507-6.049
		c-23.795-2.221-47.538-4.983-71.308-7.478c-25.428-2.669-50.959-4.594-76.268-8.117c-38.485-5.358-76.89-11.402-115.19-17.96
		c-22.919-3.924-45.651-9.055-68.319-14.285c-11.642-2.686-23.281-5.978-34.332-10.453c-11.612-4.704-22.52-11.149-34.501-17.222
		c-16.379,17.1-27.407,39.555-39.697,60.996c-16.533,28.844-29.77,59.361-42.867,89.933c-13.466,31.432-28.595,62.152-41.94,93.631
		c-18.542,43.74-39.139,86.621-52.776,132.414c-11.669,39.184-26.222,77.506-37.958,116.672
		c-13.73,45.816-27.683,91.678-33.137,139.519c-1.73,15.178-4.003,30.294-6.14,46.285c-6.528,0-13.292,0-21.255,0
		c0.517-10.901,1.049-21.721,1.541-32.542c2.469-54.311,15.754-106.377,32.979-157.58c11.771-34.988,24.064-69.801,35.993-104.736
		c5.053-14.797,9.026-30.003,14.795-44.504c12.667-31.836,25.909-63.451,39.398-94.95c13.48-31.476,27.553-62.698,41.326-94.048
		c0.224-0.511-0.058-1.243-0.081-1.551c-16.122,5.387-32.3,10.823-48.5,16.197c-26.537,8.803-53.091,17.553-79.63,26.351
		c-12.983,4.304-26.101,8.161-39.865,8.603c-17.466,0.562-34.046-1.744-49.408-11.727c-14.204-9.23-29.044-17.343-42.246-28.205
		c-19.806-16.297-33.806-36.585-43.334-60.05c-13.799-33.984-23.444-69.256-31.233-105.047c-3.036-13.95-6.887-27.85-8.363-41.981
		c-1.861-17.823-2.736-35.894-2.156-53.797c1.349-41.646,8.957-82.565,17.079-123.311c5.768-28.933,12.638-57.649,19.217-86.417
		c7.26-31.746,15.162-63.351,22.048-95.177c12.301-56.848,24.528-113.719,35.861-170.764c7.692-38.719,13.979-77.721,20.577-116.65
		c6.604-38.963,13.02-77.96,19.143-117.001c7.156-45.626,13.586-91.367,20.943-136.959c5.025-31.14,10.938-62.139,16.74-93.147
		c9.973-53.297,22.188-106.072,38.125-157.927c12.513-40.717,26.966-80.712,46.905-118.48c4.325-8.192,9.723-15.84,14.891-23.562
		c6.466-9.661,12.965-19.318,19.87-28.666c24.622-33.335,57.292-55.43,97.137-65.864c29.874-7.823,60.306-13.535,90.534-19.978
		c36.059-7.687,72.363-14.322,108.205-22.902c55.357-13.25,109.959-29.251,161.812-53.192c42.95-19.831,84.425-42.354,122.3-70.998
		c1.008-0.763,1.937-1.628,3.218-2.713c-25.293-27.337-36.009-61.085-44.815-95.785c-6.557-25.838-11.929-51.933-13.456-78.519
		c-1.43-24.896-1.592-49.901-1.289-74.846c0.134-11.037-2.876-20.879-6.538-31.93c-1.616,1.488-2.603,2.582-3.764,3.437
		c-10.366,7.627-16.473,7.599-26.989-0.257c-2.648-1.979-5.14-4.195-7.534-6.48c-16.684-15.919-27.544-35.486-35.552-56.847
		c-12.662-33.774-21.405-68.582-25.843-104.321c-4.052-32.636-4.535-65.55-1.46-98.263c4.035-42.915,14.617-84.399,30.786-124.434
		c13.643-33.781,30.627-65.816,51.888-95.319c21.446-29.762,46.243-56.669,74.45-80.299c28.648-24,59.518-44.674,92.52-62.196
		c11.969-6.355,23.851-12.875,36.059-19.475c-0.757-2.351-1.301-4.213-1.952-6.036c-7.373-20.648-6.286-40.857,1.665-61.286
		c6.276-16.128,12.142-32.334,22.195-46.08c-5.805-7.938-11.874-15.013-16.574-22.903c-11.378-19.1-12.144-40.029-7.15-60.906
		c9.019-37.712,30.045-67.512,61.612-90.167c30.536-21.914,64.876-30.155,101.688-28.46c22.756,1.047,44.788,6.18,64.025,19.592
		c1.634,1.139,3.414,2.076,5.173,3.021c0.558,0.299,1.266,0.317,2.397,0.577c3.087-2.512,6.526-5.091,9.721-7.945
		c23.656-21.138,51.31-30.8,83.021-30.619c22.355,0.127,43.703,4.421,64.116,12.892c15.71,6.52,30.103,15.593,42.829,27.086
		c19.447,17.563,36.583,36.927,46.766,61.468c12.446,29.995,19.552,60.704,12.043,93.379c-5.193,22.598-15.55,42.601-31.262,59.304
		c-11.328,12.043-24.422,22.438-36.846,33.435c-7.449,6.594-15.127,12.932-23.2,19.809c4.949,2.604,9.241,4.989,13.643,7.154
		c19.559,9.624,29.369,26.469,33.668,46.819c1.838,8.7,2.268,17.83,2.239,26.761c-0.049,14.875,5.475,26.01,18.063,34.403
		c33.3,22.202,61.377,49.992,84.498,82.593c24.859,35.052,44.056,72.886,52.18,115.483c5.786,30.343,7.485,60.749-3.016,90.643
		c-0.77,2.191-1.366,4.514-2.532,6.486c-7.004,11.846-7.752,24.224-4.854,37.527c4.06,18.637,4.531,37.693,3.461,56.659
		c-0.907,16.065-4.904,31.514-13.615,45.923c2.521,0.907,4.609,1.945,6.818,2.41c21.449,4.506,33.051,24.905,34.411,42.811
		c1.32,17.384-0.619,34.575-4.31,51.49c-3.397,15.57-7.144,31.125-11.903,46.321c-4.461,14.245-10.158,28.153-20.44,41.164
		c3.511-0.529,5.893-0.805,8.24-1.255c14.262-2.736,28.376-1.793,42.566,0.944c8.432,1.626,17.083,2.096,25.619,3.21
		c17.869,2.333,33.793,9.81,48.833,19.221c10.125,6.335,20.409,12.662,29.521,20.306c9.635,8.081,18.546,17.218,26.745,26.775
		c18.834,21.955,36.909,44.557,55.54,66.688c21.598,25.657,37.982,54.521,52.871,84.36c3.564,7.144,7.551,14.077,11.133,21.213
		c2.036,4.057,4.506,5.719,9.452,5.029c32.755-4.563,64.894-0.091,96.935,6.76c58.272,12.46,109.776,38.821,154.197,77.877
		c40.886,35.947,71.827,79.396,87.623,132.344c1.978,6.627,2.451,13.698,3.727,20.544c0.522,2.802,1.326,5.552,2.002,8.325
		C3922.055,2006.339,3922.055,2018.339,3922.055,2030.339z M2095.847,2417.435c0.585-0.107,1.17-0.215,1.755-0.321
		c1.837,4.516,4.246,8.889,5.417,13.571c6.274,25.082,14.354,49.619,22.017,74.283c8.961,28.842,17.884,57.696,26.874,86.529
		c8.906,28.562,17.992,57.067,26.778,85.666c6.637,21.605,13.883,43.087,19.159,65.033c9.368,38.961,11.793,78.844,12.064,118.772
		c0.261,38.247-2.299,76.393-7.555,114.305c-4.606,33.232-8.901,66.524-14.412,99.609c-5.73,34.411-12.303,68.7-19.332,102.873
		c-8.101,39.387-17.046,78.602-25.762,117.86c-1.741,7.843-1.854,8.977,5.617,12.453c8.421,3.919,17.007,7.73,25.882,10.385
		c40.871,12.22,83,18.615,124.962,25.447c34.738,5.656,69.71,10.049,104.692,13.986c35.634,4.012,71.395,6.927,107.124,10.044
		c23.157,2.021,46.364,3.456,69.537,5.312c26.488,2.122,52.943,4.705,79.448,6.57c34.149,2.403,68.346,4.132,102.501,6.449
		c38.787,2.631,77.559,5.489,116.322,8.439c28.138,2.142,56.246,4.671,84.379,6.88c23.526,1.848,47.086,3.278,70.599,5.269
		c23.456,1.984,46.862,4.558,70.31,6.652c34.729,3.103,69.461,6.172,104.217,8.955c31.447,2.518,62.923,4.709,94.4,6.842
		c4.543,0.307,9.406,0.298,13.705-0.974c19.79-5.855,37.43-15.73,51.438-31.05c21.379-23.381,36.261-50.979,47.428-80.23
		c16.598-43.475,31.26-87.684,47.273-131.387c26.428-72.128,52.978-144.215,80.046-216.104
		c21.326-56.641,43.269-113.052,65.37-169.395c32.681-83.307,64.976-166.779,98.906-249.578
		c24.466-59.701,51.277-118.443,77.135-177.572c23.463-53.655,47.637-107.008,70.408-160.954
		c20.065-47.531,38.222-95.829,46.203-147.224c3.737-24.067,5.885-48.178,1.714-72.455c-3.532-20.556-11.086-39.777-20.578-58.089
		c-19.508-37.636-45.176-70.446-78.604-96.954c-30.599-24.265-64.558-42.31-101.465-54.613
		c-37.144-12.384-75.839-16.9-114.606-20.638c-2.162-0.209-4.391,0.263-8.479,0.55c8.264,11.443,15.39,21.76,22.99,31.713
		c8.533,11.175,16.947,22.376,19.444,36.637c1.259,7.188,1.598,14.532,2.687,21.756c0.418,2.776,1.018,6.118,2.803,8.001
		c14.061,14.841,18.582,33.438,21.395,52.742c2.127,14.601-4.599,26.554-14.269,35.774c-11.769,11.222-26.77,9.691-40.229,2.99
		c-23.948-11.923-39.561-31.041-44.499-57.854c-0.946-5.14-2.743-9.005-7.045-12.343c-7.197-5.583-12.498-12.996-15.559-21.606
		c-1.68-4.727-3.625-7.931-9.079-8.973c-3.777-0.723-7.243-3.183-10.791-4.98c-17.126-8.679-34.233-17.397-51.591-26.226
		c-8.335,22.068-16.436,43.163-24.275,64.354c-11.079,29.946-21.485,60.153-33.191,89.851c-4.218,10.7-10.954,20.514-17.306,30.232
		c-4.532,6.936-10.107,13.163-18.773,15.699c-2.17,0.635-3.89,3.293-5.494,5.28c-3.753,4.649-6.574,10.364-11.088,14.025
		c-12.025,9.755-26.162,12.112-32.352-7.661c-0.597-1.906-1.137-3.851-1.967-5.655c-0.668-1.453-1.439-3.453-2.674-3.954
		c-7.31-2.961-9.801-9.473-12.242-17.571c-3.55,6.063-6,11.093-9.225,15.564c-5.42,7.516-10.273,16.038-17.373,21.556
		c-5.675,4.41-11.372,8.404-16.316,13.834c-10.018,10.998-27.885,7.615-33.857-6.031c-1.589-3.63-2.287-7.641-3.688-11.365
		c-1.021-2.711-1.972-5.795-3.925-7.736c-4.55-4.521-6.322-10.146-7.373-16.024c-3.545-19.826-3.128-39.711-0.395-59.609
		c1.111-8.094,1.944-16.226,2.903-24.341c-2.431,1.517-3.331,3.512-4.422,5.397c-5.654,9.777-10.857,19.869-17.235,29.152
		c-3.668,5.34-8.558,10.837-14.201,13.525c-5.068,2.415-9.453,4.944-13.579,8.696c-8.977,8.164-20.904,6.112-27.05-4.445
		c-1.821-3.129-2.722-6.781-4.369-10.028c-1.631-3.213-2.939-7.494-5.676-9.063c-6.847-3.925-7.721-10.257-8.451-16.696
		c-2.229-19.64-0.578-39.066,3.737-58.323c1.868-8.335,3.384-16.749,5.06-25.127c2.589-12.937,5.224-25.864,7.732-38.816
		c0.569-2.942,0.703-5.968,1.037-8.955c-2.326,2.058-3.015,4.709-4.582,6.651c-3.276,4.063-6.432,8.695-10.717,11.353
		c-5.091,3.157-9.896,6.235-14.221,10.524c-7.267,7.207-15.989,6.275-22.279-1.438c-1.235-1.516-2.479-3.28-4.128-4.158
		c-10.56-5.625-15.61-15.46-18.84-26.02c-9.938-32.494-11.476-65.562-2.868-98.485c6.044-23.124,13.687-45.84,20.964-68.627
		c9.311-29.154,23.265-55.644,43.767-78.788c21.403-24.16,46.193-40.844,79.517-42.135c4.564-0.177,9.111-1.447,13.613-2.45
		c12.452-2.775,21.604-10.377,30.461-19.276c10.595-10.643,18.253-22.623,23.283-36.653c8.44-23.543,14.329-47.745,18.826-72.274
		c2.091-11.404,3.71-22.99,1.023-34.666c-1.55-6.732-4.087-12.915-10.188-16.497c-5.959-3.498-12.472-6.042-18.598-9.274
		c-2.984-1.574-5.424-1.474-8.346,0.189c-7.697,4.383-16.037,6.568-24.922,5.553c-5.312-0.606-8.19,1.903-9.758,6.486
		c-1.616,4.724-3.036,9.515-4.547,14.274c-5.329,16.802-10.28,33.725-19.271,49.122c-6.129,10.495-14.849,17.787-25.857,22.52
		c-12.682,5.451-22.861,3.488-32.858-6.292c-7.98-7.809-13.64-17.221-17.996-27.375c-3.628-8.456-6.715-17.144-9.728-24.919
		c-12.759,0.968-24.516,1.86-36.49,2.769c-7.494,14.598-7.905,14.077-16.607,20.952c-21.574,17.043-52.448,4.088-62.473-15.258
		c-7.924-15.293-12.465-31.44-13.155-48.705c-0.263-6.555-1.202-13.083-1.896-20.261c-18.559-1.859-32.094-12.469-45.353-24.966
		c-1.83,6.705-3.102,12.226-4.843,17.593c-6.404,19.743-16.336,37.033-34.334,48.638c-6.933,4.47-14.179,4.857-21.928,2.572
		c-13.382-3.947-23.758-11.683-30.999-23.64c-1.771-2.925-3.776-5.707-5.748-8.665c-1.188,1.189-1.836,1.575-2.082,2.138
		c-0.528,1.209-0.926,2.49-1.244,3.775c-5.093,20.587-16.051,37.714-30.421,53.07c-17.502,18.704-41.796,24.601-64.055,3.727
		c-2.882-2.702-5.439-2.938-8.981-1.618c-9.452,3.525-18.806,2.998-28.059-1.188c-21.155-9.567-33.059-26.477-37.47-48.612
		c-2.65-13.303-3.698-26.931-5.319-40.429c-1.045-8.699-2.605-10.738-11.174-12.945c-2.891-0.745-5.918-0.969-8.797-1.748
		c-6.703-1.814-13.76-2.984-19.922-5.968c-7.388-3.577-13.993-8.769-21.676-13.738c-18.13,10.466-36.968,15.049-54.653-3.798
		c-3.003,5.698-5.097,10.644-8.048,15.009c-3.114,4.607-7.047,8.661-10.625,12.96c11.875,12.619,23.348,39.272,21.438,51.169
		c-2.179-2.108-4.247-3.661-5.75-5.644c-7.239-9.545-14.241-19.271-21.52-28.785c-2.188-2.859-4.717-5.617-7.583-7.76
		c-4.506-3.369-8.155-2.719-10.72,2.154c-1.64,3.117-2.718,6.939-2.696,10.437c0.043,7.284,0.153,14.744,1.7,21.811
		c6.257,28.573,12.561,57.156,19.845,85.479c5.379,20.91,11.645,41.655,18.828,62.011c3.368,9.543,9.202,18.439,15.108,26.787
		c4.206,5.944,10.738,9.486,19.948,7.263c-0.965-5.908-0.865-11.446-2.812-16.135c-8.283-19.961-17.302-39.615-25.811-59.484
		c-12.261-28.632-20.111-58.459-22.951-89.494c-0.643-7.025-0.635-14.262,2.39-21.34c2.126,2.745,3.355,5.609,4.152,8.591
		c2.562,9.585,4.395,19.404,7.543,28.785c6.874,20.477,14.191,40.812,21.693,61.069c7.262,19.609,16.912,38.459,17.923,59.941
		c0.328,6.965,0.976,13.915,1.497,21.155c2.101,0,3.918,0,5.691,0c1.857,15.932-8.203,25.297-23.089,22.382
		c-10.216-2-17.27-8.134-23.2-16.05c-3.055-4.076-5.917-8.296-10.098-14.188c1.003,10.253,1.327,18.244,2.639,26.07
		c3.514,20.958,7.664,41.81,11.173,62.769c6.456,38.57,16.813,75.912,34.064,111.151c2.096,4.28,4.517,8.401,7.471,13.861
		c13.217-12.305,25.906-23.097,37.391-35.047c17.962-18.689,35.47-37.848,52.446-57.435c8.612-9.937,18.541-18.857,24.088-31.514
		c2.683-6.12,7.324-12.222,15.58-16.609c-1.143,4.423-1.558,7.339-2.644,9.979c-3.289,7.998-6.47,16.074-10.347,23.791
		c-24.881,49.519-59.926,90.918-102.028,126.551c-21.382,18.097-44.61,33.586-68.747,47.771
		c-29.312,17.226-59.659,32.375-91.049,45.382c-31.656,13.119-63.919,24.643-97.221,32.821
		c-36.444,8.951-72.945,17.771-109.671,25.456c-34.003,7.114-68.431,12.18-102.48,19.088c-16.558,3.36-33.023,7.913-48.921,13.623
		c-26.271,9.436-50.054,22.965-67.629,45.773c-13.849,17.972-27.301,36.221-36.924,56.772c-8.45,18.046-15.655,36.694-22.941,55.262
		c-12.766,32.531-23.207,65.883-31.876,99.685c-8.833,34.436-16.503,69.193-23.778,104c-6.791,32.492-12.945,65.142-18.387,97.887
		c-7.348,44.209-13.647,88.591-20.583,132.869c-5.604,35.773-11.058,71.578-17.341,107.234
		c-9.513,53.982-18.814,108.028-29.827,161.715c-11.016,53.702-24.015,106.998-36.161,160.469
		c-10.9,47.984-21.93,95.94-32.705,143.954c-10.338,46.069-19.318,92.367-22.15,139.639c-1.29,21.536-1.834,42.997,2.082,64.398
		c8.299,45.347,22.025,89.064,39.675,131.538c7.421,17.859,17.158,34.596,30.97,48.506c12.257,12.346,26.437,22.207,41.13,31.412
		c14.474,9.069,30.114,9.402,46.048,6.101c19.592-4.06,37.751-12.474,56.255-19.741c23.903-9.387,48.184-17.27,73.554-21.743
		c14.333-2.527,28.5-5.988,40.96-8.648c15.038-28.729,28.993-56.336,43.841-83.452c11.235-20.518,24.557-39.564,46.286-51.463
		c-0.603-5.226-2.027-10.526-1.654-15.697c1.025-14.225,2.071-28.516,4.416-42.563c9.028-54.092,18.575-108.098,27.89-162.143
		c0.426-2.472,0.469-5.009,0.736-8.042c-8.144,2.272-15.433,4.306-22.987,6.414c-4.452,20.867-8.549,41.388-13.233,61.773
		c-12.145,52.845-24.889,105.546-41.507,157.207c-6.013,18.694-12.464,37.271-23.413,53.836c-2.075,3.139-4.635,5.958-6.971,8.925
		c-0.632-0.328-1.264-0.656-1.896-0.984c0.516-3.882,0.765-7.823,1.593-11.638c4.572-21.051,9.292-42.068,13.949-63.1
		c10.555-47.67,21.138-95.332,31.642-143.013c8.577-38.932,16.836-77.934,25.652-116.811c6.102-26.905,12.862-53.661,19.414-80.464
		c7.024-28.735,14.604-57.344,21.084-86.2c5.019-22.353,8.472-45.028,9.191-68.025c1.049-33.561-4.886-66.248-12.926-98.558
		c-11.56-46.45-24.778-92.506-35.462-139.148c-10.461-45.665-18.684-91.844-27.712-137.831
		C2095.213,2425.286,2095.847,2421.298,2095.847,2417.435z M2717.627,655.824c7.505-5.809,14.082-11.369,21.127-16.255
		c16.243-11.266,34.09-18.012,54.172-16.563c11.084,0.8,19.631,6.631,24.132,16.781c4.748,10.707,2.754,20.941-5.718,29.198
		c-17.037,16.605-37.051,27.015-61.353,26.925c-8.155-0.03-16.305-1.62-25.219-2.579c-12.398,21.23-22.053,43.607-23.201,68.842
		c-0.801,17.598,0.386,18.173,16.605,11.267c20.283-8.638,41.397-14.532,63.218-17.532c12.813-1.762,25.742-2.747,38.647-3.709
		c8.587-0.64,17.232-1.007,25.836-0.807c12.282,0.285,23.529,4.302,33.546,11.41c13.565,9.627,15.428,26.513,4.074,38.39
		c-5.039,5.271-10.249,10.617-16.209,14.73c-37.218,25.688-78.409,31.21-122.076,23.03c-14.917-2.794-28.767-8.193-40.825-17.669
		c-3.31-2.601-6.315-3.587-10.847-1.516c-28.799,13.165-56.351,28.655-82.784,45.914c-33.801,22.068-65.071,47.355-91.379,78.326
		c-11.608,13.666-25.441,25.458-34.731,41.071c-7.647,12.852-15.68,25.509-22.636,38.729
		c-28.436,54.05-44.485,111.667-47.605,172.665c-1.378,26.937,0.24,53.852,4.073,80.603c5.023,35.058,14.409,68.923,28.211,101.491
		c5.809,13.707,12.455,27.145,22.661,38.312c2.765,3.024,6.184,5.453,9.286,8.142c7.714-8.751,8.939-17.195,5.9-27.487
		c-4.699-15.913-8.55-32.153-11.49-48.483c-2.106-11.7-2.664-23.764-2.929-35.687c-0.22-9.896,3.568-19.038,9.568-26.838
		c2.237-2.908,6.061-5.783,9.521-6.312c6.809-1.039,10.238-4.861,13.24-10.409c6.792-12.554,14.797-24.411,18.69-38.475
		c2.141-7.732,7.237-8.812,13.56-3.631c2.445,2.004,4.266,4.893,6.007,7.611c9.985,15.595,23.86,17.809,39.029,5.743
		c-0.251-1.358-0.576-2.944-0.832-4.543c-1.635-10.218,0.533-19.799,4.834-29.039c3.066-6.588,8.864-9.33,15.414-8.992
		c6.717,0.348,11.933,4.428,13.925,11.119c1.965,6.599,4.08,13.2-0.01,20.163c-3.318,5.649-5.523,11.953-8.402,18.368
		c6.115,7.823,13.76,13.806,24.076,15.992c5.521,1.171,10.985,2.605,16.465,3.965c11.204,2.78,18.453,9.161,21.364,20.898
		c4.076,16.439,8.936,32.692,13.771,48.932c2.522,8.472,7.288,15.813,14.397,21.125c5.94,4.438,12.561,7.369,20.234,3.413
		c-0.243-4.006-0.603-7.599-0.654-11.196c-0.198-13.532,3.864-25.518,13.816-34.947c2.175-2.061,5.523-3.779,8.451-3.991
		c12.723-0.92,19.65,5.359,21.19,18.14c1.616,13.417-2.469,24.912-11.259,34.948c-1.864,2.129-3.585,4.385-5.548,6.798
		c6.253,5.702,11.962,9.172,20.238,8.122c7.849-0.996,13.609-5.13,19.132-9.877c13.771-11.835,22.361-27.144,26.859-44.419
		c3.068-11.785,4.439-24.035,6.145-36.137c0.615-4.37,1.654-7.92,6.361-8.821c4.743-0.909,8.618,1.003,10.919,5.168
		c2.241,4.057,4.034,8.369,5.885,12.631c5.356,12.331,12.146,23.768,22.137,32.879c7.897,7.203,17.041,7.688,25.438,1.264
		c15.606-11.939,24.314-27.62,24.626-47.649c0.072-4.616,0.783-9.3,1.841-13.803c1.183-5.032,6.123-8.514,11.247-7.46
		c3.662,0.753,7.632,2.477,10.342,4.981c13.198,12.203,25.675,25.037,44.963,27.708c7.51,1.04,13.029,9.274,12.818,17.094
		c-0.528,19.612,4.397,38.122,10.72,56.385c2.534,7.321,8.06,12.334,14.65,15.556c6.723,3.287,14.442,4.634,20.895-0.422
		c5.129-4.021,10.221-8.673,11.437-16.275c-7.5-7.042-12.836-15.694-15.321-26.029c-1.807-7.51,1.459-13.155,6.932-17.491
		c5.54-4.39,13.265-3.784,19.363,0.414c6.262,4.311,9.351,10.103,9.27,17.725c-0.047,4.531,0.251,9.066,0.431,14.756
		c6.3-0.31,11.514-0.415,16.697-0.87c3.96-0.349,7.866-1.504,11.822-1.668c14.365-0.597,18.77,2.886,23.239,16.55
		c4.249,12.991,9.582,25.517,17.572,36.781c7.206,10.158,14.361,11.636,24.391,4.203c7.616-5.645,13.851-12.81,16.918-21.802
		c5.361-15.715,9.864-31.721,14.893-47.552c1.492-4.696,2.708-9.821,5.52-13.679c4.75-6.517,11.623-9.348,20.088-8.271
		c15.53,1.974,25.168-6.302,31.613-19.329c7.386-14.929,10.356-31.012,9.374-47.396c-1.031-17.182-3.095-34.381-6.061-51.335
		c-1.83-10.461,0.009-19.535,4.396-28.693c6.371-13.298,10.601-27.126,11.301-42.056c1.021-21.775-2.46-42.586-9.073-63.417
		c-10.176-32.055-24.518-61.857-43.635-89.356c-13.303-19.135-27.426-37.705-45.443-52.818
		c-12.229-10.258-24.178-20.939-37.1-30.257c-16.289-11.746-25.591-26.627-25.877-46.902c-0.061-4.311-0.543-8.627-1.028-12.918
		c-0.448-3.959-0.849-7.965-1.808-11.816c-6.79-27.27-19.502-35.938-45.16-38.706c-6.004-0.648-11.857-1.956-18.164,1.655
		c-23.574,13.498-49.28,19.557-76.424,19.053c-5.256-0.097-10.713-0.829-15.688-2.458c-16.406-5.375-21.828-24.212-9.871-37.61
		c9.735-10.907,22.667-15.019,36.153-17.355c19.911-3.448,39.888-1.884,59.413,2.898c7.109,1.74,12.939,1.249,18.713-2.868
		c17.305-12.342,35.624-23.497,51.691-37.279c21.754-18.66,36.692-42.352,39.421-71.711c3.796-40.849-10.543-75.973-37.448-105.847
		c-14.52-16.12-32.604-27.991-52.804-36.675c-21.868-9.401-44.312-14.301-67.938-10.551c-21.642,3.436-39.362,14.796-55.721,29.416
		c1.639,2.304,2.756,3.907,3.906,5.485c15.086,20.68,22.462,43.875,20.344,69.341c-2.136,25.666-14.94,37.571-41.446,41.812
		c-5.163,0.826-11.289-0.975-16.285-3.145c-13.408-5.822-18.83-18.192-22.578-31.121c-5.734-19.779-1.969-38.868,6.078-57.249
		c3.438-7.853,7.76-15.317,11.997-23.575c-2.974-1.554-5.558-2.915-8.15-4.259c-10.431-5.405-21.623-8.361-33.097-10.555
		c-23.438-4.479-46.813-3.555-68.686,5.597c-42.921,17.957-71.074,49.566-81.178,95.593
		C2699.116,624.254,2702.677,641.421,2717.627,655.824z M3363.996,1997.986c11.394-16.915,20.31-34.759,25.987-53.716
		c11.545-38.55,26.443-75.833,40.575-113.422c6.731-17.905,13.606-35.774,19.641-53.919c2.909-8.748,3.56-18.223,6.044-27.143
		c4.994-17.935,10.513-35.723,15.896-53.546c0.833-2.758,1.561-5.912,6.211-5.81c0.968,21.965-4.64,43.241-6.563,66.742
		c15.46-19.968,29.094-38.882,45.106-56.136c-0.012,4.243-0.892,7.985-2.168,11.586c-2.22,6.264-4.463,12.535-7.089,18.635
		c-8.422,19.566-19.525,37.05-38.275,48.542c-1.755,1.075-3.537,3.025-4.12,4.933c-2.206,7.221-3.923,14.591-5.57,20.933
		c20.209,9.487,39.546,18.564,58.813,27.609c1.573-9.04-4.944-18.571,0.771-28.067c3.591,5.104,7.224,10.235,8.222,15.836
		c2.577,14.463,9.676,26.728,16.876,39.043c1.057,1.808,2.722,3.261,4.489,5.326c7.701-30.687,7.701-30.687,12.487-33.186
		c0.571,7.204,2.144,14.523,1.501,21.644c-1.155,12.817,0.169,25.337,3.602,37.447c2.507,8.841,6.238,17.663,11.124,25.422
		c7.035,11.173,16.918,19.705,30.199,23.185c6.896,1.807,13.177-0.451,16.685-5.802c3.471-5.292,1.603-9.73-1.668-14.617
		c-8.421-12.585-14.647-26.065-14.933-41.699c-0.212-11.63-1.211-23.249-1.282-34.876c-0.078-12.699-4.907-23.336-13.138-32.513
		c-21.067-23.486-37.142-50.175-51.507-78.102c-10.343-20.104-21.636-39.72-32.38-59.62c-10.072-18.655-25.093-33.483-38.271-49.724
		c-11.312-13.94-22.422-28.135-34.767-41.129c-26.867-28.281-58.695-49.811-94.401-65.45c-5.286-2.314-11.484-4.101-17.116-3.757
		c-12.908,0.788-25.891,2.259-38.545,4.888c-18.538,3.851-36.832,8.891-55.197,13.549c-13.175,3.342-26.258,7.053-39.461,10.273
		c-6.11,1.491-12.579,1.643-18.576,3.435c-5.635,1.684-11.766,3.675-16.093,7.381c-10.846,9.289-21.058,19.368-31.041,29.602
		c-15.077,15.455-26.151,33.404-32.678,54.161c-3.688,11.733-8.39,23.145-12.326,34.805c-10.233,30.312-20.227,60.724-17.52,93.436
		c1.003,12.109,2.638,24.167,3.984,36.249c3.781-5.653,5.592-11.421,8.541-16.532c5.326-9.229,15.123-10.857,23.983-4.952
		c4.87,3.246,7.099,8,8.077,13.264c1.29,6.935,1.836,14.007,2.702,21.021c3.712-4.518,6.673-9.409,7.496-14.638
		c1.695-10.758,2.443-21.684,3.192-32.566c0.409-5.94,0.661-12.021-0.136-17.888c-1.789-13.17-0.524-25.617,5.131-37.824
		c2.732-5.896,4.445-12.442,5.533-18.878c1.159-6.855,3.089-12.655,9.168-16.79c5.491-3.735,10.783-7.846,15.739-12.267
		c7.664-6.837,15.288-13.937,18.786-23.967c4.146-11.882,7.98-23.881,11.562-35.945c1.218-4.099,3.743-5.605,8.403-7.273
		c0,7.622,0.413,14.208-0.074,20.727c-1.84,24.652-7.723,48.598-14.177,72.313c-18.082,66.441-35.682,132.99-49.252,200.53
		c-2.484,12.364-4.298,24.863-6.33,37.315c-0.373,2.284-0.453,4.643-0.399,6.961c0.047,2,0.477,3.992,0.584,4.815
		c4.777-8.252,8.961-17.352,14.949-25.049c3.1-3.983,9.159-6.228,14.322-7.866c4.202-1.334,7.246,2.298,9.586,5.743
		c0.352,0.518,1.002,0.917,1.599,1.172c11.31,4.819,11.241,14.346,10.166,24.345c-0.437,4.057-0.68,8.134-1.145,13.844
		c2.203-2.021,3.208-2.515,3.515-3.287c4.666-11.724,10.179-23.216,13.632-35.294c6.286-21.987,11.733-44.237,16.827-66.539
		c13.651-59.771,31.589-118.139,55.941-174.461c1.235-2.856,2.848-5.551,4.284-8.32c0.697,0.248,1.395,0.496,2.091,0.744
		c-1.667,11.723-2.908,23.526-5.097,35.151c-3.934,20.899-8.71,41.642-12.614,62.547c-3.172,16.984-5.492,34.126-8.35,51.172
		c-5.273,31.454-10.823,62.863-15.95,94.342c-3.417,20.979-6.544,42.013-9.31,63.086c-1.183,9.017-1.116,18.198-1.617,27.305
		c0.828,0.43,1.656,0.859,2.483,1.288c1.516-2.056,2.813-4.324,4.58-6.135c12.464-12.772,32.557-7.073,36.534,8.828
		c1.488,5.953,2.954,11.912,5.011,20.214c6.317-15.475,12.894-28.886,17.293-42.976c7.133-22.845,13.049-46.079,19.099-69.248
		c10.502-40.213,20.249-80.627,31.191-120.718c8.855-32.442,19.768-64.266,33.309-95.114c1.056-2.403,2.604-4.591,3.925-6.879
		c1.66,3.059,1.949,5.403,1.613,7.654c-2.26,15.126-3.877,30.403-7.167,45.309c-6.374,28.888-13.503,57.616-20.709,86.313
		c-8.492,33.819-16.994,67.646-26.279,101.253c-5.437,19.674-8.785,39.528-9.731,59.846c-0.093,1.992,0.412,4.013,0.825,7.657
		c2.511-4.658,3.728-7.828,5.708-10.411c4.663-6.078,9.568-12.028,17.208-14.668c6.958-2.403,11.772,2.591,17.547,4.737
		c8.149,3.029,11.08,8.95,12.071,16.665C3363.73,1992.703,3363.803,1995.353,3363.996,1997.986z M2735.638,801.442
		c22.806,10.736,52.573,13.482,75.63,7.826c10.549-2.589,20.715-6.893,30.853-10.928c4.124-1.642,7.945-4.418,9.832-10.615
		c-6.472-1.122-12.21-2.435-18.022-3.068c-21.183-2.31-41.775,1.761-62.185,6.61C2759.59,794.156,2747.667,798.018,2735.638,801.442
		z M2180.472,2912.734c-13.599,50.962-27.936,101.745-37.888,154.286c7.557-0.76,13.728-1.381,19.606-1.972
		C2168.455,3044.919,2181.691,2929.936,2180.472,2912.734z M2916.596,538.519c-9.594,11.725-14.135,24.098-15.959,37.249
		c-0.883,6.368,0.236,13.159,1.316,19.613c1.055,6.295,5.045,11.192,11.479,12.347c6.734,1.208,11.143-3.255,14.465-8.543
		c1.194-1.901,2.173-4.116,2.57-6.312C2934.051,573.088,2927.374,555.907,2916.596,538.519z M3162.353,1680.974
		c-12.767,2.368-18.994,9.005-20.57,20.191c-0.412,2.925-1.543,5.77-2.526,8.587c-4.309,12.341-6.439,24.707-3.404,37.866
		c1.631,7.07,1.396,14.57,2.004,21.876c0.576,0.009,1.152,0.019,1.729,0.028C3147.108,1740.266,3154.63,1711.009,3162.353,1680.974z
		 M3236.583,2044.659c10.271-8.252,15.224-26.808,10.241-36.792c-1.041-2.086-3.88-4.859-5.579-4.66
		c-2.493,0.292-5.751,2.47-6.85,4.733c-4.01,8.264-5.205,17.156-2.569,26.129C3232.881,2037.657,3234.89,2040.965,3236.583,2044.659
		z M3154.126,1919.926c-9.403,16.76-15.058,32.989-10.674,52.034c9.167-6.503,12.307-14.332,16.239-38.372
		C3160.518,1928.536,3159.017,1924.502,3154.126,1919.926z M3088.448,1832.927c8.375-9.815,9.289-34.028,2.086-43.475
		C3079.262,1798.306,3078.083,1817.719,3088.448,1832.927z M3337.692,1984.628c-7.48,13.42-12.327,26.492-6.999,42.281
		c10.886-6.502,12.366-16.836,13.902-26.721C3345.465,1994.59,3346.075,1988.061,3337.692,1984.628z M2791.834,649.643
		c-16.558-1.373-32.268,5.57-42.232,18.136C2764.519,670.741,2782.741,663.159,2791.834,649.643z M2739.879,1324.809
		c-8.24,8.199-8.092,17.276-6.317,27.248C2744.33,1345.234,2746.991,1334.172,2739.879,1324.809z M2966.944,779.658
		c0.044,0.862,0.087,1.726,0.131,2.589c7.213,0.169,14.383,0.057,20.813-5.106C2980.907,777.979,2973.925,778.818,2966.944,779.658z
		"/>
	<path style="fill-rule:evenodd;clip-rule:evenodd;fill:none;" d="M2095.847,2417.435c0,3.863-0.634,7.852,0.096,11.571
		c9.028,45.987,17.251,92.166,27.712,137.831c10.684,46.643,23.902,92.698,35.462,139.148c8.04,32.31,13.975,64.997,12.926,98.558
		c-0.72,22.997-4.173,45.673-9.191,68.025c-6.479,28.856-14.06,57.465-21.084,86.2c-6.552,26.803-13.313,53.559-19.414,80.464
		c-8.815,38.877-17.075,77.879-25.652,116.811c-10.504,47.681-21.087,95.343-31.642,143.013c-4.657,21.031-9.377,42.049-13.949,63.1
		c-0.829,3.814-1.077,7.756-1.593,11.638c0.632,0.328,1.264,0.656,1.896,0.984c2.336-2.967,4.896-5.786,6.971-8.925
		c10.948-16.564,17.4-35.142,23.413-53.836c16.618-51.661,29.362-104.362,41.507-157.207c4.685-20.386,8.781-40.906,13.233-61.773
		c7.555-2.108,14.844-4.142,22.987-6.414c-0.268,3.033-0.311,5.57-0.736,8.042c-9.314,54.045-18.861,108.051-27.89,162.143
		c-2.345,14.048-3.391,28.339-4.416,42.563c-0.373,5.171,1.052,10.472,1.654,15.697c-21.729,11.898-35.051,30.945-46.286,51.463
		c-14.849,27.116-28.804,54.723-43.841,83.452c-12.46,2.66-26.628,6.121-40.96,8.648c-25.371,4.474-49.651,12.356-73.554,21.743
		c-18.504,7.268-36.664,15.682-56.255,19.741c-15.934,3.302-31.574,2.969-46.048-6.101c-14.693-9.205-28.873-19.066-41.13-31.412
		c-13.812-13.91-23.548-30.646-30.97-48.506c-17.649-42.474-31.376-86.191-39.675-131.538c-3.917-21.401-3.372-42.862-2.082-64.398
		c2.832-47.271,11.812-93.569,22.15-139.639c10.774-48.014,21.805-95.97,32.705-143.954
		c12.146-53.471,25.145-106.767,36.161-160.469c11.012-53.687,20.314-107.732,29.827-161.715
		c6.283-35.656,11.737-71.461,17.341-107.234c6.936-44.278,13.236-88.66,20.583-132.869c5.442-32.745,11.596-65.395,18.387-97.887
		c7.275-34.807,14.945-69.564,23.778-104c8.669-33.802,19.11-67.153,31.876-99.685c7.286-18.567,14.492-37.216,22.941-55.262
		c9.624-20.552,23.076-38.801,36.924-56.772c17.576-22.809,41.359-36.338,67.629-45.773c15.897-5.71,32.363-10.263,48.921-13.623
		c34.05-6.908,68.478-11.974,102.48-19.088c36.726-7.685,73.227-16.505,109.671-25.456c33.302-8.179,65.564-19.702,97.221-32.821
		c31.39-13.007,61.737-28.156,91.049-45.382c24.137-14.185,47.365-29.674,68.747-47.771
		c42.103-35.633,77.147-77.032,102.028-126.551c3.877-7.717,7.058-15.793,10.347-23.791c1.086-2.641,1.501-5.557,2.644-9.979
		c-8.256,4.388-12.897,10.489-15.58,16.609c-5.547,12.656-15.476,21.577-24.088,31.514c-16.977,19.587-34.484,38.745-52.446,57.435
		c-11.484,11.95-24.174,22.742-37.391,35.047c-2.954-5.46-5.375-9.581-7.471-13.861c-17.251-35.239-27.608-72.581-34.064-111.151
		c-3.509-20.959-7.659-41.811-11.173-62.769c-1.312-7.826-1.636-15.817-2.639-26.07c4.181,5.892,7.043,10.111,10.098,14.188
		c5.931,7.916,12.984,14.05,23.2,16.05c14.886,2.915,24.946-6.45,23.089-22.382c-1.773,0-3.591,0-5.691,0
		c-0.521-7.24-1.169-14.19-1.497-21.155c-1.011-21.482-10.661-40.332-17.923-59.941c-7.502-20.258-14.819-40.593-21.693-61.069
		c-3.148-9.381-4.981-19.2-7.543-28.785c-0.797-2.981-2.026-5.846-4.152-8.591c-3.024,7.078-3.032,14.314-2.39,21.34
		c2.84,31.035,10.69,60.862,22.951,89.494c8.509,19.869,17.527,39.523,25.811,59.484c1.946,4.688,1.847,10.227,2.812,16.135
		c-9.21,2.224-15.742-1.318-19.948-7.263c-5.906-8.348-11.74-17.244-15.108-26.787c-7.184-20.355-13.449-41.101-18.828-62.011
		c-7.284-28.322-13.588-56.905-19.845-85.479c-1.547-7.066-1.657-14.526-1.7-21.811c-0.021-3.497,1.057-7.319,2.696-10.437
		c2.564-4.873,6.214-5.523,10.72-2.154c2.866,2.143,5.396,4.9,7.583,7.76c7.278,9.515,14.28,19.24,21.52,28.785
		c1.503,1.982,3.571,3.535,5.75,5.644c1.91-11.896-9.563-38.55-21.438-51.169c3.578-4.299,7.511-8.353,10.625-12.96
		c2.951-4.365,5.045-9.311,8.048-15.009c17.686,18.847,36.523,14.264,54.653,3.798c7.683,4.97,14.288,10.161,21.676,13.738
		c6.162,2.983,13.219,4.153,19.922,5.968c2.879,0.779,5.906,1.003,8.797,1.748c8.568,2.207,10.129,4.246,11.174,12.945
		c1.621,13.498,2.669,27.126,5.319,40.429c4.411,22.136,16.314,39.045,37.47,48.612c9.253,4.186,18.606,4.713,28.059,1.188
		c3.542-1.32,6.1-1.084,8.981,1.618c22.259,20.874,46.553,14.978,64.055-3.727c14.37-15.356,25.328-32.483,30.421-53.07
		c0.318-1.285,0.716-2.566,1.244-3.775c0.246-0.563,0.894-0.948,2.082-2.138c1.972,2.958,3.978,5.74,5.748,8.665
		c7.241,11.957,17.617,19.692,30.999,23.64c7.749,2.285,14.995,1.897,21.928-2.572c17.998-11.604,27.93-28.895,34.334-48.638
		c1.741-5.367,3.013-10.888,4.843-17.593c13.259,12.497,26.794,23.106,45.353,24.966c0.693,7.178,1.633,13.706,1.896,20.261
		c0.69,17.265,5.231,33.412,13.155,48.705c10.024,19.346,40.898,32.301,62.473,15.258c8.702-6.875,9.113-6.354,16.607-20.952
		c11.975-0.908,23.731-1.801,36.49-2.769c3.013,7.775,6.1,16.463,9.728,24.919c4.356,10.154,10.016,19.566,17.996,27.375
		c9.997,9.78,20.177,11.743,32.858,6.292c11.009-4.732,19.729-12.024,25.857-22.52c8.99-15.397,13.941-32.32,19.271-49.122
		c1.511-4.76,2.931-9.551,4.547-14.274c1.567-4.583,4.446-7.093,9.758-6.486c8.885,1.016,17.225-1.17,24.922-5.553
		c2.922-1.663,5.361-1.764,8.346-0.189c6.126,3.232,12.639,5.776,18.598,9.274c6.101,3.582,8.638,9.765,10.188,16.497
		c2.687,11.676,1.067,23.262-1.023,34.666c-4.497,24.529-10.386,48.731-18.826,72.274c-5.03,14.03-12.688,26.011-23.283,36.653
		c-8.857,8.899-18.009,16.501-30.461,19.276c-4.502,1.003-9.049,2.273-13.613,2.45c-33.323,1.291-58.113,17.975-79.517,42.135
		c-20.502,23.145-34.456,49.634-43.767,78.788c-7.277,22.787-14.92,45.503-20.964,68.627c-8.607,32.924-7.069,65.991,2.868,98.485
		c3.229,10.56,8.28,20.395,18.84,26.02c1.649,0.878,2.893,2.643,4.128,4.158c6.29,7.713,15.013,8.645,22.279,1.438
		c4.324-4.289,9.13-7.367,14.221-10.524c4.285-2.657,7.44-7.289,10.717-11.353c1.567-1.942,2.256-4.594,4.582-6.651
		c-0.334,2.987-0.468,6.013-1.037,8.955c-2.509,12.952-5.144,25.88-7.732,38.816c-1.676,8.378-3.191,16.792-5.06,25.127
		c-4.315,19.257-5.967,38.684-3.737,58.323c0.73,6.439,1.604,12.771,8.451,16.696c2.736,1.568,4.045,5.85,5.676,9.063
		c1.647,3.247,2.548,6.899,4.369,10.028c6.146,10.558,18.073,12.609,27.05,4.445c4.126-3.752,8.511-6.281,13.579-8.696
		c5.644-2.688,10.533-8.186,14.201-13.525c6.378-9.283,11.581-19.375,17.235-29.152c1.091-1.886,1.991-3.881,4.422-5.397
		c-0.959,8.115-1.792,16.247-2.903,24.341c-2.733,19.898-3.15,39.783,0.395,59.609c1.051,5.879,2.823,11.504,7.373,16.024
		c1.953,1.941,2.904,5.025,3.925,7.736c1.401,3.725,2.1,7.735,3.688,11.365c5.973,13.646,23.84,17.029,33.857,6.031
		c4.944-5.43,10.642-9.424,16.316-13.834c7.1-5.518,11.953-14.04,17.373-21.556c3.225-4.472,5.675-9.501,9.225-15.564
		c2.441,8.099,4.933,14.61,12.242,17.571c1.234,0.501,2.006,2.501,2.674,3.954c0.83,1.805,1.37,3.749,1.967,5.655
		c6.189,19.773,20.326,17.416,32.352,7.661c4.514-3.661,7.335-9.376,11.088-14.025c1.604-1.987,3.324-4.646,5.494-5.28
		c8.666-2.536,14.241-8.764,18.773-15.699c6.352-9.719,13.088-19.532,17.306-30.232c11.706-29.697,22.112-59.904,33.191-89.851
		c7.84-21.191,15.94-42.286,24.275-64.354c17.357,8.828,34.465,17.547,51.591,26.226c3.548,1.798,7.014,4.258,10.791,4.98
		c5.454,1.042,7.399,4.246,9.079,8.973c3.061,8.61,8.361,16.023,15.559,21.606c4.302,3.338,6.099,7.203,7.045,12.343
		c4.938,26.813,20.551,45.932,44.499,57.854c13.46,6.701,28.461,8.231,40.229-2.99c9.67-9.221,16.396-21.174,14.269-35.774
		c-2.813-19.304-7.334-37.901-21.395-52.742c-1.785-1.883-2.385-5.225-2.803-8.001c-1.089-7.224-1.428-14.568-2.687-21.756
		c-2.497-14.261-10.911-25.462-19.444-36.637c-7.601-9.953-14.727-20.27-22.99-31.713c4.088-0.287,6.316-0.759,8.479-0.55
		c38.768,3.737,77.463,8.254,114.606,20.638c36.907,12.304,70.866,30.349,101.465,54.613c33.428,26.508,59.096,59.318,78.604,96.954
		c9.492,18.312,17.046,37.533,20.578,58.089c4.171,24.277,2.023,48.388-1.714,72.455c-7.981,51.395-26.138,99.692-46.203,147.224
		c-22.771,53.946-46.945,107.299-70.408,160.954c-25.857,59.129-52.669,117.871-77.135,177.572
		c-33.931,82.799-66.226,166.271-98.906,249.578c-22.102,56.343-44.044,112.754-65.37,169.395
		c-27.068,71.889-53.618,143.976-80.046,216.104c-16.014,43.703-30.676,87.912-47.273,131.387
		c-11.167,29.252-26.049,56.85-47.428,80.23c-14.008,15.319-31.647,25.194-51.438,31.05c-4.299,1.271-9.162,1.28-13.705,0.974
		c-31.478-2.133-62.953-4.324-94.4-6.842c-34.756-2.783-69.488-5.853-104.217-8.955c-23.447-2.095-46.854-4.668-70.31-6.652
		c-23.513-1.99-47.072-3.421-70.599-5.269c-28.133-2.209-56.241-4.738-84.379-6.88c-38.764-2.95-77.535-5.809-116.322-8.439
		c-34.155-2.317-68.352-4.046-102.501-6.449c-26.505-1.865-52.96-4.448-79.448-6.57c-23.173-1.855-46.38-3.291-69.537-5.312
		c-35.729-3.117-71.49-6.032-107.124-10.044c-34.982-3.938-69.954-8.33-104.692-13.986c-41.962-6.832-84.091-13.228-124.962-25.447
		c-8.875-2.654-17.461-6.466-25.882-10.385c-7.472-3.477-7.358-4.61-5.617-12.453c8.716-39.259,17.661-78.474,25.762-117.86
		c7.029-34.173,13.602-68.462,19.332-102.873c5.511-33.085,9.806-66.377,14.412-99.609c5.256-37.912,7.815-76.058,7.555-114.305
		c-0.271-39.929-2.696-79.812-12.064-118.772c-5.276-21.946-12.522-43.428-19.159-65.033c-8.786-28.599-17.872-57.104-26.778-85.666
		c-8.99-28.833-17.913-57.688-26.874-86.529c-7.663-24.664-15.742-49.201-22.017-74.283c-1.171-4.683-3.579-9.056-5.417-13.571
		C2097.017,2417.22,2096.432,2417.327,2095.847,2417.435z M2771.915,2714.211c-6.451,2.498-8.222,7.403-9.635,12.402
		c-15.282,54.065-30.375,108.187-45.807,162.209c-6.275,21.968-13.782,43.591-19.809,65.621
		c-15.801,57.76-31.606,115.527-46.43,173.542c-12.093,47.324-23.051,94.945-33.911,142.572c-3.451,15.136-5.139,30.69-7.24,46.107
		c-0.474,3.479,0.695,7.184,1.251,12.033c11.11-9.177,14.11-20.73,17.748-31.575c10.71-31.933,15.631-65.246,21.878-98.195
		c9.587-50.573,16.642-101.644,29.915-151.48c4.507-16.922,9.286-33.786,14.506-50.501c6.937-22.213,15.189-44.037,21.53-66.41
		c16.961-59.839,33.392-119.83,49.573-179.885C2768.681,2738.788,2769.825,2726.372,2771.915,2714.211z M2795.112,2612.875
		c1.177,0.281,2.353,0.563,3.529,0.844c40.185-136.632,65.673-276.002,76.736-418.131c-3.103,5.447-5.463,11.085-6.764,16.957
		c-2.51,11.335-4.453,22.796-6.574,34.216c-10.432,56.162-20.613,112.372-31.33,168.479
		c-10.35,54.186-21.421,108.233-31.757,162.422C2796.748,2589.224,2796.345,2601.129,2795.112,2612.875z M2885.559,2099.262
		c2.111-2.952,3.086-3.824,3.453-4.903c4.936-14.533,4.896-29.27,1.418-44.065c-0.354-1.511-1.552-2.979-2.7-4.122
		c-3.902-3.885-9.502-3.437-12.567,1.287c-7.853,12.097-9.557,26.141-11.396,39.903c-2.685,20.069-4.415,40.266-6.53,60.411
		c-2.361,22.484-4.584,44.984-7.078,67.454c-2.31,20.808-4.893,41.585-7.368,62.374c-1.768,14.845-3.64,29.679-5.257,44.54
		c-0.299,2.739,0.396,5.587,0.634,8.385c0.783,0.121,1.566,0.242,2.35,0.363c1.194-3.212,2.916-6.331,3.5-9.651
		c4.781-27.188,10.402-54.286,13.737-81.659c4.946-40.603,7.849-81.449,12.392-122.106c2.043-18.275,5.949-36.342,9.011-54.504
		C2885.225,2073.756,2887.182,2085.017,2885.559,2099.262z M3235.981,1369.514c-0.92-0.471-1.841-0.94-2.762-1.411
		c-3.223,4.035-6.842,7.817-9.594,12.151c-8.239,12.976-14.119,27.051-17.783,41.967c-5.937,24.165-10.799,48.531-12.122,73.46
		c-0.125,2.36,0.505,4.76,0.985,8.865c6.475-6.753,8.549-13.697,11.155-20.223c12.119-30.338,18.138-62.329,25.171-94.043
		C3232.572,1383.334,3234.326,1376.435,3235.981,1369.514z M2576.509,1426.317c0.946-0.338,1.892-0.676,2.838-1.014
		c-3.962-37.706-7.212-75.614-30.93-107.792c-0.745,2.704-0.476,5.171,0.194,7.523c0.899,3.154,2.347,6.16,3.146,9.333
		c6.764,26.869,13.364,53.778,20.206,80.626C2572.958,1418.901,2574.968,1422.55,2576.509,1426.317z M2828.215,2379.403
		c-1.652,12.699-3.305,25.399-4.957,38.099C2829.356,2401.771,2831.748,2385.416,2828.215,2379.403z"/>
	<path style="fill-rule:evenodd;clip-rule:evenodd;fill:none;" d="M2717.627,655.824c-14.95-14.403-18.512-31.57-14.458-50.036
		c10.104-46.026,38.257-77.636,81.178-95.593c21.873-9.151,45.247-10.076,68.686-5.597c11.474,2.193,22.666,5.149,33.097,10.555
		c2.593,1.344,5.177,2.705,8.15,4.259c-4.237,8.258-8.56,15.723-11.997,23.575c-8.047,18.381-11.813,37.47-6.078,57.249
		c3.748,12.929,9.17,25.299,22.578,31.121c4.996,2.17,11.122,3.971,16.285,3.145c26.506-4.24,39.311-16.146,41.446-41.812
		c2.118-25.466-5.258-48.661-20.344-69.341c-1.15-1.578-2.268-3.182-3.906-5.485c16.358-14.62,34.079-25.98,55.721-29.416
		c23.627-3.75,46.07,1.149,67.938,10.551c20.2,8.684,38.284,20.555,52.804,36.675c26.905,29.874,41.244,64.998,37.448,105.847
		c-2.729,29.359-17.667,53.051-39.421,71.711c-16.067,13.782-34.387,24.938-51.691,37.279c-5.773,4.117-11.604,4.608-18.713,2.868
		c-19.525-4.782-39.502-6.347-59.413-2.898c-13.486,2.337-26.418,6.448-36.153,17.355c-11.957,13.398-6.535,32.235,9.871,37.61
		c4.975,1.629,10.432,2.361,15.688,2.458c27.144,0.504,52.85-5.555,76.424-19.053c6.307-3.611,12.16-2.304,18.164-1.655
		c25.658,2.769,38.37,11.437,45.16,38.706c0.959,3.852,1.359,7.857,1.808,11.816c0.485,4.291,0.968,8.607,1.028,12.918
		c0.286,20.275,9.588,35.156,25.877,46.902c12.922,9.317,24.871,19.999,37.1,30.257c18.018,15.113,32.141,33.684,45.443,52.818
		c19.117,27.499,33.459,57.302,43.635,89.356c6.613,20.831,10.094,41.642,9.073,63.417c-0.7,14.93-4.93,28.758-11.301,42.056
		c-4.388,9.158-6.227,18.232-4.396,28.693c2.966,16.954,5.029,34.153,6.061,51.335c0.982,16.384-1.988,32.467-9.374,47.396
		c-6.445,13.027-16.083,21.303-31.613,19.329c-8.465-1.076-15.338,1.755-20.088,8.271c-2.812,3.857-4.027,8.982-5.52,13.679
		c-5.028,15.831-9.531,31.837-14.893,47.552c-3.067,8.992-9.302,16.157-16.918,21.802c-10.029,7.433-17.185,5.955-24.391-4.203
		c-7.99-11.265-13.323-23.79-17.572-36.781c-4.47-13.664-8.874-17.146-23.239-16.55c-3.956,0.164-7.862,1.319-11.822,1.668
		c-5.184,0.455-10.397,0.561-16.697,0.87c-0.18-5.689-0.478-10.225-0.431-14.756c0.081-7.622-3.008-13.414-9.27-17.725
		c-6.099-4.198-13.823-4.804-19.363-0.414c-5.473,4.336-8.738,9.981-6.932,17.491c2.485,10.335,7.821,18.987,15.321,26.029
		c-1.216,7.603-6.308,12.255-11.437,16.275c-6.452,5.056-14.172,3.709-20.895,0.422c-6.591-3.222-12.116-8.234-14.65-15.556
		c-6.322-18.263-11.248-36.772-10.72-56.385c0.211-7.819-5.309-16.054-12.818-17.094c-19.288-2.671-31.765-15.505-44.963-27.708
		c-2.71-2.505-6.68-4.229-10.342-4.981c-5.124-1.054-10.064,2.428-11.247,7.46c-1.058,4.503-1.769,9.187-1.841,13.803
		c-0.312,20.029-9.02,35.71-24.626,47.649c-8.397,6.425-17.541,5.939-25.438-1.264c-9.991-9.111-16.78-20.548-22.137-32.879
		c-1.851-4.262-3.644-8.574-5.885-12.631c-2.301-4.165-6.176-6.077-10.919-5.168c-4.707,0.901-5.746,4.451-6.361,8.821
		c-1.705,12.102-3.076,24.352-6.145,36.137c-4.498,17.275-13.088,32.584-26.859,44.419c-5.522,4.747-11.283,8.881-19.132,9.877
		c-8.276,1.05-13.985-2.42-20.238-8.122c1.963-2.413,3.684-4.669,5.548-6.798c8.79-10.036,12.875-21.531,11.259-34.948
		c-1.54-12.78-8.468-19.06-21.19-18.14c-2.928,0.212-6.276,1.931-8.451,3.991c-9.952,9.43-14.015,21.415-13.816,34.947
		c0.052,3.598,0.411,7.19,0.654,11.196c-7.674,3.956-14.294,1.025-20.234-3.413c-7.109-5.312-11.875-12.653-14.397-21.125
		c-4.836-16.239-9.695-32.492-13.771-48.932c-2.911-11.737-10.16-18.118-21.364-20.898c-5.479-1.359-10.944-2.794-16.465-3.965
		c-10.316-2.187-17.961-8.169-24.076-15.992c2.879-6.415,5.084-12.719,8.402-18.368c4.09-6.963,1.975-13.564,0.01-20.163
		c-1.992-6.691-7.208-10.771-13.925-11.119c-6.55-0.338-12.348,2.404-15.414,8.992c-4.301,9.24-6.469,18.821-4.834,29.039
		c0.256,1.599,0.581,3.185,0.832,4.543c-15.169,12.065-29.044,9.852-39.029-5.743c-1.741-2.719-3.562-5.607-6.007-7.611
		c-6.322-5.181-11.419-4.102-13.56,3.631c-3.894,14.063-11.898,25.921-18.69,38.475c-3.002,5.548-6.432,9.37-13.24,10.409
		c-3.46,0.528-7.283,3.403-9.521,6.312c-6,7.8-9.788,16.941-9.568,26.838c0.265,11.923,0.822,23.986,2.929,35.687
		c2.94,16.33,6.791,32.57,11.49,48.483c3.039,10.292,1.813,18.736-5.9,27.487c-3.103-2.688-6.521-5.117-9.286-8.142
		c-10.206-11.167-16.853-24.604-22.661-38.312c-13.802-32.568-23.188-66.434-28.211-101.491
		c-3.833-26.751-5.451-53.666-4.073-80.603c3.12-60.998,19.17-118.615,47.605-172.665c6.956-13.221,14.988-25.878,22.636-38.729
		c9.29-15.613,23.123-27.405,34.731-41.071c26.308-30.971,57.578-56.258,91.379-78.326c26.434-17.259,53.985-32.749,82.784-45.914
		c4.531-2.071,7.537-1.085,10.847,1.516c12.059,9.476,25.908,14.875,40.825,17.669c43.667,8.18,84.858,2.657,122.076-23.03
		c5.96-4.113,11.17-9.459,16.209-14.73c11.354-11.877,9.491-28.763-4.074-38.39c-10.017-7.108-21.264-11.125-33.546-11.41
		c-8.604-0.2-17.249,0.167-25.836,0.807c-12.905,0.962-25.835,1.947-38.647,3.709c-21.82,3-42.935,8.895-63.218,17.532
		c-16.22,6.906-17.406,6.331-16.605-11.267c1.148-25.234,10.803-47.611,23.201-68.842c8.914,0.959,17.063,2.549,25.219,2.579
		c24.302,0.09,44.315-10.319,61.353-26.925c8.472-8.257,10.466-18.491,5.718-29.198c-4.501-10.15-13.048-15.981-24.132-16.781
		c-20.082-1.448-37.929,5.298-54.172,16.563C2731.709,644.455,2725.132,650.016,2717.627,655.824z"/>
	<path style="fill-rule:evenodd;clip-rule:evenodd;fill:none;" d="M3363.996,1997.986c-0.192-2.634-0.266-5.283-0.602-7.898
		c-0.991-7.715-3.922-13.636-12.071-16.665c-5.774-2.146-10.589-7.141-17.547-4.737c-7.64,2.64-12.545,8.59-17.208,14.668
		c-1.98,2.583-3.197,5.753-5.708,10.411c-0.413-3.645-0.918-5.665-0.825-7.657c0.946-20.317,4.295-40.172,9.731-59.846
		c9.285-33.606,17.787-67.434,26.279-101.253c7.206-28.696,14.335-57.425,20.709-86.313c3.29-14.905,4.907-30.183,7.167-45.309
		c0.336-2.251,0.047-4.596-1.613-7.654c-1.32,2.288-2.869,4.476-3.925,6.879c-13.541,30.849-24.453,62.672-33.309,95.114
		c-10.942,40.091-20.689,80.505-31.191,120.718c-6.05,23.169-11.966,46.403-19.099,69.248c-4.399,14.09-10.976,27.501-17.293,42.976
		c-2.057-8.302-3.522-14.261-5.011-20.214c-3.978-15.901-24.07-21.601-36.534-8.828c-1.767,1.811-3.064,4.079-4.58,6.135
		c-0.827-0.429-1.655-0.858-2.483-1.288c0.501-9.106,0.435-18.288,1.617-27.305c2.766-21.073,5.893-42.107,9.31-63.086
		c5.127-31.479,10.677-62.888,15.95-94.342c2.857-17.046,5.178-34.188,8.35-51.172c3.904-20.905,8.681-41.647,12.614-62.547
		c2.188-11.625,3.43-23.429,5.097-35.151c-0.696-0.248-1.394-0.496-2.091-0.744c-1.437,2.77-3.049,5.464-4.284,8.32
		c-24.353,56.322-42.29,114.689-55.941,174.461c-5.094,22.302-10.541,44.552-16.827,66.539c-3.453,12.078-8.966,23.57-13.632,35.294
		c-0.307,0.772-1.312,1.267-3.515,3.287c0.465-5.71,0.708-9.787,1.145-13.844c1.075-9.999,1.144-19.525-10.166-24.345
		c-0.597-0.255-1.247-0.654-1.599-1.172c-2.34-3.445-5.384-7.077-9.586-5.743c-5.163,1.639-11.223,3.883-14.322,7.866
		c-5.988,7.697-10.172,16.797-14.949,25.049c-0.107-0.823-0.537-2.815-0.584-4.815c-0.054-2.318,0.026-4.677,0.399-6.961
		c2.032-12.452,3.846-24.951,6.33-37.315c13.57-67.54,31.17-134.089,49.252-200.53c6.454-23.715,12.337-47.66,14.177-72.313
		c0.487-6.519,0.074-13.104,0.074-20.727c-4.66,1.668-7.186,3.175-8.403,7.273c-3.581,12.064-7.416,24.063-11.562,35.945
		c-3.498,10.03-11.122,17.13-18.786,23.967c-4.956,4.421-10.248,8.531-15.739,12.267c-6.079,4.135-8.009,9.935-9.168,16.79
		c-1.088,6.436-2.801,12.981-5.533,18.878c-5.655,12.207-6.92,24.654-5.131,37.824c0.797,5.866,0.545,11.947,0.136,17.888
		c-0.749,10.883-1.497,21.809-3.192,32.566c-0.823,5.229-3.784,10.12-7.496,14.638c-0.866-7.014-1.412-14.086-2.702-21.021
		c-0.979-5.264-3.207-10.018-8.077-13.264c-8.86-5.905-18.657-4.276-23.983,4.952c-2.949,5.111-4.76,10.879-8.541,16.532
		c-1.347-12.082-2.981-24.14-3.984-36.249c-2.707-32.712,7.286-63.124,17.52-93.436c3.937-11.66,8.638-23.071,12.326-34.805
		c6.526-20.757,17.601-38.706,32.678-54.161c9.983-10.233,20.195-20.313,31.041-29.602c4.327-3.706,10.458-5.697,16.093-7.381
		c5.997-1.792,12.466-1.943,18.576-3.435c13.203-3.221,26.286-6.932,39.461-10.273c18.365-4.658,36.659-9.698,55.197-13.549
		c12.654-2.629,25.637-4.1,38.545-4.888c5.632-0.344,11.83,1.442,17.116,3.757c35.706,15.64,67.534,37.169,94.401,65.45
		c12.345,12.994,23.455,27.188,34.767,41.129c13.179,16.24,28.199,31.068,38.271,49.724c10.744,19.9,22.037,39.516,32.38,59.62
		c14.365,27.927,30.439,54.615,51.507,78.102c8.23,9.177,13.06,19.813,13.138,32.513c0.071,11.627,1.07,23.246,1.282,34.876
		c0.285,15.634,6.512,29.114,14.933,41.699c3.271,4.887,5.139,9.325,1.668,14.617c-3.508,5.351-9.788,7.608-16.685,5.802
		c-13.281-3.479-23.164-12.012-30.199-23.185c-4.886-7.759-8.617-16.581-11.124-25.422c-3.433-12.11-4.757-24.63-3.602-37.447
		c0.643-7.12-0.93-14.439-1.501-21.644c-4.786,2.499-4.786,2.499-12.487,33.186c-1.768-2.065-3.433-3.519-4.489-5.326
		c-7.2-12.315-14.299-24.58-16.876-39.043c-0.998-5.601-4.631-10.731-8.222-15.836c-5.716,9.496,0.802,19.027-0.771,28.067
		c-19.267-9.045-38.604-18.122-58.813-27.609c1.647-6.342,3.364-13.712,5.57-20.933c0.583-1.907,2.365-3.857,4.12-4.933
		c18.75-11.492,29.854-28.976,38.275-48.542c2.626-6.1,4.869-12.371,7.089-18.635c1.276-3.601,2.156-7.343,2.168-11.586
		c-16.013,17.254-29.646,36.168-45.106,56.136c1.924-23.501,7.531-44.777,6.563-66.742c-4.65-0.103-5.378,3.052-6.211,5.81
		c-5.383,17.823-10.901,35.611-15.896,53.546c-2.484,8.92-3.135,18.395-6.044,27.143c-6.034,18.145-12.909,36.014-19.641,53.919
		c-14.132,37.589-29.03,74.872-40.575,113.422C3384.305,1963.228,3375.389,1981.071,3363.996,1997.986z M3259.535,1556.671
		c3.466,8.02,9.466,9.107,15.382,9.626c9.266,0.813,18.617,0.698,27.862,1.651c9.188,0.947,18.377,2.333,27.404,4.273
		c6.792,1.459,13.271,4.324,20.009,6.11c2.897,0.769,6.099,0.392,11.218,0.632c-3.172-4.393-4.481-8.136-7.009-9.355
		c-8.593-4.146-16.91-9.309-27.212-8.766c-4.875,0.256-10.483,0.282-14.628-1.819c-13.082-6.636-26.77-7.371-40.796-6.01
		C3267.785,1553.4,3263.952,1555.304,3259.535,1556.671z M3375.834,1580.656c10.069,6.397,20.095,12.867,30.229,19.161
		c4.792,2.975,9.492,6.798,14.767,8.135c8.732,2.215,14.286,7.803,19.477,14.287c2.329,2.91,5.014,4.556,8.769,4.29
		C3433.951,1596.274,3411.014,1578.871,3375.834,1580.656z"/>
	<path style="fill-rule:evenodd;clip-rule:evenodd;fill:none;" d="M2735.638,801.442c12.028-3.425,23.952-7.286,36.107-10.175
		c20.409-4.85,41.002-8.92,62.185-6.61c5.813,0.634,11.551,1.946,18.022,3.068c-1.887,6.197-5.708,8.974-9.832,10.615
		c-10.138,4.035-20.304,8.339-30.853,10.928C2788.211,814.925,2758.444,812.179,2735.638,801.442z"/>
	<path style="fill-rule:evenodd;clip-rule:evenodd;fill:none;" d="M2180.472,2912.734c1.219,17.201-12.018,132.185-18.281,152.314
		c-5.879,0.591-12.05,1.212-19.606,1.972C2152.537,3014.479,2166.874,2963.696,2180.472,2912.734z"/>
	<path style="fill-rule:evenodd;clip-rule:evenodd;fill:none;" d="M2916.596,538.519c10.777,17.389,17.455,34.569,13.871,54.354
		c-0.397,2.195-1.376,4.41-2.57,6.312c-3.322,5.288-7.73,9.751-14.465,8.543c-6.434-1.154-10.424-6.052-11.479-12.347
		c-1.08-6.454-2.199-13.245-1.316-19.613C2902.461,562.616,2907.002,550.243,2916.596,538.519z"/>
	<path style="fill-rule:evenodd;clip-rule:evenodd;fill:none;" d="M3162.353,1680.974c-7.723,30.035-15.245,59.292-22.769,88.549
		c-0.576-0.01-1.152-0.02-1.729-0.028c-0.607-7.306-0.373-14.806-2.004-21.876c-3.035-13.159-0.904-25.525,3.404-37.866
		c0.983-2.817,2.114-5.662,2.526-8.587C3143.359,1689.979,3149.586,1683.342,3162.353,1680.974z"/>
	<path style="fill-rule:evenodd;clip-rule:evenodd;fill:none;" d="M3236.583,2044.659c-1.693-3.694-3.702-7.002-4.757-10.59
		c-2.636-8.973-1.44-17.865,2.569-26.129c1.099-2.264,4.356-4.441,6.85-4.733c1.699-0.199,4.538,2.574,5.579,4.66
		C3251.807,2017.852,3246.854,2036.407,3236.583,2044.659z"/>
	<path style="fill-rule:evenodd;clip-rule:evenodd;fill:none;" d="M3154.126,1919.926c4.891,4.576,6.392,8.61,5.565,13.662
		c-3.933,24.04-7.072,31.869-16.239,38.372C3139.069,1952.915,3144.723,1936.686,3154.126,1919.926z"/>
	<path style="fill-rule:evenodd;clip-rule:evenodd;fill:none;" d="M3088.448,1832.927c-10.364-15.208-9.186-34.621,2.086-43.475
		C3097.737,1798.898,3096.823,1823.111,3088.448,1832.927z"/>
	<path style="fill-rule:evenodd;clip-rule:evenodd;fill:none;" d="M3337.692,1984.628c8.383,3.433,7.773,9.962,6.903,15.561
		c-1.536,9.885-3.017,20.219-13.902,26.721C3325.365,2011.12,3330.211,1998.048,3337.692,1984.628z"/>
	<path style="fill-rule:evenodd;clip-rule:evenodd;fill:none;" d="M2791.834,649.643c-9.094,13.517-27.315,21.099-42.232,18.136
		C2759.567,655.213,2775.277,648.27,2791.834,649.643z"/>
	<path style="fill-rule:evenodd;clip-rule:evenodd;fill:none;" d="M2739.879,1324.809c7.111,9.363,4.45,20.426-6.317,27.248
		C2731.788,1342.085,2731.639,1333.008,2739.879,1324.809z"/>
	<path style="fill-rule:evenodd;clip-rule:evenodd;fill:none;" d="M2966.944,779.658c6.981-0.84,13.963-1.679,20.943-2.518
		c-6.43,5.163-13.6,5.275-20.813,5.106C2967.031,781.384,2966.988,780.521,2966.944,779.658z"/>
	<path style="fill-rule:evenodd;clip-rule:evenodd;" d="M2771.915,2714.211c-2.09,12.161-3.233,24.577-6.43,36.44
		c-16.182,60.055-32.612,120.046-49.573,179.885c-6.341,22.373-14.594,44.197-21.53,66.41c-5.22,16.715-9.999,33.579-14.506,50.501
		c-13.273,49.837-20.328,100.907-29.915,151.48c-6.247,32.949-11.168,66.263-21.878,98.195
		c-3.638,10.845-6.638,22.398-17.748,31.575c-0.556-4.85-1.725-8.554-1.251-12.033c2.102-15.417,3.789-30.972,7.24-46.107
		c10.86-47.627,21.818-95.248,33.911-142.572c14.823-58.015,30.629-115.782,46.43-173.542c6.026-22.03,13.533-43.653,19.809-65.621
		c15.432-54.022,30.524-108.144,45.807-162.209C2763.693,2721.614,2765.463,2716.709,2771.915,2714.211z"/>
	<path style="fill-rule:evenodd;clip-rule:evenodd;" d="M2795.112,2612.875c1.233-11.746,1.636-23.651,3.841-35.213
		c10.336-54.188,21.407-108.236,31.757-162.422c10.717-56.107,20.898-112.317,31.33-168.479c2.121-11.42,4.064-22.881,6.574-34.216
		c1.301-5.872,3.661-11.51,6.764-16.957c-11.063,142.129-36.552,281.499-76.736,418.131
		C2797.464,2613.438,2796.289,2613.156,2795.112,2612.875z"/>
	<path style="fill-rule:evenodd;clip-rule:evenodd;" d="M2885.559,2099.262c1.623-14.245-0.334-25.506-6.403-36.294
		c-3.062,18.162-6.968,36.229-9.011,54.504c-4.543,40.657-7.445,81.504-12.392,122.106c-3.335,27.373-8.956,54.471-13.737,81.659
		c-0.584,3.32-2.306,6.439-3.5,9.651c-0.783-0.121-1.566-0.242-2.35-0.363c-0.237-2.798-0.933-5.646-0.634-8.385
		c1.617-14.861,3.489-29.695,5.257-44.54c2.476-20.789,5.059-41.566,7.368-62.374c2.494-22.47,4.717-44.97,7.078-67.454
		c2.115-20.146,3.846-40.342,6.53-60.411c1.84-13.763,3.544-27.807,11.396-39.903c3.065-4.724,8.665-5.172,12.567-1.287
		c1.148,1.144,2.346,2.611,2.7,4.122c3.478,14.796,3.518,29.532-1.418,44.065C2888.645,2095.438,2887.67,2096.31,2885.559,2099.262z
		"/>
	<path style="fill-rule:evenodd;clip-rule:evenodd;" d="M3235.981,1369.514c-1.655,6.921-3.409,13.82-4.949,20.767
		c-7.033,31.714-13.052,63.705-25.171,94.043c-2.606,6.525-4.681,13.47-11.155,20.223c-0.48-4.105-1.11-6.505-0.985-8.865
		c1.323-24.929,6.186-49.295,12.122-73.46c3.664-14.916,9.544-28.991,17.783-41.967c2.752-4.334,6.371-8.116,9.594-12.151
		C3234.14,1368.573,3235.061,1369.043,3235.981,1369.514z"/>
	<path style="fill-rule:evenodd;clip-rule:evenodd;" d="M2576.509,1426.317c-1.541-3.768-3.551-7.416-4.546-11.323
		c-6.842-26.848-13.442-53.757-20.206-80.626c-0.799-3.173-2.246-6.179-3.146-9.333c-0.67-2.353-0.939-4.819-0.194-7.523
		c23.718,32.178,26.968,70.086,30.93,107.792C2578.401,1425.642,2577.456,1425.979,2576.509,1426.317z"/>
	<path style="fill-rule:evenodd;clip-rule:evenodd;" d="M2828.215,2379.403c3.532,6.013,1.141,22.367-4.957,38.099
		C2824.911,2404.803,2826.563,2392.103,2828.215,2379.403z"/>
	<path style="fill-rule:evenodd;clip-rule:evenodd;" d="M3259.535,1556.671c4.417-1.367,8.25-3.271,12.23-3.657
		c14.026-1.361,27.714-0.626,40.796,6.01c4.145,2.102,9.753,2.075,14.628,1.819c10.302-0.543,18.619,4.619,27.212,8.766
		c2.527,1.22,3.837,4.963,7.009,9.355c-5.119-0.24-8.32,0.137-11.218-0.632c-6.738-1.786-13.217-4.651-20.009-6.11
		c-9.027-1.94-18.216-3.326-27.404-4.273c-9.245-0.953-18.597-0.839-27.862-1.651C3269,1565.778,3263,1564.69,3259.535,1556.671z"/>
	<path style="fill-rule:evenodd;clip-rule:evenodd;" d="M3375.834,1580.656c35.18-1.785,58.116,15.618,73.24,45.873
		c-3.755,0.266-6.439-1.38-8.769-4.29c-5.19-6.484-10.744-12.072-19.477-14.287c-5.274-1.337-9.975-5.16-14.767-8.135
		C3395.929,1593.523,3385.904,1587.054,3375.834,1580.656z"/>
</g>
</svg>
