<?xml version="1.0" encoding="UTF-8"?>
<svg xmlns="http://www.w3.org/2000/svg" version="1.1" viewBox="0 0 2000 1500">
  <!-- Generator: Adobe Illustrator 28.7.10, SVG Export Plug-In . SVG Version: 1.2.0 Build 236)  -->
  <g>
    <g id="Layer_1">
      <g>
        <path d="M1258.339,981.157c-1.071,35.98-2.608,71.941-4.803,107.864-2.438,39.887-4.256,79.816-10.738,119.379-5.845,35.677-22.033,65.654-47.193,91.156-8.648,8.765-19.112,14.704-30.902,17.609-26.506,6.531-53.312,7.478-80.287,2.771-24.495-4.274-38.221-18.869-42.968-43.041-5.395-27.471-9.449-55.12-12.958-82.88-3.025-23.934-4.086-48.151-9.938-71.689-1.818-7.311-4.608-14.274-8.719-20.615-4.527-6.984-8.261-8.409-16.034-5.409-18.002,6.947-31.95,18.99-42.341,35.121-7.796,12.103-13.385,25.296-18.029,38.877-11.054,32.328-25.744,63.191-38.12,94.986-4.166,10.703-8.426,21.37-12.469,32.12-10.017,26.633-29.103,42.208-56.974,47.479-22.106,4.181-44.393,5.849-66.618,2.512-31.003-4.654-51.745-23.621-65.907-50.578-9.539-18.156-11.948-38.022-12.663-58.095-1.301-36.535,1.387-72.941,4.238-109.331,2.524-32.219,4.892-64.451,7.535-96.661.371-4.519-1.774-4.063-4.931-4.165-46.708-1.515-93.226-4.268-136.766-23.899-33.584-15.142-63.565-35.302-86.133-64.869-20.743-27.177-35.866-57.26-42.335-91.133-5.772-30.222-1.713-59.634,10.66-87.464,13.624-30.644,31.716-58.643,56.312-81.819,20.831-19.628,44.035-36.132,69.597-49.104,16.668-8.459,34.252-12.896,53.121-9.846,15.036,2.43,21.857,10.581,22.88,25.643,1.181,17.378-5.448,31.449-16.748,43.94-9.991,11.045-21.709,20.189-32.794,30.027-19.156,17.002-36.375,35.736-50.615,57.059-12.942,19.378-14.15,39.84-5.506,61.393,15.915,39.681,47.364,60.238,86.545,71.924,25.95,7.74,50.726,2.749,75.38-5.509,1.258-.421,2.468-1.054,3.755-1.307,2.168-.426,4.007.321,5.067,2.32,1.184,2.232.57,4.284-1.279,5.817-1.13.937-2.493,1.708-3.876,2.206-18.28,6.579-36.967,11.824-56.55,10.739-31.259-1.732-58.615-13.855-83.182-32.965-19.706-15.329-32.266-35.527-39.172-58.978-7.327-24.881-1.201-47.54,14.201-68.236,18.331-24.633,39.774-46.138,63.292-65.733,9.491-7.908,18.412-16.418,24.987-27.066,5.82-9.424,7.013-19.619,5.048-30.303-1.031-5.607-4.884-8.455-10.181-9.697-13.485-3.161-26.546-1.108-39.188,3.753-21.216,8.158-39.515,21.26-57.506,34.801-35.169,26.469-59.888,61.069-76.08,101.497-14.246,35.569-12.949,71.428,1.94,107.016,13.393,32.013,31.247,60.548,58.37,82.81,32.046,26.303,68.893,41.884,109.259,49.884,13.274,2.631,26.625,4.343,40.187,3.979,8.217-.221,16.226,1.617,24.341,2.391,3.141.3,6.32.497,9.467.377,5.843-.223,9.242-3.624,9.722-9.458,1.805-21.927,2.619-43.905,3.391-65.885.041-1.166.057-2.332.108-3.498.134-3.094.978-5.857,4.682-5.834,3.946.025,4.781,2.871,4.822,6.21.229,18.509-.688,36.988-1.546,55.463-1.514,32.621-4.049,65.177-6.601,97.73-2.291,29.228-4.977,58.428-6.396,87.716-1.323,27.301-2.823,54.659,1.552,81.815,4.67,28.991,18.575,52.107,44.652,66.958,10.712,6.1,22.492,8.114,34.565,8.663,19.233.875,38.29-.546,57.012-5.277,18.98-4.797,32.906-15.854,40.44-34.062,8.591-20.762,16.281-41.902,25.111-62.558,10.671-24.962,20.793-50.119,29.991-75.655,3.844-10.673,8.583-20.953,14.281-30.77,11.229-19.349,27.038-33.729,47.574-42.562,15.37-6.611,25.091-2.944,33.352,11.703,8.114,14.384,11.009,30.244,12.937,46.344,5.086,42.479,9.062,85.116,17.922,127.057,5.526,26.157,14.76,34.637,41.496,38.22,20.651,2.768,41.233,1.755,61.676-1.964,16.197-2.946,28.873-11.456,39.988-23.669,24.272-26.669,35.372-58.483,39.831-93.51,5.795-45.513,7.423-91.304,9.995-137.035,2.442-43.429,3.354-86.918,4.723-130.389.831-26.381-1.718-52.616-3.298-78.881-2.373-39.433-3.767-78.891-4.469-118.381-.023-1.321-.023-2.717.363-3.955.737-2.365,2.182-4.234,4.973-4.111,2.691.118,4.451,1.783,4.738,4.329.522,4.626.791,9.292.933,13.949.636,20.818.861,41.655,1.85,62.456,1.488,31.285,3.755,62.534,5.198,93.821,1.353,29.327-.715,58.643-1.252,87.962Z"/>
        <path d="M896.431,1027.284c-40.934,1.148-77.004-12.384-110.467-34.544-45.813-30.338-69.699-74.219-76.161-127.437-6.345-52.255-1.363-104.124,12.046-155.084.917-3.486,1.37-8.807,6.794-7.12,5.08,1.58,2.434,6.13,1.579,9.452-7.678,29.829-11.288,60.21-12.612,90.917-1.014,23.508-1.38,46.981,2.912,70.269,6.678,36.233,21.343,68.885,48.844,93.637,36.04,32.436,78.188,51.199,127.959,50.478,32.884-.476,63.839-8.541,94.325-19.904,23.428-8.733,45.567-19.598,64.934-35.62,3.34-2.763,7.246-4.298,11.443-4.524,27.37-1.475,45.207-16.77,57.562-39.77,9.301-17.316,15.086-35.822,13.561-55.612-2.403-31.186-26.427-56.023-58.878-61.962-4.903-.897-9.926-1.126-14.883-1.75-6.483-.817-8.764-4.341-6.28-10.467,3.028-7.469,5.186-15.103,6.164-23.099.699-5.712.364-11.323-1.336-16.813-5.497-17.749-25.054-23.072-38.554-10.39-9.141,8.588-15.823,18.859-19.768,30.817-1.356,4.11-2.796,8.222-3.723,12.437-2.06,9.365-8.197,14.566-16.531,18.579-27.247,13.118-54.079,9.389-80.899-1.084-1.697-.663-3.495-1.383-4.856-2.536-5.331-4.519-11.469-6.465-18.368-6.619-3.227-.072-5.605-1.726-5.314-5.251.278-3.356,2.899-4.141,5.844-4.043,7.391.246,13.887,2.21,20.662,5.953,20.533,11.341,42.63,16.515,65.855,9.463,20.968-6.366,20.903-6.765,27.396-27.594,4.36-13.987,11.728-26.115,22.244-36.245,9.72-9.364,21.131-13.447,34.309-8.604,13.73,5.046,20.724,15.693,22.448,29.871,1.331,10.945-.452,21.641-4.136,31.952-1.267,3.545-.609,4.494,3.079,4.835,18.801,1.737,35.835,8.333,49.723,21.152,17.368,16.031,26.95,36.006,25.378,60.071-1.996,30.557-12.993,57.307-35.69,78.549-10.721,10.034-23.675,15.431-38.174,16.89-6.356.639-11.577,2.764-16.697,6.763-20.828,16.266-44.532,27.027-69.305,35.948-30.026,10.813-60.539,18.416-92.429,18.04Z"/>
        <path d="M1500.197,733.245c-.874-18.41-3.288-35.816-9.407-52.592-2.682-7.354-6.996-13.126-13.892-16.977-2.158-1.205-4.221-2.712-6.004-4.419-1.876-1.796-2.084-4.196-.608-6.398,1.49-2.222,3.923-3.026,6.155-1.775,7.83,4.388,15.799,8.634,20.348,17.058,7.426,13.752,10.195,28.798,12.441,43.98,3.562,24.08,1.258,47.477-8.436,69.995-5.681,13.197-14.399,23.917-25.982,32.308-22.971,16.64-52.232,12.246-70.153-10.504-8.973-11.391-14.003-24.5-16.404-38.677-3.307-19.531-3.827-39.123-.508-58.696,3.293-19.419,13.337-35.302,26.519-49.477,4.197-4.513,8.251-9.159,12.377-13.738,5.434-6.031,7.79-13.064,6.953-21.16-1.269-12.28-3.13-24.468-7.059-36.201-4.066-12.141-13.221-13.798-21.554-3.97-6.444,7.601-8.895,17.019-11.243,26.414-1.654,6.618-2.865,13.346-5.124,19.812-2.359,6.751-5.906,12.746-11.593,17.155-17.553,13.608-36.848,24.193-58.317,29.849-18.163,4.785-35.288-.015-51.286-9.23-2.158-1.243-4.297-2.533-6.525-3.641-2.579-1.283-4.005-3.199-3.032-6.019.943-2.734,3.285-3.568,6.047-3.271,1.894.204,3.401,1.278,4.953,2.253,19.91,12.504,40.358,15.122,62.119,4.477,11.839-5.791,23.544-11.668,34.515-19.014,7.299-4.887,11.998-11.36,14.135-19.825,2.24-8.873,4.29-17.808,6.937-26.56,2.677-8.85,6.738-17.086,14.009-23.217,13.123-11.064,29.06-7.302,35.139,8.679,5.604,14.732,8.006,30.242,8.75,45.933.496,10.449-4.481,18.914-11.225,26.453-4.222,4.719-8.455,9.43-12.761,14.073-13.204,14.236-21.775,30.69-23.275,50.247-1.679,21.878-1.623,43.7,6.708,64.522,5.79,14.47,14.834,26.052,30.454,30.942,10.227,3.202,20.068,2.24,29.357-3.269,11.03-6.541,19.612-15.444,25.28-26.957,7.634-15.507,11.045-32.022,11.191-48.561Z"/>
        <path d="M1474.728,1235.624c24.237-.029,44.888,3.819,65.641,6.917,23.71,3.539,47.482,6.664,71.235,9.911,16.515,2.257,32.62,6.754,49.06,9.218,13.34,1.999,26.907,1.984,40.171-1.641,1.12-.306,2.263-.596,3.414-.702,2.903-.268,5.455.419,6.252,3.609.786,3.146-1.074,5.157-3.701,6.291-4.459,1.925-9.202,2.879-14.024,3.392-16.206,1.724-32.18.86-48.113-2.999-27.242-6.598-55.156-9.167-82.853-13.029-17.805-2.482-35.553-5.376-53.335-8.026-29.417-4.383-58.487-1.619-87.361,4.485-36.648,7.747-73.311,15.405-110.368,20.993-14.844,2.238-29.785,3.313-44.788,3.669-6.161.146-12.315.547-18.473.8-3.211.131-6.347-.359-6.786-4.229-.489-4.31,2.894-5.307,6.155-5.583,5.973-.506,11.974-.804,17.968-.926,27.944-.569,55.289-5.696,82.605-10.913,30.411-5.808,60.742-12.039,91.159-17.814,12.946-2.458,26.114-3.176,36.142-3.423Z"/>
        <path d="M922.649,212.6c-.103,9.11-.553,16.584-1.714,24.005-.474,3.028-1.589,5.829-5.153,5.574-3.951-.283-4.439-3.444-4.223-6.675.422-6.312.99-12.616,1.338-18.932.742-13.488-1.591-26.59-5.709-39.343-4.481-13.878-12.138-18.452-26.637-16.349-16.812,2.439-31.111,10.628-44.602,20.29-27.291,19.547-47.6,45.41-65.397,73.442-7.776,12.248-14.942,24.833-20.068,38.482-2.055,5.472-3.947,10.958-4.651,16.803-.375,3.11-1.124,6.444-5.259,5.713-4.001-.707-3.577-4.041-3.283-7.171.822-8.761,3.751-16.933,7.332-24.812,19.902-43.785,47.394-81.726,86.312-110.679,8.842-6.578,18.435-11.97,28.652-16.187,5.097-2.104,10.341-3.713,15.758-4.758,22.839-4.405,35.863,3.433,42.104,25.739,3.328,11.893,5.677,23.993,5.199,34.856Z"/>
        <path d="M658.151,1300.005c-15.866-3.335-30.379,3.206-45.305,6.527-26.327,5.858-52.897,5.643-79.562,3.685-34.894-2.562-69.447-8.004-104.147-12.212-13.847-1.679-27.795-3.369-41.84-1.726-3.371.394-6.72-.178-6.903-4.483-.18-4.248,3.138-5.012,6.478-5.273,18.369-1.439,36.609.315,54.809,2.462,38.679,4.563,77.184,10.739,116.24,11.637,22.138.509,43.799-1.924,65.202-7.801,10.175-2.794,20.512-6.005,31.407-4.473,2.512.353,4.907,1.03,6.969,2.525,2.142,1.552,2.808,3.741,1.88,6.187-.871,2.296-2.854,3.109-5.228,2.947Z"/>
        <path d="M1272.357,509.048c-.322,4.402-.519,10.24-1.221,16.017-1.251,10.298-.732,20.318,3.982,29.748,11.157,22.318,2.458,43.193-13.732,56.131-7.803,6.236-15.472,12.641-23.29,18.859-2.84,2.259-6.367,5.33-9.427,1.187-3.027-4.098,1.036-6.581,3.805-8.878,8.071-6.698,16.163-13.373,24.329-19.954,10.88-8.769,18.571-25.277,10.098-42.091-5.459-10.832-7.037-22.403-5.341-34.504,2.622-18.708.159-37.154-2.947-55.626-6.513-38.736-12.973-77.488-17.026-116.588-.222-2.145-.821-4.248-1.113-6.388-.359-2.639-.186-5.265,3.048-5.889,3.055-.59,4.51,1.386,5.275,4.083,1.781,6.278,2.377,12.748,3.174,19.185,4.887,39.494,12.245,78.605,18.279,117.921,1.291,8.411,1.958,16.865,2.109,26.788Z"/>
        <path d="M1387.964,485.372c.181,5.731-.741,11.273-2.815,16.627-7.193,18.575-25.906,25.361-42.801,14.752-15.807-9.926-24.573-24.946-27.737-43.204-1.845-10.645-1.125-21.236,1.655-31.68,1.71-6.426,4.89-12.02,9.714-16.595,4.01-3.804,8.749-6.031,14.413-5.829,2.703.096,4.449,1.475,4.741,4.184.267,2.476-1.026,4.435-3.399,4.841-11.045,1.887-14.657,10.098-16.441,19.504-3.958,20.872.956,39.281,16.067,54.615,2.118,2.15,4.482,3.981,7.141,5.413,11.174,6.019,21.678,2.219,26.447-9.534,4.742-11.687,1.718-22.908-2.056-34.064-3.529-10.434-10.258-18.969-16.636-27.705-.687-.941-1.462-1.833-2.04-2.837-1.567-2.724-1.91-5.569.877-7.589,2.69-1.951,5.525-1.251,7.546,1.26,11.038,13.72,20.792,28.127,24.04,45.944.719,3.943,1.274,7.888,1.284,11.897Z"/>
        <path d="M686.181,533.915c-.084-5.244.261-9.579,3.178-12.793,3.631-4.001,4.559-8.694,5.097-13.723,2.603-24.347,5.9-48.582,11.928-72.367,6.94-27.381,17.914-53.29,28.884-79.201,1.109-2.62,2.74-5.062,5.971-3.743,3.759,1.534,2.976,4.727,1.79,7.661-7.173,17.747-14.274,35.519-20.349,53.684-10.091,30.175-15.119,61.352-18.49,92.863-.78,7.297-1.467,14.518-6.905,20.385-2.538,2.738-1.65,6.626-1.16,10.108,1.193,8.478,4.863,16.247,7.004,24.45,1.26,4.827,2.415,9.693,3.31,14.598.487,2.668-.444,5.112-3.479,5.747-2.958.619-5.072-.969-5.551-3.734-2.284-13.178-8.215-25.339-10.564-38.481-.38-2.125-.527-4.292-.665-5.454Z"/>
        <path d="M1399.333,440.239c4.063-11.978,7.354-23.304,10.328-34.728,1.664-6.392,3.981-8.888,7.238-7.511,5.057,2.138,3.2,6.332,2.246,9.908-2.917,10.932-5.924,21.843-9.136,32.691-1.075,3.633-1.063,5.127,3.564,4.944,14.573-.577,28.316,3.497,41.79,8.541,3.121,1.168,5.95,3.139,4.66,7.059-1.381,4.198-4.932,4.048-8.3,2.886-10.887-3.755-21.884-7.009-33.419-7.992-2.417-.206-5.748-1.415-7.018.679-1.135,1.872,1.903,3.808,3.101,5.694,3.211,5.06,6.729,9.929,9.831,15.053,1.854,3.063,3.347,6.806-.706,9.207-3.768,2.233-6.241-.654-8.171-3.522-13.576-20.166-27.276-40.253-39.62-61.218-1.773-3.011-3.765-5.893-5.636-8.847-1.675-2.644-2.364-5.424.549-7.533,3.226-2.335,5.757-.488,7.537,2.24,6.368,9.761,12.601,19.61,18.901,29.415.531.826,1.173,1.58,2.261,3.032Z"/>
        <path d="M1000.77,258.406c21.301.627,49.31.424,77.117,4.073,6.926.909,13.815,2.132,20.685,3.409,3.13.582,6.803,1.443,6.126,5.722-.737,4.661-4.74,4.127-7.977,3.531-44.514-8.198-89.543-7.167-134.478-7.375-20.968-.097-41.97.418-62.674,4.523-2.849.565-5.651.298-6.425-3.016-.874-3.742,1.973-4.94,4.898-5.565,18.162-3.882,36.64-4.705,55.108-5.226,13.645-.385,27.309-.076,47.621-.076Z"/>
        <path d="M1195.5,205.318c15.07-.411,26.298,6.046,33.91,18.919,9.692,16.392,15.758,34.076,18.605,52.879.491,3.24.745,6.85-3.482,7.549-4.172.689-5.311-2.762-5.846-5.99-2.551-15.389-7.106-30.13-14.388-43.934-9.448-17.909-19.385-22.58-39.228-18.713-22.945,4.472-43.505,14.331-62.423,27.847-2.437,1.741-4.797,3.59-7.251,5.307-2.469,1.727-5.278,3.019-7.493.03-2.264-3.056-.022-5.193,2.339-7.063,14.697-11.642,30.518-21.375,48.004-28.269,11.985-4.725,24.285-8.118,37.253-8.563Z"/>
        <path d="M1059.251,323.426c-2.894,3.926-5.219,7.358-8.188,10.309-6.547,6.508-13.917,10.653-23.331,7.307-10.296-3.659-17.029-10.786-19.084-21.806-.335-1.796-.538-3.635-.594-5.461-.094-3.083.681-5.87,4.342-6.121,3.269-.224,4.665,2.055,5.191,4.966.325,1.798.605,3.605.907,5.407.729,4.349,3.136,7.641,6.531,10.291,6.415,5.008,11.319,4.791,17.351-.724,3.615-3.305,6.194-7.338,8.56-11.592,4.329-7.783,10.092-8.149,15.536-.995,3.322,4.366,6.051,9.215,9.617,13.355,5.813,6.749,9.976,5.847,13.523-2.365,3.081-7.134,2.161-14.33.589-21.578-.421-1.941-.818-3.922-.888-5.896-.083-2.349.951-4.261,3.376-4.951,2.554-.726,4.537.2,5.993,2.412,7.248,11.006,4.339,34.748-5.356,43.586-5.231,4.769-11.73,5.53-17.997,2.056-5.412-3-9.058-7.755-12.468-12.726-1.121-1.634-2.183-3.307-3.609-5.475Z"/>
        <path d="M1067.399,471.073c4.679.052,8.19.103,11.575,1.132,4.037,1.227,7.458,3.213,7.8,7.981.357,4.979-2.206,8.494-6.668,10.008-3.259,1.105-3.489,2.771-3.642,5.799-.399,7.885,2.073,13.38,9.41,17.323,5.946,3.195,11.067,7.947,16.475,12.11,1.881,1.448,3.41,3.281,2.924,5.955-.709,3.901-4.784,4.644-8.638,1.694-6.742-5.159-13.608-10.159-20.271-15.417-2.667-2.105-4.441-1.947-6.582.71-3.968,4.925-8.231,9.612-12.334,14.43-2.07,2.43-4.423,4.76-7.526,2.121-2.829-2.405-1.235-5.139.694-7.453,4.692-5.627,9.229-11.403,14.219-16.754,2.275-2.439,3.293-4.709,2.662-7.936-.413-2.114-.681-4.311-.596-6.455.15-3.805-1.132-6.22-5.026-7.349-1.644-.477-3.138-1.897-4.394-3.187-2.165-2.224-5.17-4.469-3.745-8.067,1.413-3.568,4.352-5.853,8.36-6.285,2.149-.232,4.316-.295,5.303-.359Z"/>
        <path d="M1341.658,846.99c-23.271-.265-45.52-4.873-66.232-15.875-3.205-1.702-7.543-3.375-5.153-8.011,2.511-4.871,6.59-2.32,9.929-.53,6.931,3.715,14.259,6.307,21.786,8.491,28.335,8.222,56.556,6.207,84.746-.738,1.287-.317,2.55-.781,3.854-.973,3.311-.489,6.67-.486,7.542,3.637.773,3.653-1.788,5.393-4.819,6.514-6.74,2.494-13.751,3.886-20.831,4.898-10.212,1.46-20.457,2.646-30.823,2.586Z"/>
        <path d="M857.594,658.486c-20.423-3.342-42.183-6.358-63.262-12.864-14.495-4.474-28.708-9.623-42.234-16.542-1.465-.749-2.932-1.59-4.178-2.647-1.219-1.034-1.558-2.575-.943-4.114.68-1.702,2.051-2.786,3.864-2.6,1.611.165,3.272.651,4.733,1.362,27.99,13.615,57.832,20.771,88.384,25.492,5.421.838,10.825,1.8,16.213,2.824,2.943.56,5.765,1.745,5.26,5.408-.513,3.719-3.611,3.811-7.839,3.683Z"/>
        <path d="M941.725,496.159c21.404,1.708,42.809,3.412,64.213,5.134,1.158.093,2.339.205,3.451.518,2.424.684,4.391,1.995,4.055,4.863-.326,2.79-2.346,3.993-4.955,3.883-5.817-.245-11.635-.558-17.436-1.042-20.074-1.674-40.14-3.437-60.211-5.155-3.078-.264-5.916-1.118-5.61-4.857.285-3.482,3.174-3.852,6.005-3.745,3.494.133,6.986.344,10.478.521.003-.04.007-.08.01-.12Z"/>
        <path d="M1510.691,407.54c.211,3.111-.759,4.965-3.08,5.768-2.333.807-4.348-.106-5.647-2.072-1.087-1.647-1.906-3.497-2.664-5.332-6.791-16.432-13.545-32.879-20.302-49.324-.505-1.229-1.115-2.446-1.39-3.73-.546-2.55-.619-5.152,2.31-6.37,3.011-1.252,5.346.049,6.535,2.824,7.982,18.633,15.866,37.309,23.747,55.986.379.897.425,1.935.49,2.251Z"/>
        <path d="M902.082,1314.628c-.255,0-1.089.02-1.921-.004-2.669-.077-4.547-1.294-4.873-4.032-.354-2.976,1.231-4.832,4.133-5.225,19.115-2.586,37.994-6.952,57.362-7.617.664-.023,1.338-.007,1.995.084,2.791.384,5.465,1.204,5.665,4.539.211,3.513-2.149,5.056-5.314,5.382-8.773.905-17.553,1.735-26.333,2.562-10.114.952-19.943,3.894-30.713,4.311Z"/>
        <path d="M297.093,1306.721c-4.361.203-7.301-.095-7.727-3.834-.44-3.859,2.182-4.898,5.49-5.614,13.787-2.986,27.518-6.226,41.287-9.297,2.251-.502,4.588-.854,6.884-.85,2.334.004,4.159,1.196,4.598,3.736.423,2.445-.66,4.241-2.777,5.33-1.166.599-2.473.991-3.761,1.275-12.968,2.861-25.941,5.7-38.924,8.492-2.102.452-4.26.644-5.069.762Z"/>
        <path d="M1195.498,482.085c2.877.275,5.287,1.033,5.826,4.028.55,3.051-1.59,4.698-4.21,5.255-15.947,3.392-31.912,6.701-47.895,9.917-2.49.501-4.75-.4-5.429-3.181-.619-2.538.736-4.408,3.073-4.952,16.192-3.77,32.418-7.396,48.634-11.068Z"/>
        <path d="M1469.555,404.534c.097,4.2-3.486,6.354-6.97,4.607-1.679-.842-2.794-2.317-3.855-3.815-7.096-10.018-14.192-20.037-21.288-30.056-1.482-2.092-2.736-4.276-1.433-6.897,1.469-2.955,5.676-3.481,7.932-.471,8.355,11.144,16.427,22.499,24.545,33.819.646.901.822,2.138,1.069,2.813Z"/>
        <path d="M948.468,546.725c-2.931.078-4.89-.751-5.327-3.318-.535-3.138,1.509-4.616,4.195-5.136,10.272-1.987,20.558-3.898,30.854-5.757,4.244-.766,8.512-1.444,12.795-1.94,2.707-.314,5.13.518,5.577,3.637.403,2.812-1.429,4.489-3.919,4.93-14.876,2.637-29.778,5.128-44.175,7.584Z"/>
        <path d="M1147.872,522.421c9.383,1.333,18.773,2.624,28.146,4.027,2.799.419,5.404,1.526,4.972,5.015-.438,3.538-3.407,3.963-6.097,3.611-9.398-1.229-18.764-2.711-28.138-4.122-2.776-.418-4.882-1.752-4.502-4.869.388-3.186,2.859-3.737,5.619-3.661Z"/>
        <path d="M973.62,464.022c.011-4.026,2.874-6.635,7.17-6.533,4.387.104,7.272,3.274,7.146,7.852-.11,4.016-2.764,6.831-6.435,6.829-4.089-.002-7.892-3.934-7.881-8.148Z"/>
        <path d="M1148.523,454.468c3.794-.095,5.679,2.52,5.87,8.142.125,3.709-2.744,6.846-6.302,6.889-3.542.043-6.4-3.243-6.439-7.404-.039-4.177,2.983-7.53,6.872-7.627Z"/>
        <path d="M1479.085,441.805c.528-3.065.981-6.196,2.471-9.014,1.038-1.963,2.783-2.778,4.991-2.386,2.337.415,3.333,2.076,3.46,4.235.199,3.366-.616,6.586-2.033,9.606-1.119,2.385-3.098,3.396-5.727,2.648-2.534-.721-3.034-2.781-3.161-5.089Z"/>
        <path d="M1523.367,430.641c-.276,4.13-3.373,7.391-6.521,7.027-3.051-.353-4.205-2.355-4.013-5.189.265-3.93,3.423-7.267,6.435-6.827,2.977.435,4.05,2.484,4.099,4.99Z"/>
      </g>
    </g>
  </g>
</svg>