<?xml version="1.0" encoding="UTF-8"?>
<svg id="Capa_1" xmlns="http://www.w3.org/2000/svg" version="1.1" viewBox="0 0 2200 1500">
  <!-- Generator: Adobe Illustrator 29.8.2, SVG Export Plug-In . SVG Version: 2.1.1 Build 3)  -->
  <path d="M1124.56,792.52c-32.54,0-64.56-6.44-93.61-19.5-26.83-12.07-51.81-30.24-72.23-52.54-20.39-22.27-36.32-48.74-46.07-76.55-9.73-27.76-13.84-58.37-11.89-88.53,1.95-30.11,9.94-59.95,23.13-86.31,34.47-68.91,105.85-117.05,181.84-122.65,37.54-2.76,75.95,4.92,111.08,22.23,35.28,17.38,64.67,43.2,84.97,74.68,41.78,64.79,43.66,152.38,4.66,217.96-19.25,32.37-48.06,58.84-83.3,76.53-35.38,17.76-73.78,24.92-111.04,20.7-28.26-3.21-49.98-12.48-64.55-27.58-.96-.99-.93-2.58.06-3.53.99-.96,2.58-.93,3.53.06,13.74,14.24,34.44,23.01,61.52,26.08,73.42,8.32,151.33-30.66,189.48-94.81,38.05-63.99,36.22-149.46-4.56-212.69-40.04-62.08-117-100.1-191.47-94.63-74.27,5.46-144.04,52.53-177.74,119.9-26.11,52.19-30.22,116.1-10.99,170.95,19.33,55.14,62.56,102.32,115.64,126.19,68.04,30.6,152.82,24.02,221.26-17.18,47.88-28.82,77.36-69.57,80.87-111.78.11-1.38,1.33-2.4,2.7-2.28,1.38.11,2.4,1.32,2.28,2.7-1.94,23.25-11.17,45.77-27.46,66.93-14.18,18.43-33.48,35.28-55.82,48.72-40.64,24.47-86.96,36.96-132.29,36.96Z"/>
  <g>
    <g id="_x3C_Repetición_radial_x3E_">
      <path d="M1073.75,972.26c-.58,0-1.16-.03-1.73-.09-5.61-.58-10.99-3.96-14.78-9.28-3.67-5.16-5.32-11.35-6.25-15.55-5.67-25.78.31-52.7,6.15-73.28,2.63-9.27,5.94-19.93,12.01-29.2,1.66-2.54,4.01-5.74,7.41-7.97,3.65-2.39,7.99-3.12,11.6-1.95,5.27,1.7,8.8,6.85,10.51,15.31,3.09,15.28,2.37,32.28-2.12,50.54-4.09,16.61-10.82,32.48-17.49,47.15-.57,1.26-2.06,1.81-3.31,1.24-1.26-.57-1.81-2.05-1.24-3.31,6.56-14.45,13.19-30.06,17.19-46.28,4.32-17.54,5.02-33.81,2.08-48.36-1.33-6.55-3.73-10.44-7.15-11.54-2.19-.71-4.92-.19-7.32,1.38-2.05,1.34-3.89,3.35-5.96,6.53-5.68,8.68-8.85,18.91-11.38,27.83-5.68,20.01-11.5,46.15-6.08,70.84,1.34,6.08,3.01,10.31,5.44,13.72,2.91,4.09,7.1,6.79,11.22,7.21,3.94.41,8.39-1.17,12.18-4.34,3.67-3.06,6.47-7.23,8.95-11.27,22.7-37.05,31.49-84.55,24.76-133.74-.19-1.37.77-2.63,2.14-2.82,1.38-.19,2.63.77,2.82,2.14,6.89,50.33-2.15,99-25.45,137.03-2.7,4.41-5.78,8.97-10.01,12.5-4.3,3.59-9.37,5.56-14.16,5.56Z"/>
    </g>
    <g id="_x3C_Repetición_radial_x3E_1" data-name="_x3C_Repetición_radial_x3E_">
      <path d="M874.85,886.34c-5.01,0-9.65-1.47-13.06-4.19-4.4-3.52-7.11-9.27-7.41-15.8-.3-6.33,1.66-12.42,3.15-16.46,9.17-24.75,28.76-44.17,44.79-58.32,7.22-6.38,15.78-13.55,25.89-18.07,2.77-1.24,6.48-2.67,10.54-2.7h.13c4.31,0,8.29,1.72,10.68,4.63,3.51,4.28,3.7,10.52.57,18.56-5.66,14.53-15.46,28.45-29.11,41.37-12.43,11.77-26.67,21.47-40.2,30.21-1.16.75-2.71.42-3.46-.75-.75-1.16-.42-2.71.74-3.46,13.33-8.61,27.35-18.16,39.48-29.64,13.12-12.42,22.5-25.73,27.89-39.56,2.43-6.23,2.51-10.8.23-13.58-1.46-1.78-4.02-2.78-6.9-2.8-2.45.02-5.08.72-8.54,2.26-9.47,4.23-17.67,11.13-24.62,17.26-15.6,13.77-34.63,32.61-43.41,56.31-2.16,5.84-3.04,10.31-2.85,14.48.24,5.01,2.31,9.55,5.54,12.13,3.1,2.48,7.69,3.54,12.59,2.94,4.74-.59,9.35-2.58,13.62-4.65,39.13-18.9,72.21-54.1,93.14-99.12.58-1.25,2.07-1.8,3.32-1.21,1.25.58,1.79,2.07,1.21,3.32-21.42,46.07-55.33,82.12-95.5,101.52-4.66,2.25-9.72,4.42-15.18,5.1-1.1.14-2.19.21-3.27.21Z"/>
    </g>
    <g id="_x3C_Repetición_radial_x3E_2" data-name="_x3C_Repetición_radial_x3E_">
      <path d="M781.77,710.13c-7.09,0-14.12-.42-21.06-1.26-5.13-.62-10.56-1.53-15.53-3.91-5.66-2.71-9.88-7.15-11.58-12.18-1.81-5.34-.96-11.64,2.31-17.3,3.17-5.48,8.11-9.56,11.55-12.14,21.1-15.86,48.07-21.61,69.21-24.85,9.52-1.46,20.6-2.87,31.55-1.21,3,.46,6.89,1.26,10.33,3.43,3.69,2.33,6.15,5.97,6.59,9.74.64,5.5-2.58,10.85-9.56,15.92-12.61,9.16-28.38,15.57-46.86,19.06-16.81,3.18-34.04,3.65-50.15,3.68h0c-1.38,0-2.5-1.12-2.5-2.5,0-1.38,1.11-2.5,2.5-2.5,15.87-.03,32.82-.49,49.24-3.59,17.75-3.35,32.84-9.48,44.85-18.2,5.41-3.93,7.95-7.73,7.53-11.3-.27-2.28-1.87-4.56-4.29-6.09-2.07-1.31-4.67-2.14-8.41-2.71-10.25-1.56-20.88-.19-30.04,1.21-20.56,3.15-46.76,8.71-66.96,23.9-4.98,3.74-8.13,7.03-10.22,10.65-2.51,4.34-3.22,9.28-1.9,13.2,1.27,3.76,4.55,7.14,9,9.28,4.31,2.07,9.26,2.88,13.97,3.46,43.14,5.26,89.99-6.48,131.94-33.03,1.17-.74,2.71-.39,3.45.77.74,1.17.39,2.71-.77,3.45-36.19,22.91-76.02,35.03-114.16,35.03Z"/>
    </g>
    <g id="_x3C_Repetición_radial_x3E_3" data-name="_x3C_Repetición_radial_x3E_">
      <path d="M874.3,537.03h-.02c-50.8-.35-97.68-16.22-132.01-44.7-3.98-3.3-8.06-7-10.95-11.69-3.29-5.34-4.44-11.36-3.15-16.51,1.37-5.47,5.48-10.32,11.29-13.31,5.63-2.9,11.99-3.65,16.28-3.97,26.32-1.94,52.12,7.81,71.66,16.52,8.8,3.92,18.89,8.72,27.19,16.04,2.28,2.01,5.11,4.78,6.83,8.47,1.85,3.95,1.95,8.35.28,11.76-2.43,4.97-8.04,7.74-16.65,8.23-15.56.88-32.29-2.24-49.73-9.3-15.87-6.42-30.61-15.34-44.18-24.02-1.16-.74-1.5-2.29-.76-3.45s2.29-1.5,3.45-.76c13.37,8.55,27.87,17.33,43.36,23.6,16.74,6.77,32.75,9.78,47.57,8.94,6.68-.38,10.86-2.21,12.44-5.43,1.01-2.06.89-4.85-.32-7.44-1.04-2.22-2.77-4.33-5.61-6.83-7.78-6.85-17.46-11.45-25.92-15.23-19-8.47-44.04-17.95-69.26-16.1-6.21.46-10.64,1.52-14.36,3.43-4.46,2.3-7.73,6.06-8.73,10.08-.96,3.85-.03,8.47,2.56,12.67,2.51,4.07,6.23,7.43,9.88,10.46,33.44,27.74,79.21,43.21,128.85,43.54,1.38,0,2.49,1.14,2.48,2.52,0,1.38-1.13,2.48-2.5,2.48Z"/>
    </g>
    <g id="_x3C_Repetición_radial_x3E_4" data-name="_x3C_Repetición_radial_x3E_">
      <path d="M932.06,409.59c-.47,0-.94-.13-1.36-.41-42.55-27.75-73.41-66.46-86.89-108.97-1.56-4.93-3-10.25-2.89-15.75.12-6.28,2.4-11.96,6.27-15.59,4.11-3.86,10.2-5.71,16.69-5.09,6.3.61,12.06,3.41,15.84,5.46,23.19,12.6,39.63,34.75,51.35,52.64,5.28,8.06,11.17,17.55,14.21,28.2.83,2.92,1.72,6.79,1.17,10.82-.58,4.32-2.87,8.08-6.12,10.04-4.73,2.87-10.94,2.16-18.46-2.08-13.57-7.67-25.96-19.35-36.81-34.71-9.88-13.98-17.46-29.45-24.18-44.09-.58-1.25-.03-2.74,1.23-3.31,1.25-.58,2.74-.03,3.31,1.23,6.62,14.42,14.08,29.65,23.72,43.29,10.42,14.75,22.26,25.93,35.18,33.24,5.82,3.29,10.33,4.02,13.41,2.16,1.97-1.19,3.37-3.6,3.75-6.43.33-2.43.01-5.13-1.03-8.78-2.84-9.97-8.5-19.07-13.58-26.82-11.4-17.4-27.34-38.92-49.56-50.98-5.47-2.97-9.77-4.48-13.93-4.88-5-.48-9.78.92-12.79,3.76-2.89,2.72-4.6,7.11-4.7,12.04-.09,4.78,1.23,9.62,2.66,14.14,13.14,41.42,43.27,79.17,84.86,106.3,1.16.75,1.48,2.3.73,3.46-.48.73-1.28,1.13-2.1,1.13Z"/>
    </g>
    <g id="_x3C_Repetición_radial_x3E_5" data-name="_x3C_Repetición_radial_x3E_">
      <path d="M1049.57,333.61c-.96,0-1.87-.55-2.28-1.48-20.79-46.35-25.82-95.59-14.18-138.65,1.35-4.99,3.02-10.24,6.08-14.81,3.49-5.22,8.49-8.76,13.71-9.73,5.54-1.03,11.66.7,16.8,4.74,4.98,3.92,8.3,9.39,10.37,13.16,12.7,23.14,14.55,50.66,14.74,72.04.09,9.63-.09,20.8-3.29,31.4-.88,2.91-2.23,6.64-4.86,9.73-2.83,3.32-6.77,5.24-10.58,5.14-5.53-.15-10.38-4.1-14.4-11.73-7.27-13.79-11.38-30.31-12.2-49.1-.75-17.1,1.24-34.22,3.5-50.17.19-1.37,1.46-2.32,2.83-2.12,1.37.19,2.32,1.46,2.12,2.83-2.23,15.71-4.19,32.56-3.45,49.25.79,18.04,4.71,33.85,11.63,46.98,3.12,5.92,6.52,8.97,10.11,9.06,2.29.07,4.78-1.2,6.64-3.38,1.59-1.86,2.79-4.31,3.88-7.94,3-9.93,3.16-20.64,3.08-29.91-.19-20.8-1.96-47.52-14.13-69.68-3-5.46-5.8-9.05-9.08-11.64-3.94-3.11-8.72-4.51-12.79-3.76-3.9.72-7.72,3.49-10.46,7.59-2.66,3.97-4.17,8.76-5.41,13.34-11.34,41.95-6.4,90,13.92,135.3.56,1.26,0,2.74-1.26,3.3-.33.15-.68.22-1.02.22Z"/>
    </g>
    <g id="_x3C_Repetición_radial_x3E_6" data-name="_x3C_Repetición_radial_x3E_">
      <path d="M1189.5,333.21c-.12,0-.25,0-.38-.03-1.37-.21-2.3-1.48-2.1-2.84,7.57-50.23,29.96-94.38,63.03-124.31,3.83-3.47,8.08-6.98,13.12-9.17,5.76-2.5,11.88-2.78,16.79-.77,5.22,2.13,9.43,6.9,11.56,13.07,2.07,5.99,1.91,12.38,1.61,16.68-1.83,26.33-15.15,50.48-26.55,68.58-5.13,8.15-11.32,17.45-19.75,24.63-2.31,1.97-5.46,4.38-9.35,5.56-4.17,1.26-8.54.74-11.68-1.4-4.57-3.12-6.52-9.06-5.77-17.65,1.34-15.53,6.82-31.65,16.28-47.9,8.61-14.79,19.54-28.12,30.06-40.31.9-1.05,2.48-1.16,3.53-.26,1.04.9,1.16,2.48.26,3.53-10.37,12.02-21.12,25.13-29.53,39.56-9.09,15.61-14.34,31.02-15.62,45.81-.58,6.66.64,11.07,3.61,13.09,1.9,1.29,4.67,1.57,7.41.74,2.34-.71,4.68-2.12,7.56-4.58,7.89-6.73,13.82-15.65,18.76-23.49,11.09-17.6,24.04-41.04,25.79-66.26.43-6.21.01-10.75-1.35-14.7-1.64-4.74-4.9-8.51-8.73-10.08-3.67-1.5-8.38-1.24-12.91.73-4.38,1.9-8.24,5.11-11.76,8.29-32.22,29.16-54.04,72.25-61.44,121.35-.19,1.24-1.25,2.13-2.47,2.13Z"/>
    </g>
    <g id="_x3C_Repetición_radial_x3E_7" data-name="_x3C_Repetición_radial_x3E_">
      <path d="M1356.97,427.61c-1.88,0-3.88-.19-5.88-.76-4.2-1.19-7.58-3.99-9.07-7.49-2.16-5.09-.59-11.14,4.69-17.97,9.52-12.34,22.84-22.94,39.59-31.49,15.24-7.79,31.64-13.09,47.09-17.66,1.33-.39,2.71.37,3.11,1.69.39,1.32-.36,2.71-1.69,3.11-15.22,4.5-31.35,9.72-46.23,17.32-16.08,8.22-28.84,18.34-37.91,30.1-4.09,5.3-5.45,9.66-4.04,12.96.9,2.12,3.08,3.85,5.83,4.63,2.36.67,5.08.74,8.83.23,10.27-1.39,20.09-5.7,28.48-9.62,18.84-8.81,42.41-21.53,57.52-41.8,3.72-4.99,5.82-9.03,6.81-13.1,1.19-4.88.48-9.81-1.9-13.2-2.28-3.25-6.38-5.57-11.25-6.36-4.72-.77-9.7-.16-14.38.62-42.87,7.11-84.52,31.57-117.29,68.87-.91,1.04-2.49,1.14-3.53.23-1.04-.91-1.14-2.49-.23-3.53,33.53-38.17,76.23-63.2,120.23-70.5,5.1-.85,10.57-1.51,16-.62,6.2,1.01,11.5,4.08,14.54,8.43,3.24,4.62,4.21,10.9,2.66,17.25-1.5,6.16-5.09,11.45-7.66,14.9-15.77,21.16-40.04,34.28-59.41,43.34-8.73,4.08-18.96,8.56-29.93,10.05-1.48.2-3.18.38-5,.38Z"/>
    </g>
    <g id="_x3C_Repetición_radial_x3E_8" data-name="_x3C_Repetición_radial_x3E_">
      <path d="M1462.67,590.62c-11.3,0-22.15-1.13-31.72-2.42-9.55-1.29-20.58-3.05-30.61-7.73-2.75-1.28-6.26-3.15-8.94-6.2-2.88-3.27-4.22-7.46-3.58-11.2.93-5.45,5.53-9.69,13.66-12.58,14.68-5.23,31.62-6.95,50.33-5.09,17.03,1.69,33.69,6.09,49.16,10.6,1.33.39,2.09,1.77,1.7,3.1-.39,1.33-1.77,2.09-3.1,1.7-15.24-4.44-31.63-8.78-48.25-10.43-17.97-1.78-34.18-.16-48.16,4.82-6.3,2.25-9.8,5.18-10.41,8.72-.39,2.27.51,4.9,2.4,7.05,1.62,1.84,3.87,3.37,7.31,4.97,9.39,4.38,19.98,6.07,29.16,7.3,20.62,2.77,47.32,4.82,70.99-4.07,5.83-2.19,9.78-4.45,12.81-7.34,3.63-3.46,5.71-8,5.54-12.13-.16-3.97-2.36-8.13-6.03-11.44-3.55-3.2-8.07-5.37-12.43-7.25-39.91-17.2-88.17-19.14-135.9-5.48-1.33.38-2.71-.39-3.09-1.72-.38-1.33.39-2.71,1.71-3.09,48.84-13.98,98.3-11.96,139.26,5.69,4.75,2.05,9.71,4.45,13.8,8.13,4.67,4.2,7.46,9.65,7.68,14.95.23,5.63-2.36,11.44-7.09,15.95-4.59,4.37-10.47,6.88-14.5,8.4-13.55,5.09-27.95,6.76-41.69,6.76Z"/>
    </g>
    <g id="_x3C_Repetición_radial_x3E_9" data-name="_x3C_Repetición_radial_x3E_">
      <path d="M1446.28,790.53c-4.13,0-7.97-.69-10.84-1.31-25.81-5.56-47.81-22.18-64.1-36.04-7.34-6.24-15.66-13.69-21.57-23.05-1.62-2.57-3.56-6.03-4.17-10.05-.66-4.31.48-8.56,3.04-11.36,3.74-4.08,9.89-5.16,18.29-3.2,15.18,3.54,30.35,11.25,45.09,22.93,13.41,10.63,25.05,23.34,35.62,35.5.91,1.04.8,2.62-.25,3.53-1.04.91-2.62.8-3.53-.25-10.42-11.97-21.87-24.48-34.96-34.86-14.16-11.22-28.67-18.61-43.12-21.98-6.51-1.52-11.04-.94-13.47,1.71-1.55,1.7-2.22,4.4-1.79,7.23.37,2.42,1.44,4.93,3.46,8.13,5.53,8.77,13.53,15.91,20.58,21.91,15.84,13.48,37.2,29.63,61.92,34.96,6.09,1.31,10.64,1.54,14.74.75,4.93-.95,9.12-3.64,11.21-7.21,2.01-3.42,2.42-8.12,1.11-12.88-1.26-4.61-3.89-8.89-6.54-12.82-24.27-36.04-63.83-63.77-111.37-78.08-1.32-.4-2.07-1.79-1.67-3.11.4-1.32,1.79-2.07,3.11-1.67,48.64,14.64,89.15,43.08,114.07,80.08,2.89,4.29,5.76,8.99,7.21,14.3,1.66,6.05,1.06,12.15-1.62,16.73-2.85,4.86-8.17,8.35-14.58,9.59-1.98.38-3.97.53-5.9.53Z"/>
    </g>
    <g id="_x3C_Repetición_radial_x3E_10" data-name="_x3C_Repetición_radial_x3E_">
      <path d="M1288.99,936.2c-2.91,0-5.94-.59-8.89-1.78-5.88-2.36-10.61-6.67-13.66-9.7-18.71-18.63-28.23-44.51-34.44-64.97-2.8-9.22-5.77-19.98-5.69-31.06.03-3.04.27-7,1.92-10.71,1.78-3.98,5.03-6.94,8.7-7.91,5.35-1.42,11.11,1.01,17.12,7.2,10.86,11.18,19.45,25.88,25.54,43.67,5.54,16.19,8.46,33.18,10.78,49.12.2,1.37-.75,2.63-2.11,2.83-1.36.2-2.63-.75-2.83-2.11-2.29-15.7-5.16-32.42-10.56-48.22-5.84-17.09-14.05-31.15-24.4-41.8-4.66-4.8-8.78-6.76-12.25-5.85-2.22.59-4.25,2.5-5.42,5.12-1,2.24-1.46,4.92-1.49,8.71-.08,10.37,2.78,20.7,5.47,29.56,6.04,19.91,15.27,45.04,33.19,62.88,4.41,4.39,8.11,7.05,12,8.61,4.66,1.87,9.64,1.87,13.33,0,3.54-1.79,6.42-5.52,7.9-10.23,1.43-4.56,1.54-9.58,1.43-14.32-.94-43.44-19.22-88.15-51.47-125.9-.9-1.05-.77-2.63.28-3.52,1.05-.9,2.63-.77,3.52.28,33,38.62,51.71,84.44,52.67,129.04.11,5.17-.01,10.68-1.66,15.93-1.88,5.99-5.67,10.8-10.41,13.2-2.58,1.3-5.5,1.96-8.56,1.96Z"/>
    </g>
  </g>
  <path d="M1614.27,656.99c-.5,0-1-.15-1.44-.46-1.13-.8-1.39-2.36-.6-3.49,19.42-27.42,42.58-51.96,68.84-72.92,2.61-2.08,5.69-4.28,9.44-4.18,4.2.13,7.3,3.03,9.87,5.74,6.99,7.36,14.19,15.46,19.47,24.91.28.5.55,1,.81,1.5,7.47-8.89,15.83-17,25-24.23,5.58-4.4,11.74-8.55,19.04-9.12,8.46-.66,16.31,3.85,22.19,7.85,14.99,10.2,28.17,23.6,38.12,38.76.76,1.15.44,2.7-.72,3.46-1.15.76-2.7.44-3.46-.72-9.59-14.61-22.3-27.53-36.75-37.37-5.2-3.54-12.08-7.54-18.99-7-5.97.46-11.38,4.15-16.33,8.06-9.49,7.49-18.1,15.95-25.72,25.28,3.59,8.37,5.11,16.8,4.41,24.71-.62,7.13-4.41,14.7-11.47,15.53-2.85.34-5.75-.6-8.13-2.66-2.94-2.53-4.84-6.5-4.96-10.38-.2-6.17,2.89-11.7,6.25-16.77,2.55-3.83,5.24-7.56,8.08-11.16-.57-1.18-1.16-2.28-1.73-3.3-5.01-8.96-11.97-16.78-18.73-23.9-1.98-2.08-4.1-4.12-6.4-4.19-2.05-.08-4.17,1.49-6.17,3.09-25.89,20.67-48.73,44.86-67.88,71.9-.49.69-1.26,1.06-2.04,1.06ZM1719.47,617.59c-2.14,2.82-4.2,5.71-6.17,8.67-2.9,4.37-5.57,9.08-5.42,13.84.08,2.48,1.34,5.13,3.22,6.75.93.8,2.42,1.7,4.28,1.48,4.25-.5,6.65-6.06,7.08-11.01.63-7.21-.87-14.02-3-19.74Z"/>
  <path d="M262.17,631.26c-.33,0-.67-.07-.99-.21-1.27-.55-1.85-2.02-1.3-3.29,9.16-21.13,21.23-40.84,35.89-58.6,1.19-1.44,3.19-3.86,6.19-4.4,3.38-.61,6.38,1.47,8,2.58,5.75,3.97,11.75,8.41,16.66,14.04,0,0,0,0,.01.01,3.65-6.66,7.95-12.96,12.84-18.82,3.19-3.82,6.83-7.56,11.83-9.02,5.81-1.7,11.85.26,16.46,2.16,11.55,4.75,22.33,11.92,31.18,20.72.98.97.98,2.56,0,3.54-.97.98-2.56.98-3.54,0-8.39-8.35-18.61-15.14-29.56-19.65-3.85-1.59-8.83-3.25-13.15-1.98-3.72,1.09-6.72,4.21-9.4,7.43-5.15,6.17-9.61,12.85-13.32,19.94,3.49,5.08,5.64,10.49,6.28,15.86.62,5.17-1,11.15-6.02,12.84-2.08.7-4.37.45-6.45-.69-2.51-1.38-4.48-3.97-5.16-6.75-1.05-4.31.27-8.59,1.86-12.57,1.11-2.78,2.32-5.52,3.63-8.2-.44-.55-.87-1.06-1.28-1.54-4.55-5.22-10.25-9.44-15.73-13.22-1.41-.98-3.03-2-4.27-1.77-1.11.2-2.2,1.42-3.22,2.66-14.36,17.4-26.19,36.71-35.16,57.41-.41.94-1.33,1.51-2.3,1.51ZM327.41,590.99c-.8,1.74-1.55,3.5-2.26,5.28-1.28,3.21-2.36,6.59-1.65,9.53.35,1.44,1.42,2.83,2.72,3.55.59.33,1.5.65,2.44.33,2.24-.76,3.03-4.35,2.66-7.51-.51-4.21-2.05-7.99-3.9-11.19Z"/>
  <path d="M626.13,391.71c-.16,0-.32-.02-.48-.05-14.66-2.83-31.29-6.04-45.26-14.28-12.38-7.3-25.68-21.52-25.9-39.54-.03-2.91.25-5.9.53-8.79.67-7.03,1.31-13.67-2.49-18.4-6.45-8.04-20.65-3.82-26.46-1.64-11.49,4.33-22.59,9.9-33.01,16.53-3.34,14.27-11,27.46-22.06,37.33-4.95,4.42-9.82,5.74-13.69,3.71-4.26-2.23-5.29-7.61-4.11-11.55,1.11-3.69,3.7-6.48,6.25-9.02,8.83-8.77,18.61-16.66,29.09-23.51,1.15-5.53,1.61-11.19,1.3-16.79-.24-4.32-1.59-14.73-8.87-18.08-4.96-2.28-11.03-.6-16.32,1.34-9.13,3.36-18.07,7.79-26.71,12.08-7.07,3.5-14.37,7.13-21.82,10.19-20.46,8.41-38.56,10.49-53.79,6.16-1.33-.38-2.1-1.76-1.72-3.09.38-1.33,1.76-2.1,3.09-1.72,14.12,4.01,31.12,2,50.52-5.98,7.29-3,14.52-6.58,21.5-10.05,8.76-4.34,17.82-8.83,27.2-12.29,5.88-2.17,13.49-4.26,20.14-1.19,9.4,4.33,11.41,15.86,11.77,22.35.25,4.52.06,9.03-.55,13.47,9.56-5.76,19.63-10.66,30.02-14.57,8.48-3.19,23.93-7.02,32.12,3.19,5.07,6.32,4.31,14.29,3.57,22.01-.28,2.89-.54,5.62-.51,8.26.19,15.94,12.23,28.68,23.44,35.29,13.23,7.8,28.71,10.79,43.67,13.68,1.36.26,2.24,1.57,1.98,2.93-.23,1.2-1.28,2.03-2.45,2.03ZM486.59,329.87c-8.43,5.89-16.35,12.49-23.6,19.69-2.19,2.17-4.21,4.33-4.99,6.91-.6,2-.15,4.74,1.64,5.68,2.65,1.39,6.51-1.64,8.04-3.01,8.71-7.77,15.24-18.07,18.9-29.27Z"/>
  <path d="M1837.33,381.85c-.17,0-.35,0-.52-.02-3.01-.26-5.55-3-5.9-6.38-.27-2.56.57-4.85,1.45-6.99,2.86-6.91,6.44-13.57,10.64-19.82-.64-3.14-1.66-6.2-3.05-9.06-1.07-2.2-4.03-7.34-8.35-7.49-2.94-.1-5.9,2.25-8.12,4.32-4.29,3.99-8.23,8.54-12.05,12.95-3.14,3.63-6.4,7.38-9.87,10.87-9.64,9.67-19.48,15.17-29.24,16.34-1.37.16-2.62-.81-2.78-2.18-.17-1.37.81-2.62,2.18-2.78,8.62-1.04,17.47-6.06,26.3-14.91,3.35-3.36,6.54-7.05,9.63-10.61,3.9-4.51,7.94-9.16,12.42-13.33,2.92-2.72,6.86-5.82,11.7-5.65,6.79.24,10.86,6.56,12.68,10.3.93,1.92,1.72,3.91,2.36,5.93,3.73-4.92,7.86-9.52,12.32-13.74,7.24-6.83,14.3-8.93,19.87-5.9,4.67,2.54,6.24,7.59,7.63,12.06.51,1.66,1,3.22,1.62,4.64,3.68,8.5,13.07,12.64,20.62,13.68,9.07,1.24,18.35-.69,27.32-2.57,1.34-.28,2.68.58,2.96,1.94.28,1.35-.58,2.68-1.94,2.96-8.95,1.87-19.09,3.99-29.02,2.63-11.37-1.56-20.77-7.93-24.53-16.64-.72-1.67-1.27-3.44-1.8-5.14-1.21-3.9-2.35-7.58-5.24-9.15-4.93-2.68-11.47,2.7-14.05,5.14-5.28,4.98-10.06,10.54-14.25,16.51,1.41,8.85.16,18.08-3.74,26.25-1.82,3.8-4.37,5.86-7.24,5.86ZM1843.82,356.69c-2.61,4.4-4.9,8.97-6.84,13.67-.66,1.61-1.25,3.16-1.1,4.56.1.93.76,1.87,1.36,1.92.8.06,1.92-1.11,2.83-3.02,2.53-5.29,3.78-11.21,3.76-17.13Z"/>
  <path d="M1346.02,1331.26c-55.3,0-111.71-2.12-167.73-7.36-1.63-.15-3.27-.31-4.9-.47-62.04-6-124.53-16.74-182.81-27.44-10.78-1.98-30.85-5.67-31.7-22.68-.25-5.05,1.76-10.41,5.68-15.1,3.65-4.36,8.18-7.76,12.57-11.05,5.03-3.77,9.78-7.33,13.19-12.17,4.1-5.82,5.25-10.5,3.43-13.91-5.95-11.13-40.97-10.28-52.48-10-.98.02-1.85.04-2.62.06-80.14,1.5-161.1-2.79-240.64-12.75-15.84-1.98-37.61-6.64-43.88-24.12-2.76-7.71-2.39-15,1.12-21.66,6.7-12.74,24.28-22.71,53.73-30.48,28.12-7.42,57.05-13.27,85.02-18.93,26.25-5.31,53.4-10.8,79.76-17.57l.58-.15c15.9-4.08,28.47-7.3,37.16-21.3,6-9.67,7.63-20.03,4.84-30.81-5.74-22.23-29.21-42.08-47.55-52.33-8.69-4.85-29.92-12.77-50.46-20.43-16.63-6.2-32.35-12.06-42.06-16.48-1.26-.57-1.81-2.05-1.24-3.31.57-1.26,2.05-1.81,3.31-1.24,9.56,4.35,25.19,10.18,41.74,16.35,20.72,7.73,42.14,15.71,51.15,20.75,20.13,11.25,43.82,31.72,49.95,55.45,3.14,12.15,1.31,23.83-5.44,34.7-9.75,15.71-23.84,19.32-40.16,23.51l-.58.15c-26.48,6.8-53.69,12.3-80.01,17.63-27.9,5.65-56.76,11.48-84.74,18.86-27.63,7.29-44.65,16.7-50.58,27.97-2.86,5.45-3.14,11.21-.83,17.64,5.34,14.89,25.27,19.03,39.8,20.85,79.3,9.93,160.03,14.21,239.92,12.71.75-.01,1.62-.04,2.59-.06,24.53-.6,50.49.44,57.01,12.64,2.79,5.21,1.52,11.65-3.75,19.15-3.87,5.49-9.16,9.46-14.28,13.3-4.35,3.26-8.45,6.33-11.73,10.25-3.11,3.72-4.72,7.86-4.53,11.64.61,12.05,14.57,15.61,27.61,18.01,58.17,10.69,120.53,21.4,182.39,27.38,1.63.16,3.26.31,4.89.46,173.95,16.28,352.03,2.36,487.73-11.59,6.79-.7,13.71-1.31,21.03-1.96,36.25-3.2,77.33-6.83,108.67-22.58,7.21-3.62,23.93-13.87,23.49-30.73-.45-16.93-16.51-30.2-47.74-39.42-16.82-4.97-33.83-10.29-50.27-15.45-25.77-8.07-52.42-16.42-78.94-23.56-5.04-1.36-10.24-2.47-15.74-3.65-12.08-2.59-24.56-5.27-35.33-10.7-2.86-1.44-6.37-3.56-8.14-7.18-1.28-2.61-1.49-5.04-.62-7.23,1.69-4.27,6.87-6.24,11.45-7.98,2.08-.79,4.04-1.53,5.1-2.29,2.54-1.82,3.92-3.56,3.9-4.88-.03-1.52-1.87-3.07-3.42-4.11-5.18-3.47-12.8-4.66-18.36-5.53-10.65-1.67-20.34-2.35-29.62-2.08-72.34,2.04-145.47-2.46-217.39-13.38s-143.1-28.33-211.56-51.74c-72.44-24.78-143.38-56.78-211.98-87.73-40-18.05-81.37-36.71-122.57-53.73-139.62-57.67-247.69-82.54-350.42-80.6-131.12,2.47-250.34,55.74-318.92,142.52-.86,1.08-2.43,1.27-3.51.41-1.08-.86-1.27-2.43-.41-3.51,36.26-45.88,84.76-81.96,144.16-107.25,54.36-23.14,116.11-35.99,178.59-37.17,56.82-1.07,115.63,6.22,179.8,22.28,52.15,13.06,108.62,32.25,172.63,58.7,41.28,17.05,82.68,35.73,122.72,53.79,68.5,30.9,139.33,62.85,211.55,87.56,137.84,47.15,281.58,68.96,427.19,64.85,9.58-.27,19.57.43,30.53,2.14,6.02.94,14.27,2.23,20.37,6.31,3.69,2.47,5.58,5.22,5.63,8.18.05,3.14-1.9,6.1-5.98,9.03-1.59,1.14-3.85,2-6.24,2.91-3.43,1.3-7.7,2.92-8.57,5.14-.12.31-.49,1.25.46,3.19,1.12,2.28,3.74,3.82,5.9,4.91,10.19,5.14,22.36,7.75,34.12,10.27,5.32,1.14,10.83,2.32,15.99,3.71,26.61,7.17,53.31,15.53,79.13,23.62,16.43,5.15,33.41,10.47,50.2,15.42,33.54,9.9,50.8,24.73,51.32,44.08.52,19.73-18.17,31.28-26.24,35.33-32.19,16.18-73.78,19.85-110.47,23.1-7.3.65-14.2,1.25-20.96,1.95-92.27,9.48-204.12,18.95-320.98,18.95Z"/>
  <path d="M1058.67,1027.6c-1.35,0-2.47-1.08-2.5-2.44-.03-1.38,1.06-2.53,2.44-2.56,99.05-2.42,194.86-34.66,267.25-62.48,29.5-11.34,59.25-23.59,88.01-35.44,55.17-22.72,112.21-46.22,170.15-64.34,103.69-32.42,193.27-41.57,273.86-27.98,46.71,7.88,91.77,24.69,130.3,48.61,41.69,25.88,74.27,58.65,96.83,97.41.69,1.19.29,2.72-.9,3.42-1.19.69-2.72.29-3.42-.9-42.79-73.51-126.39-127.2-223.64-143.6-79.8-13.46-168.62-4.36-271.54,27.82-57.73,18.05-114.67,41.51-169.74,64.19-28.79,11.86-58.57,24.12-88.12,35.48-72.77,27.97-169.11,60.38-268.93,62.81-.02,0-.04,0-.06,0Z"/>
  <path d="M1403.11,1308.61c-104.16,0-202.18-9.84-294.98-20.31-25.7-2.9-52.27-5.9-78.13-11.12-13.77-2.78-21.62-9.23-21.56-17.69.04-5.43,3.49-9.87,7.2-13.87l1.2-1.29c8.11-8.69,16.5-17.67,15.98-28.48-.48-9.99-9.11-17.91-17.45-21.32-9.54-3.9-20.2-4.01-30.51-4.12l-55.26-.57c-1.38-.01-2.49-1.15-2.47-2.53.01-1.38,1.18-2.47,2.53-2.47l55.26.57c10.27.11,21.92.23,32.35,4.49,11.97,4.9,20.03,14.98,20.55,25.7.62,12.91-8.91,23.12-17.32,32.13l-1.2,1.29c-2.82,3.03-5.83,6.59-5.86,10.5-.07,8.3,12.25,11.68,17.54,12.75,25.64,5.18,52.11,8.16,77.7,11.05,120.89,13.64,250.68,26.21,391.21,17.28,1.36-.07,2.57.96,2.65,2.34.09,1.38-.96,2.57-2.34,2.65-32.95,2.09-65.32,3.01-97.11,3.01Z"/>
  <path d="M1385.67,1136.47c-.08,0-.16,0-.25-.01-79.88-7.81-159.38-23.43-236.27-46.42-1.32-.4-2.08-1.79-1.68-3.11.4-1.32,1.79-2.08,3.11-1.68,76.59,22.89,155.76,38.45,235.33,46.23,1.37.13,2.38,1.36,2.25,2.73-.13,1.29-1.21,2.26-2.49,2.26Z"/>
  <path d="M969.99,460.55c-.55,0-1.1-.18-1.56-.54-1.08-.86-1.26-2.43-.4-3.51,38.65-48.57,98.78-78.36,160.84-79.69,12.88-.28,31.74.5,46.79,10.42,1.15.76,1.47,2.31.71,3.46-.76,1.15-2.31,1.47-3.46.71-10.57-6.96-24.53-10.02-43.93-9.6-60.59,1.3-119.3,30.38-157.04,77.8-.49.62-1.22.94-1.96.94Z"/>
</svg>