<?xml version="1.0" encoding="UTF-8"?>
<svg id="Layer_1" data-name="Layer 1" xmlns="http://www.w3.org/2000/svg" viewBox="0 0 2000 1500">
  <path d="M1556.5117,742.5059c-9.6196-228.0916-201.0403-398.0746-268.6885-451.1602h.9502c7.9951,0,14.5-6.5049,14.5-14.5v-25.7993c0-7.9951-6.5049-14.5-14.5-14.5h-576.9053c-7.9956,0-14.5,6.5049-14.5,14.5v25.7993c0,7.9951,6.5044,14.5,14.5,14.5h.3072c-68.214,53.5206-258.9508,223.1422-268.6778,450.9385-6.4658,151.418,68.3589,299.5166,222.3774,440.1748-.0874,1.2695-.4463,3.748-.6362,5.0596-.2485,1.7139-.3291,2.3018-.3354,2.707-.0977,6.0586.6079,11.6436,2.0957,16.6016,4.189,13.9541,15.0098,24.8145,29.6885,29.7939,14.3882,4.8818,30.2324,6.5869,45.5547,8.2354,3.7871.4082,7.7031.8291,11.4492,1.2871,32.9434,4.0264,69.2065,7.4209,110.8623,10.376,47.9038,3.3975,95.5371,5.5732,141.5762,6.4678,15.9668.3096,31.4092.4648,46.416.4648,36.4316,0,70.2471-.917,102.4189-2.7656,29.457-1.6934,56.0205-3.4326,82.8096-7.5742,2.9678-.459,5.9365-.9072,8.9062-1.3545,6.6602-1.0039,13.5469-2.043,20.2988-3.1982,3.3701-.5762,6.8271-1.083,10.1699-1.5732,6.418-.9404,13.0547-1.9121,19.5332-3.4434,17.4639-4.123,29.8281-11.8086,36.751-22.8428,5.1748-8.249,8.3262-21.4551,3.6982-32.3604-.1279-.3027-.3398-.709-.7334-1.4609-.457-.8711-1.6855-3.2148-2.1562-4.5264,153.8662-140.5586,228.6514-288.543,222.2695-439.8467ZM702.3682,276.8457v-25.7993c0-5.2383,4.2617-9.5,9.5-9.5h576.9053c5.2383,0,9.5,4.2617,9.5,9.5v25.7993c0,5.2383-4.2617,9.5-9.5,9.5h-567.658c-.7416-.416-1.6609-.4254-2.429,0h-6.8184c-5.2383,0-9.5-4.2617-9.5-9.5ZM1329.1973,1218.043c-6.1982,9.8809-17.5244,16.8232-33.6641,20.6348-6.2676,1.4805-12.7959,2.4365-19.1084,3.3613-3.3721.4941-6.8594,1.0049-10.2891,1.5928-6.7021,1.1465-13.5645,2.1816-20.2012,3.1816-2.9746.4492-5.9512.8975-8.9238,1.3574-26.5703,4.1084-53.0068,5.8379-82.333,7.5234-45.2949,2.6035-93.8525,3.3535-148.4502,2.293-45.9546-.8916-93.5015-3.0635-141.3203-6.4561-41.5703-2.9482-77.751-6.334-110.6094-10.3506-3.7817-.4619-7.7158-.8857-11.5205-1.2949-15.0527-1.6201-30.6177-3.2949-44.4834-7.999-13.1274-4.4541-22.7881-14.1113-26.5059-26.4971-1.3403-4.4648-1.9746-9.54-1.8872-15.042.0156-.2451.1655-1.2803.2861-2.1123.2212-1.5266.392-2.7533.5106-3.7639,17.3464,4.3733,106.9492,26.0201,223.4738,37.3274,48.4248,4.6982,95.3965,7.0537,140.3999,7.0537,25.6221,0,50.6074-.7637,74.8555-2.293,82.4102-5.1963,156.5145-19.3101,220.3325-41.9412.5193,1.3142,1.2919,2.8303,2.2104,4.5828.2637.502.4727.8926.5586,1.0908,3.9248,9.2471,1.1553,20.6016-3.3311,27.751ZM1330.3999,1179.0867c-144.8859,52.0542-316.8511,49.2661-435.6567,37.7434-123.7701-12.0032-217.0435-35.6992-225.2252-37.819-153.0632-139.6898-227.4282-286.5516-221.0248-436.5135,9.8896-231.6118,209.0765-402.8557,271.8306-451.1519h559.3523c62.0613,47.7656,262.0571,219.4091,271.8406,451.3706,6.323,149.9128-68.0732,296.7263-221.1167,436.3704Z"/>
  <path d="M718.2163,707.2817c8.8481.0825,17.9966.166,26.9683-1.312,14.5459-2.3979,31.9351-10.8032,37.1147-27.2021.416-1.3164-.314-2.7212-1.6309-3.1367-1.3159-.4175-2.7217.3145-3.1367,1.6309-4.498,14.2402-20.0791,21.6182-33.1606,23.7744-8.5444,1.4082-17.4727,1.3267-26.1089,1.2456-6.3257-.0576-12.8672-.1187-19.3198.3926-11.1807.8857-31.4263,4.7534-41.3975,20.7012-3.7915,6.0635-5.4971,12.9883-7.147,19.6855-.2666,1.0815-.5327,2.1621-.8071,3.2363-1.9917,7.8003-4.5229,15.5415-7.522,23.0093-2.1108,5.2559-4.9233,10.9111-9.7759,13.001-1.2681.5459-1.8535,2.0166-1.3076,3.2842.4077.9463,1.3291,1.5127,2.2974,1.5127.3301,0,.6655-.0664.9878-.2051,6.5215-2.8076,9.9473-9.5273,12.438-15.7295,3.0811-7.6709,5.6807-15.623,7.7271-23.6353.2778-1.0879.5474-2.1821.8174-3.2778,1.5557-6.3149,3.1641-12.8452,6.5312-18.231,8.8101-14.0903,27.3096-17.5557,37.5532-18.3672,6.2319-.4941,12.6602-.4336,18.8789-.377Z"/>
  <path d="M847.6299,586.3325c4.478,3.5732,10.4062,4.0137,15.7676,4.0137.3198,0,.6377-.0015.9536-.0039,8.6055-.0703,18.5835-.3892,28.0996-3.3066,10.3721-3.1797,18.667-9.1885,23.3569-16.9194.7158-1.1802.3394-2.7178-.8413-3.4341-1.1802-.7153-2.7168-.3389-3.4341.8413-4.0522,6.6802-11.3496,11.9121-20.5474,14.7319-8.873,2.7202-18.4214,3.0195-26.6748,3.0869-4.9565.0425-10.0947-.1519-13.562-2.918-1.0786-.8618-2.6523-.6846-3.5132.395-.8613,1.0791-.6846,2.6523.395,3.5132Z"/>
  <path d="M836.1206,613.8301c-1.2778-.52-2.7373.0957-3.2573,1.3745s.0952,2.7373,1.3745,3.2573c1.4121.5742,2.6792,1.7217,3.6509,3.2871-1.2241-.5034-2.4521-.9131-3.6177-1.3022-1.3071-.4365-2.7261.2695-3.1631,1.5791-.4375,1.3101.2695,2.7261,1.5791,3.1631,2.5654.8569,5.2178,1.7427,7.1074,3.4072.1484.1309.2612.2505.3452.3511.0493.3418.0938.6782.1353,1.0073.1475,1.1724,1.0947,2.0811,2.272,2.1797.0703.0059.1401.0088.21.0088,1.0942,0,2.0728-.7168,2.3926-1.7803.3027-1.0068.2241-2.0566-.2056-3.0679-.3511-2.1274-.9019-4.4131-1.9272-6.5684-1.5557-3.272-4.0044-5.7212-6.896-6.8965Z"/>
  <path d="M922.3467,657.0728c-1.2129-.6611-2.731-.2124-3.3911.9995l-8.3208,15.2749c-.4941.9067-.377,2.0273.2905,2.8149,1.7944,2.1177,2.8276,4.6265,2.5977,5.2144-1.2974.561-6.4619-.4395-11.0234-2.1465-1.2905-.4819-2.7329.1719-3.2178,1.4644-.4844,1.2925.1704,2.7329,1.4629,3.2178,3.0732,1.1523,7.6455,2.5869,11.3662,2.5869,2.1621,0,4.0366-.4849,5.1611-1.7905,2.8408-3.2998.2603-7.9785-1.4653-10.4033l7.5396-13.8413c.6606-1.2124.2129-2.731-.9995-3.3911Z"/>
  <path d="M880.4543,686.0114c-1.1696,1.7054-1.8684,3.7967-1.8684,6.0629,0,5.6992,4.3682,10.3359,9.7373,10.3359.5772,0,1.1396-.0637,1.6895-.1664.2842.9362.5145,1.8719.666,2.7997.2002,1.2266,1.2607,2.0977,2.4644,2.0977.1338,0,.2695-.0107.4058-.0332,1.3628-.2227,2.2871-1.5073,2.0645-2.8701-.2302-1.4102-.6008-2.8226-1.0677-4.222,2.1454-1.8975,3.5145-4.7524,3.5145-7.9416,0-5.6992-4.3677-10.3354-9.7368-10.3354-1.464,0-2.8483.3546-4.0952.9715-2.4166-2.9136-4.3051-4.7856-4.5098-4.9866-.9849-.9653-2.5669-.9507-3.5342.0332-.9673.9849-.9526,2.5679.0317,3.5352.0479.0471,1.8824,1.8676,4.2385,4.7194ZM883.5859,692.0742c0-.5777.1028-1.1239.2543-1.6453,1.5042,2.1263,2.9897,4.4906,4.2094,6.9501-2.4828-.1633-4.4637-2.4679-4.4637-5.3047ZM888.3232,686.7388c2.6118,0,4.7368,2.3936,4.7368,5.3354,0,1.0103-.2647,1.9458-.6995,2.752-1.4559-2.883-3.2031-5.5989-4.9293-7.9859.2895-.0625.5865-.1016.892-.1016Z"/>
  <path d="M896.6064,660.4175c1.1348.8916,2.4541,1.3501,3.8628,1.3501.3408,0,.6875-.0269,1.0376-.0811,5.1772-.8003,9.9561-7.6182,10.4839-8.3931.7773-1.1411.4829-2.6963-.6582-3.4736-1.1421-.7769-2.6963-.4824-3.4736.6582-1.2842,1.8843-4.7124,5.8955-7.1157,6.2671-.4326.0669-.7251-.0059-1.0479-.2593-1.9707-1.5488.9346-7.0439,2.9277-9.6416.8413-1.0933.6377-2.6616-.4551-3.5044-1.0933-.8428-2.6626-.6392-3.5063.4536-.896,1.1621-8.5693,11.5054-2.0552,16.624Z"/>
  <path d="M911.8921,640.7407c2.8149.749,5.7212,1.1934,8.3008,1.1934,4.1167,0,7.4028-1.1328,8.1577-3.9707v-.0005c1.2275-4.6162-5.5962-8.6436-12.9033-10.5874-7.3052-1.9429-15.2295-1.8384-16.4585,2.7783-1.2271,4.6157,5.5962,8.6431,12.9033,10.5869ZM914.1621,632.2075c5.0068,1.332,8.0405,3.2842,9.0215,4.3813-1.397.4634-4.9985.6514-10.0063-.6802-5.0068-1.332-8.04-3.2842-9.0215-4.3813,1.3975-.4639,4.9995-.6514,10.0063.6802Z"/>
  <path d="M1376.1328,884.7334c-1.2061-2.7266-2.5078-5.4648-3.7666-8.1133-4.085-8.5879-8.3076-17.4678-9.5791-26.7832-3.0137-22.0967,10.127-42.5127,22.835-62.2559,1.3223-2.0547,2.6357-4.0957,3.9219-6.124,21.2695-33.5527,35.4375-70.5449,40.9727-106.9775,6.0879-40.064,1.3057-78.4336-13.8291-110.9609-5.8711-12.6187-12.4824-22.7231-20.2129-30.8906-26.3945-27.8896-71.6787-34.9785-105.3379-16.4893-8.5,4.6704-14.1846,9.9224-17.3779,16.0562-4.3281,8.314-3.9805,17.9878-3.0693,26.354,2.7148,24.9297,10.9727,49.4712,23.8789,70.9707,3.8926,6.4834,8.2539,12.7808,12.4727,18.8706,6.1338,8.8574,12.4775,18.0156,17.335,27.7251,20.873,41.7285,9.8145,94.9814-24.6523,118.709-3.2354,2.2285-6.7432,4.2734-10.1348,6.252-6.1113,3.5654-12.4316,7.252-17.7432,12.2871-21.9492,20.8066-18.7383,55.7578-9.3193,79.3652,5.0107,12.5576,11.8496,24.415,18.4639,35.8818,6.833,11.8477,13.8994,24.0977,18.8242,36.9688,3.9355,10.2852,9.0664,29.5547-.7852,43.0527-4.8027,6.5801-12.1201,10.5068-19.8682,14.6631-3.3682,1.8076-6.8516,3.6758-10.1104,5.7832-19.8672,12.8438-32.7295,40.79-20.209,61.9219,3.2295,5.4502,7.7627,9.8145,12.1475,14.0352,2.8408,2.7354,5.7793,5.5635,8.2432,8.5986,2.0546,2.5311,3.7567,5.5002,4.8816,8.5679-28.6702-2.6676-58.3848-4.8782-88.4073-6.5693-1.001-.4482-2.0143-.9006-3.0436-1.3579-25.7197-11.4277-52.0029-21.9668-54.0449-22.7832-15.9964-8.601-38.5875-79.1437-46.5457-107.663,4.1672-3.7402,9.0021-9.0164,13.1717-16.0333.3926-.6621.459-1.4668.1807-2.1836-.2862-.7356-28.2739-72.5992-55.3361-137.6498,7.4841-.3448,15.267-2.2811,22.4562-7.0084,12.1328-7.9785,15.8457-22.9355,9.9307-40.0088-4.5732-13.2012-20.5625-35.4355-45.8672-42.5864-8.7466-2.4713-17.7042-2.9105-26.8314-1.348-3.6229-7.0712-6.3854-11.7646-8.4283-14.3175-6.2316-7.7899-15.9266-13.9125-27.4384-17.6514,30.3872-42.9888,31.036-96.6945,1.5018-144.3915-19.9897-32.2832-41.6899-51.2842-68.2925-59.7964-28.6802-9.1787-59.4824-4.8003-82.3931,11.7124-24.1753,17.4238-42.4312,42.4395-57.1006,62.5405-19.7412,27.0508-44.835,49.9229-69.1021,72.042-23.0967,21.0522-46.9795,42.8208-66.3965,68.272-1.498,1.9644-3.1514,4.0908-4.9126,6.3569-18.4072,23.6821-46.2246,59.4712-39.8423,87.8042,2.0093,8.918,6.1318,14.3086,12.2544,16.0205,1.3623.3809,2.7783.5557,4.2314.5557,4.3181,0,8.9543-1.5491,13.4299-3.8101,2.176,10.267,6.5829,17.0723,13.1423,20.23,2.9497,1.4199,6.0088,1.9414,8.9141,1.9414,3.1956,0,6.194-.6335,8.6581-1.3943-1.5583,5.3513-3.0531,10.6488-4.517,15.8376-1.481,5.248-2.8794,10.2061-4.3174,15.1406-7.084,24.3174-14.8696,52.624-17.5952,80.8389l-.1318,1.3359c-1.1606,11.698-3.4972,35.3174,10.0688,40.9558-1.1761,4.129-3.2731,13.2678-3.5873,26.7097-.0405.235-.0421.4738-.0145.7123-.0406,2.2043-.0359,4.5146.0315,6.9415.5884,21.1924,6.0918,55.165,28.9653,96.6562.8126,1.4741,1.6617,2.9136,2.5297,4.3342-2.3644.2751-4.6351.5422-6.7841.7986-1.3711.1641-2.3496,1.4082-2.186,2.7783.1519,1.2705,1.231,2.2041,2.4795,2.2041.0986,0,.1987-.0059.2993-.0176,2.8776-.344,5.9632-.7054,9.2274-1.0819,10.7073,15.6725,24.9297,27.6672,41.6334,34.9637,17.4067,7.6045,39.0972,11.6416,61.5107,11.6416,6.3613,0,12.7827-.3252,19.1792-.9863,29.8924-3.0911,56.6321-13.0347,75.4407-28.0098,4.0008-.2466,20.0598-2.46,38.4685-21.6875,4.139-4.3232,8.0854-9.1674,11.8436-14.5107,48.3444-1.8459,96.4631-2.6372,143.114-2.3574.1154,2.6545.1627,5.5183.2089,8.4795.3096,19.7861.7314,46.8584,25.0928,46.8584.0879,0,.1768,0,.2646-.001,28.9521-.2363,41.5098-.1416,61.9199,4.4668,10.8789,2.457,31.9336,5.0635,50.0645,6.1982,7.126.4463,12.9375.6328,17.6875.6328,14.5957-.001,19.1426-1.7617,20.8525-3.1572,2.3037-.0762,6.375-.5312,8.6523-2.6689.6797-.2559,1.2246-.6807,1.5205-.9111,1.833-1.4287,4.9932-4.8418,4.9111-8.2344.5635-1.3467,1.6885-4.4648,1.6553-7.8525.2246-.8418.3691-2.2764-.4268-3.998-.4905-1.0601-1.2808-2.0586-2.3462-2.9983.6601-.2908,1.2421-.7258,1.7144-1.3113,1.4932-1.8564,1.3867-4.582,1.2598-5.7295.3066-2.9932-2.7783-6.4658-17.1191-14.1787-5.6407-3.0336-12.7675-6.5607-21.2753-10.5327,26.1843,1.6083,52.0524,3.606,77.1019,5.9575.5055,3.9548-.1803,7.7708-2.6136,10.7344-.876,1.0664-.7207,2.6416.3467,3.5186.4648.3818,1.0264.5674,1.584.5674.7227,0,1.4395-.3115,1.9346-.9141,7.4062-9.0205,3.3584-22.2715-3.5371-30.7646-2.6572-3.2734-5.707-6.2109-8.6582-9.0508-4.335-4.1729-8.4287-8.1152-11.3125-12.9814-11.0547-18.6572.7041-43.5908,18.6221-55.1738,3.0879-1.9961,6.4795-3.8164,9.7598-5.5762,7.8994-4.2383,16.0684-8.6211,21.543-16.1221,11.2461-15.4082,5.7139-36.5537,1.416-47.7871-5.0664-13.2393-12.2324-25.6641-19.1631-37.6797-6.5264-11.3135-13.2734-23.0127-18.1504-35.2373-8.8398-22.1543-12.0176-54.7979,8.1143-73.8828,4.8916-4.6377,10.6875-8.0176,16.8232-11.5967,3.4717-2.0244,7.0605-4.1182,10.4512-6.4521,36.4414-25.0879,48.2344-81.1919,26.2871-125.0654-5.0156-10.0269-11.4619-19.334-17.6953-28.3345-4.1729-6.0244-8.4873-12.2539-12.2959-18.5972-12.5371-20.8843-20.5576-44.7227-23.1953-68.9385-.8301-7.6216-1.1777-16.3745,2.5342-23.5044,2.7217-5.229,7.7432-9.8032,15.3506-13.9824,31.7266-17.4302,74.416-10.7466,99.2988,15.5435,7.3535,7.7705,13.6699,17.4404,19.3105,29.5635,33.7959,72.6323,8.2979,157.731-26.833,213.1514-1.2803,2.0195-2.5879,4.0508-3.9033,6.0957-13.1992,20.5068-26.8486,41.7119-23.585,65.6377,1.376,10.085,5.7695,19.3223,10.0176,28.2549,1.2441,2.6172,2.5312,5.3242,3.71,7.9873,17.4873,39.5381,14.7188,84.2139-7.0537,113.8164-3.2988,4.4854-7.1221,8.8008-10.8193,12.9736-6.9883,7.8857-14.2148,16.041-18.5615,25.9863-6.5781,15.0498-5.6357,31.8262-4.7246,48.0498.3965,7.0645.8066,14.3682.5664,21.3271-.0479,1.3809,1.0312,2.5381,2.4121,2.585,1.3584.0537,2.5371-1.0322,2.584-2.4121.249-7.1855-.168-14.6045-.5703-21.7803-.8789-15.6387-1.7871-31.8096,4.3145-45.7676,4.0303-9.2217,10.6807-16.7266,17.7217-24.6729,3.7715-4.2568,7.6719-8.6582,11.1045-13.3262,22.8154-31.0215,25.7979-77.6533,7.5986-118.8008ZM1072.1892,985.1841c-10.3214-25.3732-34.3992-84.7064-54.6213-135.6235,2.6569-6.9846,4.0156-14.8618,4.0923-23.5837,3.975.9807,8.3843,1.7339,13.0058,1.9658,25.4152,61.0076,51.9052,128.7345,55.6514,138.3328-6.3511,10.2269-14.2535,16.3235-18.1282,18.9087ZM1025.249,743.1694c23.2969,6.5835,38.4336,27.6675,42.502,39.4116,1.917,5.5342,7.0098,24.3545-7.9541,34.1943-6.0795,3.9983-13.6027,6.0312-21.866,6.1379-.6533-.9678-1.918-1.375-3.0324-.9055-.4314.1799-.7778.4722-1.0371.8223-7.6797-.4745-15.8796-2.5408-24.0898-6.1982-5.9775-2.6641-12.0322-6.0322-17.9966-10.0107-.1992-.1328-.6255-.3848-1.1816-.708-2.356-1.3721-3.8721-2.3467-4.521-2.9053-1.5-21.6211-6.8115-35.6641-15.7915-41.75-2.0132-1.3643-3.9873-2.1631-5.7832-2.6064,2.2024-1.6273,4.3956-3.1351,6.5801-4.5367.1036.013.2058.0367.3105.0367.4912,0,.9878-.1445,1.4224-.4453.4565-.3168.7674-.7604.9337-1.249,17.9065-10.7715,35.1743-13.9022,51.5048-9.2876ZM946.3623,811.9287c-1.3188-.2998-2.6309.5029-2.9702,1.8086-2.7798,10.6738-9.0859,34.8896-12.5659,38.9785-1.1182-4.2773-.165-19.9404,1.5034-33.2832.1694-1.3525-.7764-2.5918-2.1255-2.7852-1.3486-.1963-2.605.7295-2.8228,2.0752-4.9321,30.4629-10.313,35.3203-11.3105,35.9697-.0767-.0928-.1797-.2393-.2974-.4648-1.5391-3.5684,3.5542-29.4717,9.3677-52.4541.3311-1.3096-.4375-2.6445-1.7358-3.0166-1.2959-.3711-2.6562.3545-3.0688,1.6406-.6489,2.0254-1.3115,4.0459-1.981,6.0635-1.8516,5.585-4.3276,12.9189-7.0571,20.1191-.1143.3018-.2783.7842-.4849,1.3955-2.979,8.8145-4.6948,10.7754-5.4038,11.1904-1.3755-.7646-1.4849-4.4414-.3237-10.9395.103-.5742.1934-1.084.2588-1.5068.772-5.001,2.1992-10.0273,3.5796-14.8867l.5576-1.9697c1.6509-5.8613,3.2744-11.2373,4.9629-16.4346.4263-1.3135-.2925-2.7236-1.6055-3.1504-1.0918-.3525-2.2476.0811-2.853.9902-.5747.3945-2.1313,1.0713-2.7466,1.3389-.4951.2158-.894.3936-1.103.5039-2.8286,1.4902-5.8809,3.0098-9.0352,4.0283l-.2373.0771c-2.0977.6826-3.4126.9287-3.9146.7402-.2896-.7227.1602-3.0156,1.1035-4.6455,1.4521-2.5107,3.7612-4.6758,5.9941-6.7705l.3994-.375c4.0728-3.8271,8.6831-6.9697,13.7031-9.3389,6.2104-2.9316,13.1216-4.582,19.8057-6.1797,2.5591-.6113,5.2056-1.2432,7.7954-1.9414,7.1531-1.9293,14.1328-3.7346,20.765-5.3732,1.4961.2697,3.2531.882,5.0783,2.1447,5.0511,3.4951,11.3485,12.5217,13.3066,35.5452-4.5538-.3469-12.7427-.3116-16.8198,3.7654-2.1382,2.1387-4.7466,7.6758-8.8252,16.5342-2.5742,5.5908-6.6304,14.4004-9.0225,17.5957-.7036-3.8477.104-14.0127,2.0332-24.0801.2539-1.3252-.5889-2.6123-1.9043-2.9092ZM790.5168,709.1678c10.5424-6.6544,32.4484-23.067,45.9462-51.2156,2.0341,15.1566,8.4656,43.8652,28.5657,59.5815-6.8033,3.2238-13.7987,8.525-20.8606,15.809-16.9973-11.016-34.1923-20.7823-53.6512-24.1749ZM852.7817,625.7354c.2349,1.3604,1.5327,2.2705,2.8887,2.0391,1.3608-.2349,2.2734-1.5278,2.0391-2.8887-.3958-2.2956-1.3159-4.8111-2.6152-7.3449,24.7054,4.0992,50.6498-2.6618,64.9121-7.4974-2.0703,3.6973-3.0073,7.9106-1.5161,11.5513,1.2026,2.937,3.1606,4.9102,5.8193,5.8643,6.4082,2.3013,14.981-2.3022,20.1016-5.0522l.8994-.4814c5.105-2.7163,9.7261-5.9824,13.1821-8.5244.2715-.1997.9858-.6616,1.7417-1.1504,1.4268-.9219,2.6479-1.731,3.6904-2.4507-1.6293,11.3221-5.6909,25.104-11.4357,39.0748-4.2244-6.1439-10.1531-11.0913-14.056-8.4532-1.3628.9219-2.7329,2.978-1.52,7.5415.7217,2.7163,2.249,5.8828,4.3003,8.9165,1.5399,2.2772,3.2823,4.3253,5.0095,5.9156-1.0165,2.0742-2.0625,4.1367-3.1411,6.1779-.0126-.8004-.4088-1.5805-1.1287-2.0529-1.1533-.7559-2.7031-.4341-3.4609.7183-1.7993,2.7358-6.0317,7.2852-8.1465,5.9312-.3442-.2207-.5093-.4736-.5884-.9019-.3994-2.1694,1.8555-6.4424,3.583-8.7812.8228-1.1089.5903-2.6748-.5186-3.4971-1.1084-.8223-2.6748-.5894-3.4971.5186-.5586.7529-5.4297,7.5054-4.4858,12.6582.3271,1.7876,1.2983,3.2441,2.8076,4.2124,1.1987.769,2.4058,1.0908,3.5874,1.0908,4.2068,0,8.0783-4.0823,10.0821-6.6232-6.5127,11.835-14.0076,22.8148-21.9778,31.4255-4.1528,1.3533-7.6951,3.1998-10.442,5.4854-12.0192-.7473-24.8298,1.3146-38.3976,6.1859-27.9723-19.1428-29.9455-66.9937-29.962-67.4765-.0048-.1382-.0283-.2709-.0542-.4023-.0042-.0214-.0038-.043-.0086-.0642-.0486-.2166-.1295-.4182-.2296-.6089-.0181-.0344-.0388-.0663-.0585-.1-.1074-.1833-.2325-.3534-.3814-.5026-.0067-.0067-.01-.0155-.0168-.0222-.0019-.0019-.0174-.0175-.0229-.0229-.0089-.0085-.0168-.0176-.0259-.0259-.9575-.96-19.6271-20.0049-13.397-36.687,2.2295-5.9683,5.5942-5.6528,6.7046-5.5498,7.6807.7192,18.3193,13.6406,19.7354,21.855ZM948.4935,658.0216c-1.0761-1.1367-2.148-2.4788-3.138-3.943-2.9023-4.292-3.9082-7.7563-3.9277-9.228,1.3584.5664,4.1987,2.7905,7.1011,7.083.5752.8508,1.0831,1.711,1.5555,2.5697-.5194,1.1743-1.0495,2.347-1.5909,3.5183ZM870.0566,720.8174c39.4315-14.9582,72.1895-4.965,97.4199,29.6678-3.8807,2.5416-7.7822,5.415-11.7021,8.6271-.3142.2574-.5435.5805-.6959.9328-4.7586,1.2109-9.6479,2.4897-14.6293,3.8328-2.5205.6797-5.1309,1.3037-7.6558,1.9072-6.9312,1.6553-14.0986,3.3682-20.7773,6.5205-5.081,2.3978-9.7709,5.5266-13.9718,9.2937-12.4298-16.4935-29.1059-31.7692-49.6199-45.4532,7.4421-7.5459,14.7086-12.702,21.6323-15.3288ZM987.4443,725.8159c1.6962,2.1197,4.1359,6.2433,7.2584,12.2628-7.5568,1.8956-15.2234,5.144-22.9788,9.7511-14.9196-20.6072-32.3487-33.0385-52.1317-37.2283.8354-.8187,1.6653-1.663,2.4904-2.5298,6.2759-1.824,14.0724-2.5139,22.3978-1.83,5.05.4158,9.9188,1.2885,14.5178,2.5389.1235.0438.2476.0797.3746.1033,11.9043,3.303,21.9088,9.2284,28.0714,16.9319ZM622.5776,838.0615c-5.3809-2.6021-8.9772-8.7559-10.707-18.2915,9.9016-6.1152,18.0673-14.501,18.6465-15.1021.958-.9941.9292-2.5762-.0645-3.5352-.9941-.959-2.5762-.9307-3.5352.0645-6.2646,6.4941-24.9375,22.6729-35.9463,19.5889-4.2134-1.1797-7.1475-5.3193-8.7207-12.3047-5.8638-26.0283,22.1655-62.0903,38.9121-83.6362,1.7715-2.2788,3.4336-4.4175,4.9404-6.3926,19.1431-25.0923,42.8564-46.7065,65.7891-67.6094,24.4507-22.2861,49.7339-45.3311,69.7729-72.79,14.46-19.814,32.4561-44.4736,55.9854-61.4312,21.6294-15.5884,50.7686-19.7026,77.9458-11.0073,25.4038,8.1294,46.2373,26.4531,65.5649,57.6665,28.7588,46.4445,27.8338,98.7509-2.3436,140.2804-4.4518-1.1233-9.1194-1.9072-13.9269-2.3029-6.1249-.5048-11.9435-.3188-17.2056.4777,22.724-27.527,40.2212-71.2769,41.9038-97.9943,0-.0034,0-.0073.0005-.0107.0864-1.3779-.9604-2.5654-2.3384-2.6519-1.1694-.0679-2.2158.6802-2.5474,1.7612-.978,1.1992-5.6221,4.2012-7.1836,5.2109-.9272.5991-1.5972,1.0322-1.9902,1.3213-3.3193,2.4419-7.7476,5.5732-12.5679,8.1382l-.9165.4907c-4.1006,2.2017-11.731,6.2988-16.0469,4.751-1.3047-.4683-2.2202-1.438-2.8813-3.0532-1.8047-4.4058,3.6606-11.9512,7.8604-13.8408.0015-.0005.0024-.001.0039-.0015.001-.001.0029-.0015.0039-.002,1.2588-.5645,1.8223-2.042,1.2593-3.3013-.564-1.2603-2.0415-1.8271-3.3003-1.2632-.4203.187-42.0478,18.4575-77.4729,10.4509-4.9037-6.637-11.8245-12.2652-17.9592-12.8396-3.0938-.2861-8.749.4648-11.854,8.7788-6.5825,17.625,8.9546,36.0186,13.4731,40.8604-15.7871,40.0652-51.2408,58.7971-52.7777,59.5909-9.3263-.7129-19.201.0975-29.8307,2.9438-34.8643,9.3369-61.3521,26.0332-78.728,49.626-16.0118,21.7407-25.9707,49.5068-34.026,76.4368-3.4643,1.5005-10.8988,3.9661-17.1913.9226ZM616.417,956.7715l.1328-1.3496c2.6841-27.7842,10.3989-55.8213,17.4194-79.9209,1.4434-4.9551,2.8447-9.9229,4.3286-15.1816,1.8088-6.4111,3.6667-12.9912,5.6323-19.6292.1417-.0767.2496-.1365.2852-.157,1.1958-.6865,1.6079-2.21.9238-3.4072-.0294-.0515-.0686-.093-.101-.1416,7.8497-26.0171,17.543-52.6245,32.7831-73.3174,16.686-22.6558,42.2544-38.7251,75.9951-47.7607,34.922-9.3532,61.6596,4.7711,88.0135,21.881.1301.3719.3392.7215.6481,1.0081.5311.4924,1.2178.7028,1.887.6525,20.8218,13.7103,37.6362,29.0443,50.0159,45.5966-1.7306,1.7139-3.3806,3.5592-4.6559,5.7632-1.0767,1.8613-2.7334,6.1982-1.2944,9.291,2.0688,4.4473,7.6133,2.6436,9.981,1.873l.2275-.0742c3.2554-1.0518,6.314-2.5293,9.1519-4.0078-1.0454,3.3994-2.0781,6.9131-3.1216,10.6182l-.5552,1.959c-1.4219,5.0059-2.8921,10.1836-3.7109,15.4902-.0601.3896-.1445.8604-.2393,1.3896-.8984,5.0264-2.5703,14.3828,3.7622,16.6162,1.1592.4053,2.3848.3262,3.543-.2373,1.7681-.8613,3.2588-2.7754,4.646-5.5088-1.415,8.6348-2.0459,15.8809-.7852,18.3018,1.4355,2.7568,3.4194,3.2549,4.6646,3.2549.2837,0,.5288-.0264.7207-.0566,3.4082-.5498,6.291-5.0088,8.6943-11.3389.396,7.7051,2.0659,8.6885,2.8296,9.1396,1.2456.7344,2.645.8467,3.9365.3135,2.8916-1.1934,5.3965-5.7305,9.2358-18.2021.3989,2.123,1.103,3.749,2.2207,4.5869.8545.6416,1.9048.8477,2.9536.582,3.4492-.873,6.6743-7.1865,13.2119-21.3848,2.9082-6.3164,6.2041-13.4746,7.8188-15.0898,2.5924-2.5924,9.8721-2.7134,14.5516-2.158,1.0244,1.1006,2.8771,2.3024,5.9089,4.0681.4336.2529.769.4443.9238.5479,6.1973,4.1338,12.501,7.6387,18.7354,10.417,2.2516,1.0032,5.3127,2.2361,8.9307,3.3776.0623,8.4408-1.1483,16.0228-3.6244,22.7122-.5697.5134-.8694,1.2627-.8135,2.0321-3.5546,8.4521-9.2155,15.4115-16.9963,20.7815-68.3545,47.1729-276.2104-35.3662-278.3018-36.2061-1.2817-.5127-2.7368.1084-3.2515,1.3896-.5142,1.2812.1079,2.7363,1.3892,3.251.3572.1434,24.7287,9.8721,59.3083,20.77-11.5109,28.5144-21.3427,56.124-28.5686,76.4253-4.1109,11.5508-7.3683,20.7006-9.7841,26.8289-49.7989.2607-104.1115,26.6018-111.6505,30.3848-11.1924-3.4968-8.9365-26.301-7.957-36.1736ZM726.9007,984.0719c-56.3521,7.6244-92.051,27.8431-103.7834,35.4094.7-11.9208,2.7961-19.6086,3.5736-22.1063,7.4004-3.7109,59.269-28.8788,107.3105-29.7932-2.2925,5.5999-4.6838,11.1277-7.1007,16.4901ZM696.1064,1167.6504c-15.865-6.9307-29.3835-18.3529-39.5693-33.2932-.0021-.0239.0018-.047-.001-.071-.0991-.8666-.6296-1.5808-1.3536-1.9485-1.3626-2.103-2.6673-4.2656-3.8983-6.4988-22.3057-40.4609-27.7217-73.4844-28.3369-94.0635-.0638-2.1331-.0728-4.1667-.0476-6.1248,6.3561-4.3674,42.3628-27.5363,101.5355-36.1812-13.3262,28.7961-26.554,51.5133-26.7252,51.8059-.6968,1.1914-.2954,2.7227.896,3.4199.397.2314.8311.3418,1.2598.3418.8594,0,1.6953-.4424,2.1606-1.2383.1802-.3083,14.7665-25.3533,28.8101-56.2957.0186-.0356.0332-.073.05-.1096,2.9076-6.4099,5.7883-13.0703,8.5151-19.8171,1.3598.0178,2.4863-1.0808,2.5129-2.4485.0143-.7368-.2975-1.3987-.7955-1.866,2.3937-6.1702,5.5176-14.9468,9.4-25.8538,7.2431-20.3481,17.1083-48.0543,28.6462-76.6062,15.3235,4.745,32.4313,9.6364,50.218,13.9968,40.7002,9.9775,75.1616,14.9648,103.1973,14.9648,28.5747,0,50.4736-5.1826,65.4912-15.5459,7.1676-4.9465,12.7069-11.0842,16.6202-18.356,24.4723,61.5326,53.7449,133.3772,57.5609,142.7358-3.3545,6.8613-26.4609,49.8799-82.5757,60.4639l-68.4072-120.7197c-.5303-.9355-1.6025-1.4277-2.6523-1.2217-1.0552.2051-1.8608,1.0615-2.0015,2.127-3.8804,29.3662-9.6763,60.5605-17.2266,92.7158-1.1104,4.7285-2.166,9.457-3.2832,14.4639-8.2812,37.1104-17.6675,79.1729-48.3379,104.0391-36.8784,29.8994-104.9155,37.6084-151.6621,17.1846ZM885.5503,1129.251c-10.9618,11.6013-21.0366,16.6846-27.7567,18.9144,26.5756-26.2606,35.3741-65.61,43.1932-100.6498,1.1138-4.9932,2.166-9.709,3.27-14.4102,6.9629-29.6514,12.4414-58.4941,16.3115-85.8594l19.7318,34.821c-10.0154,69.3518-27.3699,109.505-43.1447,132.6239-.076.0966-.1477.1957-.209.3029-3.947,5.752-7.7926,10.4431-11.3961,14.2571ZM903.9872,1113.5535c18.4493-28.6835,31.9698-70.3652,40.3137-124.4261l41.9012,73.944c.5205.9189,1.5601,1.4131,2.6055,1.2305,9.4843-1.656,18.0561-4.2017,25.7626-7.3025,5.1578,7.0276,26.5115,36.936,28.6105,53.1609.0485.3745.0895.7678.1308,1.1605-45.4368-.2661-92.259.4874-139.3242,2.2328ZM1230.041,1166.4697c-.2363.4775-.2979,1.0938-.2041,1.6191.1504.8428-1.708,3.1924-2.8896,4.1289-.7695.0742-1.4814.5049-1.8984,1.1953-.4492.7441-3.6182,1.4346-6.3662,1.3975-.8369-.0049-1.6084.3516-2.0801,1.0596-1.1855,1.2148-10.2217,3.0742-35.9316,1.4092-17.6426-1.1426-38.0068-3.6787-48.4219-6.0303-20.9521-4.7305-33.7051-4.8262-63.0605-4.5898-.0742.001-.1436.001-.2168.001-18.0078,0-19.7314-18.1826-20.1016-41.9365-.0493-3.1384-.0999-6.1711-.2311-9.0004.5281-.4545.8713-1.118.8766-1.8698.0062-.8842-.45-1.66-1.1394-2.1094-.0686-.7634-.1441-1.5122-.2366-2.2266-2.1912-16.9354-22.4945-45.8402-28.8453-54.5378,17.3198-7.8252,29.8812-18.3497,38.2711-27.2102,2.3071-2.4365,4.3826-4.8279,6.249-7.1272,21.1099,69.9722,60.3191,90.959,73.3945,97.9553.5439.291,1.0459.5586,1.5029.8076,11.4932,6.251,61.6436,28.0801,80.0703,32.5967,11.2207,2.751,13.0059,6.0293,12.8838,6.8184-.1348.3311-.1973.6885-.1826,1.0479.1396,3.3027-1.4297,6.5742-1.4424,6.6016ZM1231.6709,1145.9531c-.0078.167.001.3359.0264.499.1094.7246.0576,1.6943-.0977,2.1104-.7373.085-1.4014.4941-1.8086,1.1201l-.4331.6659c-2.501-1.2103-5.6274-2.2809-9.3843-3.202-16.7988-4.1182-66.4414-25.373-78.873-32.1338-.4658-.2539-.9785-.5273-1.5322-.8242-12.83-6.8643-51.7256-27.6829-71.9819-98.4396,6.6001-9.0342,9.5233-15.7018,9.6909-16.0897.2656-.6162.2725-1.3135.0186-1.9346-.0602-.1479-1.2027-2.9485-3.1827-7.8125.9722-.615,2.2567-1.4799,3.7495-2.6089,5.2749,18.4792,29.091,98.5251,48.5475,108.6763.0752.0391.1514.0742.2295.1055.2559.1016,25.8047,10.3066,51.5449,21.6748,1.7834.7876,3.5008,1.5518,5.1678,2.2977.303.2369.6647.3975,1.0598.4742,40.3909,18.1277,46.4286,23.8997,47.2587,25.4214Z"/>
  <path d="M1497.7559,709.8643c-15.8408-5.27-31.8135,6.4185-41.4766,19.1196-19.334,25.4175-27.0742,59.2729-20.7041,90.5659,2.0771,10.2021,5.5898,20.127,8.9863,29.7246,3.7959,10.7275,7.7217,21.8203,9.5322,33.1084,4.1719,26.0078-3.2568,53.6104-19.8711,73.8389-6.6797,8.1318-14.9727,15.3711-22.9922,22.3721-13.583,11.8564-27.6279,24.1162-34.4873,41.2109-4.2617,10.6191-5.2842,21.9814-6.2725,32.9697l-5.6582,62.8896c-.123,1.375.8906,2.5898,2.2666,2.7139.0762.0068.1514.0098.2266.0098,1.2793,0,2.3701-.9775,2.4873-2.2764l5.6582-62.8896c.9561-10.6279,1.9443-21.6172,5.9326-31.5557,6.4111-15.9785,19.3916-27.3096,33.1338-39.3057,8.1738-7.1348,16.626-14.5127,23.5684-22.9648,17.5098-21.3184,25.3398-50.4043,20.9453-77.8037-1.8828-11.7373-5.8857-23.0469-9.7559-33.9854-3.3398-9.4365-6.793-19.1943-8.7998-29.0547-6.0879-29.9014,1.3086-62.2529,19.7832-86.5405,8.6162-11.3247,22.5752-21.8467,35.918-17.4028,7.4375,2.4756,13.5254,9.5981,16.2852,19.0527,2.5732,8.8145,2.2148,18.3076,1.8682,27.4873l-2.3975,63.4961c-.5947,15.7607-1.21,32.0576-4.6543,47.6387-3.4551,15.6348-9.7998,30.7285-15.9355,45.3252-13.6592,32.4912-27.7832,66.0879-50.0049,94.1426-1.8877,2.3828-3.877,4.7793-5.8018,7.0967-5.7637,6.9434-11.7236,14.1221-16.1074,22.2949-7.4805,13.9453-10.002,30.2568-12.2266,44.6475-.2109,1.3643.7246,2.6416,2.0889,2.8525,1.3633.207,2.6416-.7236,2.8525-2.0889,2.2686-14.6777,4.6152-29.8564,11.6914-43.0479,4.1465-7.7295,9.9424-14.7119,15.5488-21.4639,1.9424-2.3398,3.9502-4.7588,5.874-7.1865,22.6465-28.5908,36.9053-62.5088,50.6943-95.3096,6.2217-14.8018,12.6562-30.1074,16.209-46.1846,3.541-16.0195,4.1641-32.5459,4.7676-48.5273l2.3975-63.4961c.3623-9.5791.7363-19.4844-2.0654-29.0781-3.2188-11.0293-10.5107-19.4019-19.5049-22.3955Z"/>
  <path d="M555.5386,626.187c-6.6899,0-12.1328,5.4424-12.1328,12.1323s5.4429,12.1323,12.1328,12.1323,12.1323-5.4424,12.1323-12.1323-5.4424-12.1323-12.1323-12.1323ZM555.5386,645.4517c-3.9331,0-7.1328-3.1997-7.1328-7.1323s3.1997-7.1323,7.1328-7.1323,7.1323,3.1997,7.1323,7.1323-3.1997,7.1323-7.1323,7.1323Z"/>
  <path d="M670.8267,518.9448c10.6284,0,19.2749-8.6465,19.2749-19.2749s-8.6465-19.2749-19.2749-19.2749-19.2744,8.6465-19.2744,19.2749,8.6465,19.2749,19.2744,19.2749ZM670.8267,485.395c7.8711,0,14.2749,6.4038,14.2749,14.2749s-6.4038,14.2749-14.2749,14.2749-14.2744-6.4038-14.2744-14.2749,6.4033-14.2749,14.2744-14.2749Z"/>
  <path d="M685.1016,583.0898c0,4.0015,3.2554,7.2568,7.2568,7.2568s7.2568-3.2554,7.2568-7.2568-3.2554-7.2568-7.2568-7.2568-7.2568,3.2554-7.2568,7.2568ZM692.3584,580.833c1.2446,0,2.2568,1.0122,2.2568,2.2568s-1.0122,2.2568-2.2568,2.2568-2.2568-1.0122-2.2568-2.2568,1.0122-2.2568,2.2568-2.2568Z"/>
  <path d="M1164.6475,802.9043c5.7344,0,10.4004-4.666,10.4004-10.4004s-4.666-10.4004-10.4004-10.4004-10.3994,4.666-10.3994,10.4004,4.665,10.4004,10.3994,10.4004ZM1164.6475,787.1035c2.9775,0,5.4004,2.4229,5.4004,5.4004s-2.4229,5.4004-5.4004,5.4004-5.3994-2.4229-5.3994-5.4004,2.4219-5.4004,5.3994-5.4004Z"/>
  <path d="M1121.6436,702.4102c11.7207,0,21.2568-9.5356,21.2568-21.2563s-9.5361-21.2568-21.2568-21.2568-21.2568,9.5356-21.2568,21.2568,9.5361,21.2563,21.2568,21.2563ZM1121.6436,664.897c8.9639,0,16.2568,7.293,16.2568,16.2568s-7.293,16.2563-16.2568,16.2563-16.2568-7.2925-16.2568-16.2563,7.293-16.2568,16.2568-16.2568Z"/>
  <path d="M1192.7246,702.4102c5.6992,0,10.3359-4.6367,10.3359-10.3359s-4.6367-10.3354-10.3359-10.3354-10.3359,4.6362-10.3359,10.3354,4.6367,10.3359,10.3359,10.3359ZM1192.7246,686.7388c2.9424,0,5.3359,2.3936,5.3359,5.3354s-2.3936,5.3359-5.3359,5.3359-5.3359-2.3936-5.3359-5.3359,2.3936-5.3354,5.3359-5.3354Z"/>
  <path d="M1064.5605,501.1187c5.7129,0,10.3613-4.6484,10.3613-10.3618s-4.6484-10.3618-10.3613-10.3618-10.3623,4.6484-10.3623,10.3618,4.6484,10.3618,10.3623,10.3618ZM1064.5605,485.395c2.9561,0,5.3613,2.4053,5.3613,5.3618s-2.4053,5.3618-5.3613,5.3618-5.3623-2.4053-5.3623-5.3618,2.4053-5.3618,5.3623-5.3618Z"/>
  <path d="M1469.8613,661.7681c5.2236,0,9.4736-4.25,9.4736-9.4741s-4.25-9.4741-9.4736-9.4741-9.4746,4.25-9.4746,9.4741,4.25,9.4741,9.4746,9.4741ZM1469.8613,647.8198c2.4668,0,4.4736,2.0073,4.4736,4.4741s-2.0068,4.4741-4.4736,4.4741-4.4746-2.0073-4.4746-4.4741,2.0068-4.4741,4.4746-4.4741Z"/>
  <path d="M1219.7168,389.6216c6.9971,0,12.6895-5.6919,12.6895-12.6885s-5.6924-12.689-12.6895-12.689-12.6885,5.6924-12.6885,12.689,5.6924,12.6885,12.6885,12.6885ZM1219.7168,369.2441c4.2402,0,7.6895,3.4492,7.6895,7.689s-3.4492,7.6885-7.6895,7.6885-7.6885-3.4492-7.6885-7.6885,3.4492-7.689,7.6885-7.689Z"/>
  <path d="M884.1665,365.3413c4.7969,0,8.6997-3.9028,8.6997-8.6997s-3.9028-8.6992-8.6997-8.6992-8.6992,3.9023-8.6992,8.6992,3.9023,8.6997,8.6992,8.6997ZM884.1665,352.9424c2.04,0,3.6997,1.6597,3.6997,3.6992s-1.6597,3.6997-3.6997,3.6997-3.6992-1.6597-3.6992-3.6997,1.6597-3.6992,3.6992-3.6992Z"/>
</svg>