<?xml version="1.0" encoding="UTF-8"?>
<svg xmlns="http://www.w3.org/2000/svg" version="1.1" xmlns:xlink="http://www.w3.org/1999/xlink" viewBox="0 0 2000 1500">
  <defs>
    <style>
      .cls-1 {
        fill: none;
      }

      .cls-2 {
        fill: #231f20;
      }

      .cls-3 {
        clip-path: url(#clippath);
      }
    </style>
    <clipPath id="clippath">
      <rect class="cls-1" y="0" width="2000" height="1500"/>
    </clipPath>
  </defs>
  <!-- Generator: Adobe Illustrator 28.7.3, SVG Export Plug-In . SVG Version: 1.2.0 Build 164)  -->
  <g>
    <g id="Layer_1">
      <g id="Layer_2">
        <g class="cls-3">
          <path class="cls-2" d="M795.7,1450.7c-169.8,0-336.6-13.9-478.6-40.4-76.1-14.2-142.2-31.7-191.1-50.5-49.9-19.2-80.9-39.1-91.9-59-8.3-14.9-9.3-27.9-2.9-38.7,11.2-19.1,44-30.7,103.3-36.6,50.7-5.1,112-5.1,171.3-5.1h17.7c136.2,0,177.3,0,344-36.7,53.2-11.7,96.9-26.4,126.4-42.6,24.5-13.4,38.5-27.6,38.2-39-.3-10-12.1-17.8-32.6-21.2-29.5-4.9-78.7-2.6-141.1.2-85.5,3.9-192,8.8-314.5-.2-76.2-5.6-148.6-22.9-209.4-50-49.1-21.9-89.1-49.6-110-76.1-10.3-13.1-14.9-24.8-13.4-33.8,6.4-38.2,136.8-43.1,249.8-43.1h13c40.2,0,102.4,0,164.3,1.2-12.7-19.9-26.2-49.2-40-92.3-22.8-71.3-23-153.9-.6-232.6,11.5-40.4,28.5-78.3,50.6-112.7,23.4-36.4,52.1-68,85.2-93.9,67.9-53.2,147-84.6,228.8-90.8,46.4-3.6,93.2,1.1,138.9,13.5,1.1-1.1,2.2-2.2,3.3-3.1,4.5-3.7,5.4-5.5,5.7-6.1-1.6-.9-7.8-.8-11.2-.7-7.1.2-12.3.3-13.5-3.1-1-2.9,1.7-5.5,4.8-7.9,8.5-6.6,18.5-10.1,28.1-13.4,12.8-4.4,24-8.3,28.3-18.7,2.6-6.2,2.8-11.8,2.9-16.6.2-5.2.3-9.7,3.7-12.8,3.2-2.9,8.8-3.9,18.5-3.3,9.6.6,23.5,2.8,38.2,5,24.8,3.8,62.2,9.6,67.4,4.3.9-.9,1-1.6,1-2.1,0-2.6-4.2-6.2-7.9-9.4-5.7-5.1-12.2-10.8-8.4-16.9,3.6-5.7,16.8.9,63.4,28.3,14.2,8.3,28.9,17,40.6,23.1,16.6,8.7,20.7,8.9,21.7,8.6,2-2.4,3.2-5,4.3-7.4,1.6-3.3,3-6.5,6.3-7.4,2.9-.8,6.4.3,11.7,3.9,11.5,7.7,47.6,55.6,77.8,96.4,2.6,3.5,4.6,6.2,5.8,7.9,10.5,14,16.1,17.1,17.6,16.7.3,0,.7-.8,1-2.2,2-11.1-9.8-106.6-37-141.5-16.9-21.8-32.7-33.8-44.2-42.6-7.9-6-13.5-10.3-16.4-15.3-.6-1-2.4-4.1-.6-6.5,2.1-2.9,6.9-2,13-.8,2.8.5,9.1,1.7,10.4.8-.8-2.5-10.8-9.4-16.9-13.6-13.7-9.4-22.1-15.5-21.7-21.1,0-1.4.8-3.3,3.5-4.6,8.9-4.3,15.2-2.4,19.8-1,1.4.4,2.7.8,3.8,1-1.9-1.9-5-4.6-7.7-6.8-11.8-10.1-20.8-18.3-20.7-25.2,0-2.2,1-4.1,2.8-5.5,6.8-5.4,16.9-.4,27.7,4.9,9.8,4.9,20,9.9,25.7,5.6,5.1-3.9,3.9-9.6,1.5-18-2-6.9-4.5-15.5,3.8-19.2,4.2-1.9,12.9-1.7,40.7,21.3,16.6,13.8,32.9,29.8,37.5,34.4,6.4,6.4,16.8,29.1,24.7,53.9,4.5,14,14.4,48.8,10.1,69.3-.3,1.6-.6,2.9-.8,4,.3-.5.6-1,.9-1.4,4.8-7.4,8-11.9,11.6-11.3,1.2.2,2.8,1,3.6,3.8,2.2,7.7-5.3,40.1-16,85.1-3,12.7-5.8,24.3-7.7,33,5-10.5,12.2-26.9,18.8-42,8.5-19.4,18.2-41.3,26-57.8,13.2-27.7,16.1-29.4,19-28.7,6.3,1.4,6,8.1,5.8,12v2c2.5-3.3,7.4-14.2,11.7-23.9,9.7-21.5,22.9-51,37-66.4,7.8-8.5,11.8-11,14.9-9.3,3.9,2.1,2.4,8.6-.3,19.2h0c1.5-2.5,3.3-5.3,5-8.1,10.5-17.3,26.4-43.5,38.8-51.5,4.8-3.1,9.6-5.6,12.4-3.2,3,2.7.6,8.3-3.8,17,1-.8,2-1.7,3-2.6,11.3-10,28.4-25.1,42.6-30.2,4.8-1.7,7.8-.3,9.4,1.2,8.2,7.5,1.6,35-5.8,62.6-1.3,4.9-2.5,9.2-2.7,10.7,1.4.9,7.2.6,10.7.5,6.9-.3,13.5-.5,16.5,2.5,1.1,1.1,1.7,2.6,1.6,4.2-.2,4.8-8.5,11.1-27.3,24.3-7.7,5.4-15.6,10.9-21.4,15.8-8.7,7.2-8.4,9.4-8.4,9.4,1.5,2.9,6,3.4,10.4,3.9s8.6.9,10.4,4.1c1.2,2,1.1,4.5-.2,7.7-2.8,6.7-22.8,19.1-55.6,38.8-22.2,13.4-52.7,31.7-54.1,36.9,0,.3,0,.5,0,.7,1.5,0,5.5-1.2,8-2,6-2,11.2-3.7,14-.9,2.3,2.3,1.2,5.9.8,7.1-2.3,7.3-19.4,25.3-39.2,46.1-22,23.1-46.8,49.3-50.3,60.1,3,.3,15.9-2.3,71.1-31.1,35.8-18.7,75.4-41.1,96.8-53.1,5.4-3,9.7-5.5,12.4-7,9.6-5.3,20.8-12.6,31.7-19.7,23.3-15.2,32.5-20.8,36.8-19.6,1,.3,1.8,1,2.3,1.9,1.6,3.3-.2,7.8-2,12-.6,1.6-1.7,4.1-1.8,5.3h.2c2.1-.2,13.8-5.4,26.2-10.9,33.3-14.8,83.7-37.2,103.8-35.2,9,.9,12.4,2.3,13,5.2.7,3.5-3.3,5.7-8.9,8.8-3.8,2.1-9.3,5.2-10.6,7.7,4.7,2.3,29,1.6,46.9,1.1,31.9-.9,51.6-1.1,56.8,3.3,1.8,1.5,2.7,3.3,2.5,5.1-.2,3.7-4.2,6.3-9.2,9.5-8.8,5.7-15.3,10.6-12.7,18.5,2.5,7.8,8.1,17.1,13.4,26.1,7.7,13.1,14.4,24.3,13,31.6-.4,2.3-1.9,3.2-2.8,3.5-4.1,1.5-10.3-3.3-22.6-13.3-11.1-9-26.2-21.3-33-19.5-4.9,1.3-5,3.8-4.1,11.1.9,6.6,2,15.5-6.5,22.2-10.1,7.9-32-1.4-51.4-9.6-7.9-3.3-18.6-7.9-21-7.2-.9,1-.8,5.6-.7,8.6.2,7.1.4,15.9-5.4,21.2-3.8,3.5-9.5,4.7-17.3,3.8-13.6-1.6-28.7-7.4-42.1-12.5-16.1-6.1-31.3-11.9-39.2-8.9-6,2.3-6.7,7.2-7.2,14.9-.4,6.9-1,15.4-10.8,17.6-6.9,1.6-14.1-1.7-22.5-5.5-13.1-5.9-29.3-13.3-53.1-7.5-39.1,9.5-109.9,39.3-120.3,47.8,3.5,1.7,16.3,4.2,41.7,5.3,25.3,1,53.7.2,75.9-2.2,24.6-2.6,40.1-6.1,50.3-8.4,12.4-2.8,18.1-4,22.9.3,5.4,4.9,1.3,10.1-1.1,13.2-2.9,3.7-3.3,4.7-2,6.1,3.6,2.7,39.8,5.7,66.2,7.9,31.8,2.6,61.9,5.1,69.1,8.5,1.2.6,4.9,2.3,5.1,5.7.2,4.1-4.8,7.1-10.1,10.2-2.3,1.4-6.5,3.9-7.4,5.2,3.9,1.8,23.2,2.1,37.5,2.4,34.4.6,50.9,1.5,53.8,7.1,1.1,2.2,1.3,4.1.6,5.9-1.3,3.1-4.9,4.4-8.5,5.5-2.6.9-5.6,1.8-5.8,3.2,1.9,3,18.5,11.2,30.7,17.1,24,11.8,38.8,19.3,40.4,25.2.7,2.4,0,4-.7,4.9-2.2,2.8-6.9,2.7-12.9,2.5-9.2-.3-16.3,0-17.7,5.4-1.3,5.4,2,23.9,5.2,41.8,6.5,36.3,10.3,60.7,3.5,67-1.9,1.8-3.8,1.8-5.1,1.6-6.1-1.2-11.5-12.4-19.8-30.7-6-13.2-14.2-31.3-19.9-32.6-5.6-1.3-12.9,12.2-18.8,23-7.1,13-13.8,25.3-22,25.3s-13.9-14.9-23.9-41.2c-8.8-23-19.6-51.5-31.1-56.5-9-4-12.6,2-18,12.9-4.7,9.4-10.6,21.1-24.1,17.1-12.3-3.6-25.2-21.1-37.6-38-12-16.4-24.5-33.3-34.4-34.6-9.5-1.3-13.6,4.9-17.6,10.8-2.7,4-5.2,7.7-9.2,8.3-2.6.4-5.3-.6-8.3-3.1-6.8-5.6-9.9-18.6-12.9-31.3-3.4-14.5-7-29.5-15.2-28.7-7.3.7-18.1,6.8-28.5,12.7-15.4,8.7-30,17-38.3,11.4-5.1-3.5-9-9.5-12.7-15.3-5.8-9-11.3-17.5-20.7-17.4-2.4,0-9.6.2-10.9,2.1-1.2,1.8,1.1,7.5,3.9,14.7l.7,1.7c6.6,17,4,29.6-8,38.5-5.7,4.2-16.5,4.3-26.3.2-1.9-.8-3.7-1.7-5.3-2.7,1.6,4.8,2.3,9.9,1.8,14.6,5.3,4.3,9.8,9,12.3,14.3,7.1,15.1,18.9,47.3,28.3,73.3,5.4,14.9,10.1,27.7,12.4,33,4.9,11.5,44.3,84.1,86.2,157.8,19.4-11.9,40.4-22.1,63.1-28.9,56-16.8,68.5-13,89.2-6.6,15,4.6,35.6,11,83.2,11.1,69,.2,104.3,8.3,111.1,25.7,4.4,11.2-3.1,25.7-23,44.3-17.9,16.7-50.6,36.7-90.1,55.2,52.5,2.7,103.7,7,147.7,11.5,1.4,0,2.4,1.4,2.2,2.7h0c0,1.4-1.4,2.4-2.7,2.2-46.6-4.7-101.3-9.4-157.1-11.9-43.2,19.4-93.5,36.5-141.2,45.5,22.7,47,39.1,86.9,48.9,110.9l2.8,6.8c15.3,37.2,105.4,156.9,150.6,200,26.8,25.6,46.2,46.5,60.3,61.8,10.1,10.9,18.3,19.8,25.3,26.2s1.1,2.5.2,3.5h0c-.9,1.1-2.5,1.2-3.6.2-7.2-6.5-15.4-15.4-25.6-26.5-14.8-16.1-33.3-36-60.1-61.6-46.6-44.4-135.9-163.2-151.8-201.7l-2.8-6.8c-9.9-24.1-26.4-64.4-49.4-111.9-18.8,3.3-37.2,5.4-54.5,5.7-7.1.2-14.3,0-21.5,0,17.2,35.4,36,72.8,57.1,113,40.6,77.3,84.4,123.9,116.4,158,37.7,40.2,58.5,62.3,27.9,92.3-31.6,31-161.5,37.8-276.1,43.9-73.8,3.9-143.4,7.6-152.6,17.6-2.4,2.6-3.3,4.8-2.8,6.5,2.2,6.6,23.7,10.8,42.7,14.6,24.2,4.8,49.2,9.8,59.4,20.9,3.2,3.6,4.2,6.9,3,9.8-2.8,6.7-16.1,11.3-75.4,15.2-49.6,3.2-127.6,5.7-245.7,9.4-58.1,1.8-123.8,3.9-201,6.5-34.9,1.2-69.8,1.8-104.6,1.8l-.4.3ZM299.6,1225.4c-57.3,0-116,.2-164.7,5-56.7,5.7-89.3,16.9-99.5,34.2-5.5,9.3-4.5,20.3,3,33.8,21.3,38.3,125.8,78.4,279.6,107,170.7,31.8,377.5,45.5,582.1,38.6,77.1-2.6,142.9-4.7,201-6.5,118-3.7,196-6.2,245.6-9.4,18.5-1.2,67.8-4.3,71.1-12.1.5-1.3-.8-3.2-2.1-4.5-9-9.9-34.3-14.9-56.7-19.4-24.3-4.8-43.4-8.6-46.5-17.9-1.2-3.5,0-7.4,3.8-11.4,10-10.9,65.8-14.4,156-19.2,108.1-5.7,242.5-12.8,272.8-42.5,27.1-26.6,9.8-45-28-85.3-32.2-34.3-76.3-81.2-117.2-159.1-21.6-41.1-40.8-79.3-58.3-115.5-43.2-1.5-82-8.6-82.8-21.4-.4-6.5,7.8-12,25.8-17.3,9.3-2.7,21-5.3,35-7.8-10.2-21.9-19.7-43.1-28.8-63.8-9.7,8.2-18.7,16.2-27,23.6-21.8,19.5-37.6,33.5-49,36-16.1,3.6-80.7-2-149.1-7.9-40.9-3.5-83.2-7.2-116.9-9.1h-3.7c1.9,1.8,3.6,3.8,4.8,6.3,5.5,10.8,2.5,25.8-8.2,41.2-3.1,4.5-7,8.9-11.5,13.3,7.3,8.1,17.8,16.4,31.1,27,3.1,2.5,6.3,5,9.8,7.6,33.1,25.5,78.5,60.5,84.3,128.5,6,71.5-32.4,157.4-87.5,195.7-33.1,23-65.7,31.2-87.4,22.1-11.9-5-19.3-14.9-21.6-28.5-4.3-26.1,29.4-44.5,62.1-62.3,16.8-9.2,32.7-17.8,41.8-26.8,26.8-26.4,55.4-66.6,39.3-108.7-15.5-40.4-62-53.7-100.3-52.6-25.5.7-46.3-6.6-53-18.4-2.6-4.6-4.4-12.1,1.9-21.9,7.2-11.3,23.2-23.3,40.2-36,11.4-8.5,23-17.2,32.5-26-8.8-11-12.2-22.4-8.7-38,2.9-12.7,9.7-19.6,16.5-23.3-.8,0-1.7-.2-2.6-.2-2.5,0-4.9,0-7.3-.2-3.8,0-7.3-.2-10.6-.2h-13.5c-21.1,6.8-46.4,12.9-74,17.7-33.9,5.9-71.8,9.6-78.6,5.3-1.2-.8-1.9-2-1.9-3.2,0-2.4,2.5-3.9,4.8-5.1,25.2-13.1,70.2-19,149.2-19.7,13-4.3,25-9.1,35-14.5,4.4-2.4,8.1-4.3,11.9-6.2,8.7-4.3,38.5-26.1,54.8-127.4,2.9-17.9,4.2-36.8,3.8-56.5-1.6,4-3.5,6.1-5.9,6.5-5.2.8-8.8-6.3-12.4-13.2-.7-1.4-1.4-2.8-2.1-3.9-5.1,8-17.2,45.3-23.2,63.9-3.5,10.8-6.2,19.3-7.7,23-1.4,3.7-3.5,5.8-6.2,6.3-5.2,1.1-10.5-4.2-16.1-9.9s-5-5-7.4-6.8c-2.6,1.4-7.3,13.9-10.9,23.1-8.2,21.4-18.4,48.1-33.7,51.7-16.6,3.9-21.7-6-25.4-13.3-2.6-5.1-4.4-8.3-8.1-8.7h-.2c-5.3,0-10.8,23.7-14.1,37.9-3.5,14.9-6.7,29-11.2,35.3-2.8,3.9-5.5,5.6-8.5,5.4-5.3-.5-8.6-7.2-12.1-14.4-1.8-3.7-3.6-7.5-5.5-9.9-.4-.5-.6-.5-.7-.5-2.5,0-7.8,6.8-12.2,12.3-6.7,8.5-14.3,18-22.4,20.3-2.7.8-4.4-.4-5.2-1.2-5.3-5.5,0-26.5,13.5-68.7,3.7-11.6,7.1-22.5,7.2-25.3h0c-1.3.4-3.7,1.8-5.2,2.6-4.4,2.6-8.6,5-11.9,3.7-1-.4-2.4-1.4-3-3.6-.3-1.2-1.1-4.1,7.1-21.8,5-10.8,11.9-23.9,19.4-37,8.3-14.5,28.4-47.9,43-59.8-9.1,2.5-13.7,3.2-15.8.5-.8-1-1.3-2.7.3-5.3,3-4.9,19.5-18.2,46.2-39.4,20.9-16.6,52.2-41.4,55.1-47.2-1.4-1.2-8.1-1.6-10.8-1.7-6.1-.3-10.9-.6-11.9-4-.9-2.9,1.8-5.6,4.5-7.8,6.7-5.4,24-12.7,46-22,11.2-4.7,23.5-10,36.1-15.6-3.5-8.5-7.2-17-11.2-25.4-9.4,10.8-15.9,21.6-19.6,27.8-.6.9-2.3,3.8-5,3.2-3.5-.7-4.4-6-5.8-14.9-.7-4.3-2.5-15.8-4.6-16.5-7.8,2-37.4,39.2-50.3,63.1-1,1.8-3.9,7.3-8.3,6.5-6.6-1.2-9.2-15.6-12.5-39.3-1-6.8-1.9-13.2-2.8-16.6-7.5,5-34.9,56.2-38,78.3-.3,2.3-1.2,8.6-5.5,8.8-3,0-6.7-2.1-13.5-19.7-4-10.3-7.7-22.3-9.4-29.2-.2-.7-.4-1-.5-1.1-.7,0-5.6,1.5-20.2,24.6-8.6,13.6-17,29.1-20.3,35.6-4.1,8.2-8.8,8.6-11.2,8.1-7-1.3-12.2-13-13.7-31.1,0-1.3-.3-2.2-.4-2.7-1.4,1.3-4.8,5.7-11.6,20.7-5.4,11.8-11.2,26.3-15.4,36.9-3.2,7.9-5.5,13.7-6.7,16-2.3,4.6-5.5,4.7-7.2,4.3-5.9-1.2-11.4-12-13.5-22.3-.3.9-.6,1.9-.9,2.8-4.4,13.9-11.8,37.1-22.7,46.2-3.4,2.8-5.7,2.3-7.1,1.4-2-1.4-6.3-4.4,4.3-45.7,4.9-19,11.3-40,14-47.5-1.3,1-2.8,2.2-3.9,3.2-5.6,4.7-8.9,7.5-11.7,5.7-.5-.3-1.2-1-1.3-2.4-.2-8.3,40.2-78.5,72.2-102,2.5-1.8,4.3-3.2,5.6-4.3-2,.6-4.3,1.3-6.2,1.8-10.6,3.3-14.9,4.5-16.7,1.5-1.5-2.5,1.1-5.2,3.5-7.4,17.2-15.8,47.6-30.5,68.6-37.5.4-.1.8-.3,1.1-.4-1.7-.8-4.5-1.7-6.5-2.4-7.1-2.4-13.3-4.6-13.4-8.9,0-3.7,4.5-5.9,8.5-7.4,12.1-4.6,29.2-4.2,57.4-3.7,26.8.5,61.7,1.2,109.7-1.8-23-30.8-50.8-58.8-83.6-82.2-8,8.4-12.2,12.3-15.9,11.9-1.3-.2-2.5-.9-3.2-2.2-2-3.5-1.5-9.6-.9-16.6.2-2,.3-4,.5-6.1-3.3-2.1-6.7-4.1-10.2-6.1-2.4-1.4-4.8-2.7-7.2-4-6.3,2.8-13.7,6.6-20.7,10.2-21.1,10.8-34.3,17.2-40.3,14.8s-2.5-1.7-3-3.1c-1.4-4-1.7-9.2-2-14.3-.3-5.1-.8-12-2.7-13.1-.7-.4-2.1.1-2.9.5-5.7,2.8-23.8,27.2-38.2,46.8-20.8,28.1-26.5,35.3-29.9,35.6-.8,0-1.7-.2-2.3-.7-1.1-1-1.2-2.5-1.2-3.9.2-13.1,20.3-85.2,42.6-113.7-124.3-33.4-253.5-7-361.2,77.2-142.9,111.8-175.3,302.7-133.6,433.6,14.4,45,28.3,74.6,41.2,94,88.7,1.9,175.3,6.4,194.8,17.4,1.9,1.1,7.7,4.3,6.4,9-1.3,5-10,10.6-64.8,13.5-20.8,1.1-45.5,1.7-73.6,1.7s-2.2,0-3.3,0c-14.2.3-36.5.8-62.2-36.6-64.6-1.3-129.5-1.3-167.7-1.3h-13c-59,0-238.4,0-244.9,39-1.3,7.5,3.1,18.2,12.4,29.9,40.6,51.7,156.8,112.6,315.8,124.2,122.2,9,228.5,4.1,313.9.2,62.7-2.9,112.1-5.2,142.1-.2,23.4,3.9,36.4,13.1,36.8,25.9.3,13.5-14.1,28.9-40.8,43.5-29.9,16.3-74,31.2-127.7,43.1-167.2,36.8-208.5,36.8-345.1,36.8h-23.8l.9.4ZM1106,1031.3c39.2,0,85,14.6,100.9,55.9,17.2,44.6-12.5,86.6-40.4,114-9.6,9.5-25.8,18.3-42.9,27.6-31.1,16.9-63.3,34.5-59.6,57.1,2,11.9,8.4,20.4,18.6,24.7,19.8,8.3,51.4,0,82.6-21.6,53.8-37.3,91.2-121.3,85.3-191.2-5.6-65.8-49.9-100-82.3-125-3.5-2.7-6.7-5.2-9.8-7.7-13.2-10.5-23.9-19-31.6-27.5-9.7,9-21.3,17.7-32.8,26.2-16.6,12.4-32.3,24.2-39,34.7-3.9,6.2-4.5,11.8-1.8,16.7,5.7,10.1,25.2,16.5,48.5,15.9h4.2v.2ZM1544.9,936.3c7.5.2,15.5.2,23.8,0,16.7-.3,34.3-2.2,52.4-5.4-6.5-13.2-13.4-27-20.9-41.2-10.7.8-21.1,1.8-31.1,2.9-16.5,1.9-30.3,3.8-42.1,5.8,5.8,12.4,11.7,24.9,17.9,37.8h0ZM1521.8,899.3c-56.7,9.8-58.1,18.9-58,20.1.4,6.5,29.2,14.8,75.4,16.7-6-12.5-11.8-24.7-17.4-36.7h0ZM1138.5,875c-7.1,2.3-15.6,8-18.8,22.2-3.1,13.5-.3,23.5,7.5,33.4,4.1-4.1,7.7-8.2,10.6-12.3,9.6-13.9,12.5-27,7.8-36.1-1.6-3.1-4-5.5-7.1-7.2h0ZM1605.6,889.4c7.3,13.9,14.2,27.5,20.6,40.6,44.5-8.2,91.2-23.7,132.3-41.4-52.4-2.2-105.3-2.4-152.9.8h0ZM447.8,884.4c23.3,32.1,43.1,31.7,55.9,31.4h3.4c28,0,52.8-.6,73.6-1.7,17.8-1,31.9-2.3,42.1-3.9,17-2.8,17.9-5.8,17.9-5.8,0,0-.2-1.2-4-3.4-18.3-10.3-102.6-14.7-188.8-16.6h0ZM1494.8,827.5c9.4,21.5,19.3,43.5,29.9,66.3,12.8-2.1,27.4-4.1,43.7-6,9.4-1.1,19.2-2,29.1-2.8-7.4-13.8-15.2-27.9-23.5-42.1-9.8-16.9-19.9-34.5-29.9-52-18,11.4-34.5,24.1-49.4,36.6h.1ZM949.4,891.7c12.9,2.3,76.1-4.2,130.1-19.2-67.4,1.3-106.9,7.2-129.5,18.9-.2,0-.4.2-.6.3ZM1148.1,868.5h1.1c33.8,1.9,76.1,5.5,117,9.1,68,5.9,132.2,11.4,147.6,8,10.1-2.2,26.3-16.7,46.7-34.9,8.7-7.7,18.1-16.1,28.2-24.7-31.5-72-57.2-137.9-83.2-206-30.3-79.3-47.7-89.2-55.4-88-9.8,1.5-15.6,23.2-16.4,37.3-.4,6.2-.3,12.5-.2,18.5.2,13.8.4,24.7-5.2,28.5-2.5,1.7-5.7,1.8-9.6.2-7.2-2.8-9.5-2-10.3-1.3-1.6,1.5-2.2,7.2,3.9,25,12.3,35.6,17.8,56.1,11.8,62.3-1.2,1.3-3.5,2.5-7.2,1.4-4.2-1.3-8.2-3.4-11.8-5.3-3.2-1.7-7.9-4.3-9.1-3.5-.2,0-1.8,1.5-.5,11.4,1.8,13.7,1.1,29.1-6,31.4-4.3,1.4-8.9-2.4-13.6-11.1-2.5-4.6-4.8-9.5-7.1-14.3-3.5-7.3-9.3-19.6-11.9-20.1-.2,0-1.2,1-2.4,5.1-2.8,9.7-5.7,13.8-9.3,13.2-6.1-1.1-5.4-14.7-5.2-17.4,2.6-36.4.4-49.4-1.3-51.5h0c-6.1,4.2-10.4,6.8-13.1,4.3-2.5-2.3-1.9-6.8,8.1-24.4,9.1-15.9,23.6-33.9,35.3-48.3,6.9-8.5,13-16,15.9-20.6-2.2,1.2-4.9,2.8-7,4.1-10.3,6.2-15.2,8.7-18.2,6.9-.7-.4-1.9-1.5-1.8-3.8.3-5,9.1-14.6,24.7-31.2,12-12.8,25.7-27.3,30.3-36.1.7-1.3,1-2.2,1.2-2.8-5.7,1-27.1,15.5-44.7,33-20.7,20.7-55.1,84.2-63.1,120.9,1.8,26.3.8,52-3.1,76.1-16.2,100.8-45.6,125.2-57.5,131.1-3.8,1.8-7.4,3.8-11.8,6.1-6.3,3.4-13.9,6.8-22.4,10,3.1,0,6.3,0,9.8.2,2.3,0,4.7,0,7.2.2,3.8,0,7.2.8,10.3,2.1,4-1,7.4-1.2,9-1.2h.3ZM1548.5,788.3c10,17.6,20.2,35.3,30,52.1,8.7,14.9,16.9,29.7,24.6,44.2,51.4-3.6,109.1-3.1,165.8-.5,42.8-19.3,78.4-40.7,97.4-58.3,18-16.8,25.3-29.8,21.8-38.8-5.8-14.8-41.6-22.3-106.5-22.5-48.3,0-69.3-6.6-84.7-11.3-20.5-6.3-31.7-9.8-86.3,6.6-22.2,6.7-42.9,16.8-62,28.5h-.1ZM954.8,863h0ZM972.9,767.4c.8,0,1.5.2,2.2.6,1.5.9,2.2,2.5,2,4.9-.2,3.2-2.8,11.8-7.5,26.6-3.9,12.5-8.8,28-12,40.6-4.7,18.8-3.2,22.5-2.7,23h.3c6.5-1.8,13.6-10.7,19.8-18.6,6.3-7.9,11.2-14.2,16.1-14.2h0c1.3,0,3.1.4,4.7,2.4,2.2,2.8,4.2,6.9,6.1,10.8,2.3,4.8,5.5,11.4,8,11.6,1,0,2.4-1.1,4-3.3,3.9-5.5,7.2-19.7,10.4-33.5,5.3-23,10-42.8,19.7-41.8,6.5.7,9.3,6.2,12,11.4,3.8,7.4,7,13.7,19.8,10.7,12.7-3,22.8-29.3,30.2-48.6,6.2-16.3,9.7-24.8,14.3-26.2,1.4-.4,2.9,0,4.1.8,2.7,2,5.4,4.7,8,7.4,4,4,9,9,11.5,8.5,1.2-.2,2.1-2.2,2.5-3.3,1.4-3.6,4.3-12.4,7.6-22.7,17.3-53.6,23-67.6,27.7-68.5,1.2-.2,2.4.3,3.1,1.3,1.1,1.4,2.3,3.7,3.7,6.4,1.5,2.8,5.4,10.4,7.2,10.6,0,0,2.6-1,4.9-15.8.2-1.6.6-3.3.9-5-2.8-40.5-12.2-83.1-28.4-124.6-12.5,5.6-24.8,10.8-36,15.6-20.7,8.8-38.6,16.4-44.8,21.3-1.2,1-2,1.7-2.4,2.2,1.6.4,4.7.5,6.9.7,6.8.4,13.9.7,15.5,5.5,1.6,4.7-8,13.5-57,52.4-20,15.9-40.7,32.2-44.6,37.5,3.1-.2,9.4-2,12.7-3,7.4-2.1,10-2.9,11.1-.3,1.2,2.6-1.4,4.3-7.3,8-9.5,5.9-26,28.2-44,59.6-17.7,30.7-26.8,52.5-26.4,55.8,0,0,0,.2,0,.3,1.2.3,5.4-2.2,7.5-3.4,3.3-1.9,6.1-3.6,8.4-3.6h.1ZM1351.3,527c16.1,0,35.4,29.9,58.8,91.3,25.9,67.6,51.4,133.1,82.6,204.5,14.8-12.3,31.2-24.9,49-36.2-42.4-74.5-81.5-146.6-86.6-158.5-2.3-5.4-7-18.3-12.5-33.2-9.4-25.8-21.2-58-28.2-72.9-1.8-3.9-5.1-7.6-9-11-.3,1-.8,1.9-1.3,2.8-5.4,10.1-22.6,14.6-38.2,10-15.7-4.6-24.4-16.9-23.3-33,2.7-39.3,25.3-67.1,46.3-74.2,17.8-6,32.6,3.6,35.9,10.7,1.8,3.9.3,6.6-1.8,7.9-2,1.2-5.2,1.6-9.1,2.1-6.8.8-15.2,1.8-19.7,7.5-2.9,3.7-3.8,9.2-2.8,16.4,2.5,17.7,14,25,20.7,27.8,9.1,3.8,17.8,3.1,21.4.4,10.1-7.5,12.1-17.9,6.4-32.7l-.7-1.7c-3.9-9.9-6-15.4-3.4-19.3,2.3-3.4,7.4-4.1,15-4.3,12.3-.2,19.1,10.3,25.1,19.7,3.6,5.6,7.1,11,11.3,13.9,5.7,3.9,20.2-4.3,33-11.6,10.9-6.1,22.1-12.5,30.5-13.3,12.5-1.2,16.6,15.9,20.5,32.5,2.8,11.8,5.7,24.1,11.2,28.5,1.8,1.5,3.3,2.1,4.4,2,1.9-.3,3.8-3.1,5.8-6.1,4.2-6.2,9.8-14.6,22.4-12.9,12,1.6,24.5,18.6,37.7,36.6,11.9,16.2,24.3,33,35,36.2,8.9,2.6,12.9-3.8,18.3-14.5,4.8-9.5,10.7-21.3,24.5-15.2,13.4,5.8,23.7,33,33.8,59.3,6.1,16,14.5,38,19.2,38s12.1-12.6,17.7-22.7c7.7-14.2,15-27.6,24.3-25.5,8.1,1.8,15.5,18.1,23.3,35.4,5.2,11.4,12.3,27,16.2,27.8,0,0,.3,0,.7-.3,5.4-5-.8-39.6-5-62.5-3.6-20.1-6.7-37.5-5.1-43.9,2.5-9.8,14.2-9.5,22.7-9.2,3.1,0,7.7.2,8.7-.5v-.5c-1.2-4.2-24.1-15.4-37.8-22.1-24.8-12.1-33.5-16.8-33.5-21.4s5.2-6.8,9.3-8.1c2.1-.7,5-1.7,5.4-2.7,0-.3,0-.9-.4-1.7-.2-.3-2.3-2.1-16.6-3.2-9.5-.7-21.4-.9-32.9-1.1-31.4-.5-40.1-1.2-42-5-2.4-4.9,3.9-8.6,9.4-11.9,2.5-1.5,7.2-4.3,7.6-5.6,0-.2-.6-.7-2.2-1.5-6.4-3-38.8-5.6-67.4-8-45.6-3.8-66-5.8-69.4-9.5-4.5-4.7-.8-9.5,1.7-12.6,3.3-4.1,3.2-5,1.7-6.4-2.8-2.5-6.7-1.8-18.5.8-10.4,2.3-26,5.8-50.8,8.4-23,2.5-52.2,3.3-78.1,2.2-12-.5-22.4-1.4-30.1-2.6-11.8-1.9-14.3-3.9-15.2-5.8-.7-1.5-.5-3.1.7-4.4,7.8-8.6,84.3-40.5,123.7-50.1,25.5-6.2,43.3,1.9,56.3,7.8,7.8,3.5,14.1,6.4,19.3,5.2,5.8-1.3,6.4-5.6,6.9-13,.5-7,1-15.6,10.4-19.3,9.7-3.7,25,2.1,42.8,8.9,13.7,5.2,27.9,10.6,40.9,12.2,6.2.8,10.7,0,13.3-2.5,4.1-3.7,3.9-11,3.8-17.4,0-5.5-.2-10.3,2.6-12.7,3.4-2.8,10.9.1,26.1,6.6,16.3,6.9,38.6,16.4,46.3,10.3,6.3-4.9,5.5-11.1,4.7-17.6-.8-6.3-1.8-14.1,7.8-16.6,9.2-2.4,23.5,9.2,37.4,20.5,5.8,4.7,14.4,11.7,17.4,12.4.7-5.6-6-16.9-12.4-27.8-5.5-9.2-11.1-18.8-13.8-27.1-4-12.2,7.3-19.5,14.8-24.3,2.7-1.8,6.9-4.4,7-5.6,0,0,0-.4-.8-1-4-3.4-32.6-2.7-53.4-2.1-33.1.9-47.9.9-51.4-3.2-.8-.9-1.1-2.1-.9-3.2.9-4.9,7.5-8.6,13.3-11.8,1.8-1,4.2-2.4,5.6-3.4-1.2-.4-3.4-.9-7.7-1.3-18.9-1.9-70.4,21-101.3,34.8-16.8,7.5-25,11.1-27.8,11.3-2.2.2-3.8-.4-4.8-1.8-1.9-2.5-.4-6.2,1.3-10.4.9-2.2,2.2-5.4,2.2-7.1-4.7,1.1-20.4,11.3-32,18.9-10.9,7.1-22.2,14.5-32,19.9-2.7,1.5-6.9,3.9-12.3,6.9-21.7,12.3-62.2,35.1-98.4,54-20.2,10.5-36.5,18.4-48.4,23.5-19.9,8.5-24.8,8-27.1,6.2-.7-.5-2.1-2.1-1.2-5,3.5-11.8,27.9-37.5,51.6-62.4,17.8-18.7,36.1-38,38.1-44.2.3-1.1.4-1.7.4-2-1.4-.4-6.2,1.2-8.8,2.1-5.7,1.9-10.5,3.5-13.2,1-1.4-1.3-1.7-3.2-1.1-5.7,1.8-6.8,22.6-19.6,56.4-39.9,22.8-13.7,51.2-30.8,53.6-36.4.9-2.3.7-3.1.6-3.2-.6-1-4.1-1.4-6.7-1.7-5.2-.6-11.6-1.3-14.3-6.7-3.3-6.7,9.8-16.4,31.4-31.5,9.8-6.9,24.7-17.3,25.2-20.5q0-.3,0-.4c-1.5-1.5-8.3-1.2-12.8-1.1-6.8.3-12.2.5-14.7-2.2-.9-1-1.3-2.2-1.2-3.7.2-1.7,1.1-5.2,2.8-11.7,4.2-15.4,13.9-51.5,7.3-57.6-.3-.3-1.3-1.2-4.3,0-13.3,4.8-30.7,20.1-41,29.2-9.6,8.4-11.3,10-13.6,8.3-.7-.5-1.7-1.7-.8-4.1.7-1.9,2-4.3,3.3-6.9,1.6-3.2,4.4-8.7,4.9-11.3-.9.3-2.7,1.1-5.9,3.2-11.4,7.4-27,33-37.2,49.9-9.7,16-11.1,18-13.8,17.3-1-.2-2.1-1.1-2.1-2.9,0-2.3.9-6.2,2-10.6.9-3.6,2.5-10.1,2.4-12.6-1.1.6-3.6,2.4-8.6,7.9-13.5,14.8-26.6,43.8-36.1,65.1-8.8,19.6-12.1,26.5-15.4,27.5-2,.6-3.3,0-4.1-.6-1.9-1.5-1.8-4.3-1.7-7.2.2-3.9,0-5.9-1.3-6.7-5.7,5.5-26.2,52.2-40,83.4-6.4,14.5-12.4,28.2-17,38.2-2.5,5.3-4.4,9.2-5.8,11.9-1.8,3.3-3.3,6.1-5.8,5.4s-2.1-3.6-1.9-4.6c1.1-7.6,5.2-25,10-45,7.5-31.3,17.6-74,16.1-82.2-1.8,1.6-4.6,6-6.3,8.6-3.9,6-5.8,9-8.7,7.8-2.5-1.1-2.6-3.9-.5-14.1,6.6-31.4-22.3-107.6-33.4-118.7-34.9-34.9-65.4-57.9-72.6-54.7-3.9,1.7-3.3,5.2-1,13.3,2.2,7.7,5,17.2-3.3,23.4-8.2,6.1-19.7.4-30.9-5.1-8.8-4.4-18-8.9-22.3-5.5-.8.6-.9,1.2-.9,1.7,0,5.1,11.8,15.3,18.9,21.3,8.6,7.3,11.6,10,10.9,12.9-.3,1.2-1.1,2.1-2.4,2.4-3.3.9-6.4,0-9.3-.9-4.5-1.3-9.1-2.7-16.2.7-.6.3-.7.5-.7.5-.4,2.8,13.1,12.1,19.6,16.6,13.1,9,19.9,13.9,19,18.6-.2,1.3-1,2.4-2.1,3.2-3.1,2.1-8.5,1.1-14.2,0-2.4-.5-5.9-1.1-7.5-1,0,.2.2.5.5.9,2.4,4.1,7.8,8.2,15.2,13.8,11.8,8.9,27.8,21.2,45.1,43.5,28.6,36.8,40.1,133.7,37.9,145.5-.8,4.4-3,5.8-4.8,6.2-1.8.4-7.5,1.8-22.7-18.6-1.3-1.7-3.3-4.4-5.8-7.9-17.6-23.8-64.3-87.1-76.6-95.2-4.9-3.3-6.9-3.4-7.6-3.2-1.1.3-2,2.3-3.1,4.7-1.2,2.5-2.6,5.7-5.2,8.6-4.6,5.4-20.3-2.5-68.5-30.8-21.6-12.7-51.1-30-56.8-29.5-.9,2.3,2.6,5.7,7.6,10.1,4.8,4.3,9.4,8.3,9.6,13,0,2.1-.8,4-2.5,5.8-6.5,6.5-32.6,3.1-71.7-2.9-14.6-2.2-28.4-4.4-37.7-5-7.9-.5-12.7.1-14.8,2-1.8,1.6-1.9,4.4-2.1,9.3-.2,5-.3,11.3-3.3,18.4-5.2,12.5-17.9,16.9-31.3,21.5-9.2,3.2-18.8,6.5-26.6,12.6-1.1.9-1.9,1.6-2.3,2,1.9.2,5.4.1,7.9,0,7.8-.2,14.5-.4,16.2,3.9,1.2,3-1,6.5-7.2,11.7-.3.2-.6.5-.9.8,31.4,9,62.2,21.7,92,37.9,4.9-2,9.1-3.3,12-3.3s5.2.9,6.9,2.8c2.8,3,3.4,8,3.3,13.5,4.7,3,9.3,6,13.7,9.1,9.7-10.2,21.6-22.5,31.8-24.4,2.8-.5,5.3,0,7.3,1.7,5.6,4.6,5.6,16.8,5.7,27.4,0,4,0,9.2.6,11.5.2-.2.5-.5.9-.9,12.7-14.3,70.8-39.1,81.6-36.8,6.6,1.4,7,10.7,7.4,20.5.3,7.5.7,16,3.9,19,.3.3.6.5.8.4,1.8-.2,5-5.1,7.6-9.1,5.4-8.2,12.1-18.4,22.2-18.4s19.5,11.2,28.4,21.1c5.3,6,12,13.3,14.9,13.3h0c.2,0,.4,0,.7-.4,1.9-2.2,1.1-6.4.4-10.1-.8-4-1.5-8.2,1.4-10.4,2.8-2.2,7.8-1.9,23.8,5.9,31.4,15.5,57.1,58,53.7,72.9-.9,3.7-3.5,5.8-7.2,5.8s-7.8-.5-12.9-1c-18.9-2.1-54.1-6.1-152,2.9-9.4.9-18.3,1.6-26.8,2.2,13.4,18.8,24.2,37.4,33,54.9,6.8-7,14.8-13.7,24.1-19,13-7.4,41.6-14.8,64-19.4,12.6-2.5,24.4-4.4,33.3-5.2,14-1.3,17.4.1,18.8,1.7,1,1.1,1.5,3,0,5-6.3,8.6-19.2,16.1-47.6,32.7-8.3,4.9-17.8,10.4-28.9,17-14.7,8.7-31,16.8-47.2,24.1,14.3,36.7,23.6,75.1,27.5,112.6,12.2-38.3,41.8-90.9,60.8-110,8.6-8.6,19.6-17.8,29.6-24.8,17.6-12.3,20.8-10,22.2-8.9,3.3,2.4.6,7.6-.3,9.3-4.9,9.4-18.2,23.5-31.1,37.2-8.9,9.5-20.8,22.1-23,26.9,2.8-1,8.4-4.3,12-6.5,9-5.4,12.7-7.5,15.1-5.4.8.7,1.7,2.1.6,4.7-1.8,4.5-8.6,13-18.1,24.6-11.6,14.3-26,32.1-34.8,47.7-6,10.6-7.9,15.3-8.4,17.4,2-.9,5.1-3.1,6.3-3.9,2.3-1.6,4.2-1,5.1-.4,2.1,1.2,7.8,4.5,4,56.4-.4,5.8.3,9.9,1.1,11.5.7-1,2-3.3,3.7-9,1-3.6,2.8-8.4,6.8-8.7,5.4-.4,9.5,7.6,16.8,23,2.2,4.7,4.6,9.6,7,14.1,4.2,7.8,6.9,9,7.6,8.7,2-.6,4.8-8.9,2.6-26-1.2-9.2-.4-14.1,2.6-16.2,3.6-2.5,8.6.2,14.3,3.2,3.3,1.8,7.1,3.8,10.8,4.9,1.1.3,1.8.3,2.2,0,.7-.7,2.6-4.4-1.7-21.4-2.8-10.9-7.1-23.7-11.3-35.8-6.1-17.5-6.8-26.3-2.7-30.3,3.8-3.7,10.3-1.8,15.6.3,2.3.9,3.9,1,4.9.3,3.3-2.3,3.2-13.5,3-24.3,0-5.8-.2-12.5.2-18.9.6-10.9,5.6-39.6,20.6-42h1.9l-1.3-.6ZM854.2,580.1c.7,0,1.3.2,1.8.6,2.4,1.7,1.1,5.4.5,7.1-2.1,6-8.5,26.3-13.8,46.5-8.3,32-7.3,39.6-6.7,41.3.2,0,.6-.4,1.1-.8,9.8-8.2,16.9-30.5,21.2-43.8,3.4-10.7,4.1-12.9,7-12.6,2.5.3,2.7,3.3,2.8,4.9.7,11.3,7,23.1,10.4,23.8.7,0,1.3-1,1.7-1.7,1.1-2.2,3.5-8.2,6.5-15.7,19.4-48.4,26.7-62.1,32.7-61.2,3.8.6,4.2,5.7,4.4,7.7,1.6,18.5,6.7,26,9.7,26.6,1.7.3,3.9-1.7,5.8-5.5,3.3-6.7,11.9-22.4,20.6-36.2,15.5-24.5,21.5-27.2,25-26.8,1.3.2,3.7,1,4.7,4.9,5.2,20.7,13.9,41.8,17.6,44.8.3-.6.7-1.8,1-4.2,1.7-12.4,11.2-34.2,18.8-49.2,7.7-15.2,18.2-33.4,24.5-33.8.8,0,3.3,0,4.3,3.4,1.1,3.6,2,10.2,3.1,17.8,1.1,7.8,2.4,16.6,4,23.6,2.4,10.5,4.4,11.5,4.5,11.5,0,0,1.1-.4,3-4,11.9-22.1,42.8-62.8,53.4-65.5,1.4-.4,2.9-.1,4.1.7,3.7,2.4,5.1,9.5,6.7,19.9.5,3,1.1,7.1,1.8,9.5,4-6.7,11-18.3,21.2-29.7-10.1-20.2-21.8-39.8-35.4-58.5-49.9,3.3-85.8,2.6-113.3,2-26.7-.5-44.3-.9-55.5,3.4-3.5,1.3-4.7,2.2-5.1,2.7,1.3,1.3,6.8,3.2,9.8,4.2,6.7,2.3,11,3.8,11,7.3s-4,4.5-5.7,5c-20.5,6.8-50,21.1-66.6,36.3,2.5-.6,5.7-1.6,8.1-2.4,9.7-3,14.1-4.4,15.7-1.2,1.3,2.7-1,5.4-10.7,12.5-18.3,13.4-37.3,40.5-47,55.4-11,17-18.5,31-21.6,38,1.1-.9,2.2-1.8,3.1-2.5,4.4-3.6,7.4-6.2,9.8-6.2h0ZM1010.1,655.2h0ZM1400.1,419.8c-3,0-6.2.5-9.5,1.6-19.4,6.6-40.4,32.7-42.9,69.8-1.3,19.6,13.3,26,19.7,27.8,13.1,3.8,28.2.2,32.5-7.6.6-1.2,1.1-2.5,1.5-3.8-5.6-4.2-11.9-7.9-17.6-11.3-11.8-7-20.2-12-20.2-18.2s2-5.4,5.9-7.6c6.2-3.4,12.9-3.5,19.1-.3-.9-2.6-1.6-5.4-2-8.3-1.2-8.6,0-15.3,3.8-20.1,5.7-7.4,15.7-8.6,23.1-9.4,2.9-.3,6-.7,7.1-1.4.3-.2,0-.9,0-1.5-2-4.1-10.1-9.6-20.3-9.6h0ZM1163.8,484.8c3.4,7,6.5,13.9,9.3,20.4,1,2.3,2,4.7,2.9,7,15.9-7.3,32.1-15.3,46.5-23.8,11.2-6.6,20.6-12.1,29-17,26.6-15.5,39.3-22.9,45.3-30.3-4.8-.9-20.9.2-47.6,5.7-27.1,5.5-51.1,12.8-61.2,18.5-9.4,5.3-17.5,12.3-24.2,19.4h0ZM1379.3,472.8c-2.3,0-4.8.6-7.4,2-2.1,1.2-3.3,2.4-3.3,3.3,0,3.3,9.4,8.9,17.7,13.9,5.2,3.1,10.6,6.3,15.6,9.9,0-7.9-3.8-16.9-10-23-2.6-2.6-7.1-6-12.7-6h.1ZM1050.8,501.5h0ZM1038.7,334.9c36.3,25.9,64.5,55.8,86.3,85.5,9.4-.6,19.4-1.4,29.8-2.4,98.4-9.1,133.9-5.1,153-2.9,5.2.6,8.9,1,12.3,1s2-.5,2.4-1.9c2.8-11.9-21.2-52.5-51-67.2-15.4-7.6-18.2-6.7-18.5-6.4-.4.6.2,3.7.5,5.5.8,4.5,1.9,10.2-1.5,14.3-1.2,1.4-2.7,2.1-4.4,2.2h0c-5.2,0-11.1-6.6-18.7-15-7.8-8.6-17.4-19.4-24.6-19.4s-13.2,9-18,16.2c-4,6-7.1,10.8-11.2,11.3-1.2.1-3,0-4.8-1.8-4.7-4.4-5.1-13.5-5.4-22.4-.3-6.8-.6-15.3-3.4-15.9-8.1-1.7-64.9,21.9-76.8,35.2-1,1.1-3.6,4-6.5,2.9-3.6-1.4-3.7-7.2-3.7-16.7s0-20.5-3.9-23.6c-.5-.4-1.4-1-3.2-.6-8.5,1.5-19.4,12.8-28.5,22.3l-.2-.2ZM902.9,275.9c-9.2,10.9-19.4,31.8-28.9,59.1-8,23.2-12.7,42.6-13.7,50.6,5.1-5.6,15.5-19.6,24.2-31.4,20.1-27.2,33.7-45.2,40.1-48.3,3-1.4,5.5-1.5,7.6-.3,4.2,2.5,4.6,9.3,5.1,17.1.3,4.7.6,9.6,1.8,13h.2c4.3,1.8,22.8-7.6,36.2-14.5,6.1-3.1,12.1-6.2,17.5-8.7-29.4-15.8-59.5-28-89.9-36.6h-.2ZM1410.5,376.8h0ZM1020.5,328.6c0,1.1-.2,2.3-.3,3.5-.4,5.1-.9,10.8,0,13.2,2-.8,6.6-5.4,10.8-9.7-3.5-2.4-7-4.7-10.5-7ZM1750.9,323.1h0ZM1004.3,313c1.2.7,2.5,1.4,3.7,2.1,2.6,1.5,5.2,3,7.7,4.6-.2-3-.7-5.6-2-7-.5-.5-1.3-1.2-3.2-1.2s-3.7.5-6.3,1.5h0Z"/>
        </g>
      </g>
    </g>
  </g>
</svg>