<?xml version="1.0" encoding="UTF-8"?>
<svg id="Layer_2" data-name="Layer 2" xmlns="http://www.w3.org/2000/svg" viewBox="0 0 2000 1500">
  <g>
    <path d="M999.56,1020.09c-93.09,0-180.56-10.56-239.99-28.96-48.35-14.96-73.9-33.93-73.9-54.86v-33.18c0-26.63,19.06-39.48,31.84-43.58.65-11.21,4.43-44.78,26.22-81.21,15.36-25.68,36.52-47.39,62.9-64.54,32.78-21.31,73.73-35.56,121.72-42.36,2.75-.38,5.27,1.52,5.65,4.25.39,2.73-1.52,5.26-4.25,5.65-82.93,11.74-144.19,46.9-177.17,101.69-24.95,41.44-25.2,80-25.2,80.38,0,2.38-1.67,4.43-3.99,4.91-1.12.24-27.72,6.22-27.72,34.81v33.18c0,15.64,24.37,32.15,66.86,45.3,58.51,18.12,144.9,28.52,237.03,28.52s170.96-9.53,229.12-26.16c47.52-13.58,74.77-30.95,74.77-47.66v-33.18c0-28.59-26.59-34.58-27.72-34.82-2.31-.49-3.98-2.54-3.98-4.91,0-.38-.26-38.99-25.27-80.47-33.06-54.84-94.48-89.99-177.6-101.66-2.73-.38-4.64-2.91-4.26-5.65.38-2.73,2.91-4.64,5.65-4.26,48.09,6.75,89.14,20.98,122,42.29,26.44,17.15,47.66,38.87,63.05,64.57,21.85,36.47,25.64,70.1,26.29,81.32,12.78,4.11,31.83,16.96,31.83,43.58v33.18c0,22.14-28.36,41.95-82.03,57.28-59.01,16.87-143.52,26.54-231.86,26.54Z"/>
    <path d="M999.55,652.52c-19.83,0-38.52-1.56-52.63-4.39-17.33-3.48-25.41-8.33-25.41-15.26,0-7.77,10.69-11.27,14.21-12.41,7.17-2.34,17.24-4.25,29.12-5.51,2.74-.3,5.21,1.7,5.5,4.44.29,2.75-1.7,5.21-4.44,5.5-21.66,2.31-30.92,6.09-33.7,8.01,5.05,3.69,27.81,9.62,67.35,9.62s62.42-5.97,67.39-9.65c-4.97-3.68-27.75-9.65-67.39-9.65-5.48,0-10.93.12-16.22.37-2.72.14-5.1-2.01-5.23-4.76-.13-2.76,2.01-5.1,4.76-5.23,5.44-.25,11.05-.38,16.68-.38,19.83,0,38.52,1.56,52.63,4.39,17.33,3.48,25.41,8.33,25.41,15.26s-8.07,11.79-25.41,15.26c-14.11,2.83-32.8,4.39-52.63,4.39Z"/>
    <path d="M999.56,714.36c-13.99,0-28.04-1.06-41.8-3.14-2.73-.41-4.61-2.96-4.19-5.69.41-2.73,2.96-4.61,5.69-4.19,13.26,2.01,26.81,3.03,40.3,3.03.27,0,.53,0,.8,0,13.21-.04,26.49-1.06,39.48-3.03,2.73-.42,5.28,1.46,5.69,4.19.41,2.73-1.46,5.28-4.19,5.69-13.47,2.04-27.25,3.1-40.95,3.14-.28,0-.55,0-.83,0Z"/>
    <path d="M999.55,678.17c-19.82,0-38.51-1.56-52.63-4.39-17.33-3.48-25.41-8.33-25.41-15.26v-25.65h10v25.08c3.24,3.6,26.29,10.22,68.04,10.22s64.8-6.62,68.04-10.22v-25.08h10v25.65c0,6.93-8.07,11.78-25.41,15.26-14.11,2.83-32.8,4.39-52.63,4.39Z"/>
    <g>
      <path d="M967.77,711.91c-.95,0-1.91-.27-2.76-.84-2.29-1.52-2.92-4.62-1.41-6.91.14-.21,7.32-11.57,7.32-31,0-2.76,2.24-5,5-5s5,2.24,5,5c0,22.73-8.61,35.96-8.98,36.51-.96,1.45-2.55,2.23-4.17,2.23Z"/>
      <path d="M1031.32,711.91c-1.61,0-3.2-.78-4.16-2.23-.37-.55-8.98-13.78-8.98-36.51,0-2.76,2.24-5,5-5s5,2.24,5,5c0,19.52,7.25,30.89,7.32,31,1.5,2.31.86,5.4-1.44,6.91-.85.56-1.8.83-2.75.83Z"/>
    </g>
    <path d="M796.44,921.15c-.36,0-.73-.04-1.09-.12-29.29-6.53-53.35-14.3-71.51-23.11-2.48-1.21-3.52-4.2-2.32-6.68s4.19-3.52,6.68-2.32c17.47,8.47,40.8,15.99,69.33,22.35,2.7.6,4.39,3.27,3.79,5.97-.52,2.33-2.58,3.91-4.88,3.91Z"/>
    <path d="M999.56,940.58c-65.88,0-128.83-5.21-182.05-15.05-2.71-.5-4.51-3.11-4.01-5.83.5-2.71,3.11-4.51,5.83-4.01,52.62,9.74,114.95,14.88,180.23,14.88,110.19,0,212.35-15.12,266.62-39.46,2.52-1.13,5.48,0,6.61,2.52s0,5.48-2.52,6.61c-55.47,24.88-159.21,40.34-270.71,40.34Z"/>
    <path d="M999.55,1185.12c-.87,0-1.74,0-2.6,0h-1.43s-.84,0-.84,0c-23.83-.1-47.13-.74-69.32-1.91-66.04-3.49-142.97-10.64-212.82-37.27-61.34-23.39-90.5-54.9-86.67-93.67,2.2-22.26,12.76-41.53,31.39-57.28,14.27-12.06,33.4-22.29,58.48-31.27,2.6-.93,5.46.42,6.39,3.02.93,2.6-.42,5.46-3.02,6.39-53.31,19.08-79.78,44.54-83.29,80.12-3.33,33.72,23.67,61.75,80.28,83.34,68.56,26.14,144.52,33.19,209.78,36.63,22.02,1.16,45.17,1.8,68.79,1.9h.83s1.47,0,1.47,0c.08,0,.16,0,.24,0l2.3-.02c100.72-.39,187.6-10.54,251.25-29.35,63.71-18.83,100.77-45.31,107.17-76.56,3.55-17.36.62-32.7-8.96-46.89-12.49-18.51-36.52-34.62-71.43-47.9-2.58-.98-3.88-3.87-2.9-6.45.98-2.58,3.87-3.88,6.45-2.9,36.87,14.02,62.5,31.4,76.17,51.65,11.01,16.31,14.53,34.64,10.46,54.49-7.19,35.1-46.65,64.2-114.13,84.14-63.48,18.77-149.51,29.03-249.06,29.74v.03l-5,.03Z"/>
    <path d="M997.12,1155.79c-68.8,0-135.75-6.36-193.6-18.4-56.61-11.78-102.28-28.48-132.08-48.3-2.3-1.53-2.92-4.63-1.39-6.93,1.53-2.3,4.63-2.92,6.93-1.39,28.74,19.11,73.2,35.31,128.58,46.83,57.19,11.9,123.44,18.2,191.56,18.2s134.78-6.33,192.1-18.31c55.5-11.6,99.97-27.88,128.59-47.09,2.29-1.54,5.4-.93,6.94,1.37s.93,5.4-1.37,6.94c-29.68,19.92-75.37,36.72-132.12,48.58-57.98,12.12-125.12,18.52-194.15,18.52Z"/>
    <g>
      <path d="M1508.45,949.57c-.06,0-.11,0-.17,0-2.76-.09-4.92-2.4-4.83-5.16.99-29.88.73-60.34-.77-90.52-.14-2.76,1.99-5.1,4.75-5.24,2.79-.12,5.1,1.99,5.24,4.75,1.51,30.45,1.77,61.18.77,91.34-.09,2.7-2.31,4.83-4.99,4.83Z"/>
      <path d="M1456.95,577.71c-2.09,0-4.04-1.32-4.74-3.42-50.81-152.13-133.72-234.94-246.44-246.14-35.75-3.55-105.62-7.38-171.97,6.86-68.69,14.74-113.21,44.42-132.32,88.21-12.68,29.06-19.28,83.93,14.49,115.95,27.02,25.61,73.56,19.87,98.89,14.16l.65-.15c2.69-.6,5.37,1.09,5.97,3.79.6,2.69-1.09,5.37-3.79,5.97l-.63.14c-47.1,10.6-85.45,4.69-107.97-16.66-16.38-15.54-25.94-37.59-27.65-63.77-1.39-21.29,2.58-44.41,10.88-63.43,20.47-46.91,67.36-78.53,139.39-93.98,67.68-14.52,138.73-10.64,175.05-7.03,64.53,6.41,120.09,35.42,165.14,86.22,36.33,40.97,66.54,97.06,89.8,166.71.88,2.62-.54,5.45-3.16,6.33-.53.18-1.06.26-1.58.26Z"/>
      <path d="M1059.97,573.57c-15.62,0-31.33-3.65-45.68-11.07-33.87-17.51-52.9-53.17-47.36-88.73.42-2.73,2.98-4.6,5.71-4.17,2.73.42,4.6,2.98,4.17,5.71-4.88,31.31,12.03,62.78,42.07,78.31,12.67,6.55,26.8,9.76,40.88,9.76,18.74,0,37.38-5.69,52.38-16.81,2.22-1.65,5.35-1.18,6.99,1.04,1.64,2.22,1.18,5.35-1.04,6.99-16.93,12.55-37.45,18.96-58.14,18.96Z"/>
      <path d="M1160.84,566.32c-3.68,0-7.55-.15-11.6-.45-21.95-1.66-37.55-9.57-46.36-23.51-16.58-26.21-2.45-63.69-1.84-65.27.99-2.58,3.89-3.86,6.46-2.87,2.58.99,3.86,3.88,2.87,6.46h0c-.13.34-12.92,34.43.98,56.36,7.04,11.1,20.04,17.45,38.65,18.85,63.33,4.79,74.85-30.41,77.75-65.47.23-2.75,2.65-4.79,5.4-4.57,2.75.23,4.8,2.64,4.57,5.4-1.74,21-6.22,75.07-76.87,75.07Z"/>
      <path d="M1151.24,702.77c-.07,0-.13,0-.2,0-2.76-.11-4.91-2.43-4.8-5.19.62-16.08-.59-32.1-3.59-47.62-3.51-18.08-8.31-42.84-26.7-65.05-6.22-7.52-13.52-14.21-21.68-19.89l-.52-.37-.42-.5c-1.8-2.1-1.55-5.25.54-7.05,1.82-1.56,4.44-1.58,6.27-.19,8.84,6.17,16.75,13.44,23.52,21.61,20.03,24.18,25.11,50.39,28.82,69.53,3.15,16.27,4.42,33.06,3.77,49.91-.1,2.69-2.32,4.81-4.99,4.81Z"/>
    </g>
    <path d="M1713.78,949.56h-381.33c-2.76,0-5-2.24-5-5s2.24-5,5-5h381.33c2.76,0,5,2.24,5,5s-2.24,5-5,5Z"/>
    <path d="M663.11,949.56h-376.89c-2.76,0-5-2.24-5-5s2.24-5,5-5h376.89c2.76,0,5,2.24,5,5s-2.24,5-5,5Z"/>
    <path d="M1513.25,864.97l-37.01-31.6c-19.73-16.85-39.47-33.7-59.2-50.54-23.64-20.18-53.05-45.29-65.02-78.29-10.58-29.19-6.43-62.15,11.1-88.16,9.5-14.07,26.97-24.74,39.95-31.22,17.07-8.52,36.43-14.86,53.12-17.4l4.16-.63,1.33,3.99c9.69,28.99,18.43,61.16,25.99,95.61,12.94,58.97,21.21,119.15,24.58,178.85.15,2.6.28,5.2.41,7.8l.58,11.58ZM1453.55,578.36c-14.59,2.74-31.47,8.5-46.01,15.75-16.84,8.4-29.67,18.29-36.13,27.86-15.52,23.02-19.35,53.35-9.99,79.16,11.07,30.52,38.19,53.67,62.12,74.09,19.73,16.84,39.47,33.69,59.2,50.54l19.31,16.49c-3.48-57.9-11.59-116.21-24.13-173.38-7.13-32.5-15.32-62.93-24.36-90.52Z"/>
    <path d="M1260.87,801.16c-1.58,0-3.12-.74-4.1-2.13-1.58-2.26-1.04-5.38,1.22-6.96,10.34-7.25,17.78-18.49,20.42-30.83,2.64-12.35.44-25.65-6.03-36.49-6.87-11.51-18.32-20.17-29.67-27.82-29.75-20.04-62-36.22-95.86-48.08-2.61-.91-3.98-3.77-3.07-6.37.91-2.61,3.76-3.98,6.37-3.07,34.66,12.14,67.68,28.7,98.14,49.22,12.31,8.3,24.79,17.79,32.67,30.98,7.75,12.99,10.39,28.92,7.22,43.7-3.16,14.79-12.08,28.25-24.46,36.93-.87.61-1.88.91-2.87.91Z"/>
    <path d="M994.59,1053.57c-63.96,0-124.14-5.45-169.46-15.34-48.89-10.68-73.68-24.69-73.68-41.66,0-4.74,1.99-9.31,5.91-13.6,1.87-2.04,5.03-2.18,7.06-.31,2.04,1.87,2.18,5.03.31,7.06-2.18,2.38-3.29,4.69-3.29,6.84,0,8.47,17.29,21.29,65.82,31.88,44.64,9.75,104.06,15.12,167.32,15.12s122.68-5.37,167.32-15.12c48.53-10.6,65.82-23.42,65.82-31.88,0-1.61-.59-3.24-1.79-4.99-1.57-2.27-1-5.39,1.28-6.96s5.39-1,6.96,1.28c2.37,3.43,3.56,7.02,3.56,10.67,0,16.96-24.79,30.98-73.68,41.66-45.32,9.89-105.5,15.34-169.46,15.34Z"/>
    <path d="M743.81,709.42c-1.26,0-2.52-.47-3.49-1.42-1.98-1.93-2.01-5.09-.08-7.07,24.49-25.08,54.91-44.47,87.99-56.06,2.61-.91,5.46.46,6.37,3.06.91,2.61-.46,5.46-3.06,6.37-31.63,11.09-60.73,29.63-84.15,53.61-.98,1-2.28,1.51-3.58,1.51Z"/>
    <path d="M744.32,660.46c-1.37,0-2.74-.56-3.73-1.67-1.84-2.06-1.67-5.22.39-7.06,12.69-11.36,28.12-19.56,44.63-23.72,2.68-.67,5.39.95,6.07,3.63.67,2.68-.95,5.4-3.63,6.07-14.95,3.76-28.92,11.19-40.41,21.47-.95.85-2.15,1.27-3.33,1.27Z"/>
  </g>
  <path d="M975.31,683.2c6.23,1.53,14.54,2.93,24.36,2.91,9.65-.02,17.83-1.41,24-2.91v-6.92c-4.95-1.98-13.33-4.62-24-4.61-10.61,0-18.95,2.64-23.88,4.61-.16,2.31-.32,4.61-.48,6.92Z"/>
</svg>