<?xml version="1.0" encoding="utf-8"?>
<!-- Generator: Adobe Illustrator 24.0.1, SVG Export Plug-In . SVG Version: 6.00 Build 0)  -->
<svg version="1.1" id="Слой_3" xmlns="http://www.w3.org/2000/svg" xmlns:xlink="http://www.w3.org/1999/xlink" x="0px" y="0px"
	 viewBox="0 0 1600 2500" style="enable-background:new 0 0 1600 2500;" xml:space="preserve">
<style type="text/css">
	.st0{fill:#0E0E0D;}
</style>
<g>
	<g>
		<path class="st0" d="M1068.85,2430.39l-5.03-0.63c2.77-22.24,68.27-545.19,103.26-590.55c34.07-44.16,54.13-180.13,44.82-253.28
			c-4.09-32.1-11.67-63.06-19.01-93c-8.66-35.33-16.84-68.7-16.84-96.41c0-49.55,2.56-122.4,2.59-123.13l5.07,0.18
			c-0.03,0.73-2.59,73.49-2.59,122.95c0,27.11,8.11,60.19,16.69,95.21c7.37,30.08,15,61.18,19.12,93.57
			c9.42,74.06-11.11,212-45.84,257.02C1136.94,1886.58,1069.52,2424.95,1068.85,2430.39z"/>
	</g>
	<g>
		<path class="st0" d="M1085.52,1437.47l-3.57-3.6c0.86-0.87,2.05-1.38,3.85-2.16c8.34-3.63,30.49-13.26,59.39-76.82
			c35.93-79.04,44.79-108.47,30.25-138.59c-23.05-47.75-79.64-39.27-80.21-39.18l-0.81-5.01c0.6-0.09,60.87-9.21,85.58,41.98
			c16.28,33.73,3.98,67.71-30.2,142.9c-29.7,65.33-53.15,75.53-61.98,79.37C1086.87,1436.77,1085.79,1437.24,1085.52,1437.47z"/>
	</g>
	<g>
		<path class="st0" d="M1149.31,1452.77c-0.2-0.13-20.04-12.57-28.64-15.9c-8.45-3.27-25.04-4.26-25.2-4.27l0.29-5.06
			c0.71,0.04,17.55,1.04,26.74,4.6c9.04,3.5,28.67,15.81,29.5,16.34L1149.31,1452.77z"/>
	</g>
	<g>
		<path class="st0" d="M1206.02,1549.67c-0.2-0.36-20.79-36.37-54.25-54.21c-33.55-17.89-64.32-16.99-64.62-16.97l-0.18-5.07
			c1.31-0.04,32.45-0.96,67.2,17.57c34.79,18.55,55.42,54.67,56.28,56.2L1206.02,1549.67z"/>
	</g>
	<g>
		<path class="st0" d="M1045.21,1706.42l-4.97-1l0.06-0.3c2.07-10.12,8.17-45.5-0.02-75.68c-8.87-32.7-23.84-46.42-23.99-46.55
			l3.38-3.79c0.66,0.58,16.21,14.71,25.51,49.01c8.48,31.26,2.22,67.62,0.1,78.02L1045.21,1706.42z"/>
	</g>
	<g>
		<path class="st0" d="M937.23,1685.97l-4.29-2.7c0.35-0.55,35.12-56.03,48.11-92.18c12.91-35.94,10.81-75.74,10.79-76.13l5.06-0.29
			c0.09,1.67,2.18,41.24-11.08,78.14C972.64,1629.48,937.58,1685.41,937.23,1685.97z"/>
	</g>
	<g>
		<path class="st0" d="M1068.74,1461.53c-0.53,0-1.02-0.14-1.46-0.41l2.69-4.3c-0.84-0.52-1.68-0.37-1.95-0.22
			c0.26-0.15,2.76-1.84,9.89-14.96c12.88-23.72,14.06-126.9,14.77-188.55c0.13-11.23,0.24-20.92,0.4-29.03
			c0.95-47.8-5.27-107.35-40.26-119.59c-34.84-12.19-77.26,2.68-77.66,2.84l-1.89-4.71c0.42-0.17,44.72-15.69,81.22-2.92
			c37.86,13.25,44.63,75.01,43.65,124.48c-0.16,8.09-0.27,17.77-0.4,28.99c-0.76,66.14-1.9,166.09-15.38,190.91
			c-8.86,16.32-11.63,17.05-12.82,17.36C1069.28,1461.49,1069.01,1461.53,1068.74,1461.53z"/>
	</g>
	<g>
		<path class="st0" d="M1056.59,1517.38c-0.28,0-0.56-0.01-0.86-0.03l-0.19-0.01c-3.45,0-66.86-8.38-71.94-25.11
			c-4.67-15.42,7.42-121.97,14.31-139.8c7.84-20.28,15.75-29.63,41.91-31.41c9.96-0.67,18.84,3.59,26.43,12.67
			c8.04,9.63,12.2,22.16,11.7,35.28c-0.85,22.45-3.45,78-9.13,108.73C1061.96,1514.84,1060.23,1517.38,1056.59,1517.38z
			 M1041.79,1326.03c-0.54,0-1.08,0.02-1.63,0.05c-24.66,1.67-30.61,10.28-37.52,28.17c-7.27,18.83-18.14,123.44-14.19,136.5
			c3.62,11.93,60.28,21.51,67.08,21.51c0.06,0,0.12,0,0.17,0c2.24-3.63,6.65-27.48,8.13-35.49c5.62-30.41,8.2-85.66,9.05-108
			c0.45-11.86-3.29-23.17-10.52-31.84l0,0C1056.3,1329.69,1049.39,1326.03,1041.79,1326.03z"/>
	</g>
	<g>
		<path class="st0" d="M982.43,1389.64l-4.99-0.93c0.22-1.17,21.9-118.41,13.83-196.14c-7.97-76.77-26.87-111.13-77.78-141.42
			c-38.16-22.7-65.25-2.96-83.18,10.1c-4.9,3.57-8.77,6.39-12.12,7.77l-1.93-4.69c2.79-1.15,6.63-3.94,11.07-7.18
			c17.85-13,47.73-34.77,88.76-10.36c51.92,30.88,72.16,67.53,80.23,145.25C1004.47,1270.51,982.65,1388.46,982.43,1389.64z"/>
	</g>
	<g>
		<path class="st0" d="M958.76,1444.22c-17.72,0-43.41-7.32-49.44-12.17c-8.52-6.84-8.72-15.19-9.41-42.84l-0.17-6.87
			c-0.62-23.56,1.81-67.7,3.32-91.91c0.65-10.42,7.78-19.41,17.74-22.36c16.93-5.01,40.25-8.02,55.18,6.15
			c16.72,15.87,5.09,151.47,0.62,162.93c-1.12,2.87-3.81,4.89-7.98,6C965.84,1443.89,962.48,1444.22,958.76,1444.22z
			 M946.62,1268.96c-8.43,0-17.04,1.79-24.38,3.97l0,0c-7.93,2.34-13.6,9.5-14.12,17.81c-1.5,24.13-3.93,68.1-3.31,91.46l0.18,6.88
			c0.66,26.52,0.83,33.65,7.51,39.02c6.36,5.12,40.73,13.92,54.81,10.16c1.74-0.46,3.94-1.35,4.56-2.95
			c4.48-11.47,14.24-144.48,0.62-157.41C965.49,1271.26,956.17,1268.96,946.62,1268.96z"/>
	</g>
	<g>
		<path class="st0" d="M901.52,1381.69c-1.2-0.34-29.54-8.9-44.82-54.75c-11.76-35.27,14.37-140.71,15.49-145.18l4.92,1.23
			c-0.27,1.08-26.89,108.48-15.6,142.35c14.38,43.13,41.14,51.4,41.41,51.48L901.52,1381.69z"/>
	</g>
	<g>
		<path class="st0" d="M857.25,1262.99c-0.3-0.47-30.48-47.32-36.08-115.81c-5.81-71.03-4.85-110.27,28.89-163.04
			c12.32-19.26,26.16-38.34,39.54-56.78c23.42-32.28,45.55-62.76,56.96-90.47c20.43-49.61,20.58-93.51,0.41-117.42
			c-8.67-10.27-18.67-15.79-29.75-16.42c-15.64-0.88-33.92,8.15-52.92,26.12c-31.47,29.77-89.01,99.24-89.59,99.93l-3.91-3.23
			c0.58-0.7,58.32-70.41,90.01-100.39c20.32-19.22,39.41-28.49,56.69-27.5c12.52,0.7,23.74,6.83,33.34,18.21
			c21.42,25.39,21.57,71.23,0.41,122.62c-11.64,28.26-33.93,58.99-57.54,91.52c-13.34,18.39-27.14,37.4-39.38,56.53
			c-32.91,51.47-33.82,90.02-28.1,159.89c5.49,67.15,34.98,112.99,35.28,113.45L857.25,1262.99z"/>
	</g>
	<g>
		<path class="st0" d="M964.34,746.89l-4.34-2.62c0.3-0.5,30.24-50.28,33.14-65.2c0.58-3-2.21-7.1-7.87-11.55
			c-15.19-11.93-41.86-20.13-45.26-18.56c-4.7,2.64-34.97,39.75-52.95,62.52l-3.98-3.14c4.82-6.11,47.32-59.78,54.46-63.8
			c6.55-3.69,34.71,7.28,48.85,17.49c8.86,6.4,12.81,12.46,11.73,18.02C995.04,695.84,965.6,744.82,964.34,746.89z"/>
	</g>
	<g>
		<path class="st0" d="M818.9,1078.59c-0.05-1.27-5.25-127.86-33.58-212.3C757.2,782.52,674.62,738.44,673.79,738l2.35-4.49
			c0.85,0.45,85.21,45.43,113.98,131.17c28.57,85.13,33.79,212.44,33.84,213.71L818.9,1078.59z"/>
	</g>
	<g>
		<path class="st0" d="M597.81,1335.14l-2.41-4.47c0.39-0.21,38.7-22.25,48.77-121.21c10.2-100.32,4.77-188.15-14.17-229.21
			c-18.7-40.54-35.84-88.78-38.21-107.54c-4.33-34.33-0.62-49.72-0.46-50.36l4.92,1.23c-0.04,0.14-3.62,15.28,0.57,48.49
			c2.27,18.02,19.57,66.59,37.78,106.05c19.3,41.84,24.9,130.67,14.61,231.84C638.83,1312.03,599.48,1334.24,597.81,1335.14z"/>
	</g>
	<g>
		<path class="st0" d="M671.12,909.32c-16.15,0-33.05-8.13-41.91-18.59c-16.95-20.04-40.8-59.36-58.1-132.88
			c-3.2-13.58-5.78-24.16-7.86-32.65c-7.83-32.01-8.13-33.26-0.44-36.8c0.48-0.22,1.01-0.46,1.58-0.75
			c7.54-3.77,44.17-17.64,59.57-23.43v0c4.12-1.54,8.81-0.33,11.7,3.01c15.06,17.49,74.73,111.01,76.88,182.06
			c1.17,38.56-13.87,52.52-26.69,57.44C681.2,908.51,676.2,909.32,671.12,909.32z M625.75,668.96
			c-11.96,4.5-51.56,19.46-59.09,23.22c-0.62,0.31-1.19,0.57-1.72,0.82c-2.73,1.26-2.78,1.28-2.64,3.8c0.22,4,2.11,11.75,5.89,27.19
			c2.08,8.5,4.67,19.09,7.87,32.69c17.07,72.54,40.44,111.15,57.03,130.76c10.3,12.17,33.76,21.14,50.96,14.54
			c16.18-6.21,24.29-24.38,23.43-52.55c-2.11-69.73-60.84-161.7-75.66-178.91C630.29,668.77,627.91,668.15,625.75,668.96
			L625.75,668.96z"/>
	</g>
	<g>
		<path class="st0" d="M508.66,2417l-4.85-1.48c1.13-3.71,113.02-372.51,134.05-490.15c21.11-118.11,18.03-127.96-2-192.08
			l-0.22-0.71c-13.57-43.42-55.98-123.31-93.4-193.79c-17.49-32.94-34.01-64.05-45.19-87.06c-28.97-59.64-0.73-117.4,29.16-178.56
			c6.24-12.77,12.7-25.97,18.58-39.16c33.04-74.04,98.75-201.44,99.41-202.72l4.51,2.33c-0.66,1.28-66.31,128.55-99.29,202.46
			c-5.92,13.27-12.39,26.51-18.65,39.32c-29.34,60.02-57.05,116.71-29.16,174.12c11.14,22.92,27.64,54,45.1,86.9
			c37.52,70.68,80.06,150.78,93.77,194.65l0.22,0.71c19.9,63.68,23.49,75.15,2.16,194.48C621.77,2044.2,509.79,2413.28,508.66,2417z
			"/>
	</g>
	<g>
		<path class="st0" d="M563.12,1264.99l-2.1-4.62c3.64-1.66,28.58-8,46.81-8c18.31,0,30.67,3.84,31.18,4l-1.53,4.84
			c-0.12-0.04-12.18-3.77-29.66-3.77C589.86,1257.44,565.72,1263.8,563.12,1264.99z"/>
	</g>
	<g>
		<path class="st0" d="M987.78,1426c-0.45-0.2-10.95-5.12-11.99-17.21l5.05-0.44c0.78,9.09,8.71,12.88,9.05,13.04L987.78,1426z"/>
	</g>
	<g>
		<path class="st0" d="M790.64,573.24l-1.42-0.95c-0.48-0.32-48.64-32.75-99.25-80.83c-46.84-44.49-105.46-111.89-118.68-180.35
			c-7.24-37.49-0.38-71.95,20.41-102.42c11.3-16.56,25.88-28.46,45.89-37.44c27.73-12.45,54.4-13.87,79.26-4.24
			c42.15,16.32,66.57,59.09,73.83,73.57c7.98-15.32,35.69-62.49,80.36-75.77c27.7-8.23,60.82-3.05,88.61,13.86
			c28.54,17.37,47.69,44.93,53.91,77.61c6.41,33.67-1.34,71.3-23.04,111.84c-17.25,32.22-43.32,66.38-77.49,101.51
			c-58.07,59.72-120.35,102.23-120.97,102.65L790.64,573.24z M683.39,165.8c-14.14,0-28.75,3.36-43.72,10.08
			c-19.12,8.58-33.03,19.92-43.78,35.67c-20,29.31-26.6,62.48-19.62,98.59c23.72,122.78,196.83,244.88,214.36,256.96
			c9.59-6.67,65.97-46.7,118.82-101.07c52.99-54.5,113.19-134.97,99.13-208.82c-5.95-31.25-24.26-57.61-51.56-74.23
			c-26.58-16.18-58.18-21.16-84.53-13.33c-50.25,14.94-79.26,77.15-79.55,77.77l-2.37,5.16l-2.27-5.21
			c-0.25-0.57-25.3-57.08-73.32-75.67C704.78,167.78,694.22,165.8,683.39,165.8z"/>
	</g>
</g>
</svg>
