<?xml version="1.0" encoding="iso-8859-1"?>
<!-- Generator: Adobe Illustrator 29.8.2, SVG Export Plug-In . SVG Version: 9.03 Build 0)  -->
<svg version="1.1" id="Layer_1" xmlns="http://www.w3.org/2000/svg" xmlns:xlink="http://www.w3.org/1999/xlink" x="0px" y="0px"
	 width="2500px" height="1900px" viewBox="0 0 2500 1900" enable-background="new 0 0 2500 1900" xml:space="preserve">
<g id="Layer_x0020_1">
	<g id="_575199528">
		<path d="M805.728,422.107c1.135,0,3.026,0,4.539,0.378c-0.757-3.404-1.513-6.809-1.891-10.213
			c-0.757-5.296-1.135-10.591-1.135-15.887c0-30.261,12.104-57.875,32.153-77.544c19.67-20.048,47.283-32.152,77.166-32.152
			c4.539,0,8.7,0.378,12.861,0.757c2.648,0.378,5.674,0.757,8.322,1.135c12.104-40.474,36.692-75.653,69.222-100.618
			c32.909-24.965,74.14-40.096,118.775-40.096c32.152,0,62.414,7.944,89.27,21.561c26.479,13.618,49.553,33.287,67.331,57.118
			c10.97-9.078,23.452-16.265,37.07-21.183c14.752-5.674,30.261-8.7,46.526-8.7c28.37,0,54.848,9.078,76.788,24.587
			c20.805,14.752,37.448,35.557,47.283,60.144c7.944-4.161,16.644-7.565,25.344-9.835c10.213-2.27,20.805-3.783,31.774-3.783
			c35.557,0,67.709,14.374,90.784,37.448c22.696,22.696,37.07,53.714,37.826,87.757c1.891,0,3.783-0.378,5.674-0.378
			c3.404-0.378,6.809-0.378,9.835-0.378c41.231,0,77.922,16.644,104.779,43.5c26.857,26.857,43.5,63.927,43.5,104.779
			c0,39.718-15.509,76.031-41.231,102.51c-24.587,25.722-58.631,42.744-96.457,45.013c0,1.513,0.378,3.026,0.378,4.539
			c0,3.026,0.378,5.674,0.378,8.7c0,34.422-13.996,65.44-36.692,88.136c-22.318,22.318-53.714,36.313-88.136,36.313
			c-6.431,0-13.239-0.378-19.67-1.513c-5.674-1.135-10.97-2.27-15.887-3.783c-11.726,24.587-29.883,45.77-52.579,60.522
			c-22.696,14.752-50.309,23.452-79.436,23.452c-20.426,0-39.718-4.161-57.496-11.726c-16.265-6.809-31.396-17.022-44.257-29.505
			c-14.374,25.344-34.8,46.527-59.766,61.279c-25.344,15.509-54.848,24.209-87.001,24.209c-31.396,0-60.522-8.7-85.866-23.452
			c-24.965-15.131-45.77-36.313-60.522-61.279c-7.944,3.783-16.644,6.43-25.722,8.7c-10.213,2.27-20.426,3.404-31.018,3.404
			c-37.826,0-72.249-15.131-96.836-40.096c-24.966-24.587-40.474-59.009-40.474-96.836c0-5.674,0.378-11.348,1.135-17.022
			c0.378-3.783,1.135-7.565,1.891-10.97c-2.27,0.378-4.161,0.378-6.43,0.757c-4.161,0.378-7.944,0.378-12.104,0.378
			c-40.096,0-76.409-16.265-102.51-42.366c-26.479-26.479-42.744-62.792-42.744-102.51c0-40.096,16.265-76.409,42.744-102.51
			C729.319,438.373,765.632,422.107,805.728,422.107z M810.646,430.051c-1.513,0-3.026,0-4.917,0
			c-37.826,0-72.249,15.509-97.214,40.096c-24.587,24.965-40.096,59.388-40.096,97.214s15.509,71.87,40.096,96.836
			c24.965,24.965,59.388,40.096,97.214,40.096c3.783,0,7.565,0,11.348-0.378c4.161-0.378,7.944-0.757,11.348-1.513
			c0.757,0,1.135,0,1.891,0c2.27,0.757,3.404,2.648,3.026,4.917c-1.513,4.917-2.27,10.213-3.026,15.509
			c-0.757,5.296-1.135,10.591-1.135,16.265c0,35.557,14.374,68.088,37.826,91.162c23.452,23.452,55.983,37.826,91.54,37.826
			c10.213,0,19.67-1.135,29.126-3.026c9.835-2.27,18.913-5.674,27.613-9.835c1.891-1.135,4.161-0.378,5.296,1.513
			c13.996,25.344,34.422,46.905,59.388,61.657c23.831,13.996,51.822,22.318,81.705,22.318c30.64,0,59.009-8.322,83.218-23.074
			c24.965-15.131,45.392-36.692,59.388-62.792l0,0c0-0.378,0.378-0.757,0.756-0.757c1.513-1.513,3.783-1.513,5.296,0
			c12.861,13.239,28.37,24.209,45.77,31.396c16.265,7.187,34.8,10.97,54.092,10.97c27.613,0,53.714-7.944,75.275-22.318
			c22.318-14.374,40.096-35.179,50.688-59.766c0.756-1.891,3.026-3.026,4.917-2.27c6.052,1.891,12.104,3.404,18.157,4.161
			c6.052,1.135,12.483,1.513,18.535,1.513c32.531,0,61.657-12.861,82.462-34.044c21.183-21.183,34.422-50.309,34.422-82.462
			c0-3.026,0-5.674-0.378-8.322c0-2.648-0.378-5.296-0.757-7.944l0,0v-0.378c0-2.27,1.513-3.783,3.783-4.161
			c37.448-1.513,71.114-17.778,95.323-42.744c24.209-25.344,38.961-59.766,38.961-97.214c0-38.961-15.509-73.762-40.853-99.105
			c-25.344-25.722-60.522-41.231-99.484-41.231c-3.026,0-6.431,0-9.457,0.378c-3.404,0-6.43,0.378-9.457,0.757l0,0
			c-0.378,0-0.378,0.378-0.757,0.378c-2.27-0.378-3.783-1.891-3.783-4.161v-0.378v-0.757l0,0c0-33.287-13.618-63.548-35.179-85.488
			c-21.939-21.939-52.201-35.179-85.488-35.179c-10.213,0-20.048,1.135-29.505,3.783c-9.835,2.27-19.292,6.052-27.613,10.591
			c-0.378,0-0.756,0.378-0.756,0.378c-2.27,0.757-4.539-0.378-5.296-2.27c-8.7-24.587-24.965-45.77-45.77-60.522
			c-20.426-14.374-45.392-23.074-72.249-23.074c-15.509,0-30.261,3.026-43.5,7.944c-14.374,5.296-27.235,12.861-38.205,22.696
			c-0.378,0-0.378,0-0.378,0c-1.891,1.513-4.161,1.135-5.674-0.757c-17.4-24.209-40.096-44.257-66.953-57.874
			c-25.722-13.239-54.848-20.805-85.488-20.805c-43.122,0-82.462,14.374-113.858,38.583c-32.531,24.587-56.361,59.766-67.331,99.862
			l0,0c-0.757,2.27-2.648,3.404-4.539,3.026c-3.783-1.135-7.565-1.513-11.726-1.891c-3.783-0.757-7.565-0.757-11.726-0.757
			c-27.992,0-53.335,11.348-71.87,29.883c-18.157,18.157-29.505,43.5-29.505,71.87c0,4.917,0.378,9.835,1.135,14.752
			c0.378,4.917,1.513,9.457,3.026,14.374c0,0.378,0,0.757,0,1.135c0,2.27-1.891,3.783-4.161,3.783
			C813.672,430.429,811.78,430.051,810.646,430.051z"/>
		<path d="M790.219,706.562c0.378-1.891,2.648-3.026,4.917-2.648c1.891,0.757,3.026,3.026,2.648,4.917
			c-0.378,0.378-21.939,68.466-8.7,170.597c11.726,90.027-26.479,141.471-53.714,178.541c-4.539,6.052-8.7,11.726-12.483,17.4l0,0
			l0,0c-11.726,17.778-14.374,32.531-10.213,45.014c3.783,12.861,14.374,23.831,28.37,34.044c3.783,2.648,7.565,5.296,11.348,7.943
			c23.831,16.644,35.935,24.965,23.831,51.066l0,0l0,0c-9.457,20.426,6.052,32.909,18.535,42.744c2.27,1.891,4.161,3.783,6.43,5.674
			c9.835,8.7,6.431,15.887,0,23.074c-1.513,1.891-3.026,3.404-4.917,4.917c-2.648,3.026-5.674,6.052-7.565,8.7
			c-2.648,4.917,4.161,12.483,10.97,19.67c3.783,4.161,7.565,7.944,10.213,12.104c3.026,5.674,1.891,18.535,0,34.422
			c-2.27,22.696-5.296,52.201,3.404,68.844c8.7,15.509,63.548,29.505,135.04,27.235c53.335-1.891,115.371-12.861,174.38-39.339
			c138.445-62.035,158.493-226.581,158.493-226.959c0.378-2.27,2.27-3.783,4.539-3.404c0.757,0,1.513,0.378,1.891,0.756l0,0
			c0,0,63.17,52.579,128.232-34.8c14.752-19.67,26.479-40.096,35.179-59.766c13.239-31.396,18.913-61.657,16.644-87.379
			c-2.27-25.344-12.104-46.148-29.505-59.388c-4.161-3.026-9.078-6.052-14.374-8.322c-61.279-26.1-102.131,40.096-102.131,40.474
			c-1.135,1.891-3.783,2.27-5.674,1.135c-1.513-1.135-2.27-3.404-1.135-5.296c0-0.378,44.257-72.249,111.966-43.5
			c6.052,2.648,11.348,5.674,15.887,9.078c19.67,14.752,30.261,37.448,32.531,65.062c2.648,27.235-3.404,58.631-17.022,91.162
			c-8.7,20.426-20.805,41.231-35.935,61.279c-58.631,78.679-116.505,51.444-134.284,40.096
			c-5.296,31.396-35.935,170.219-161.897,226.959c-60.144,26.857-123.314,38.205-177.406,39.718
			c-74.518,2.648-132.393-13.239-142.228-31.396c-10.213-18.535-6.809-49.174-4.161-73.005c1.513-14.374,2.648-26.1,0.757-29.505
			c-1.891-3.404-5.674-7.187-9.078-10.97c-8.7-9.457-17.778-18.913-11.726-29.126c2.27-3.404,5.296-6.809,8.7-9.835
			c1.513-1.891,3.026-3.404,4.539-4.917c3.404-3.783,5.296-7.944,0.378-12.104c-1.891-1.513-3.783-3.404-6.052-4.917
			c-14.752-11.726-32.909-26.479-20.805-52.579l0,0c9.457-20.048-1.135-27.235-21.183-41.231c-3.404-2.27-7.187-4.917-11.348-8.322
			c-15.509-10.97-26.857-23.074-31.396-37.827c-4.539-14.752-1.891-31.774,11.348-51.822l0,0
			c3.783-5.296,7.944-11.348,12.861-17.778c26.479-35.935,63.17-85.866,51.822-172.489
			C767.902,776.541,789.841,706.941,790.219,706.562z"/>
		<path d="M1422.3,1042.083c0,2.27-1.891,3.783-4.161,3.783c-1.891,0-3.783-1.891-3.783-3.783c0-0.378,1.513-75.275-51.444-54.848
			c-18.913,7.565-20.426,17.4-15.887,29.126c2.27,6.052,6.43,12.861,10.591,20.048c11.726,19.67,24.587,41.987,16.265,66.953
			c-7.565,22.696-18.157,38.205-29.126,46.905c-4.539,4.161-9.835,6.43-14.374,7.565c-5.296,1.513-9.835,1.135-14.374-0.378
			c-4.917-1.513-9.078-4.539-12.483-9.078c-1.513-1.513-1.135-4.161,0.378-5.296c1.891-1.513,4.161-1.135,5.674,0.378
			c2.648,3.404,5.674,5.674,8.7,6.809c3.026,0.756,6.431,1.135,10.213,0c3.783-0.757,7.565-3.026,11.348-6.052
			c9.835-7.565,19.292-21.939,26.857-43.5c7.187-21.183-5.296-41.987-15.887-60.144c-4.161-7.565-8.322-14.752-10.97-21.183
			c-6.431-16.265-4.539-29.505,20.426-39.34C1423.813,955.082,1422.3,1041.705,1422.3,1042.083z"/>
		<path d="M1688.22,743.632c-1.135-1.891-0.378-4.539,1.513-5.296c1.891-1.135,4.161-0.378,5.296,1.513
			c0.378,0.757,99.105,187.241-18.535,395.665c-57.875,102.131-86.623,197.832-86.623,285.212
			c-0.378,88.136,27.992,167.571,84.353,236.794c1.513,1.513,1.135,4.161-0.378,5.296c-1.891,1.513-4.161,1.135-5.674-0.378
			c-57.496-70.357-86.623-151.684-86.244-241.711c0.378-88.514,29.126-185.728,87.379-289.373
			C1785.055,927.091,1688.22,744.011,1688.22,743.632z"/>
		<path d="M1027.391,1458.931c-1.891-0.757-3.026-3.026-1.891-4.917c0.757-2.27,3.026-3.026,4.917-2.27
			c0.378,0,133.906,50.687,162.654,295.803c0,2.27-1.513,4.161-3.404,4.539c-2.27,0.378-4.161-1.513-4.539-3.404
			C1157.136,1508.105,1027.77,1458.931,1027.391,1458.931z"/>
		<path d="M1345.512,619.561c1.891,1.135,2.648,3.783,1.135,5.296c-1.135,1.891-3.404,2.27-5.296,1.135
			c-1.891-1.135-6.052-7.565-12.104-17.022c-1.891-3.026-4.161-6.052-6.052-9.457c-10.591,1.135-20.805,1.513-31.396,1.891
			c-3.783,5.674-7.565,11.348-11.348,17.022c30.261,17.4,57.496,38.205,79.436,58.631c5.296,4.917,10.213,9.835,14.752,14.752
			c37.07-3.404,69.979-9.835,95.323-19.292c24.587-9.078,38.961-20.048,44.257-32.153c4.539-10.591,1.891-22.696-7.565-34.8
			c-9.457-12.861-26.1-26.1-47.661-38.583c-6.431-3.783-13.618-7.187-20.805-10.97c-3.783,3.026-7.943,5.674-12.104,8.7
			c-27.235,18.157-59.766,29.126-94.566,33.666l4.161,6.052C1341.351,613.509,1345.134,619.183,1345.512,619.561z M1318.277,591.948
			c-3.404-4.917-7.187-10.591-10.97-16.265c-3.783,6.052-7.187,11.726-10.591,17.778
			C1303.903,593.083,1311.09,592.705,1318.277,591.948z M1302.011,568.496c-13.996-20.048-32.152-43.5-52.579-65.061l-1.135-0.378
			c-6.431,4.917-12.483,9.457-18.913,14.374c1.513,23.831,4.539,48.796,9.835,73.005c15.887,1.891,32.152,3.026,48.04,3.026
			C1292.555,585.139,1297.472,576.818,1302.011,568.496z M1240.733,494.356c-3.783-3.783-7.944-7.565-11.726-11.348
			c-0.378,3.404-0.378,6.809-0.378,9.835v0.378C1232.789,493.599,1236.572,493.978,1240.733,494.356z M1221.441,476.577
			c-46.905-40.096-103.266-65.818-163.032-39.34c-23.074,10.213-33.287,22.318-34.044,35.557
			c-0.757,12.483,7.187,26.1,21.183,39.718c14.752,13.996,35.557,27.613,60.901,39.718c13.996,6.809,29.505,12.861,45.77,18.157
			c21.183-18.913,44.635-37.826,69.222-56.74c-0.378-4.539-0.378-8.7-0.378-13.239c-34.044-2.648-68.844-3.026-102.51,0.378
			c-2.27,0-4.161-1.513-4.539-3.783c0-2.27,1.513-4.161,3.783-4.161c34.044-3.026,68.844-3.026,102.888-0.378
			C1221.063,487.169,1221.063,481.873,1221.441,476.577z M1055.005,430.051c61.657-27.235,119.153-2.648,166.815,36.692
			c2.27-28.37,7.565-54.092,16.644-75.653c14.752-34.044,39.34-56.361,74.896-57.496c26.857-0.757,43.122,10.591,50.687,30.261
			c6.052,15.887,6.809,36.692,2.648,60.901c40.474-15.509,74.14-18.157,98.349-12.483c13.996,3.404,25.344,10.213,32.531,18.913
			c7.187,9.078,10.591,20.426,9.457,33.287c-2.27,24.587-21.561,55.227-61.657,86.244c6.052,3.026,12.104,6.43,17.4,9.457
			c22.696,12.861,40.096,26.857,50.309,40.474c10.97,14.752,14.374,29.126,8.322,43.122c-6.052,13.617-21.939,26.1-48.796,36.313
			c-24.209,9.078-55.983,15.131-91.54,18.913c12.861,14.374,22.318,27.992,28.748,40.474c10.213,19.67,11.726,36.313,2.27,46.148
			c-7.187,7.565-21.183,10.213-42.366,6.43c-40.096-7.187-73.762-41.609-98.727-88.514c-19.292-0.378-38.583-1.135-57.875-2.648
			c-38.205,38.205-78.679,64.305-115.371,66.196c-22.696,1.135-38.961-1.891-49.553-8.322c-12.861-7.565-17.4-19.67-15.131-34.8
			c2.27-13.239,9.457-29.126,20.805-46.527c-25.344-6.809-46.148-14.374-59.766-23.074c-16.265-10.213-22.696-21.561-16.265-34.044
			c5.674-11.726,24.209-23.831,58.631-35.935c31.774-10.97,63.927-14.752,95.701-12.861c-10.213-3.783-20.048-7.944-29.126-12.104
			c-25.722-12.483-47.661-26.857-62.792-41.231c-15.887-15.131-24.587-31.018-23.831-45.77
			C1017.556,456.151,1029.283,441.399,1055.005,430.051z M1229.385,472.795c7.187,6.431,13.996,12.861,20.426,19.67
			c11.348-8.322,23.074-16.265,34.8-24.209c26.1-17.778,50.688-31.018,73.762-40.096v-0.757c4.539-24.587,4.539-45.392-1.513-60.522
			c-6.43-16.644-20.426-26.1-43.122-25.344c-32.152,0.757-54.47,21.183-68.088,52.957
			C1236.193,416.055,1230.898,443.29,1229.385,472.795z M1261.537,504.947c17.4,18.913,32.531,38.583,45.013,55.983
			c7.944-14.374,15.131-28.748,21.561-43.122C1306.929,512.513,1284.611,507.973,1261.537,504.947z M1311.468,568.117
			c5.674,8.322,10.97,16.265,15.509,23.074c34.8-4.539,67.331-14.752,94.566-33.287c3.026-1.891,5.674-3.783,8.7-5.674
			c-27.235-12.483-59.388-23.831-94.188-32.531C1328.868,535.587,1320.546,551.852,1311.468,568.117z M1160.919,573.413
			c4.539,1.513,9.457,2.648,14.374,4.161c7.565,1.513,14.752,3.404,21.939,5.674c10.97,2.27,22.318,4.539,33.666,6.052
			c-4.539-21.939-7.565-44.257-9.078-66.196C1200.258,539.748,1179.832,556.77,1160.919,573.413z M1282.342,601.405
			c-13.618-0.378-27.613-1.135-41.231-3.026v0.378c10.97,4.917,21.939,10.213,32.531,15.887
			C1276.668,610.105,1279.694,605.944,1282.342,601.405z M1195.341,590.813c-7.565-1.891-14.752-3.783-22.318-5.674
			c-7.187-1.513-13.996-2.648-21.183-3.783c-35.935,32.531-65.44,63.927-85.109,91.162c40.474,9.457,90.783,16.644,143.74,20.426
			c12.861-12.861,25.344-27.613,37.448-42.744c-4.539-12.483-8.322-25.344-11.726-38.205c-0.757-2.648-1.135-4.917-1.891-7.565
			C1221.819,599.135,1208.58,594.596,1195.341,590.813z M1437.43,546.935c40.474-30.639,59.387-60.144,61.657-83.218
			c1.135-10.591-1.891-20.048-7.565-27.613c-6.431-7.565-15.887-12.861-28.37-15.887c-23.831-6.052-57.496-2.648-97.97,13.239
			c-4.917,24.209-13.996,51.066-26.1,79.057C1375.773,521.969,1409.06,533.695,1437.43,546.935z M1356.481,437.238
			c-21.183,9.078-43.5,21.561-67.709,37.448c-10.213,7.187-20.805,14.374-31.018,21.939c25.344,3.404,49.931,7.944,73.762,13.618
			v-0.378C1342.864,484.521,1351.186,459.556,1356.481,437.238z M1058.409,670.627c19.292-27.235,48.04-58.253,82.84-90.405
			c-33.666-3.404-68.088-0.378-102.131,11.726c-32.531,10.97-49.553,21.939-54.47,31.774c-4.161,8.322,1.513,16.265,13.618,24.209
			C1011.882,656.253,1032.687,663.818,1058.409,670.627z M1229.006,507.973c2.648-2.27,5.296-4.161,7.943-6.052
			c-2.648-0.378-5.296-0.757-8.322-0.757C1229.006,503.434,1229.006,505.704,1229.006,507.973z M1061.813,679.327
			c-11.726,17.4-18.913,32.909-20.805,45.77c-1.891,12.104,1.513,21.183,10.97,27.235c9.457,5.296,24.209,7.944,45.392,6.809
			c33.287-1.891,70.357-24.587,105.536-59.009C1151.084,696.349,1101.153,689.162,1061.813,679.327z M1253.594,642.636
			c5.296-6.809,10.213-13.996,15.509-21.561c-8.322-4.539-17.022-8.7-25.722-12.483l0.378,1.135
			C1246.785,621.075,1249.811,632.044,1253.594,642.636z M1275.911,624.857c-6.431,9.078-12.861,17.778-19.292,26.479
			c5.674,15.509,11.726,30.639,18.913,44.257c30.639,0.378,60.901-0.378,89.271-2.648c-3.404-3.404-6.809-6.809-10.213-10.213
			C1333.029,662.305,1306.172,642.257,1275.911,624.857z M1250.946,658.523c-9.835,12.483-20.426,24.209-30.639,35.179
			c15.509,0.757,31.018,1.513,46.526,1.891C1261.159,683.866,1255.485,671.384,1250.946,658.523z M1279.694,703.536
			c23.831,43.122,54.848,74.14,91.162,80.949c18.535,3.404,29.883,1.135,35.557-4.539c6.809-6.809,4.917-20.426-3.783-37.07
			c-6.43-12.861-17.022-27.613-31.018-42.744C1342.486,702.78,1311.468,703.914,1279.694,703.536z"/>
	</g>
</g>
</svg>
