<?xml version="1.0" encoding="UTF-8"?>
<svg id="Vector_layer" data-name="Vector layer" xmlns="http://www.w3.org/2000/svg" viewBox="0 0 2360 1640">
  <path d="M2169.31,1281.11c-6.96,2.72-12.14,9.69-18.91,13.32-86.52,55.92-203.19,103.16-301.87,51.14,18.81-16.2,37.56-36.49,41.94-61.76,6.05-28.46-18.82-51.05-46.63-44.38-50.32,13.27-48.57,79.22-10.61,106.45-36.41,27.87-81.81,39.79-127.16,40.75-39.55.2-83.46-1.4-116.06-26.5,18.74-16.27,36.12-37.13,38.63-62.73,3.92-22.89-22.9-44.9-43.37-30.97-29.89,20.88-33.09,66.84-8.73,93.26-43.13,34.49-96.27,52.98-148.98,67.38-101.16,29.44-210.84,24.53-310.8-7.51,104.93-17.92,204.09-60.01,295.03-114.59,131.75-75.56,244.24-185.01,318.86-317.65,39.78-69.7,57.41-148.93,68.8-227.67,10.19-73.4,17.89-147.55,15.64-221.74-4-220.11-103.7-361.5-336.98-353.42-135.32,5.92-280.63,65.39-344.65,191.41-81.58-61.15-186.73-86.85-287.51-73.09-60.34,8.32-121.02,27.41-169.4,65.46-62.04,48.86-97.02,123.77-109.59,200.53-9.61,52.41-14.78,105.9-11.71,159.19,9.56,153.98,81.68,290.14,179.07,406.79,57.23,73.58,126.06,137.14,203.03,189.62,47.28,32.48,93.8,67.1,145.88,91.62-123.38,17.4-250.05,14-371.5-14.65-56.03-14.54-117.29-27.55-160.87-68.14,19.87-18.6,34.32-44.98,32.25-72.81-.44-17.75-10.94-39.19-30.8-40-24.78.06-38.86,26.33-41.38,48.19-2.11,23.93,11.11,46.65,26.66,63.86-37.8,27.52-112.1,13.63-148.21-12.13,18.15-14.56,34.87-33.36,40.25-56.54,5.76-23.62-8.61-57.78-36.8-54.69-52.56,8.47-56.38,80.96-18.89,110.35-57.39,33.16-152.22-6.91-176.99-65.65-.56-1.73-1.38-4.07-1.64-6.45.45-1.55.12-3.33-1.12-4.49-5.56-4.61-9.68,3.04-7.43,8.02,11.06,38.41,47.93,63.53,83.1,78.34,35.51,15.18,77.58,16.51,111.5-3.54,39.49,29.92,120.93,44.87,162.58,13.4,46.74,44.21,113.19,57.59,173.67,72.94,124.86,28.22,255.11,30.58,381.42,10.68,58.94,22.58,122.57,31.16,185.39,33.07,92.16,1.6,226.21-31.69,298.62-89.7,34.18,27.66,81.21,29.94,123.41,29.59,48.21-.87,96.08-14.35,134.53-44.15,101.33,57.15,224.37,8.9,314.19-49.39,4.52-3.87,28.69-16.5,14.17-21.02ZM367.23,1234.49c8.29-11.59,25.45-21.46,39.53-13.71,34.32,27.36,3.24,74.39-24.83,93.75-23.76-18.66-32.46-54.28-14.71-80.04ZM544.53,1326.7c-17.15-18.55-31.53-45.6-21.35-70.92,4.75-13.62,16.4-29.14,32.72-25.76,12.72,4.23,17.68,18.89,18.19,31.34,1.59,25.03-11.52,48.65-29.56,65.34ZM1136.89,389.8c33.5,26.69,63.96,60.01,79.41,100.51,14.18,37.46,3.77,78.29-41.87,81.24-15.3,1.25-29.19-7.96-39.56-18.81-36.62-43.03-19.23-116.09,2.03-162.95ZM1094.22,1411.02c-3.42-1.49-6.83-2.98-10.21-4.56-59.72-29.61-113.43-69.9-167.66-108.33-65.86-46.89-123.68-104.02-173.71-167.4-92.57-110.64-163.3-239.71-176.95-385.37-5.08-52.81-1.27-106.11,7.27-158.37,11.08-79.64,43.32-158.95,107.44-210.28,47.82-38.06,108.14-57.12,168.1-65.06,98.63-13.22,201.49,12.41,281,72.62-27.43,58.71-47.43,159.61,25.15,193.3,51.45,14.78,89.2-29.38,73.21-79.45-12.96-47.85-49.1-86.47-87.04-116.69,62.9-125.48,208.18-183.21,342.22-188.12,207.86-5.41,309.82,112.51,321.46,313.22,5.83,83.77-2.35,167.78-13.85,250.74-11.27,78.26-28.62,157.06-68.25,226.3-75.23,133.56-189.33,242.78-322.51,317.92-92.31,54.88-193.46,95.37-299.88,111.91-1.94-.76-3.88-1.53-5.78-2.37ZM1580.98,1350.76c-18.65-22.86-14.68-60.11,9.82-77.16,16.83-9.5,33.66,10.92,28.19,27.65-4.08,21.32-19.43,38.67-35.53,52.59-.86-1-1.69-2.03-2.47-3.09ZM1840.74,1340.2c-33.45-22.02-38.76-80.03,5.38-92.02,24.27-4.95,41.33,13.91,34.69,38.09-5.98,21.9-22.84,39.81-40.07,53.93Z"/>
  <path d="M1497.69,1044.58c89.56-47.41,142.75-164.23,105.77-261.04,55.85-64.05,83.27-169.48,35.25-245,32.73-35.42,24-88.27,8.32-129.55-14.36-40.71-44.88-75.28-84.27-93.26-59.98-28.84-132.66-10.85-182.95,29.43-4.98,4.9-44.33,33.04-27.13,37.29,4.45-.28,5.21-5.81,8.36-8.24,14.42-15,30.89-28.11,48.82-38.66,77.73-46.37,176.02-26.95,219.4,55.49,20.02,42.46,37.76,100.44,3.67,140.33-21.14-26.97-67.32-32.96-89-3.58-11.45,15.14.59,36.36,17.71,40.19,24.97,4.71,52.3-5.84,70.71-22.74,43.21,71.26,17.86,168.96-33.36,229.56-22.68-44.73-93.13-57.3-119.15-9.58-13.74,27.08,5.17,61.6,35.52,64.14,31.49,2.55,60.29-16.84,81.32-38.58,31.38,91.36-17.61,198.33-100.35,244.33-3.45-19.59-16.16-39.59-36.88-43.5-15.92-2.94-34.64,2.45-43.41,16.81-25.02,45.22,43.35,57.11,72.78,40.29-1.52,79.54-79.03,150.04-146.82,181.42-24.49,11.44-50.9,17.77-76.72,25.45-18.36,5.24-36.81,10.27-55.44,14.48-3.82.87-4.42,6.44-1.08,8.27,31.16-3.47,62.2-16.01,92.9-23.94,39.87-11.1,77.47-30.4,109.42-56.72,44.83-38.25,88.75-90.95,86.59-153.1ZM1575.15,560.23c-12.34,1.42-28.21-6.53-26.52-20.82,12.5-32.36,60.35-25.92,78.14-1.35-13.67,13.48-32.72,20.49-51.62,22.17ZM1524.12,820.56c-29.83,3.06-50.44-30.37-33.87-55.5,26.67-37.11,84.93-21.53,102.34,16.87-17.94,19.34-41.39,36.58-68.47,38.63ZM1460.32,1047.01c-14.49.4-36.45-1.75-40.48-18.64.5-38.99,62.08-40.63,68.04,10.87-8.72,3.94-17.97,6.98-27.56,7.77Z"/>
</svg>