<?xml version="1.0" encoding="utf-8"?>
<!-- Generator: Adobe Illustrator 29.8.1, SVG Export Plug-In . SVG Version: 9.03 Build 0)  -->
<svg version="1.0" id="Layer_1" xmlns="http://www.w3.org/2000/svg" xmlns:xlink="http://www.w3.org/1999/xlink" x="0px" y="0px"
	 viewBox="0 0 2000 1500" style="enable-background:new 0 0 2000 1500;" xml:space="preserve">
<g>
	<path d="M1946.057,744.688c-36.74,3.315-64.383,7.127-87.714,10.218c-23.307,3.236-42.301,5.874-61.533,8.544
		c-19.227,2.677-38.691,5.373-62.983,8.355c-12.149,1.447-25.501,3.028-40.654,4.417c-7.576,0.707-15.595,1.515-24.092,1.666
		c-4.247,0.068-8.619-0.032-13.076-0.499c-4.454-0.465-8.999-1.324-13.465-2.835c-4.563-1.536-8.73-3.703-12.302-6.429
		c-3.571-2.725-6.606-5.916-8.987-9.412c-4.829-6.984-7.271-14.816-8.66-22.256c-1.38-7.481-1.721-14.697-1.709-21.514
		c0.022-6.825,0.433-13.279,0.925-19.424c2.008-24.666,3.6-44.412,5.079-64.161c0.721-9.877,1.443-19.754,2.209-30.248
		c0.367-5.249,0.744-10.651,1.138-16.286c0.367-5.636,0.749-11.504,1.151-17.681c1.566-24.71,3.359-54.371,5.165-93.949
		c1.801-39.573,2.711-69.274,3.329-94.026c0.146-6.188,0.284-12.067,0.417-17.714c0.1-5.648,0.196-11.063,0.289-16.324
		c0.213-10.521,0.268-20.426,0.388-30.329c0.125-9.903,0.105-19.808,0.172-30.331c-0.02-10.526-0.04-21.67-0.063-34.053
		c-0.067-6.206-0.223-12.747-0.8-19.677c-0.604-6.923-1.647-14.258-3.785-21.861c-0.232-0.958-0.583-1.895-0.886-2.85
		c-0.329-0.948-0.597-1.924-0.983-2.87c-0.76-1.896-1.482-3.84-2.45-5.721c-0.854-1.932-1.983-3.765-3.062-5.66
		c-0.573-0.927-1.226-1.818-1.843-2.738c-0.316-0.456-0.633-0.914-0.951-1.373c-0.353-0.434-0.708-0.87-1.064-1.307
		c-2.76-3.57-6.178-6.794-9.995-9.671c-3.817-2.887-8.09-5.402-12.713-7.448c-4.616-2.07-9.244-3.654-13.783-4.941
		c-4.552-1.237-9.006-2.21-13.342-3.014c-8.688-1.526-16.842-2.577-24.571-3.317c-15.442-1.674-29.062-2.385-41.44-3.098
		c-12.381-0.579-23.528-1.05-34.059-1.332c-10.531-0.37-20.445-0.506-30.363-0.739c-19.835-0.326-39.684-0.559-64.501-0.604
		c-24.817-0.08-54.604,0.015-94.313,0.375c-79.203,0.789-118.795,1.544-158.393,2.151c-39.596,0.614-79.194,1.366-158.389,2.332
		c-79.183,0.88-118.774,0.927-158.358,0.692c-9.895-0.105-19.792-0.123-30.303-0.303c-5.256-0.078-10.667-0.157-16.309-0.241
		c-5.641-0.122-11.514-0.249-17.696-0.382c-6.183-0.115-12.671-0.317-19.545-0.543c-3.437-0.109-6.971-0.22-10.611-0.335
		c-3.637-0.155-7.381-0.314-11.24-0.478c-15.448-0.486-32.647-1.897-52.376-3.648c-78.856-7.253-118.498-10.095-158.254-9.588
		c-9.938,0.2-19.89,0.617-30.441,1.793c-5.273,0.598-10.699,1.369-16.311,2.593c-5.601,1.232-11.443,2.812-17.261,5.684
		c-2.889,1.45-5.793,3.261-8.312,5.827c-2.523,2.564-4.362,5.623-5.944,8.843c-3.112,6.479-5.035,13.695-6.552,21.379
		c-2.938,15.408-4.111,32.845-4.45,52.705c-0.287,19.868,0.292,37.224,0.962,52.702c0.692,15.478,1.554,29.08,2.409,41.437
		c1.738,24.713,3.455,44.451,5.225,64.181c1.782,19.729,3.683,39.444,6.06,64.08c1.162,12.317,2.441,25.867,3.894,41.264
		c1.38,15.397,2.923,32.646,4.134,52.364c0.587,9.856,0.988,19.099,1.049,27.775c0.018,4.335-0.037,8.532-0.266,12.566
		c-0.241,4.019-0.594,7.935-1.411,11.454c-0.397,1.742-0.988,3.408-1.712,4.503c-0.371,0.518-0.712,0.748-0.879,0.785
		c-0.042,0.044-0.107-0.008-0.154,0.025l-0.02,0.007c-0.009-0.254-0.011,0.361-0.01,0.274c-0.001-0.032,0-0.062,0.004-0.089
		c0.007-0.055,0.022-0.099,0.04-0.131c0.019-0.115-0.024-0.068-0.055-0.08c-0.064-0.064-0.133-0.115-0.212-0.158
		c-0.357-0.323-0.792-0.907-1.174-1.544c-0.382-0.661-0.733-1.383-1.058-2.13c-0.649-1.5-1.178-3.097-1.661-4.684
		c-1.896-6.397-3.022-12.769-3.994-18.808c-1.873-12.124-2.871-23.178-3.575-33.614c-0.68-10.442-1.004-20.292-0.998-30.126
		c0.044-9.823,0.328-19.677,1.565-29.931c0.319-2.558,0.706-5.138,1.227-7.706c0.525-2.559,1.176-5.137,2.104-7.505
		c0.246-0.574,0.487-1.157,0.771-1.678c0.133-0.292,0.277-0.498,0.413-0.709c0.124-0.224,0.28-0.429,0.453-0.622
		c0.651-0.8,1.514-1.489,2.549-2.068c2.097-1.145,4.799-1.793,7.648-2.166c5.765-0.68,12.165-0.373,18.896,0.274
		c6.747,0.668,13.889,1.709,21.475,2.989c15.176,2.559,32.137,6.013,51.536,9.948c38.794,7.946,68.013,13.544,92.437,17.734
		c12.212,2.104,23.222,3.889,33.633,5.495c10.425,1.572,20.188,3.088,30.115,4.262c9.899,1.148,19.822,1.971,30.385,2.511
		c10.565,0.515,21.767,0.823,34.258,0.307c6.248-0.298,12.809-0.698,19.812-1.986c0.876-0.173,1.758-0.347,2.647-0.522
		c0.895-0.246,1.796-0.494,2.703-0.744c0.813-0.18,2.048-0.675,3.008-1.245c0.464-0.312,0.95-0.619,1.388-0.956l1.202-1.09
		c1.466-1.526,2.695-3.195,3.679-4.948c0.539-0.866,0.942-1.771,1.423-2.667c0.41-0.91,0.844-1.824,1.226-2.755
		c3.036-7.457,4.964-15.583,6.573-24.276c1.575-8.7,2.738-17.993,3.502-27.946c0.381-4.977,0.615-9.809,0.708-14.513
		c0.051-2.344,0.043-4.692,0.003-6.953c-0.037-2.253-0.074-4.472-0.11-6.656c-0.141-8.738-0.273-16.935-0.398-24.668
		c-0.234-15.466-0.44-29.077-0.628-41.45c-0.329-24.747-0.593-44.544-0.856-64.342c-0.127-9.899-0.253-19.798-0.388-30.315
		c-0.035-2.629-0.07-5.297-0.106-8.014c-0.018-1.358-0.037-2.728-0.055-4.112c-0.007-1.338-0.003-2.688,0.045-4.054
		c0.189-5.462,0.835-11.16,2.104-17.001c1.305-5.812,3.182-11.86,6.331-17.476c1.587-2.779,3.477-5.471,5.834-7.666
		c1.168-1.113,2.475-2.042,3.845-2.867c1.404-0.756,2.892-1.355,4.467-1.736c1.589-0.314,3.242-0.488,4.957-0.365
		c1.711,0.151,3.479,0.406,5.128,0.996c3.317,1.128,6.307,3.275,8.67,6.315c2.382,3.023,4.132,6.853,5.374,11.031
		c1.245,4.186,2.017,8.736,2.396,13.494c0.379,4.76,0.387,9.431,0.127,13.945c-0.119,2.238-0.367,4.523-0.562,6.745
		c-0.207,2.227-0.41,4.418-0.611,6.577c-0.503,4.318-0.991,8.502-1.465,12.563c-0.538,4.059-1.059,7.993-1.565,11.813
		c-2.154,15.274-4.303,28.7-6.267,40.904c-4.031,24.42-7.255,43.957-10.48,63.494c-1.574,9.785-3.128,19.576-4.639,30.013
		c-0.378,2.609-0.761,5.257-1.151,7.952c-0.358,2.703-0.722,5.454-1.094,8.263c-0.382,2.806-0.749,5.676-1.071,8.625
		c-0.327,2.948-0.712,5.952-1.013,9.054c-0.284,3.106-0.576,6.29-0.875,9.561c-0.254,3.243-0.518,6.55-0.86,9.934
		c-0.699,6.749-1.593,13.879-3.561,21.003c-1.003,3.53-2.295,7.092-4.215,10.141c-1.926,3.044-4.508,5.359-7.729,5.855
		c-1.612,0.274-3.407,0.128-5.263-0.339c-1.895-0.449-3.629-1.242-5.289-2.315c-3.34-2.108-6.057-5.591-8.314-9.593
		c-2.225-4.057-3.877-8.398-5.332-12.715c-1.44-4.349-2.802-8.665-4.102-12.813c-2.598-8.32-4.953-16.157-7.141-23.561
		c-4.367-14.811-8.051-27.896-11.318-39.812c-6.52-23.837-11.425-42.991-16.051-62.205c-4.588-19.219-8.989-38.495-13.481-62.748
		c-2.199-12.128-4.449-25.513-6.082-40.773c-0.784-7.624-1.424-15.734-1.379-24.295c0.052-4.267,0.256-8.674,1.018-13
		c0.343-2.175,0.915-4.291,1.674-6.244c0.379-0.978,0.848-1.881,1.377-2.664c0.283-0.36,0.525-0.799,0.851-1.057l0.448-0.461
		c0.178-0.159,0.421-0.321,0.627-0.483c3.322-2.69,7.653-3.862,12.014-4.762c2.219-0.364,4.381-0.775,6.592-0.991
		c1.096-0.129,2.184-0.257,3.263-0.385c1.092-0.091,2.174-0.181,3.249-0.27c8.604-0.694,16.77-0.979,24.475-1.159
		c15.416-0.352,29.019-0.385,41.387-0.356c24.737,0.058,44.546,0.288,64.367,0.522c39.643,0.493,79.342,1.121,158.742,2.376
		c78.975,1.181,118.462,1.771,158.006,2.362c39.545,0.544,79.146,1.089,158.348,2.179c79.19,1.169,118.785,1.754,158.381,2.338
		c19.798,0.299,39.595,0.598,64.342,0.972c6.149,0.1,12.534,0.219,19.021,1.248c6.43,1.052,13.1,3.042,18.388,7.472
		c2.631,2.201,4.913,4.959,6.657,8.228c1.757,3.262,3.003,7,3.826,11.027c1.673,8.09,1.597,17.185,1.279,27.04
		c-2.209,79.166-3.314,118.749-4.418,158.332c-0.542,19.789-1.083,39.579-1.76,64.315c-0.175,6.162-0.45,12.603-0.986,19.385
		c-0.543,6.778-1.332,13.905-2.772,21.334c-1.451,7.414-3.557,15.164-7.057,22.809c-3.491,7.625-8.461,15.127-15.438,21.432
		c-3.52,3.103-7.3,5.681-11.175,7.85c-3.891,2.15-7.913,3.804-11.882,5.236c-3.991,1.392-7.978,2.459-11.883,3.378
		c-3.926,0.86-7.762,1.606-11.535,2.167c-7.533,1.174-14.718,1.902-21.562,2.594c-6.849,0.692-13.314,1.346-19.47,1.968
		c-24.625,2.503-44.325,4.505-64.024,6.508c-39.401,3.981-78.798,7.963-157.594,15.925c-19.479,1.958-36.551,3.675-51.742,5.203
		l-0.007,0c-1.595,0.161-2.759,1.584-2.599,3.18c0.136,1.351,1.179,2.392,2.464,2.582c27.008,3.999,48.493,5.877,67.582,7.238
		c4.777,0.282,9.405,0.555,13.934,0.822c2.264,0.155,4.507,0.231,6.732,0.299c2.225,0.075,4.432,0.15,6.628,0.224
		c4.392,0.121,8.735,0.354,13.089,0.381c4.354,0.039,8.715,0.077,13.134,0.116c2.21,0.008,4.434,0.065,6.679,0.034
		c2.245-0.035,4.512-0.071,6.806-0.107c4.588-0.078,9.288-0.157,14.15-0.24c9.718-0.421,20.097-0.679,31.517-1.53
		c22.842-1.51,49.949-4.008,84.309-9.618c9.817-1.498,18.941-3.352,27.558-4.953c1.076-0.205,2.145-0.407,3.204-0.609
		c1.055-0.227,2.102-0.451,3.14-0.674c2.077-0.446,4.123-0.885,6.137-1.317c4.028-0.868,7.934-1.709,11.725-2.526
		c7.545-1.829,14.623-3.491,21.353-5.165c6.765-1.768,13.033-3.865,18.878-6.196c5.846-2.331,11.27-4.903,16.294-7.754
		c5.033-2.829,9.663-5.949,13.859-9.414c4.206-3.445,7.956-7.284,11.068-11.579c3.145-4.261,5.522-9.084,6.929-14.216
		c1.407-5.137,1.615-10.591,0.856-15.902c-0.743-5.312-2.663-10.606-5.663-15.417c-1.561-2.358-3.297-4.672-5.381-6.699
		c-0.984-1.077-2.131-1.983-3.22-2.978c-1.167-0.887-2.302-1.856-3.555-2.66c-4.906-3.412-10.522-6.004-16.565-8.092
		c-12.143-4.064-26.055-5.975-41.749-6.14c-3.927-0.023-7.969,0.067-12.132,0.292c-4.108,0.251-8.343,0.51-12.712,0.777
		c-8.722,0.544-17.985,1.123-27.866,1.739c-156.403,9.789-158.05,10.496-311.192,20.096c-1.284,0.08-2.259,1.186-2.179,2.47
		c0.026,0.41,0.156,0.788,0.363,1.11l0.067,0.103c0.592,0.916,1.524,2.24,2.382,3.63c4.973,8.146,7.487,16.951,8.521,25.318
		c0.942,8.412,0.368,16.445-1.154,23.793c-0.766,3.678-1.796,7.18-2.961,10.522c-1.238,3.313-2.551,6.498-4.122,9.447
		c-1.493,2.99-3.24,5.73-4.986,8.359c-1.843,2.56-3.708,5.005-5.742,7.198c-4.022,4.426-8.401,8.097-12.979,11.017
		c-1.12,0.771-2.328,1.367-3.469,2.051c-1.152,0.666-2.367,1.181-3.529,1.774c-1.173,0.571-2.396,0.999-3.575,1.501
		c-1.182,0.486-2.48,0.924-3.709,1.398c-4.967,1.892-9.876,3.858-14.365,6.92c-2.226,1.534-4.369,3.405-5.985,5.877
		c-0.801,1.232-1.443,2.622-1.822,4.096c-0.383,1.473-0.494,3.012-0.373,4.49c0.043,0.738,0.201,1.471,0.375,2.203
		c0.127,0.74,0.418,1.443,0.706,2.146c0.57,1.406,1.443,2.672,2.418,3.794c1.993,2.235,4.499,3.713,7.027,4.786
		c5.107,2.115,10.462,2.84,15.91,3.079c5.266,0.149,10.687,0.302,16.341,0.463c2.826,0.076,5.71,0.153,8.662,0.232
		c2.952,0.043,5.973,0.086,9.07,0.131c24.778,0.378,54.533,0.456,94.162-1.029c39.627-1.523,69.293-3.789,93.982-5.943
		c6.17-0.572,12.031-1.116,17.661-1.638c5.623-0.592,11.015-1.159,16.253-1.711c2.619-0.278,5.199-0.551,7.751-0.821
		c2.548-0.3,5.067-0.597,7.567-0.891c5-0.597,9.922-1.185,14.844-1.772c19.667-2.529,39.328-5.151,63.792-9.158
		c3.06-0.492,6.195-0.997,9.417-1.515c3.215-0.559,6.516-1.132,9.913-1.722c6.77-1.178,13.921-2.422,21.528-3.745
		c3.771-0.591,7.653-1.105,11.645-1.417c3.99-0.318,8.098-0.403,12.25-0.037c4.146,0.365,8.349,1.184,12.339,2.793
		c3.987,1.594,7.729,4.035,10.845,7.329c3.135,3.276,5.304,7.231,6.844,11.302c1.533,4.088,2.422,8.327,2.966,12.504
		c1.075,8.38,0.8,16.49,0.501,24.161c-0.661,15.453-1.243,29.051-1.771,41.411c-1.058,24.72-1.905,44.487-2.75,64.242
		c-1.69,39.509-3.378,78.964-6.755,157.874c-3.393,79.124-5.089,118.686-6.786,158.248c-0.85,19.781-1.7,39.562-2.763,64.288
		c-0.531,12.362-1.115,25.961-1.778,41.414c-0.333,7.718-0.727,15.875-1.414,24.528c-0.694,8.649-1.669,17.802-3.397,27.413
		c-1.73,9.607-4.05,18.453-7.009,26.47c-2.95,8.02-6.54,15.195-10.581,21.531c-4.084,6.327-8.647,11.714-13.545,16.114
		c-4.912,4.377-10.167,7.777-15.617,10.035c-5.439,2.285-10.947,3.62-16.333,4.401c-1.354,0.162-2.695,0.323-4.023,0.482
		c-1.342,0.08-2.671,0.158-3.988,0.237c-1.314,0.108-2.632,0.086-3.935,0.099c-1.305-0.01-2.594,0.06-3.885-0.016
		c-2.577-0.088-5.117-0.169-7.636-0.387c-2.516-0.15-5.009-0.432-7.482-0.674c-4.986-0.596-9.896-1.182-14.806-1.769
		c-19.779-2.208-39.654-3.461-64.476-3.834c-12.411-0.184-26.061-0.111-41.551,0.224c-15.467,0.33-32.79,0.699-52.587,1.121
		c-79.178,1.724-118.767,2.586-158.302,3.447c-19.768,0.44-39.522,0.88-64.204,1.43c-6.15,0.031-12.606,0.064-19.447,0.099
		c-1.71,0.03-3.444-0.029-5.204-0.077c-1.76-0.047-3.544-0.095-5.355-0.144c-3.622-0.097-7.35-0.197-11.193-0.3
		c-3.842-0.148-7.797-0.402-11.878-0.608c-4.08-0.245-8.289-0.387-12.624-0.736c-8.671-0.677-17.885-1.281-27.696-2.269
		c-19.684-1.787-36.881-3.817-52.243-5.554c-15.369-1.779-28.895-3.344-41.19-4.766c-24.616-2.762-44.372-4.594-64.168-6.03
		c-9.912-0.554-19.815-1.262-30.372-1.48c-5.275-0.16-10.703-0.397-16.374-0.329c-2.834-0.001-5.727-0.003-8.687-0.004
		c-2.96,0.024-5.99-0.068-9.095,0.091c-6.21,0.223-12.73,0.458-19.639,0.706c-6.87,0.353-14.126,0.726-21.846,1.123
		c-15.448,0.732-32.751,1.552-52.525,2.489c-39.563,1.839-69.248,3.542-93.96,5.366c-24.714,1.812-44.465,3.638-64.182,5.777
		c-2.51,0.27-4.824,0.522-7.317,0.692c-2.484,0.196-5.043,0.384-7.714,0.855c-1.336,0.24-2.703,0.548-4.114,1.063
		c-1.398,0.508-2.884,1.234-4.228,2.487c-0.661,0.641-1.254,1.413-1.701,2.281c-0.433,0.877-0.692,1.812-0.82,2.728
		c-0.086,0.916-0.118,1.762,0.034,2.643c0.08,0.438,0.109,0.882,0.251,1.313c0.137,0.432,0.275,0.867,0.435,1.291
		c0.722,1.692,1.922,3.091,3.226,4.139c1.313,1.051,2.735,1.83,4.173,2.408c2.884,1.159,5.839,1.73,8.845,2.024l1.127,0.094
		l1.069,0.062c0.715,0.041,1.433,0.083,2.155,0.124c1.444,0.083,2.904,0.167,4.381,0.253c2.954,0.17,5.976,0.344,9.075,0.522
		c24.801,1.229,54.628,1.516,94.282-0.228c39.531-1.957,69.074-4.733,93.669-7.15c24.594-2.447,44.246-4.642,63.899-6.862
		c4.913-0.559,9.826-1.118,14.817-1.685c4.998-0.59,10.025-1.1,15.353-1.826c5.307-0.763,10.902-1.784,16.573-4.007
		c2.824-1.117,5.656-2.559,8.32-4.457c2.678-1.887,5.084-4.287,7.186-6.974c2.111-2.694,3.813-5.753,5.159-8.985
		c1.358-3.233,2.388-6.642,3.179-10.159c1.578-7.039,2.17-14.5,2.666-22.234c0.995-15.435,2.109-32.724,3.382-52.482
		c2.465-39.521,4.314-69.163,5.855-93.864c0.371-6.176,0.724-12.043,1.063-17.679c0.083-1.414,0.165-2.814,0.246-4.2
		c0.074-1.448,0.121-2.886,0.099-4.325c-0.033-2.874-0.258-5.735-0.832-8.583c-0.591-2.835-1.491-5.705-3.204-8.344
		c-1.682-2.63-4.362-4.901-7.398-5.954c-0.736-0.324-1.536-0.455-2.308-0.648c-0.78-0.103-1.569-0.237-2.332-0.23
		c-1.546-0.064-3.01,0.118-4.385,0.373c-2.761,0.523-5.178,1.368-7.479,2.047c-2.286,0.665-4.462,1.247-6.469,1.238l-1.508-0.032
		l-1.485-0.258l-0.373-0.061l-0.361-0.123l-0.724-0.239c-0.24-0.083-0.489-0.143-0.726-0.242l-0.696-0.345
		c-3.781-1.744-6.85-5.393-8.898-9.613c-1.935-4.314-2.983-9.239-2.203-14.295c0.682-5.182,2.611-10.464,5.327-15.808
		c2.698-5.366,6.183-10.79,9.675-16.828c3.464-6.061,6.833-12.621,10.033-19.775c6.278-14.35,11.788-31.106,15.6-50.736
		c3.805-19.637,5.185-37.096,5.807-52.639c0.611-15.557,0.353-29.244-0.074-41.661c-0.97-24.833-2.726-44.61-4.463-64.35
		c-1.811-19.7-3.324-39.446-5.815-64.119c-1.262-12.334-2.748-25.902-4.899-41.288c-1.081-7.693-2.339-15.839-3.926-24.501
		c-1.617-8.658-3.495-17.844-6.289-27.543c-1.399-4.849-2.965-9.52-4.865-13.988c-1.942-4.448-4.097-8.765-7.518-12.555
		c-1.723-1.855-3.854-3.645-6.649-4.608c-0.717-0.185-1.406-0.449-2.155-0.505l-1.106-0.124c-0.368-0.015-0.735,0.008-1.102,0.017
		c-1.474,0.038-2.845,0.412-4.103,0.869c-2.459,0.944-4.467,2.381-6.164,3.924c-1.711,1.546-3.1,3.229-4.347,4.924
		c-2.473,3.404-4.322,6.895-5.937,10.32c-1.599,3.432-2.932,6.817-4.122,10.13c-2.364,6.629-4.162,12.969-5.723,19.027
		c-3.087,12.123-5.214,23.127-7.063,33.532c-1.829,10.408-3.322,20.228-4.713,30.054c-2.781,19.651-5.088,39.346-8.074,63.906
		c-0.754,6.138-1.553,12.579-2.47,19.383c-0.927,6.798-1.928,13.986-3.342,21.49c-0.358,1.872-0.749,3.761-1.198,5.644
		c-0.456,1.869-0.964,3.775-1.628,5.463c-0.306,0.809-0.769,1.666-0.987,1.885c-0.009,0.01-0.009,0.002-0.009,0.002
		c-0.021-0.024,0.024,0.026,0.092,0.111l0.16,0.216c0.167,0.164,0.31,0.432,0.382,0.591c0.071,0.096,0.101,0.322,0.102,0.29
		l0.003,0.028c-0.01,0.289,0.013-0.352,0.012-0.286c0.002,0.006,0.002,0.018-0.001,0.033c-0.009,0.041,0.003-0.025,0.016-0.052
		c0.015-0.04,0.023-0.041,0.05-0.095c0.035-0.076,0.077-0.145,0.124-0.204c0.023-0.03,0.048-0.058,0.074-0.083l0.113-0.147
		c0.498-0.502,0.326-0.301,0.298-0.433c-0.103-0.154-0.258-0.492-0.377-0.88c-0.129-0.379-0.234-0.828-0.335-1.28
		c-0.191-0.924-0.327-1.926-0.431-2.951c-0.391-4.134-0.364-8.6-0.228-13.184c0.146-4.594,0.436-9.35,0.814-14.258
		c1.576-19.638,3.847-36.801,5.968-52.087c2.157-15.289,4.298-28.712,6.364-40.891c2.072-12.179,4.08-23.114,6.105-33.409
		c2.034-10.291,4.063-19.957,6.373-29.51c1.167-4.761,2.383-9.542,3.891-14.147c0.379-1.142,0.786-2.272,1.225-3.294
		c0.517-1.112,1.037-2.23,1.559-3.354c0.499-1.139,1.128-2.221,1.696-3.343c0.291-0.557,0.583-1.116,0.876-1.677
		c0.319-0.546,0.639-1.094,0.961-1.645c2.547-4.411,5.475-8.785,8.967-12.969c3.477-4.191,7.459-8.249,12.093-11.938
		c4.631-3.682,9.927-6.994,15.953-9.481l1.127-0.485l1.167-0.399c0.78-0.269,1.565-0.54,2.356-0.812
		c1.589-0.521,3.25-0.869,4.907-1.329c3.374-0.636,6.879-1.21,10.544-1.246c14.597-0.48,31.394,4.561,46.758,15.915
		c3.858,2.799,7.31,5.894,10.527,9.062c1.628,1.559,3.116,3.215,4.616,4.809c1.433,1.66,2.877,3.263,4.193,4.94
		c5.388,6.6,9.761,13.372,13.635,19.909c3.826,6.576,7.1,12.972,10.043,19.119c0.725,1.544,1.44,3.066,2.145,4.567
		c0.667,1.52,1.326,3.018,1.976,4.497c1.301,2.958,2.568,5.836,3.803,8.644c1.136,2.85,2.244,5.629,3.327,8.345
		c1.069,2.722,2.185,5.355,3.083,8.008c0.943,2.637,1.867,5.219,2.775,7.756c0.448,1.271,0.917,2.521,1.338,3.777
		c0.402,1.262,0.801,2.514,1.197,3.756c1.565,4.976,3.201,9.771,4.475,14.594c1.34,4.803,2.743,9.51,3.836,14.298
		c4.709,19.057,8.354,38.412,10.756,62.841c0.148,1.527,0.333,3.07,0.455,4.639c0.107,1.57,0.216,3.16,0.327,4.772
		c0.211,3.224,0.468,6.533,0.655,9.941c0.215,6.823,0.59,14.028,0.493,21.701c-0.005,15.337-0.718,32.539-3.004,52.05
		c-0.503,3.832-0.993,7.571-1.472,11.22c-0.215,1.828-0.525,3.619-0.818,5.391c-0.292,1.772-0.58,3.522-0.865,5.251
		c-0.285,1.729-0.567,3.437-0.845,5.124c-0.282,1.687-0.648,3.337-0.963,4.976c-0.651,3.274-1.287,6.469-1.908,9.589
		c-0.684,3.106-1.418,6.124-2.1,9.08c-0.699,2.952-1.325,5.848-2.119,8.634c-1.535,5.583-2.848,10.952-4.475,15.992
		c-6.106,20.278-12.49,36.608-19.029,51.439c-1.704,3.677-3.374,7.282-5.026,10.849c-1.688,3.549-3.506,6.988-5.24,10.46
		c-1.702,3.49-3.611,6.866-5.494,10.291c-0.942,1.712-1.887,3.431-2.839,5.161c-0.929,1.743-2.008,3.416-3.016,5.148
		c-8.116,13.824-17.478,28.237-30.128,44.545l5.856,3.128c3.531-10.552,6.134-22.802,6.935-36.743
		c0.808-13.93-0.154-29.522-3.538-46.526c-0.016-0.087-0.033-0.175-0.043-0.227c-0.357-1.886-2.176-3.125-4.062-2.767
		c-0.78,0.148-1.449,0.546-1.941,1.095l-0.057,0.064c-2.554,2.852-5.23,5.464-8,7.79c-2.815,2.265-5.611,4.381-8.498,6.095
		c-5.69,3.564-11.391,5.96-16.487,7.61c-5.109,1.642-9.642,2.504-13.251,2.98c-1.811,0.183-3.386,0.372-4.707,0.433
		c-1.321,0.057-2.383,0.103-3.162,0.136l2.648,5.795c16.777-19.022,28.697-35.957,38.609-51.77c2.391-4.01,4.719-7.915,7.006-11.752
		c2.211-3.88,4.241-7.773,6.332-11.59c2.145-3.79,3.92-7.73,5.853-11.597c0.95-1.942,1.901-3.885,2.856-5.835
		c0.877-1.986,1.758-3.978,2.643-5.982c7.104-16.011,13.683-33.189,19.544-54.306c5.784-21.113,10.885-46.225,13.06-77.99
		c1.182-19.958,0.573-37.474-0.643-53.024c-0.359-3.885-0.631-7.662-1.034-11.316c-0.473-3.647-0.932-7.187-1.378-10.631
		c-0.241-1.719-0.405-3.425-0.7-5.088c-0.286-1.664-0.568-3.306-0.846-4.926c-0.557-3.24-1.099-6.392-1.627-9.469
		c-0.65-3.052-1.283-6.029-1.902-8.938c-0.312-1.454-0.62-2.892-0.925-4.314c-0.304-1.422-0.592-2.832-0.97-4.206
		c-0.71-2.758-1.406-5.459-2.09-8.113c-0.712-2.646-1.288-5.28-2.104-7.805c-0.766-2.54-1.521-5.042-2.268-7.517
		c-0.373-1.237-0.745-2.467-1.114-3.692l-0.553-1.832l-0.622-1.802c-1.679-4.785-3.262-9.523-4.975-14.212
		c-1.832-4.646-3.663-9.291-5.524-14.01c-2.052-4.638-4.135-9.348-6.281-14.201c-2.348-4.759-4.764-9.657-7.285-14.765
		c-1.365-2.5-2.758-5.052-4.184-7.663c-0.713-1.306-1.435-2.626-2.165-3.963c-0.365-0.668-0.732-1.341-1.102-2.017
		c-0.397-0.66-0.797-1.325-1.2-1.993c-1.611-2.674-3.262-5.415-4.958-8.232c-0.865-1.398-1.671-2.858-2.617-4.258
		c-0.932-1.408-1.878-2.836-2.836-4.284c-1.921-2.886-3.88-5.896-5.93-8.917c-2.051-2.969-4.065-5.946-5.471-9.093
		c-1.399-3.151-2.058-6.386-1.415-9.635c0.682-3.18,2.489-6.236,5.449-8.727l1.102-0.94l1.208-0.872
		c0.78-0.612,1.711-1.092,2.567-1.656c1.824-1.009,3.724-1.992,5.775-2.817c2.023-0.866,4.167-1.604,6.364-2.309
		c2.213-0.695,4.459-1.287,6.885-1.92c38.305-10.039,67.033-17.569,90.974-23.843c2.992-0.785,5.91-1.551,8.762-2.299
		c1.426-0.374,2.836-0.744,4.23-1.11c1.356-0.349,2.891-0.765,4.289-1.22c2.842-0.915,5.565-2.007,8.166-3.316
		c2.601-1.302,5.081-2.832,7.368-4.693c2.269-1.867,4.379-4.126,5.837-6.982c1.476-2.825,2.037-6.357,1.395-9.499
		c-0.165-0.778-0.331-1.545-0.637-2.287c-0.303-0.739-0.506-1.509-0.952-2.192c-0.752-1.42-1.753-2.719-2.901-3.794
		c-2.311-2.18-5.079-3.487-7.779-4.307c-2.72-0.824-5.441-1.184-8.124-1.3c-2.686-0.118-5.346-0.005-7.995,0.281
		c-1.324,0.142-2.647,0.344-3.966,0.566c-1.255,0.235-2.515,0.471-3.783,0.709c-2.536,0.473-5.102,0.945-7.692,1.498
		c-10.378,2.112-21.302,4.676-33.304,8.023c-11.994,3.365-25.085,7.469-39.668,12.935c-7.294,2.728-14.945,5.83-23.027,9.309
		c-4.021,1.786-8.173,3.612-12.402,5.622c-2.128,0.976-4.269,2.01-6.435,3.08c-2.171,1.071-4.363,2.097-6.648,3.322
		c-4.525,2.416-8.81,5.201-12.508,8.734c-1.826,1.793-3.488,3.8-4.803,6.07c-1.311,2.258-2.28,4.808-2.581,7.437
		c-0.309,2.619-0.181,5.216,0.539,7.698c0.716,2.469,1.921,4.757,3.441,6.636c3.04,3.812,6.894,6.201,10.622,8.016
		c3.766,1.798,7.546,2.996,11.237,3.913c1.847,0.455,3.676,0.833,5.484,1.151c1.81,0.322,3.614,0.564,5.293,0.795
		c6.819,0.938,13.255,1.823,19.383,2.665c24.519,3.337,44.125,6.005,63.718,8.671c19.592,2.667,39.169,5.331,63.63,8.66
		c12.228,1.686,25.675,3.541,40.956,5.647c7.639,1.061,15.737,2.186,24.369,3.385c8.62,1.134,17.779,2.729,27.872,3.247
		c5.051,0.243,10.011,0.162,14.818-0.449c4.801-0.608,9.455-1.766,13.728-3.613c4.263-1.847,8.156-4.342,11.33-7.395
		c3.197-3.031,5.75-6.484,7.761-10.04c2.045-3.553,3.436-7.249,4.582-10.852c1.159-3.611,1.903-7.185,2.53-10.656
		c1.197-6.955,1.705-13.538,2.056-19.754c0.711-12.428,0.83-23.694,0.146-34.343c-0.719-10.639-2.205-20.694-5.167-30.46
		c-2.955-9.717-7.554-19.284-15.133-27.463c-3.819-4.031-8.39-7.616-13.627-10.479c-5.269-2.849-11.233-4.826-17.583-5.996
		c-6.361-1.174-13.103-1.445-20.133-1.237c-7.032,0.247-14.364,1.025-22.059,1.976c-15.362,1.917-32.588,4.036-52.208,7.188
		c-9.809,1.572-18.989,3.198-27.598,4.943c-8.617,1.698-16.658,3.541-24.218,5.395c-15.105,3.771-28.24,7.796-39.986,12.018
		c-11.764,4.172-22.124,8.615-31.696,13.272c-9.55,4.705-18.304,9.672-26.657,15.3c-8.337,5.64-16.303,11.928-23.931,19.542
		c-7.598,7.613-14.873,16.637-20.985,27.821c-1.531,2.788-2.974,5.712-4.356,8.731c-1.389,2.998-2.682,6.19-4.067,9.108
		c-0.346,0.721-0.705,1.418-1.06,1.989c-0.336,0.573-0.749,1.021-0.789,1.036c0.406,0.473,0.534,1.132,0.482,0.888
		c0.008,0.043-0.013-0.115-0.004-0.194c0.003-0.045,0.008-0.089,0.017-0.13l0.014-0.065l0.014-0.137
		c0.018-0.164,0.076-0.391,0.113-0.475c0.02,0.021-0.024-0.018-0.035-0.018l-0.03-0.01l-0.016-0.003
		c0.349-0.746-0.499,1.024-0.389,0.792c0.062-0.145,0.137-0.269,0.227-0.387c0.053-0.09,0.11-0.177,0.17-0.259l0.078-0.101
		l0.001,0.004c0,0-0.021-0.027-0.034-0.035c-0.071-0.079-0.21-0.224-0.355-0.47c-0.61-0.962-1.174-2.579-1.589-4.199
		c-0.427-1.648-0.747-3.419-1.003-5.235c-0.501-3.642-0.74-7.496-0.72-11.443c0.038-3.923,0.293-8.059,1.189-11.847
		c0.23-0.926,0.504-1.84,0.835-2.577c0.16-0.377,0.34-0.693,0.494-0.918c0.076-0.12,0.147-0.197,0.191-0.245
		c0.02-0.016,0.043-0.056,0.045-0.044c0.066,0.08-0.154-0.22-0.224-0.317c-0.047-0.071-0.091-0.147-0.13-0.229
		c-0.031-0.055-0.054-0.09-0.077-0.143c-0.052-0.134-0.061-0.157-0.073-0.198c-0.017-0.091,0.005,0.025-0.003,0.011
		c-0.005-0.148,0.046,1.41,0.02,0.707l-0.005-0.086c-0.001-0.059,0.002-0.12,0.011-0.184c0.041-0.404,0.126-0.181-0.354,0.349
		c-0.023,0.025-0.075,0.075-0.075,0.075l0-0.008l0.014,0.027c0.011,0.017,0.029,0.014,0.052,0.065
		c0.046,0.057,0.105,0.167,0.17,0.29c0.124,0.272,0.266,0.609,0.372,1.031c0.459,1.668,0.592,3.883,0.558,6.088
		c-0.034,2.229-0.231,4.546-0.54,6.897c-0.625,4.706-1.623,9.264-2.877,13.564c-1.261,4.291-2.774,8.376-4.657,11.947
		c-0.947,1.764-1.987,3.427-3.127,4.705c-1.116,1.298-2.391,2.098-3.031,2.09c-0.398,0.028-0.811-0.033-1.22-0.235
		c-0.42-0.199-0.893-0.57-1.354-1.079c-0.933-1.014-1.75-2.519-2.402-4.083c-1.309-3.18-2.102-6.69-2.657-10.119
		c-0.546-3.445-0.862-6.861-1.007-10.196c-0.29-6.671,0.005-13.028,0.814-18.935c0.415-2.949,0.96-5.794,1.713-8.444
		c0.744-2.627,1.713-5.164,2.979-6.946c0.618-0.884,1.315-1.512,1.807-1.704c0.43-0.221,1.023-0.138,1.188-0.022
		c0.188,0.08,0.611,0.587,0.855,1.522c0.261,0.895,0.368,2.027,0.392,3.166c0.034,2.31-0.281,4.75-0.729,7.137
		c-0.449,2.395-1.053,4.767-1.739,7.102c-1.387,4.67-3.116,9.198-5.104,13.6c-1.999,4.396-4.258,8.683-6.889,12.783
		c-2.635,4.079-5.632,8.052-9.285,11.296c-7.767,6.806-16.831,13.094-27.313,19.535c-5.238,3.23-10.832,6.506-16.764,10.021
		c-2.964,1.76-6.015,3.573-9.135,5.494c-1.567,0.946-3.136,1.952-4.739,2.948c-1.579,1.041-3.181,2.098-4.807,3.171
		c-1.621,1.081-3.284,2.152-4.941,3.286c-1.633,1.168-3.29,2.355-4.973,3.559c-3.407,2.355-6.743,5.017-10.233,7.699
		c-1.763,1.319-3.469,2.764-5.214,4.216c-1.744,1.453-3.516,2.928-5.316,4.426c-1.747,1.56-3.52,3.144-5.322,4.754
		c-0.901,0.805-1.809,1.616-2.724,2.434c-0.886,0.849-1.778,1.705-2.678,2.567c-14.459,13.74-25.878,27.013-35.217,39.47
		c-9.359,12.451-16.74,24.028-22.953,34.821c-6.145,10.837-11.085,20.909-15.414,30.565c-1.04,2.433-2.065,4.829-3.079,7.199
		c-1.038,2.36-1.888,4.764-2.828,7.111c-1.903,4.687-3.465,9.417-5.134,14.106c-0.805,2.355-1.51,4.742-2.272,7.121
		c-0.375,1.192-0.75,2.385-1.126,3.583c-0.377,1.197-0.685,2.418-1.032,3.633c-0.677,2.435-1.359,4.888-2.049,7.369
		c-0.607,2.503-1.221,5.034-1.844,7.602c-0.3,1.287-0.647,2.573-0.915,3.888c-0.271,1.314-0.544,2.64-0.82,3.977
		c-0.275,1.337-0.553,2.686-0.834,4.048c-0.139,0.681-0.279,1.366-0.42,2.054c-0.118,0.692-0.237,1.388-0.356,2.087
		c-0.477,2.797-0.963,5.651-1.46,8.572c-0.396,2.937-0.802,5.941-1.218,9.022c-1.487,12.343-2.462,26.02-2.25,41.568
		c0.063,7.774,0.572,16.006,1.37,24.755c0.931,8.729,2.115,17.981,3.952,27.742c3.461,19.197,7.892,35.726,12.125,50.397
		c4.271,14.668,8.46,27.471,12.341,39.098c7.8,23.241,14.387,41.785,20.443,60.375c6.033,18.587,11.838,37.151,17.187,60.492
		c2.639,11.671,5.129,24.553,6.808,39.259c1.657,14.696,2.499,31.242,1.235,49.984c-0.09,1.342,0.924,2.503,2.266,2.593
		c1.074,0.073,2.032-0.563,2.418-1.509l0.006-0.016c0.027-0.066,1.259-3.096,2.518-6.192c4.405-10.529,8.804-20.198,13.006-29.168
		c4.21-8.968,8.25-17.234,12.139-24.911c3.893-7.672,7.626-14.767,11.333-21.303c0.944-1.618,1.874-3.212,2.79-4.782
		c0.96-1.522,1.87-3.071,2.832-4.508c0.484-0.713,0.965-1.421,1.443-2.124c0.117-0.166,0.243-0.374,0.352-0.505l0.307-0.349
		l0.295-0.358c0.106-0.099,0.222-0.173,0.328-0.264c0.852-0.711,1.82-0.995,3.072-0.962c1.24,0.044,2.64,0.384,4.023,0.94
		c0.69,0.227,1.384,0.594,2.071,0.878c0.685,0.352,1.37,0.673,2.045,1.047c2.706,1.469,5.315,3.14,7.866,4.821
		c5.101,3.383,9.988,6.836,14.927,10.063c9.853,6.469,19.89,12.281,31.42,16.296l0.017,0.006c1.435,0.5,3.004-0.259,3.504-1.694
		c0.064-0.185,0.109-0.386,0.133-0.573c0.514-4.226,1.036-8.525,1.573-12.943c0.268-2.209,0.539-4.448,0.815-6.722
		c0.275-2.274,0.581-4.581,0.745-6.944c0.397-4.718,0.808-9.601,1.237-14.694c0.197-2.548,0.468-5.144,0.616-7.806
		c0.127-2.664,0.256-5.385,0.388-8.172c1.26-22.271,1.519-48.754-0.783-82.132c-0.23-4.968-0.762-9.756-1.202-14.406
		c-0.449-4.649-0.884-9.152-1.306-13.521c-1.052-8.713-2.204-16.867-3.204-24.57c-1.235-7.668-2.49-14.862-3.629-21.679
		c-0.521-3.418-1.294-6.691-1.926-9.901c-0.659-3.205-1.3-6.324-1.926-9.367c-0.65-3.037-1.183-6.021-1.889-8.897
		c-0.699-2.877-1.382-5.689-2.051-8.443c-0.67-2.754-1.326-5.452-1.971-8.103c-0.66-2.647-1.233-5.266-1.989-7.797
		c-1.43-5.084-2.818-10.018-4.185-14.877c-0.704-2.423-1.318-4.853-2.083-7.228c-0.76-2.376-1.518-4.743-2.276-7.109
		c-1.515-4.733-3.03-9.466-4.569-14.273c-1.704-4.751-3.433-9.575-5.215-14.545c-0.893-2.484-1.799-5.005-2.721-7.572
		c-0.943-2.559-2.025-5.117-3.062-7.754c-2.118-5.257-4.266-10.754-6.63-16.496c-2.51-5.681-5.145-11.647-7.938-17.967
		c-2.778-6.328-5.968-12.874-9.264-19.871c-6.596-13.984-14.173-29.542-21.271-47.878c-3.538-9.14-6.381-17.865-8.594-26.185
		c-2.196-8.324-3.672-16.261-4.517-23.793c-1.719-15.074-0.583-28.503,2.233-40.223c0.661-2.733,1.773-5.426,2.951-8.029
		c1.189-2.604,2.48-5.128,3.785-7.591c2.617-4.929,5.3-9.615,7.798-14.288c1.248-2.34,2.455-4.675,3.552-7.088
		c0.546-1.209,1.063-2.441,1.521-3.731c0.445-1.304,0.865-2.636,1.031-4.252c0.069-0.811,0.092-1.719-0.213-2.8
		c-0.273-1.069-1.188-2.355-2.358-2.909c-0.308-0.143-0.636-0.276-0.951-0.372c-0.275-0.056-0.555-0.104-0.834-0.141
		c-0.301-0.051-0.493-0.021-0.743-0.028c-0.227,0.008-0.494-0.002-0.685,0.032c-0.846,0.094-1.589,0.267-2.279,0.473
		c-1.387,0.409-2.609,0.931-3.799,1.484c-1.196,0.547-2.325,1.148-3.453,1.753c-4.461,2.462-8.641,5.2-12.83,8.053
		c-4.183,2.857-8.344,5.854-12.589,8.989c-8.485,6.277-17.302,13.114-27.008,20.814c-9.705,7.7-20.288,16.279-32.275,26.057
		c-5.997,4.877-12.354,10.046-19.13,15.557c-3.413,2.739-6.933,5.562-10.565,8.476c-3.627,2.975-7.272,6.108-11.034,9.323
		c-7.513,6.44-14.566,12.4-21.45,17.654c-6.874,5.255-13.568,9.83-20.208,13.423c-6.624,3.576-13.246,6.202-19.637,7.069
		l-1.191,0.159c-0.396,0.038-0.789,0.05-1.182,0.077l-1.173,0.073l-1.091-0.009c-1.452-0.063-2.917-0.322-4.354-0.7
		c-2.88-0.756-5.64-1.986-8.239-3.381c-5.202-2.827-9.812-6.3-14.005-9.881c-4.194-3.596-7.984-7.343-11.482-11.148
		c-6.963-7.63-12.899-15.465-17.638-23.835c-1.169-2.096-2.245-4.232-3.171-6.406c-0.925-2.168-1.696-4.398-2.112-6.578
		c-0.443-2.15-0.373-4.377,0.389-5.441c0.363-0.562,0.852-0.889,1.486-1.048c0.654-0.163,1.586-0.107,2.594,0.132
		c2.051,0.534,4.278,1.674,6.423,3.056c2.158,1.381,4.29,2.993,6.403,4.739c4.226,3.504,8.395,7.535,12.588,11.966
		c4.186,4.444,8.409,9.283,12.58,14.643c4.213,5.41,8.616,11.126,12.725,17.493c2.049,3.179,4.017,6.531,5.646,10.076
		c0.818,1.77,1.506,3.597,2,5.431c0.486,1.827,0.737,3.688,0.527,5.297c-0.216,1.619-0.93,2.798-2.162,3.765
		c-0.335,0.222-0.691,0.436-1.056,0.649c-0.418,0.165-0.802,0.373-1.244,0.526c-0.457,0.129-0.916,0.291-1.371,0.409
		c-0.456,0.063-0.892,0.214-1.365,0.227c-1.857,0.197-3.865-0.057-5.897-0.665c-2.033-0.621-4.081-1.575-6.096-2.726
		c-4.034-2.323-7.708-5.218-11.125-8.203c-3.42-2.996-6.604-6.1-9.656-9.182c-3.061-3.079-5.968-6.142-8.953-9.079
		c-2.899-2.843-5.625-5.665-8.15-8.495c-5.034-5.659-9.308-11.357-12.353-17.185c-3.067-5.8-4.828-11.774-4.758-17.416
		c0.002-2.82,0.513-5.533,1.357-8.078c0.835-2.544,2.055-4.889,3.546-7.048c2.964-4.336,6.821-7.915,10.751-11.231
		c1.964-1.666,3.994-3.255,6.005-4.804c2.007-1.557,3.991-3.096,5.96-4.624c2.016-1.467,4.017-2.922,6.009-4.371l2.99-2.163
		l3.043-2.076c2.03-1.382,4.059-2.763,6.097-4.15c2.076-1.33,4.16-2.666,6.259-4.011c1.052-0.671,2.107-1.344,3.167-2.021
		c1.078-0.649,2.16-1.302,3.249-1.958c2.18-1.309,4.385-2.632,6.622-3.975c9.042-5.219,18.771-10.479,29.791-15.916
		c11.054-5.364,23.391-10.915,37.675-16.581c14.285-5.654,30.51-11.455,49.359-17.098c18.917-5.604,35.703-9.696,50.785-12.858
		c15.086-3.154,28.472-5.373,40.683-7.029c24.426-3.267,44.153-4.496,63.816-4.252l3.688,0.066c0.604,0.015,1.254,0.012,1.822,0.043
		c0.555,0.033,1.113,0.061,1.63,0.149c1.039,0.147,2.023,0.433,2.599,0.835c0.557,0.423,0.781,0.71,0.821,1.465
		c0.04,0.736-0.203,1.747-0.603,2.752c-0.392,1.016-0.977,2.05-1.578,3.075c-1.259,2.048-2.77,4.058-4.395,6.038
		c-3.27,3.957-6.983,7.828-10.983,11.739c-4.004,3.912-8.311,7.867-12.925,11.947c-18.501,16.286-41.785,34.704-73.505,58.339
		c-23.335,17.336-42.64,31.153-59.243,42.951c-16.611,11.787-30.545,21.525-43.358,30.424
		c-12.816,8.895-24.514,16.946-36.716,25.274c-6.11,4.15-12.339,8.38-18.89,12.829c-3.283,2.212-6.648,4.479-10.118,6.817
		c-1.738,1.165-3.502,2.348-5.297,3.551c-0.898,0.6-1.803,1.205-2.716,1.815c-0.457,0.304-0.916,0.61-1.376,0.918l-0.693,0.461
		l-0.347,0.231l-0.174,0.116l-0.087,0.058c-0.009,0.006-0.046,0.031-0.012,0.009c-0.194-1.469,4.273,6.941,1.158,1.888l-1.281-1.806
		c-5.108,3.646-10.559,7.5-16.094,12.053c-5.515,4.551-11.191,9.801-16.1,16.473c-2.458,3.331-4.651,7.03-6.551,10.981
		c-1.91,3.958-3.585,8.189-4.927,12.679c-1.366,4.483-2.41,9.217-3.145,14.16c-0.346,2.474-0.656,4.996-0.831,7.572
		c-0.168,2.542-0.339,5.125-0.513,7.753c-1.226,19.788-1.896,37.117-2.378,52.59c-0.47,15.473-0.725,29.091-0.89,41.469
		c-0.311,24.756-0.286,44.554-0.137,64.336c0.164,19.782,0.465,39.549,1.104,64.241c0.66,24.691,1.614,54.311,3.654,93.77
		c2.083,39.565,4.266,69.208,6.454,93.884c2.234,24.673,4.369,44.39,7.406,64.027c0.776,4.908,1.619,9.81,2.639,14.773
		c1.048,4.963,2.152,9.99,4.014,15.125c0.483,1.284,1.008,2.574,1.741,3.876c0.39,0.652,0.772,1.305,1.377,1.962
		c0.131,0.162,0.302,0.326,0.488,0.487c0.182,0.16,0.347,0.32,0.599,0.468c0.437,0.292,1.022,0.582,1.714,0.647
		c0.173,0.018,0.347,0.028,0.52,0.032c0.207-0.02,0.432-0.064,0.645-0.119c0.47-0.105,0.719-0.307,1.031-0.508l0.216-0.158
		l0.148-0.149l0.288-0.308c0.211-0.218,0.312-0.402,0.446-0.6c0.52-0.79,0.783-1.506,1.07-2.236c0.513-1.44,0.843-2.852,1.149-4.282
		c1.16-5.7,1.709-11.582,2.234-17.786c0.973-12.399,1.481-26.028,1.831-41.511c0.337-15.483,0.476-32.821,0.442-52.63
		c-0.105-39.624-0.673-69.329-1.16-94.075c-0.512-24.745-1.023-44.53-1.576-64.298c-0.557-19.768-1.16-39.519-1.987-64.195
		c-0.834-24.675-1.878-54.275-3.492-93.734c-1.63-39.576-3.026-69.251-4.339-93.978c-0.347-6.182-0.676-12.054-0.993-17.695
		c-0.336-5.637-0.674-11.072-1.253-16.349c-0.572-5.276-1.399-10.403-2.688-15.369c-1.29-4.959-3.052-9.77-5.54-14.243
		c-2.482-4.464-5.71-8.587-9.712-11.953c-3.986-3.382-8.653-6.017-13.69-7.962c-10.123-3.896-21.526-5.175-33.93-5.604
		c-24.797-0.553-54.454-1.007-94.057-1.736c-121.092-2.315-149.604-2.861-226.805-4.337l-0.065,3.589
		c78.083,1.304,106.6,1.533,228.122,3.76c19.799,0.364,37.122,0.683,52.59,0.967c7.734,0.143,15.004,0.277,21.887,0.405
		c6.881,0.147,13.391,0.196,19.531,0.441c6.144,0.257,11.954,0.73,17.442,1.632c5.483,0.902,10.656,2.223,15.372,4.21
		c4.716,1.97,8.972,4.584,12.549,7.843c3.594,3.241,6.465,7.129,8.685,11.374c2.221,4.25,3.815,8.846,4.95,13.645
		c1.146,4.801,1.882,9.796,2.412,14.981c0.532,5.188,0.845,10.57,1.173,16.208c0.31,5.635,0.633,11.501,0.973,17.676
		c1.29,24.707,2.663,54.37,4.267,93.93c1.591,39.561,2.577,69.24,3.333,93.974c0.748,24.735,1.25,44.525,1.706,64.317
		c0.45,19.792,0.86,39.585,1.285,64.326c0.397,24.74,0.899,54.433,0.959,94.011c0.011,19.785-0.137,37.094-0.478,52.533
		c-0.358,15.434-0.849,29.019-1.848,41.269c-0.255,3.06-0.546,6.035-0.909,8.916c-0.364,2.877-0.794,5.681-1.423,8.273
		c-0.317,1.266-0.714,2.551-1.176,3.404c-0.108,0.16-0.226,0.356-0.257,0.367c-0.051,0.077,0.089-0.129,0.457-0.126
		c0.298,0.015,0.139,0.077-0.149-0.227c-0.579-0.593-1.205-1.692-1.7-2.788c-0.506-1.118-0.955-2.299-1.359-3.5
		c-1.598-4.828-2.701-9.788-3.705-14.661c-0.99-4.887-1.829-9.742-2.605-14.611c-3.047-19.49-5.257-39.158-7.531-63.774
		c-2.229-24.625-4.435-54.23-6.478-93.757c-2.007-39.53-2.904-69.207-3.501-93.936c-0.571-24.731-0.796-44.521-0.884-64.309
		c-0.07-19.788-0.017-39.576,0.37-64.302c0.2-12.363,0.492-25.96,0.999-41.404c0.512-15.443,1.226-32.734,2.484-52.46
		c0.167-2.526,0.322-5.036,0.528-7.415c0.242-2.395,0.523-4.748,0.91-7.046c0.751-4.598,1.821-8.986,3.131-13.142
		c2.664-8.289,6.335-15.693,10.899-21.747c4.582-6.096,9.915-11.048,15.226-15.394c5.318-4.354,10.647-8.124,15.719-11.733
		l-2.544-3.59c-1.965-3.374,2.486,4.727,2.498,3.621l0.078-0.051l0.09-0.06l0.179-0.119l0.358-0.238l0.713-0.473
		c0.474-0.315,0.945-0.629,1.415-0.941c0.938-0.625,1.867-1.245,2.789-1.86c1.841-1.231,3.65-2.441,5.431-3.633
		c3.556-2.39,6.997-4.704,10.352-6.959c6.692-4.534,13.036-8.833,19.245-13.04c12.397-8.442,24.22-16.56,37.152-25.519
		c12.93-8.963,26.973-18.762,43.748-30.655c16.765-11.909,36.29-25.873,59.958-43.484c31.762-23.706,55.082-42.203,73.654-58.729
		c4.631-4.146,8.96-8.176,12.99-12.205c4.027-4.031,7.773-8.042,11.083-12.329c1.647-2.151,3.182-4.379,4.414-6.902
		c0.593-1.28,1.135-2.632,1.358-4.232c0.056-0.399,0.098-0.805,0.074-1.25c0.013-0.424-0.053-0.879-0.151-1.337
		c-0.056-0.45-0.292-0.913-0.46-1.356c-0.245-0.414-0.489-0.864-0.815-1.206c-1.308-1.454-2.927-2.023-4.335-2.365
		c-1.426-0.345-2.848-0.423-4.111-0.449c-2.5-0.044-4.99-0.087-7.48-0.131c-9.959-0.035-19.907,0.333-30.446,1.072
		c-10.54,0.729-21.664,1.924-33.962,3.649c-12.296,1.737-25.766,4.035-40.943,7.271c-15.168,3.257-32.064,7.388-51.074,13.146
		c-38.007,11.606-65.499,23.411-87.815,34.29c-22.293,10.977-39.401,21.225-55.827,32.433c-2.058,1.396-4.052,2.884-6.088,4.328
		c-2.027,1.457-4.08,2.896-6.065,4.46c-4.008,3.091-8.112,6.108-12.157,9.66c-4.012,3.551-8.078,7.593-11.099,12.864
		c-1.503,2.628-2.689,5.55-3.413,8.651c-0.708,3.11-0.94,6.404-0.685,9.717c0.529,6.653,3.034,13.2,6.587,19.346
		c3.583,6.157,8.203,12.02,13.514,17.775c1.325,1.444,2.7,2.875,4.113,4.308c1.406,1.406,2.833,2.832,4.282,4.281
		c2.853,2.892,5.78,5.961,8.9,9.059c3.124,3.096,6.42,6.25,10.072,9.292c3.66,3.024,7.629,6.021,12.371,8.358
		c2.387,1.159,4.917,2.096,7.607,2.563c2.659,0.496,5.591,0.368,8.187-0.458l0.962-0.298c0.32-0.109,0.638-0.267,0.956-0.401
		l0.948-0.424l0.92-0.558c1.229-0.726,2.331-1.805,3.211-3.013c1.712-2.535,2.1-5.525,1.892-8.021
		c-0.48-5.067-2.398-9.159-4.289-12.986c-1.956-3.802-4.126-7.263-6.324-10.536c-4.42-6.542-8.925-12.303-13.237-17.767
		c-4.391-5.447-8.777-10.361-13.165-14.866c-4.398-4.494-8.784-8.589-13.408-12.161c-2.317-1.781-4.7-3.427-7.293-4.811
		c-1.279-0.707-2.667-1.297-4.119-1.794c-1.472-0.465-3.1-0.801-4.911-0.663c-0.895,0.06-1.86,0.299-2.744,0.713
		c-0.908,0.41-1.686,1.022-2.358,1.715c-1.323,1.435-1.98,3.258-2.185,4.856c-0.399,3.248,0.29,6,1.042,8.598
		c1.628,5.155,4.048,9.675,6.654,14.038c5.296,8.667,11.566,16.592,18.949,24.34c3.709,3.858,7.724,7.653,12.223,11.285
		c4.51,3.609,9.467,7.136,15.372,9.907c2.964,1.348,6.175,2.539,9.776,3.026c0.445,0.073,0.903,0.109,1.364,0.143
		c0.457,0.046,0.923,0.062,1.395,0.061c0.966,0.038,1.797-0.08,2.712-0.116c1.786-0.143,3.576-0.41,5.354-0.792
		c7.125-1.534,14.038-4.677,20.874-8.615c13.696-7.927,27.111-19.251,42.117-32.127c3.76-3.21,7.399-6.305,10.988-9.17
		c3.634-2.91,7.155-5.729,10.57-8.463c6.785-5.513,13.15-10.684,19.155-15.563c11.998-9.756,22.586-18.29,32.295-25.93
		c9.709-7.637,18.528-14.4,26.995-20.552c4.233-3.075,8.383-5.992,12.527-8.735c4.141-2.718,8.3-5.342,12.513-7.387
		c1.048-0.497,2.1-0.945,3.103-1.284l0.732-0.222c0.223-0.045,0.462-0.112,0.669-0.149c0.172-0.008,0.425-0.078,0.527-0.055
		c0.063,0.001,0.126-0.001,0.19-0.009c0.017,0.013,0.022,0.02,0.036,0.013c-0.124-0.008-0.322-0.187-0.397-0.303
		c-0.055-0.132,0.03,0.048,0.014,0.391c-0.002,0.692-0.258,1.77-0.603,2.81c-0.711,2.128-1.757,4.36-2.869,6.585
		c-1.121,2.232-2.341,4.485-3.6,6.775c-2.52,4.583-5.224,9.297-7.853,14.401c-1.31,2.558-2.605,5.211-3.776,8.07
		c-0.578,1.437-1.135,2.915-1.594,4.507c-0.118,0.394-0.223,0.803-0.329,1.211l-0.257,1.15c-0.169,0.766-0.34,1.538-0.511,2.313
		c-2.661,12.427-3.372,26.598-1.301,42.258c1.033,7.828,2.78,16.008,5.155,24.551c2.383,8.542,5.469,17.423,9.132,26.711
		c3.682,9.28,7.463,17.817,11.127,25.783c3.661,7.969,7.197,15.378,10.503,22.364c3.305,6.987,6.416,13.536,9.116,19.828
		c1.381,3.135,2.723,6.182,4.03,9.15c1.281,2.979,2.646,5.828,3.735,8.71c2.279,5.722,4.444,11.157,6.524,16.378
		c0.513,1.308,1.05,2.591,1.53,3.882c0.464,1.297,0.923,2.582,1.378,3.855c0.911,2.546,1.805,5.047,2.687,7.512
		c0.882,2.465,1.751,4.893,2.61,7.295c0.428,1.201,0.854,2.395,1.278,3.584c0.383,1.203,0.763,2.399,1.143,3.592
		c1.518,4.769,3.012,9.465,4.506,14.161c1.567,4.674,2.821,9.442,4.179,14.259c1.332,4.824,2.751,9.706,4.092,14.767
		c1.23,5.09,2.497,10.33,3.818,15.793c0.33,1.366,0.664,2.746,1.001,4.142c0.346,1.394,0.681,2.805,0.957,4.248
		c0.588,2.876,1.19,5.819,1.807,8.837c1.199,6.042,2.646,12.352,3.679,19.131c0.567,3.38,1.151,6.854,1.751,10.434
		c0.601,3.579,1.258,7.257,1.707,11.083c0.503,3.818,1.021,7.75,1.556,11.806c0.536,4.056,1.128,8.232,1.482,12.57
		c0.416,4.331,0.845,8.797,1.288,13.406c0.199,2.306,0.497,4.641,0.624,7.027c0.144,2.384,0.291,4.806,0.44,7.266
		c0.464,7.993,1.049,15.573,1.119,22.81c0.094,3.616,0.185,7.141,0.275,10.579c0.045,1.719,0.09,3.417,0.134,5.094
		c0.033,1.677-0.017,3.333-0.021,4.969c-0.056,6.544-0.11,12.764-0.161,18.699c-0.191,5.932-0.487,11.577-0.705,16.982
		c-0.116,2.702-0.229,5.344-0.341,7.93c-0.203,2.58-0.401,5.105-0.596,7.58c-0.386,4.95-0.757,9.698-1.115,14.285
		c-0.14,2.298-0.461,4.537-0.696,6.75c-0.251,2.211-0.499,4.387-0.743,6.533c-0.486,4.293-0.958,8.466-1.422,12.561l3.435-2.125
		c-11.263-3.822-21.218-9.503-31.133-15.935c-4.976-3.215-9.936-6.661-15.272-10.105c-2.678-1.712-5.446-3.432-8.515-4.963
		c-1.521-0.776-3.166-1.462-4.938-2.02c-1.762-0.546-3.796-0.914-6.011-0.587c-1.097,0.161-2.229,0.559-3.226,1.167
		c-0.991,0.604-1.853,1.398-2.52,2.259c-0.396,0.448-0.605,0.804-0.866,1.186l-0.765,1.14c-0.508,0.764-1.043,1.527-1.507,2.315
		c-1.949,3.125-3.832,6.378-5.709,9.764c-3.752,6.771-7.542,14.044-11.474,21.928c-3.933,7.884-8.029,16.366-12.312,25.585
		c-4.26,9.232-8.787,19.152-13.24,30.11c-0.51,1.265-1.017,2.518-1.212,3.003l4.005,0.913c1.316-19.53,0.406-36.706-1.345-51.892
		c-1.802-15.192-4.383-28.436-7.135-40.377c-5.577-23.878-11.501-42.671-17.592-61.417c-6.144-18.732-12.72-37.358-20.522-60.694
		c-3.869-11.676-8.031-24.536-12.252-39.262c-4.222-14.721-8.434-31.344-11.799-50.568c-3.37-19.395-4.596-36.586-4.616-51.927
		c-0.007-15.347,1.167-28.835,2.846-40.99c1.708-12.154,3.842-23.012,6.458-33.111c0.314-1.265,0.626-2.521,0.936-3.769
		c0.351-1.237,0.699-2.467,1.045-3.689c0.704-2.441,1.353-4.868,2.081-7.251c1.542-4.741,2.942-9.446,4.665-14.043
		c3.222-9.27,7.009-18.335,11.334-27.814c1.113-2.355,2.243-4.745,3.393-7.178c1.226-2.396,2.473-4.834,3.746-7.324
		c1.239-2.507,2.666-4.98,4.075-7.538c0.708-1.277,1.424-2.569,2.149-3.876c0.73-1.304,1.534-2.587,2.312-3.906
		c6.236-10.544,13.646-21.835,23.032-33.931c9.395-12.079,20.761-24.983,35.091-38.336c14.454-13.215,28.223-23.502,41.084-31.761
		c6.415-4.159,12.679-7.789,18.597-11.296c5.928-3.493,11.554-6.807,16.843-10.132c5.29-3.32,10.248-6.637,14.872-10.052
		c1.146-0.869,2.295-1.708,3.405-2.579c1.104-0.881,2.197-1.754,3.281-2.62c1.061-0.897,2.112-1.786,3.155-2.668
		c1.094-0.954,2.118-1.96,3.079-2.982c3.83-4.11,6.808-8.518,9.445-12.984c2.624-4.476,4.851-9.049,6.81-13.736
		c1.941-4.695,3.619-9.502,4.884-14.567c0.626-2.535,1.147-5.136,1.454-7.861c0.15-1.364,0.243-2.761,0.222-4.217
		c-0.033-1.459-0.136-2.967-0.583-4.604c-0.215-0.811-0.543-1.672-1.052-2.534c-0.506-0.856-1.249-1.738-2.247-2.383
		c-2.064-1.313-4.404-1.343-6.458-0.594c-2.016,0.812-3.376,2.203-4.372,3.548c-1.012,1.366-1.746,2.783-2.37,4.212
		c-1.227,2.863-2.041,5.8-2.673,8.809c-0.634,3.01-1.076,6.093-1.388,9.257c-0.607,6.329-0.724,12.985-0.165,20.035
		c0.297,3.525,0.757,7.149,1.573,10.872c0.412,1.862,0.916,3.748,1.588,5.654c0.687,1.902,1.487,3.837,2.744,5.735
		c0.624,0.945,1.353,1.889,2.317,2.747c0.949,0.853,2.148,1.63,3.562,2.051c1.402,0.415,2.94,0.475,4.431,0.079
		c1.455-0.396,2.64-1.135,3.64-1.928c1.985-1.62,3.374-3.513,4.591-5.456c1.212-1.95,2.224-3.986,3.134-6.079
		c1.813-4.19,3.23-8.613,4.385-13.248c1.14-4.64,2.036-9.484,2.438-14.622c0.19-2.573,0.255-5.135,0.009-7.76
		c-0.134-1.316-0.334-2.646-0.771-4.046c-0.229-0.703-0.518-1.427-0.949-2.17c-0.453-0.741-1.083-1.544-2.057-2.157
		c-0.235-0.158-0.493-0.29-0.772-0.398c-0.271-0.121-0.55-0.211-0.838-0.267c-0.596-0.141-1.088-0.16-1.713-0.11
		c-1.257,0.116-2.358,0.758-3.051,1.408c-0.715,0.66-1.167,1.335-1.543,1.98c-0.368,0.647-0.664,1.282-0.897,1.898
		c-0.935,2.468-1.342,4.79-1.666,7.075c-0.597,4.558-0.673,8.916-0.516,13.146c0.178,4.229,0.589,8.315,1.432,12.312
		c0.437,2.002,0.951,3.974,1.842,5.985c0.461,1.004,0.989,2.034,1.962,3.091c0.262,0.264,0.529,0.525,0.883,0.775
		c0.301,0.231,0.815,0.517,1.12,0.626c0.648,0.294,1.539,0.51,2.494,0.479c0.99-0.061,1.915-0.44,2.602-0.905
		c0.645-0.462,1.149-0.969,1.52-1.438c0.764-0.951,1.255-1.837,1.719-2.698c0.884-1.712,1.585-3.339,2.278-4.926
		c2.695-6.334,5.387-12.05,8.484-17.265c6.14-10.432,13.309-18.786,20.764-25.923c7.498-7.113,15.287-13.055,23.473-18.396
		c8.198-5.331,16.792-10.083,26.195-14.587c9.42-4.47,19.645-8.726,31.26-12.772c23.205-8.15,51.97-15.474,91.011-21.512
		c19.519-3.009,36.711-5.152,52.036-7.025c7.645-0.909,14.814-1.529,21.573-1.572c6.742,0.025,13.097,0.533,18.888,1.995
		c5.792,1.432,11.05,3.6,15.584,6.561c4.526,2.945,8.439,6.431,11.589,10.381c3.177,3.927,5.724,8.182,7.787,12.598
		c2.038,4.432,3.611,9.014,4.856,13.694c2.476,9.375,3.701,19.114,4.218,29.502c0.487,10.394,0.268,21.484-0.531,33.757
		c-0.407,6.119-1.059,12.506-2.452,19.078c-1.424,6.535-3.655,13.328-7.784,19.396c-2.092,2.997-4.665,5.762-7.735,8.099
		c-3.071,2.333-6.658,4.179-10.61,5.455c-7.932,2.571-17.119,2.885-26.811,2.099c-4.861-0.389-9.574-1.009-14.166-1.65
		c-4.605-0.644-9.067-1.269-13.394-1.874c-8.655-1.211-16.774-2.347-24.434-3.418c-15.319-2.143-28.8-4.029-41.055-5.743
		c-24.51-3.428-44.119-6.17-63.727-8.912c-19.608-2.742-39.217-5.484-63.727-8.912c-3.064-0.428-6.204-0.868-9.431-1.319
		c-1.613-0.226-3.248-0.454-4.906-0.686c-1.667-0.237-3.339-0.452-4.979-0.73c-3.307-0.556-6.674-1.312-10.021-2.378
		c-3.337-1.072-6.68-2.454-9.704-4.394c-3.011-1.925-5.691-4.495-7.059-7.747c-0.674-1.617-1.068-3.393-1.03-5.236
		c-0.051-1.834,0.403-3.656,1.125-5.414c1.458-3.546,4.433-6.664,7.903-9.359c3.532-2.688,7.573-4.975,11.997-7.098
		c8.822-4.394,17.252-8.186,25.26-11.583c3.994-1.725,7.918-3.265,11.712-4.794c3.824-1.449,7.508-2.92,11.141-4.195
		c14.476-5.25,27.443-9.229,39.346-12.395c11.902-3.174,22.728-5.59,33.007-7.568c2.568-0.47,5.098-0.934,7.6-1.392
		c2.423-0.401,4.849-0.652,7.239-0.694c2.388-0.045,4.746,0.091,7,0.487c2.247,0.397,4.404,1.066,6.211,2.13
		c1.812,1.059,3.21,2.522,4.037,4.326l0.53,1.409c0.122,0.495,0.247,0.989,0.303,1.484c0.127,0.99,0.096,1.977-0.105,2.947
		c-0.398,1.939-1.485,3.818-3.022,5.477c-1.535,1.661-3.437,3.14-5.543,4.417c-2.1,1.29-4.398,2.396-6.81,3.358
		c-2.438,0.969-4.902,1.73-7.629,2.412c-5.464,1.423-11.152,2.905-17.139,4.465c-23.956,6.265-52.702,13.782-91.03,23.806
		c-4.875,1.372-9.551,3.052-13.905,5.254c-1.073,0.592-2.161,1.121-3.183,1.792c-0.515,0.325-1.036,0.63-1.539,0.97
		c-0.495,0.357-0.987,0.713-1.478,1.068c-0.499,0.339-0.963,0.737-1.423,1.137c-0.459,0.402-0.931,0.778-1.37,1.199
		c-0.842,0.894-1.737,1.709-2.451,2.72c-1.562,1.88-2.684,4.134-3.46,6.432c-0.311,1.179-0.667,2.344-0.732,3.542
		c-0.056,0.595-0.148,1.185-0.164,1.778c0.012,0.593-0.025,1.191,0.042,1.774c0.332,4.736,2.242,8.809,4.276,12.276
		c2.061,3.505,4.343,6.509,6.277,9.547c1.996,3.02,3.934,5.951,5.819,8.802c0.97,1.408,1.804,2.874,2.667,4.295
		c0.856,1.425,1.701,2.83,2.534,4.217s1.656,2.755,2.468,4.105c0.406,0.675,0.809,1.346,1.21,2.013
		c0.39,0.673,0.747,1.359,1.118,2.031c5.977,10.739,10.979,20.615,15.236,30.155c4.316,9.514,7.934,18.665,11.277,27.908
		c0.802,2.324,1.604,4.647,2.408,6.98c0.797,2.335,1.653,4.661,2.328,7.066c0.717,2.391,1.44,4.801,2.171,7.238
		c0.705,2.444,1.536,4.883,2.135,7.427c0.647,2.53,1.305,5.097,1.974,7.71c0.656,2.616,1.403,5.261,1.937,8.014
		c0.584,2.742,1.18,5.54,1.79,8.403c0.304,1.432,0.611,2.881,0.921,4.347c0.252,1.477,0.507,2.972,0.765,4.487
		c0.517,3.028,1.047,6.131,1.592,9.32c0.303,1.59,0.465,3.222,0.689,4.869c0.212,1.648,0.427,3.319,0.645,5.013
		c1.003,6.764,1.488,13.969,2.178,21.615c0.949,15.321,1.285,32.55-0.117,52.155c-0.34,4.037-0.671,7.97-0.993,11.803
		c-0.482,3.817-0.951,7.536-1.408,11.162c-0.394,3.635-1.043,7.138-1.621,10.562c-0.604,3.419-1.096,6.77-1.751,10.005
		c-2.657,12.934-5.44,24.495-8.637,34.917c-6.259,20.887-13.002,37.512-20.036,52.728c-7.239,15.128-14.8,28.858-24.081,43.479
		c-2.391,3.609-4.839,7.306-7.37,11.126c-2.681,3.715-5.448,7.551-8.328,11.542c-2.981,3.914-6.189,7.897-9.479,12.112
		c-3.404,4.122-7.095,8.313-10.89,12.779l-0.062,0.072c-1.245,1.465-1.067,3.662,0.398,4.907c0.671,0.57,1.501,0.842,2.317,0.828
		c9.14-0.164,19.293-1.913,29.619-6.206c10.288-4.279,20.799-11.113,29.688-21.166l-6.15-1.633c0.246,1.301,0.504,2.667,0.764,4.044
		c1.707,9.488,2.614,18.5,2.879,26.763c0.247,8.265-0.124,15.778-0.86,22.325c-1.465,13.118-4.315,22.293-5.79,26.762l-0.01,0.03
		c-0.615,1.862,0.397,3.869,2.258,4.483c1.471,0.486,3.037-0.05,3.931-1.213c13.743-17.946,23.874-33.85,32.452-48.956
		c8.502-15.155,15.48-29.52,22.06-45.054c6.537-15.549,12.681-32.3,18.38-52.605c2.767-10.172,5.599-21.186,7.988-33.438
		c0.592-3.063,1.252-6.185,1.827-9.398c0.529-3.221,1.07-6.515,1.624-9.888c0.599-3.366,1.027-6.837,1.49-10.386
		c0.233-1.775,0.468-3.571,0.706-5.387c0.119-0.908,0.239-1.822,0.359-2.741c0.092-0.922,0.184-1.85,0.277-2.784
		c2.136-19.838,2.851-37.317,2.669-52.904c0.059-3.898-0.142-7.676-0.24-11.348c-0.129-3.671-0.181-7.239-0.457-10.698
		c-0.224-3.462-0.442-6.826-0.655-10.104c-0.241-3.275-0.61-6.451-0.896-9.556c-1.177-12.42-2.91-23.522-4.702-33.972
		c-0.925-5.22-2.027-10.25-3.001-15.225c-1.094-4.949-2.3-9.794-3.436-14.654c-4.944-19.335-10.945-38.461-20.754-61.429
		c-1.246-2.862-2.523-5.795-3.835-8.81c-1.348-2.998-2.798-6.051-4.324-9.18c-3.074-6.249-6.535-12.775-10.637-19.506
		c-2.093-3.342-4.274-6.775-6.75-10.178c-1.194-1.73-2.53-3.406-3.833-5.141c-1.375-1.686-2.729-3.43-4.229-5.107
		c-1.446-1.72-3.032-3.369-4.614-5.068c-1.652-1.636-3.295-3.332-5.096-4.926c-3.545-3.241-7.441-6.394-11.734-9.217
		c-17.078-11.44-35.74-16.042-52.035-14.288c-4.082,0.347-7.969,1.283-11.684,2.309c-1.83,0.6-3.631,1.216-5.375,1.884
		c-0.857,0.373-1.708,0.743-2.552,1.11c-0.844,0.368-1.69,0.72-2.48,1.163c-6.488,3.253-12.046,7.283-16.835,11.595
		c-9.567,8.682-16.216,18.323-21.148,27.963c-0.621,1.206-1.242,2.401-1.774,3.629c-0.277,0.609-0.553,1.216-0.828,1.821
		c-0.275,0.611-0.548,1.18-0.823,1.876c-1.022,2.622-1.738,5.094-2.436,7.573c-1.364,4.941-2.498,9.79-3.581,14.648
		c-2.149,9.714-4.05,19.442-5.96,29.793c-1.903,10.351-3.798,21.323-5.767,33.532c-1.964,12.21-4.012,25.657-6.085,40.978
		c-1.033,7.661-2.069,15.792-3.055,24.479c-0.978,8.69-1.929,17.931-2.613,27.853c-0.333,4.977-0.579,9.812-0.629,14.546
		c-0.025,2.368,0,4.71,0.122,7.05c0.136,2.348,0.317,4.657,0.907,7.146c0.172,0.639,0.343,1.271,0.646,1.98
		c0.319,0.701,0.666,1.489,1.595,2.373c0.447,0.427,1.169,0.872,1.99,1.064c0.752,0.207,1.914,0.105,2.639-0.261
		c0.373-0.168,0.639-0.356,0.927-0.56c0.213-0.179,0.438-0.378,0.62-0.567l0.455-0.534l0.347-0.496
		c0.817-1.284,1.222-2.379,1.629-3.473c0.387-1.086,0.7-2.139,0.988-3.18c1.113-4.15,1.844-8.109,2.528-11.964
		c1.331-7.7,2.32-14.922,3.24-21.762c0.876-6.836,1.703-13.288,2.49-19.432c3.051-24.566,5.49-44.186,8.417-63.721
		c1.466-9.765,3.041-19.51,4.959-29.805c1.938-10.286,4.165-21.151,7.385-32.971c1.628-5.898,3.505-12.044,5.958-18.316
		c1.238-3.127,2.616-6.289,4.263-9.374c1.644-3.075,3.555-6.117,5.93-8.663c1.18-1.275,2.498-2.374,3.905-3.201
		c1.439-0.806,2.882-1.28,4.24-1.198c1.354,0.092,2.736,0.697,4.074,1.781c1.335,1.077,2.568,2.569,3.679,4.23
		c2.233,3.339,4.031,7.333,5.625,11.555c1.595,4.233,2.96,8.754,4.231,13.466c2.504,9.446,4.283,18.503,5.799,27.056
		c1.499,8.561,2.698,16.64,3.736,24.278c2.066,15.279,3.515,28.79,4.753,41.083c2.442,24.584,3.988,44.343,5.841,64.06
		c1.737,19.698,3.443,39.391,4.274,64.01c0.397,12.306,0.5,25.847-0.204,41.177c-0.763,15.314-2.325,32.463-6.308,51.614
		c-4.008,19.081-9.58,35.273-16.015,49.004c-1.547,3.465-3.288,6.706-4.905,9.892c-1.757,3.116-3.385,6.158-5.16,9.069
		c-3.503,5.848-6.998,11.488-9.661,17.387c-1.332,2.945-2.456,5.95-3.267,9.01c-0.412,1.529-0.718,3.075-0.974,4.616
		c-0.098,0.777-0.195,1.551-0.292,2.32c-0.038,0.805-0.077,1.605-0.115,2.402c0.004,6.362,1.786,12.289,4.958,17.268
		c1.588,2.482,3.49,4.785,5.862,6.615c2.344,1.842,5.087,3.256,8.042,3.978l2.241,0.4c0.751,0.068,1.508,0.068,2.26,0.094
		c1.511,0.043,2.958-0.185,4.319-0.444c2.733-0.544,5.157-1.375,7.438-2.034c2.271-0.655,4.417-1.171,6.302-1.109
		c1.869,0.012,3.583,0.629,4.971,1.715c1.385,1.086,2.49,2.742,3.265,4.753c0.766,2.018,1.22,4.325,1.46,6.731
		c0.238,2.411,0.263,4.935,0.136,7.517c-0.166,2.696-0.334,5.44-0.506,8.242c-0.354,5.632-0.723,11.496-1.111,17.67
		c-1.567,24.693-3.448,54.332-5.956,93.851c-1.249,19.753-2.342,37.038-3.317,52.469c-0.508,7.632-1.3,14.69-3.014,21.006
		c-1.717,6.296-4.471,11.758-8.306,15.808c-3.84,4.039-8.71,6.562-13.779,8.168c-5.08,1.616-10.304,2.424-15.45,3.112
		c-10.421,1.299-20.226,2.521-30.027,3.742c-19.618,2.406-39.221,4.804-63.753,7.375c-6.135,0.609-12.577,1.249-19.402,1.926
		c-6.831,0.597-14.039,1.316-21.719,1.907c-15.353,1.286-32.568,2.424-52.256,3.34c-19.744,0.897-37.033,1.059-52.464,1.071
		c-3.857-0.059-7.598-0.117-11.233-0.172c-3.635-0.059-7.165-0.086-10.594-0.241c-3.43-0.124-6.764-0.245-10.011-0.362
		c-1.623-0.062-3.225-0.123-4.806-0.183c-1.579-0.092-3.138-0.183-4.678-0.273c-3.079-0.18-6.082-0.356-9.017-0.528
		c-1.463-0.088-2.909-0.175-4.34-0.26c-1.352-0.096-2.678-0.282-3.958-0.532c-2.558-0.489-4.963-1.346-6.733-2.595
		c-1.747-1.283-2.521-2.887-2.421-4.762c0.061-0.879,0.321-1.495,0.848-2.058c0.509-0.571,1.368-1.061,2.346-1.444
		c1.996-0.761,4.4-1.115,6.806-1.365c2.422-0.251,4.9-0.383,7.446-0.621c2.479-0.258,4.949-0.514,7.419-0.77
		c39.333-4.072,78.755-7.17,157.847-10.801c19.783-0.948,37.093-1.779,52.548-2.52c7.724-0.366,15.005-0.838,21.862-1.113
		c6.848-0.236,13.31-0.514,19.468-0.68c6.163-0.009,12.017-0.017,17.641-0.024c2.812-0.044,5.566,0.103,8.272,0.165
		c2.706,0.079,5.364,0.157,7.983,0.234c2.619,0.082,5.2,0.162,7.752,0.241c2.551,0.142,5.073,0.281,7.575,0.42
		c5.004,0.299,9.935,0.504,14.859,0.87c19.702,1.395,39.376,3.301,63.955,6.02c12.292,1.407,25.814,2.956,41.179,4.715
		c7.692,0.856,15.834,1.829,24.541,2.719c4.351,0.458,8.837,0.931,13.467,1.419c4.638,0.433,9.421,0.879,14.359,1.339
		c39.501,3.7,69.398,4.159,94.201,3.655c24.743-0.543,44.538-0.978,64.334-1.413c39.592-0.855,79.186-1.71,158.375-3.421
		c19.793-0.401,37.112-0.753,52.575-1.066c15.44-0.276,29.022-0.24,41.356,0.045c24.667,0.592,44.352,2.09,63.885,4.578
		c9.773,1.268,19.773,2.675,30.55,2.619c2.691,0.059,5.439-0.161,8.233-0.296c2.792-0.325,5.645-0.55,8.527-1.168
		c5.751-1.107,11.757-2.8,17.546-5.81c5.801-2.949,11.4-6.993,16.504-12.046c5.166-5.023,9.631-11.136,13.725-17.951
		c4.079-6.84,7.622-14.537,10.473-23.012c2.852-8.477,5.013-17.713,6.618-27.62c1.592-9.914,2.462-19.254,3.079-28.028
		c0.611-8.776,0.967-16.995,1.31-24.726c0.682-15.455,1.283-29.055,1.829-41.419c1.127-24.726,2.029-44.507,2.931-64.287
		c1.825-39.559,3.649-79.116,7.023-158.241c3.331-79.127,4.996-118.69,6.661-158.254c0.825-19.782,1.65-39.564,2.682-64.292
		c0.515-12.376,1.082-25.989,1.727-41.459c0.206-7.825,0.236-16.288-1.439-25.348c-0.863-4.513-2.21-9.19-4.493-13.725
		c-2.266-4.524-5.553-8.866-9.83-12.302c-4.249-3.455-9.14-5.736-13.968-7.073c-4.844-1.348-9.63-1.838-14.191-1.937
		c-9.147-0.168-17.447,1.148-25.12,2.459c-7.593,1.334-14.73,2.589-21.489,3.776c-1.687,0.296-3.351,0.587-4.992,0.875
		c-1.645,0.266-3.267,0.528-4.868,0.786c-3.202,0.517-6.319,1.02-9.359,1.511c-3.041,0.491-6.006,0.97-8.904,1.438
		c-2.904,0.431-5.742,0.853-8.522,1.266c-5.562,0.82-10.896,1.607-16.079,2.371c-5.192,0.696-10.233,1.371-15.198,2.036
		c-2.482,0.333-4.946,0.663-7.4,0.991c-2.458,0.3-4.906,0.599-7.355,0.898c-4.898,0.59-9.798,1.179-14.774,1.778
		c-4.976,0.604-10.044,1.093-15.258,1.666c-10.426,1.178-21.495,2.152-33.789,3.309c-24.606,2.091-54.18,4.291-93.681,5.743
		c-9.873,0.359-19.135,0.544-27.853,0.802c-8.722,0.125-16.903,0.243-24.621,0.354c-7.719,0.02-14.975,0.039-21.845,0.057
		c-6.87-0.06-13.354-0.115-19.53-0.169c-6.176-0.019-12.041-0.199-17.676-0.307c-2.817-0.059-5.577-0.117-8.288-0.174
		c-1.354-0.029-2.695-0.057-4.026-0.085c-1.268-0.042-2.522-0.117-3.759-0.231c-2.47-0.235-4.871-0.631-7.124-1.246
		c-2.247-0.615-4.356-1.46-6.079-2.603c-1.727-1.142-3.003-2.565-3.683-4.229l-0.262-0.625l-0.15-0.675
		c-0.049-0.226-0.119-0.445-0.159-0.675l-0.08-0.704c-0.062-0.931,0.019-1.829,0.255-2.697c0.461-1.734,1.594-3.38,3.146-4.846
		c1.544-1.472,3.469-2.748,5.527-3.894c4.156-2.309,8.815-4.027,13.778-5.942c10.251-3.966,20.007-10.964,28.022-20.949
		c2.03-2.476,3.87-5.193,5.669-8.033c1.709-2.894,3.391-5.912,4.811-9.163c1.5-3.215,2.708-6.661,3.842-10.235
		c1.04-3.604,1.959-7.361,2.556-11.3c1.213-7.863,1.379-16.417-0.141-25.329c-1.61-8.859-4.885-18.158-10.841-26.583
		c-0.125-0.188-0.25-0.375-0.333-0.498l-1.74,3.664c157.508-9.875,157.777-9.053,315.643-18.958
		c9.881-0.622,19.145-1.206,27.869-1.755c2.181-0.138,4.328-0.274,6.442-0.408c2.091-0.125,4.135-0.232,6.158-0.298
		c4.042-0.133,7.962-0.135,11.761-0.026c15.173,0.48,28.496,2.728,39.555,7.091c5.523,2.174,10.413,4.959,14.49,8.294
		c2.003,1.702,3.821,3.515,5.383,5.468c1.505,1.987,2.896,4.019,3.885,6.221c2.126,4.319,3.142,9.066,3.348,13.69
		c0.133,2.317-0.078,4.609-0.424,6.864c-0.245,1.115-0.409,2.247-0.768,3.334c-0.165,0.546-0.3,1.101-0.486,1.642l-0.601,1.608
		c-1.63,4.287-4.227,8.221-7.28,11.876c-3.09,3.643-6.775,6.933-10.838,9.992c-8.18,6.077-17.969,11.151-29.356,15.406
		c-5.728,2.1-11.785,3.988-18.459,5.554c-3.334,0.811-6.761,1.644-10.292,2.503c-3.532,0.85-7.156,1.78-10.933,2.554
		c-3.768,0.815-7.649,1.654-11.653,2.519c-2.004,0.421-4.029,0.896-6.104,1.292c-2.075,0.394-4.182,0.793-6.322,1.199
		c-4.281,0.812-8.693,1.648-13.248,2.511c-4.575,0.749-9.293,1.522-14.163,2.319c-32.092,5.098-57.83,7.417-79.878,8.821
		c-11.023,0.803-21.147,1.027-30.707,1.418c-4.783,0.111-9.429,0.133-13.982,0.201c-2.277,0.029-4.53,0.057-6.767,0.085
		c-2.236,0.039-4.456-0.036-6.664-0.049c-4.416-0.054-8.786-0.108-13.157-0.162c-2.186-0.005-4.37-0.095-6.561-0.179
		c-2.19-0.082-4.387-0.163-6.596-0.245c-2.208-0.082-4.429-0.165-6.667-0.248c-2.239-0.074-4.494-0.162-6.77-0.325
		c-4.553-0.282-9.2-0.571-13.987-0.868c-19.128-1.423-40.491-3.372-66.866-7.298l-0.129,5.237
		c4.944-0.495,27.843-2.789,55.667-5.576c78.801-7.909,118.22-11.677,157.642-15.446c19.709-1.899,39.42-3.798,64.058-6.172
		c6.161-0.605,12.631-1.24,19.485-1.914c6.873-0.704,14.177-1.483,21.937-2.844c3.881-0.647,7.867-1.521,11.959-2.541
		c1.022-0.263,2.045-0.57,3.079-0.857c1.035-0.284,2.075-0.585,3.112-0.944c1.04-0.344,2.087-0.692,3.143-1.041
		c1.042-0.4,2.093-0.803,3.152-1.209c8.406-3.332,17.086-8.315,24.407-15.82c0.459-0.463,0.954-0.89,1.379-1.377
		c0.42-0.492,0.839-0.981,1.256-1.469c0.832-0.978,1.657-1.948,2.476-2.91c0.748-1.014,1.457-2.045,2.176-3.056
		c0.704-1.021,1.464-1.997,2.042-3.069c1.21-2.11,2.518-4.133,3.472-6.28c0.512-1.057,1.021-2.106,1.525-3.147
		c0.47-1.054,0.867-2.125,1.297-3.174c3.363-8.43,5.289-16.678,6.604-24.454c2.554-15.589,2.872-29.371,3.212-41.751
		c0.581-24.742,1.045-44.536,1.509-64.331c0.889-39.594,1.793-79.167,4.043-158.354c0.251-9.945,0.006-19.563-2.484-28.418
		c-1.242-4.406-3.085-8.593-5.634-12.214c-2.541-3.624-5.782-6.606-9.301-8.806c-3.517-2.218-7.258-3.704-10.931-4.735
		c-3.681-1.03-7.309-1.622-10.821-2.01c-7.029-0.762-13.615-0.725-19.776-0.823c-24.749-0.344-44.548-0.618-64.346-0.893
		c-39.597-0.554-79.19-1.108-158.377-2.215c-79.188-1.039-118.782-1.558-158.379-2.078c-39.597-0.566-79.196-1.132-158.395-2.264
		c-78.966-1.309-118.449-1.964-157.992-2.62c-19.775-0.311-39.565-0.593-64.333-0.68c-12.386-0.018-26.012-0.031-41.536,0.387
		c-7.77,0.274-15.998,0.52-24.842,1.384c-4.433,0.537-8.999,0.986-13.794,2.262c-0.596,0.12-1.199,0.32-1.803,0.52
		c-0.604,0.197-1.21,0.395-1.819,0.593c-0.61,0.169-1.213,0.491-1.822,0.745c-0.604,0.281-1.224,0.516-1.819,0.844
		c-1.178,0.691-2.389,1.36-3.454,2.241l-0.825,0.629c-0.281,0.235-0.575,0.547-0.858,0.823c-0.274,0.289-0.592,0.568-0.822,0.875
		l-0.683,0.93c-1.741,2.521-2.613,5.127-3.305,7.635c-0.685,2.52-1.019,4.976-1.331,7.389c-0.538,4.818-0.616,9.432-0.565,13.884
		c0.159,8.897,0.911,17.145,1.769,24.892c1.795,15.482,4.107,28.957,6.345,41.17c4.571,24.408,8.977,43.756,13.549,63.056
		c4.625,19.287,9.503,38.509,16.038,62.416c3.278,11.951,6.973,25.072,11.372,39.929c2.206,7.427,4.581,15.29,7.219,23.648
		c1.344,4.179,2.64,8.468,4.28,12.976c0.812,2.244,1.732,4.519,2.798,6.798c1.056,2.281,2.281,4.57,3.782,6.791
		c1.499,2.216,3.189,4.324,5.202,6.136c2.014,1.806,4.311,3.308,6.767,4.384c0.625,0.242,1.248,0.482,1.869,0.722
		c0.627,0.202,1.26,0.36,1.886,0.537c0.614,0.196,1.293,0.267,1.938,0.391c0.643,0.135,1.318,0.18,1.993,0.215
		c2.68,0.169,5.522-0.315,7.975-1.514c2.466-1.183,4.462-2.959,6.01-4.844c1.557-1.896,2.729-3.915,3.709-5.925
		c1.907-4.04,3.074-8.064,3.989-11.961c1.778-7.806,2.556-15.157,3.186-22.07c0.573-6.948,1.102-13.291,1.763-19.424
		c0.35-3.057,0.692-6.038,1.026-8.951c0.38-2.912,0.752-5.758,1.116-8.545c0.702-5.577,1.534-10.917,2.266-16.107
		c0.79-5.186,1.556-10.22,2.311-15.176c0.791-4.954,1.569-9.831,2.347-14.707c3.211-19.511,6.421-39.009,10.431-63.371
		c1.971-12.197,4.063-25.633,6.169-40.961c1.035-7.668,2.063-15.812,2.917-24.546c0.365-4.372,0.919-8.853,1.031-13.65
		c0.129-4.759,0.011-9.688-0.594-14.773c-0.609-5.094-1.643-10.036-3.354-14.698c-1.726-4.638-4.189-9.047-7.711-12.534
		c-3.489-3.499-8.071-5.827-12.628-6.628c-4.497-0.858-9.293-0.541-13.414,1.195c-2.058,0.837-3.964,1.942-5.615,3.251
		c-0.866,0.617-1.598,1.348-2.372,2.03c-0.699,0.739-1.448,1.44-2.065,2.216c-2.579,3.041-4.545,6.307-6.094,9.585
		c-3.096,6.572-4.821,13.12-5.956,19.386c-1.116,6.278-1.568,12.319-1.519,18.139c0.124,5.657,0.243,11.082,0.359,16.351
		c0.25,10.517,0.485,20.415,0.719,30.312c0.454,19.796,0.909,39.591,1.477,64.334c0.25,12.372,0.525,25.982,0.837,41.447
		c0.145,7.733,0.298,15.929,0.461,24.667c0.094,4.394,0.168,8.808-0.006,13.427c-0.15,4.609-0.429,9.366-0.854,14.266
		c-0.852,9.798-2.094,18.95-3.77,27.438c-0.843,4.242-1.8,8.318-2.928,12.194c-1.136,3.867-2.419,7.563-4.047,10.885
		c-0.834,1.639-1.706,3.23-2.744,4.582c-1.033,1.341-2.183,2.516-3.425,3.211c-0.318,0.13-0.629,0.267-0.937,0.414
		c-0.392,0.12-0.822,0.227-1.228,0.341c-0.83,0.212-1.625,0.476-2.465,0.646c-1.696,0.301-3.329,0.704-5.017,0.89
		c-6.682,0.947-13.132,1.305-19.268,1.479c-12.286,0.3-23.385-0.1-33.836-0.722c-10.453-0.648-20.276-1.572-30.041-2.843
		c-9.745-1.309-19.552-2.867-29.917-4.508c-10.374-1.665-21.346-3.504-33.518-5.664c-24.353-4.288-53.47-9.962-92.269-17.89
		c-19.411-3.922-36.414-7.344-51.755-9.812c-7.671-1.228-14.93-2.212-21.887-2.756c-3.479-0.267-6.885-0.418-10.234-0.37
		c-3.347,0.045-6.646,0.303-9.886,0.994c-3.204,0.708-6.506,1.889-9.116,4.352c-1.294,1.189-2.303,2.834-2.924,4.239
		c-0.649,1.446-1.137,2.881-1.566,4.302c-1.615,5.687-2.306,11.148-2.858,16.448c-1.018,10.601-1.164,20.566-1.076,30.516
		c0.125,9.949,0.567,19.884,1.374,30.417c0.835,10.531,1.953,21.668,4.044,33.97c1.105,6.147,2.307,12.591,4.684,19.339
		c0.626,1.687,1.315,3.391,2.391,5.114c0.537,0.853,1.179,1.746,2.276,2.549l0.422,0.289c0.175,0.086,0.353,0.167,0.534,0.244
		c0.186,0.073,0.353,0.157,0.558,0.206c0.212,0.043,0.428,0.078,0.644,0.104c0.46,0.078,0.791,0.002,1.172-0.036
		c0.375-0.025,0.725-0.177,1.08-0.3c1.407-0.583,2.273-1.63,2.896-2.579c0.644-0.977,1.013-1.954,1.386-2.935
		c0.668-1.956,1.068-3.915,1.39-5.894c1.172-7.906,1.211-16.168,1.108-24.959c-0.151-8.786-0.604-18.085-1.231-27.985
		c-1.282-19.742-2.842-36.96-4.244-52.331c-1.466-15.361-2.756-28.879-3.929-41.171c-2.393-24.573-4.303-44.235-6.093-63.918
		c-1.778-19.684-3.499-39.386-5.224-64.046c-0.851-12.33-1.693-25.901-2.365-41.331c-0.643-15.427-1.185-32.724-0.823-52.458
		c0.433-19.71,1.693-36.99,4.82-51.942c0.794-3.729,1.72-7.303,2.834-10.683c1.108-3.38,2.421-6.566,4.029-9.427
		c1.593-2.893,3.505-5.349,5.834-7.216c2.346-1.9,5.044-3.338,7.776-4.518c5.494-2.348,11.135-3.766,16.588-4.838
		c5.465-1.068,10.788-1.777,15.978-2.309c10.388-1.039,20.245-1.44,30.105-1.585c39.485-0.394,78.987,2.455,157.845,9.674
		c9.868,0.862,19.125,1.643,27.864,2.254c4.368,0.304,8.612,0.572,12.729,0.762c4.11,0.177,8.094,0.348,11.962,0.515
		c7.736,0.37,15.01,0.564,21.896,0.788c6.886,0.242,13.386,0.395,19.576,0.526c24.761,0.597,44.57,0.754,64.377,0.938
		c39.614,0.234,79.226,0.224,158.426-0.708c78.984-1.003,118.468-1.715,158.009-2.284c39.54-0.562,79.132-1.277,158.313-2.09
		c39.59-0.364,69.282-0.471,94.022-0.378c12.371-0.001,23.502,0.143,34.016,0.206c10.512,0.14,20.407,0.25,30.298,0.446
		c9.89,0.221,19.783,0.396,30.285,0.764c10.506,0.291,21.62,0.768,33.96,1.38c3.083,0.178,6.243,0.361,9.49,0.549
		c1.623,0.094,3.268,0.189,4.936,0.285c1.665,0.125,3.352,0.252,5.063,0.38c3.422,0.265,6.94,0.537,10.564,0.817
		c3.62,0.303,7.327,0.742,11.16,1.123c3.829,0.378,7.778,0.839,11.822,1.407c4.048,0.551,8.2,1.187,12.44,2.011
		c4.248,0.794,8.576,1.804,12.954,3.095c2.202,0.614,4.375,1.396,6.592,2.166c1.086,0.437,2.18,0.878,3.282,1.322
		c1.114,0.422,2.165,0.989,3.264,1.481c4.329,2.093,8.308,4.519,11.817,7.306c3.474,2.83,6.462,5.982,9.027,9.308
		c2.453,3.413,4.514,6.951,6.143,10.582c1.561,3.658,2.899,7.301,3.804,10.972c1.952,7.3,2.817,14.441,3.334,21.219
		c0.506,6.787,0.624,13.244,0.671,19.41c0.081,24.721,0.03,44.504-0.185,64.265c-0.118,9.881-0.203,19.76-0.421,30.251
		c-0.096,5.246-0.194,10.645-0.297,16.275c-0.137,5.63-0.281,11.49-0.431,17.658c-0.642,24.671-1.538,54.268-3.321,93.708
		c-1.792,39.546-3.517,69.188-4.999,93.886c-0.736,12.349-1.447,23.461-2.142,33.954c-0.71,10.492-1.379,20.366-2.048,30.241
		c-1.373,19.751-2.857,39.479-4.777,64.164c-0.453,6.192-0.812,12.721-0.764,19.665c0.063,6.936,0.505,14.312,2.049,22.034
		c1.579,7.672,4.327,15.833,9.683,23.142c5.296,7.306,13.497,13.224,23.228,16.181c4.726,1.47,9.457,2.26,14.044,2.69
		c4.592,0.431,9.053,0.49,13.359,0.374c8.623-0.227,16.628-1.042,24.188-1.742c7.569-0.66,14.672-1.475,21.417-2.163
		c6.733-0.774,13.097-1.506,19.162-2.203c24.242-2.92,43.673-5.523,62.855-8.099c19.177-2.585,38.111-5.137,61.319-8.266
		c23.213-3.012,50.696-6.756,87.093-10.058L1946.057,744.688z"/>
</g>
</svg>
