<?xml version="1.0" encoding="UTF-8"?>
<!DOCTYPE svg PUBLIC "-//W3C//DTD SVG 1.1//EN" "http://www.w3.org/Graphics/SVG/1.1/DTD/svg11.dtd">
<!-- Creator: CorelDRAW -->
<svg xmlns="http://www.w3.org/2000/svg" xml:space="preserve" width="5500px" height="4000px" version="1.1" style="shape-rendering:geometricPrecision; text-rendering:geometricPrecision; image-rendering:optimizeQuality; fill-rule:evenodd; clip-rule:evenodd"
viewBox="0 0 9747.23 7088.9"
 xmlns:xlink="http://www.w3.org/1999/xlink"
 xmlns:xodm="http://www.corel.com/coreldraw/odm/2003">
 <defs>
  <style type="text/css">
   <![CDATA[
    .fil0 {fill:#F7F7F7}
    .fil1 {fill:black;fill-rule:nonzero}
   ]]>
  </style>
 </defs>
 <g id="Layer_x0020_1">
  <metadata id="CorelCorpID_0Corel-Layer"/>
  <g id="_2597370841424">
   <g>
    <path class="fil1" d="M7519.65 5780.24c-10.11,-86.1 18.42,-181 82.68,-275.62 -441.55,-347.53 -1031.95,-580.93 -1801.53,-712.67 -327.66,-56.11 -664.2,-91.84 -989.6,-126.49 -341.56,-36.32 -694.76,-73.87 -1038.94,-135.01 -809.46,-143.74 -1421.11,-403.13 -1869.8,-793.01 -43.67,-37.99 -86.61,-78.9 -118.71,-125.91 -21.61,0.58 -42.21,0.65 -60.99,0.8 -107.28,0.58 -206.84,-18.2 -304,-57.28 -115.28,-46.29 -181.66,-105.68 -202.98,-181.59 -16.89,-59.97 -3.28,-114.99 39.37,-159.1 36.54,-37.84 91.34,-63.46 148.18,-76.85 -37.19,-42.22 -70.3,-90.03 -100.58,-137.34 -67.47,-105.68 -122.71,-218.41 -182.75,-344.25 -65.07,-136.32 -110.19,-256.55 -137.85,-367.62 -35.51,-142.21 -43.59,-270.74 -24.89,-392.87 28.39,-185.29 130.79,-352.4 280.94,-458.37 144.83,-102.32 330.49,-146.65 509.24,-121.76 99.27,13.83 196.87,48.4 282.17,99.92 87.99,53.14 162.95,124.46 216.88,206.41 53.06,80.57 89.96,174.24 109.61,278.24 17.76,93.96 21.18,194.25 10.19,298.11 -24.31,229.98 -100.22,464.63 -213.68,660.7 -46.87,81.01 -100.22,151.02 -158.59,208.08l-9.61 9.39c-128.02,124.96 -249.57,260.7 -208.96,425.33 6.12,24.74 16.31,47.96 29.34,69.94 114.63,-5.1 250.07,-28.1 286.9,-137.41 17.9,-53.2 -14.56,-113.47 -54.95,-138.79 -19.51,-12.23 -58.15,-27 -97.6,11.57l-27.58 -28.16c42.28,-41.42 96.94,-47.67 146.14,-16.82 54.15,33.99 95.7,112.38 71.32,184.72 -41.7,124.09 -177.51,154.95 -297.96,162.95 27.8,35.59 62.23,67.91 97.23,98.33 443.16,385.08 1048.55,641.49 1850.81,783.92 342.79,60.84 695.34,98.4 1036.25,134.64 326.05,34.64 663.25,70.53 992.07,126.86 377.29,64.56 702.84,150.58 995.13,262.96 313.9,120.66 590.32,274.09 822.78,456.54 48.03,-62.8 94.9,-103.34 101.09,-108.58 48.4,-47.09 108.81,-89.52 171.18,-110.55 -38.65,-88.8 -80.57,-171.99 -121.25,-252.77 -110.19,-218.64 -224.09,-444.69 -282.97,-796.95 -25.33,-151.53 -11.65,-301.02 39.52,-432.17 55.67,-142.65 154.65,-257.79 286.24,-332.97 131.15,-74.97 286.32,-98.77 436.9,-67.11 147.02,30.94 281.3,112.45 378.17,229.41 224.97,271.76 171.98,624.38 120.45,810.41 -36.68,132.24 -93.44,266.38 -168.85,398.76 -19.28,33.85 -41.12,68.27 -62.29,101.61 -72.79,114.55 -147.82,232.67 -145.57,366.15 67.25,-15.21 144.98,-8.95 190.33,9.32 82.16,33.04 139.37,112.88 139.15,194.18 -0.22,75.55 -47.67,150.22 -123.87,194.98 -72.13,42.28 -156.04,52.69 -221.11,57.06 -136.61,9.09 -261.06,1.38 -369.94,-22.85 -128.97,-28.75 -240.03,-81.59 -330.2,-156.99 -9.61,-8.08 -19.36,-16.09 -29.12,-24.02 -45.92,68.27 -85.22,155.6 -74.52,246.14l-39.08 4.59 0.06 -0.14zm136.69 -282.83c10.55,8.59 21.03,17.18 31.37,25.84 158.37,132.54 384.5,189.96 672.19,170.82 60.78,-4.08 138.8,-13.61 203.79,-51.68 63.25,-37.11 104.22,-100.36 104.37,-161.06 0.14,-65.57 -46.95,-130.35 -114.49,-157.49 -40.03,-16.09 -113.46,-20.6 -172.63,-5.97 0.44,3.56 0.94,7.13 1.46,10.91 3.41,24.75 7.05,50.3 0.58,76.5 -7.5,30.49 -26.71,51.74 -52.7,58.29 -23.43,5.9 -48.98,-1.89 -65.06,-19.79 -17.54,-19.44 -21.62,-46.95 -11.14,-75.48 11.87,-32.38 37.48,-57.49 76.35,-74.81 2.76,-1.24 5.6,-2.41 8.52,-3.57 -7.14,-149.71 73.36,-276.42 151.3,-399.13 21.84,-34.42 42.51,-66.88 61.36,-99.93 73.73,-129.55 129.26,-260.7 165.07,-389.81 49.56,-178.6 100.72,-516.74 -112.81,-774.75 -192.29,-232.24 -514.05,-296.72 -765.14,-153.2 -287.78,164.41 -347.02,482.03 -306.48,724.46 57.86,346.36 170.45,569.72 279.26,785.73 41.85,83.05 84.94,168.57 124.67,260.41 47.16,-8.73 94.33,-3.42 137.19,22.86 21.18,12.95 37.12,35.15 42.65,59.38 4.66,20.17 1.53,40.11 -8.73,56.19 -10.63,16.6 -28.02,27.88 -49.05,31.8 -25.99,4.88 -55.54,-1.96 -77.08,-17.82 -34.93,-25.62 -51.89,-66.74 -65.5,-99.71 -0.8,-1.9 -1.6,-3.79 -2.4,-5.76 -58.37,18.86 -116.01,59.61 -159.83,102.41l-1.16 1.02c-1.02,0.87 -48.26,40.97 -96,103.56l0.07 -0.22zm686.68 -166.44c-26.71,12.66 -44.18,29.69 -51.89,50.79 -5.32,14.56 -4.08,27.22 3.42,35.6 6.48,7.2 16.74,10.33 26.2,7.93 11.5,-2.91 20.01,-13.39 24.01,-29.48 4.66,-18.85 1.75,-39.66 -1.3,-61.64 -0.15,-1.02 -0.29,-2.11 -0.44,-3.2zm-390.83 -49.64c12.37,29.91 26.42,63.76 52.4,82.83 12.88,9.46 31.08,13.68 46.51,10.84 7.28,-1.38 17.1,-4.95 23.14,-14.27 5.75,-9.02 5.1,-19.21 3.5,-26.13 -3.21,-13.97 -12.74,-27.21 -24.89,-34.64 -30.79,-18.85 -65.29,-23.58 -100.66,-18.63zm-6516.98 -2110.05c-57.64,9.75 -115.87,33.48 -151.75,70.6 -32.82,33.92 -42.79,74.67 -29.77,121.1 17.76,63.33 76.57,114.27 179.77,155.68 92.36,37.12 186.97,54.95 289.16,54.44 11.94,0 24.67,-0.14 37.92,-0.29 -9.97,-19.5 -17.91,-40.03 -23.29,-61.79 -21.26,-86.03 -5.39,-171.47 48.4,-261.28 45.85,-76.64 112.44,-144.25 171.32,-201.68l9.61 -9.38c55.82,-54.59 106.99,-121.77 152.04,-199.64 109.1,-188.57 185.15,-423.72 208.59,-645.05 22.27,-210.05 -18.05,-405.61 -113.54,-550.51 -101.31,-153.86 -277.66,-261.94 -471.62,-288.94 -168.99,-23.59 -344.32,18.34 -481.08,114.92 -141.48,99.86 -237.92,257.42 -264.7,432.17 -41.99,273.87 70.89,552.11 159.39,737.56 59.53,124.67 114.12,236.24 180.42,340.03 33.7,52.69 71.03,106.11 113.39,150.43 40.76,-4.8 80.21,-3.27 112.6,4.59 38.86,9.53 74.16,27.66 99.49,51.09 9.82,9.1 40.9,40.83 29.4,68.05 -4.44,10.48 -16.16,22.71 -46.51,21.03 -81.8,-4.51 -150.29,-45.63 -209.1,-102.98l-0.14 -0.15zm53.05 -5.09c46.59,39 98.84,65.5 158.23,68.77 2.11,0.15 3.85,0.15 5.24,0.08 -2.84,-5.18 -8.44,-12.89 -17.11,-20.89 -20.52,-19 -49.63,-33.78 -82.09,-41.78 -18.85,-4.66 -40.91,-6.7 -64.27,-6.26l0 0.08zm169.44 67.97l-1657.7 -3234.16 1657.7 3234.16z"/>
    <path class="fil1" d="M8138.8 4300.61c-187.92,0 -340.76,-152.84 -340.76,-340.75 0,-62.02 16.81,-122.71 48.69,-175.62l33.77 20.3c-28.16,46.73 -43.01,100.44 -43.01,155.24 0,166.16 135.15,301.39 301.38,301.39 166.23,0 301.39,-135.15 301.39,-301.39 0,-166.23 -135.16,-301.38 -301.39,-301.38 -66.74,0 -129.99,21.4 -182.9,61.87l-23.94 -31.3c59.83,-45.78 131.37,-69.94 206.84,-69.94 187.92,0 340.76,152.84 340.76,340.76 0,187.91 -152.84,340.76 -340.76,340.76l-0.07 0.06z"/>
    <path class="fil1" d="M1669.2 2297.4c-187.92,0 -340.76,-152.83 -340.76,-340.76 0,-62 16.81,-122.7 48.69,-175.61l33.77 20.3c-28.16,46.73 -43.01,100.44 -43.01,155.24 0,166.16 135.15,301.39 301.38,301.39 166.24,0 301.39,-135.15 301.39,-301.39 0,-166.23 -135.15,-301.38 -301.39,-301.38 -66.74,0 -129.98,21.4 -182.89,61.86l-23.95 -31.29c59.83,-45.78 131.37,-69.94 206.84,-69.94 187.92,0 340.76,152.84 340.76,340.76 0,187.91 -152.84,340.75 -340.76,340.75l-0.07 0.07z"/>
   </g>
  </g>
 </g>
</svg>
