<?xml version="1.0" encoding="UTF-8"?>
<svg id="Layer_2" xmlns="http://www.w3.org/2000/svg" width="2500" height="1700" version="1.1" viewBox="0 0 2500 1700">
  <!-- Generator: Adobe Illustrator 29.8.2, SVG Export Plug-In . SVG Version: 2.1.1 Build 3)  -->
  <path d="M101.7,1217.94c-.51,0-1.01-.26-1.29-.73-.42-.71-.19-1.63.52-2.06,53.19-31.59,116.21-40.6,177.15-49.32,9.39-1.34,19.1-2.73,28.57-4.18,67.45-10.29,142.93-28.06,191.37-81.85,5.73-6.36,11.08-13.27,16.26-19.95,6.6-8.52,13.43-17.33,21.15-25.17,11.48-11.66,29.72-25.47,51.67-25.47.21,0,.41,0,.62,0,16.32.19,30.95,8.08,45.1,15.7,5.01,2.7,10.1,5.44,15.3,7.87,7.31-4.89,14.85-9.24,21.99-13.37l131.92-76.21c21.67-12.52,46.24-26.71,73.41-27.37,15.43-.35,30.52,3.74,45.12,7.71,10.09,2.75,20.52,5.59,30.95,6.91,1.09.14,2.21.29,3.36.44.55.07,1.11.14,1.68.22,3.12-2.57,6.23-5.2,9.37-7.85,10.41-8.79,21.17-17.88,33.03-25.41,15.83-10.05,26.24-13.11,30.93-9.1,1.37,1.17,2.01,2.75,2.22,4.33,20.58-21.28,42.31-41.54,66.07-59.32,8.02-6,16.38-11.79,24.47-17.4,14.8-10.26,30.11-20.86,43.73-33.02,6.89-6.15,13.54-12.87,19.96-19.36,11.13-11.25,22.63-22.88,35.89-32.07,12.41-8.6,25.44-14,37.97-16.02,2.57-.84,5.4-1.13,8.35-.85,9.5-.39,18.53,1.28,26.62,5.08,22.98,10.8,35.54,34.97,44.76,57.32,45.01,20.5,75.85,61.14,105.68,100.45,11.22,14.79,22.82,30.07,34.99,44.04,29.6,33.96,64.59,62.04,94.91,85.02,25.6,19.41,52.15,38.29,78.91,56.11,7.9,5.26,22.43,12.9,30.97,4.94,3.38-3.15,4.5-7.82,4.2-12.25-19.27-8.28-38.34-16.82-57.25-25.29-25.57-11.45-57.38-25.7-75.34-52.27-5.88-8.69-8.36-16.45-7.58-23.7.91-8.5,8.07-17.32,17.31-16.84,5.08.25,9.38,3.1,13.7,6.25,35.62,25.93,68.85,55.47,98.77,87.82,5.03,5.44,9.74,10.88,12.09,17.52.49,1.39.86,2.89,1.09,4.45,49.19,21.08,99.64,40.38,152,52.34-17.13-18.74-30.49-44.76-40.44-78.6-9.89-33.64-35.06-61.92-67.32-75.65-1.65-.7-3.33-1.38-5.02-2.07-10.32-4.18-21-8.5-26.48-18.21-6.1-10.81-3.2-23.88.29-36.34l20-71.43c.8-2.85,1.89-6.75,4.95-9.04,2.58-1.92,5.78-2.17,9.02-.7,4.42,2.01,7.77,6.69,8.13,11.38.47,6.05-2.09,11.58-4.56,16.93-.62,1.34-1.26,2.72-1.83,4.07-8.42,19.98-5.67,45.93,7.38,69.42,11.91,21.45,29.96,38.68,47.42,55.35,25.72,24.54,57.72,55.09,97.01,63.62,20,4.34,41.01,2.8,61.32,1.32,19.29-1.41,39.24-2.87,58.54.63,34.95,6.33,65.19,28.11,94.44,49.18,35.52,25.59,69.1,49.76,110.27,48.65,13.14-.35,37.59-1,40.17,16,1.99,13.16-12.36,21.8-27.83,24.7,53.44-4.41,106.84-9.33,159.91-14.95-66.1-16.97-129-43.77-187.08-79.71-74.1-45.86-150.07-84.53-232.26-118.23-72.29-29.64-137.48-76.59-188.51-135.75l-.21-.25c-8.25-9.57-16.79-19.47-28.61-21.41-11.17-1.83-22.41,4.32-31.93,10.58-14.47,9.52-28.4,20.36-41.87,30.85-13.04,10.16-26.53,20.66-40.54,29.98-33.57,22.34-64.1,33.23-93.22,33.23-.33,0-.67,0-1,0-.28.99-.61,1.98-.98,2.95-1.06,2.79-2.68,6.26-5.81,8.29-3.12,2.04-8.07,2.03-10.47-1.23-1.1-1.5-1.46-3.41-1-5.39.59-2.54,2.4-4.87,4.72-6.09,3.42-1.79,7.23-1.68,10.92-1.58h.27c1.99-9.38.22-19.62-1.5-29.57-.35-2.04-.7-4.07-1.02-6.08-16.76-106.47-71.19-204.1-153.27-274.89-40.66-35.07-86.61-62.45-136.59-81.38-51.73-19.6-106.26-29.54-162.08-29.54-61.77,0-121.68,12.1-178.09,35.95-54.48,23.04-103.41,56.03-145.43,98.05-42.02,42.02-75.01,90.95-98.05,145.43-23.86,56.41-35.95,116.32-35.95,178.09,0,.83-.67,1.5-1.5,1.5s-1.5-.67-1.5-1.5c0-62.17,12.18-122.48,36.19-179.26,23.19-54.84,56.4-104.09,98.69-146.38,42.29-42.29,91.54-75.5,146.38-98.69,56.78-24.01,117.09-36.19,179.26-36.19,56.19,0,111.08,10,163.15,29.73,50.3,19.06,96.56,46.62,137.48,81.92,82.61,71.25,137.4,169.52,154.27,276.69.31,1.99.66,4.01,1.01,6.03,1.74,10.05,3.52,20.38,1.6,30.13.1,0,.19,0,.28,0,28.52,0,58.51-10.72,91.57-32.72,13.92-9.26,27.36-19.73,40.35-29.85,13.51-10.53,27.49-21.41,42.06-30.99,10-6.58,21.87-13.02,34.06-11.03,12.89,2.12,22.19,12.9,30.39,22.41l.21.25c50.72,58.81,115.52,105.47,187.38,134.94,82.34,33.76,158.46,72.51,232.7,118.45,60.21,37.26,125.62,64.65,194.42,81.4.71.17,1.19.83,1.14,1.56s-.61,1.32-1.34,1.39c-180.28,19.36-364.25,30.44-542.17,41.16-136.36,8.21-277.37,16.71-415.59.33-12.39-1.47-24.38-3.26-34.7-8.95-9.39-5.17-16.06-13.39-18.37-22.15-1.06.17-2.13.3-3.21.41-15.23,1.46-29.86-3.87-44.02-9.02-6.45-2.35-13.12-4.78-19.74-6.52-35.8-9.42-73.37.24-109.71,9.58-36.64,9.42-74.53,19.16-111.03,9.64-13.6-3.54-26.45-9.69-38.89-15.64-10.32-4.94-21-10.04-31.99-13.59-23.46-7.58-53.85-6.41-68.84,13.29-12.15,15.96-43.3,7.08-58.27,2.81-8.35-2.38-16.57-5.52-24.53-8.56-8.83-3.38-17.97-6.87-27.23-9.29-20.35-5.31-41.15-5.56-62.04-3.13-9.46,1.62-18.96,3.2-28.47,4.73-14.53,3.03-29.03,6.83-43.37,10.58-44.98,11.77-91.5,23.95-136.2,11.91-5.69-1.53-12.44-4.51-17.68-8.89-4.98-.34-9.95-.74-14.92-1.22-.75-.07-1.33-.68-1.36-1.43-.03-.75.5-1.41,1.24-1.54,3.21-.57,6.42-1.14,9.63-1.74-.25-.38-.49-.76-.71-1.15-2.35-4.09-2.94-8.34-1.77-12.65,2.16-7.95,9.45-12.19,16.5-16.29,1.94-1.13,3.95-2.3,5.77-3.51,13.06-8.69,20.15-22.66,27.65-37.44,4.36-8.6,8.87-17.49,14.67-25.22,7.19-9.59,16.37-17.38,26.1-24.14-4.71-2.26-9.31-4.74-13.85-7.18-14.46-7.8-28.12-15.16-43.71-15.34-.19,0-.39,0-.58,0-20.91,0-38.45,13.33-49.53,24.58-7.59,7.71-14.36,16.45-20.91,24.9-5.21,6.73-10.6,13.68-16.4,20.12-49.07,54.5-125.17,72.44-193.14,82.81-9.49,1.45-19.21,2.84-28.6,4.18-60.65,8.67-123.36,17.64-176.04,48.93-.24.14-.5.21-.76.21ZM1390.59,1172.21c2.15,7.89,8.27,15.33,16.87,20.07,9.87,5.44,21.06,7.11,33.61,8.6,137.95,16.35,278.82,7.86,415.05-.34,101.92-6.14,205.85-12.4,309.91-20.27-42.62-.08-85.46-5.97-127.34-11.73-7.73-1.06-15.44-2.12-23.15-3.15-187.31-24.92-379.34-27.93-565.09-30.77-4.92,4.48-10.17,8.58-15.33,12.62-12.27,9.59-27.22,21.27-44.53,24.98ZM1001.57,1140.21c9.96,0,19.87,1.81,28.4,4.56,11.18,3.61,21.95,8.76,32.36,13.74,12.3,5.88,25.03,11.97,38.35,15.44,35.75,9.32,73.26-.32,109.53-9.64,36.71-9.43,74.67-19.19,111.22-9.58,6.75,1.78,13.49,4.23,20,6.6,14.48,5.27,28.16,10.25,42.7,8.85.97-.09,1.93-.21,2.89-.36-.22-1.49-.32-3-.27-4.49.4-14.04,12.11-24.84,23.53-29.33,12.27-4.82,26.03-4.61,38.16-4.42.29,0,.55,0,.84.01,4.53-4.2,8.72-8.74,12.21-13.85,8.09-11.83,10.75-25.42,7.11-36.36-4.25-12.75-15.45-20.57-27.31-28.85-10.3-7.19-20.95-14.62-26.84-25.66-3.77-7.05-5.22-14.98-6.63-22.64-.88-4.79-1.79-9.74-3.25-14.38-6.5-20.59-24.8-38.27-54.38-52.56-6.7-3.23-13.69-6.26-20.45-9.19-17.21-7.45-35-15.16-49.9-27.08-2.67-2.14-5.24-4.42-7.69-6.82,16.8,30.02,47.38,52.57,81.29,58.52l1.89.33c9.96,1.71,21.25,3.66,26.09,12.83,2.22,4.21,2.46,9.01.7,13.9-2.64,7.33-9.6,14.26-17.74,17.65-10.76,4.48-20.71,8.48-33.52,12.12-12.84,3.64-26.11,7.41-38.14,13.59-13.3,6.84-23.37,16-29.12,26.5-3.15,5.76-5.19,12.23-7.17,18.48-2.14,6.79-4.36,13.82-8.03,20.13-8.69,14.96-25.5,25.39-44.95,27.9-16.25,2.1-34.01-1.02-52.77-9.25-2.59-1.14-5.24-2.38-7.79-3.57-12.18-5.7-24.76-11.59-37.65-9.62-4.83.74-9.63,2.67-14.15,5.61-.65,15.81-9.04,31.32-16.62,45.34-.81,1.5-1.62,2.99-2.41,4.46-.67,1.25-3.13,5.4-6.75,6.43-1.44.41-2.88.23-4.15-.51-3.04-1.77-3.63-5.73-1.66-11.15,4.07-11.21,8.29-22.8,15.38-32.82,3.9-5.51,8.4-10.04,13.27-13.45,0-3.2-.34-6.41-1.11-9.63-1.05-4.37.06-9.43,3.03-13.9,2.67-4.01,6.46-7.14,9.79-9.75,24-18.8,52.12-31.99,79.32-44.75,2.88-1.35,5.75-2.7,8.62-4.05,7.21-3.4,15.37-7.25,21.96-13.03,10.61-9.3,17.11-23.78,17.83-39.74.63-14.07-3.8-26.94-8.5-40.57l-.93-2.72c-4.9-14.3,3.19-28.77,8.46-36.12,3.05-4.27,6.52-8.29,9.88-12.19,3.8-4.41,7.71-8.95,10.99-13.83-4.24-10.38-6.91-21.39-7.72-32.52-.05-.62.3-1.21.87-1.47.57-.26,1.24-.14,1.68.29,5.68,5.61,9.36,12.5,12.12,19.87,2.99-8.53,4.06-17.72,3.03-26.73-.6-5.23-1.9-10.48-3.17-15.55-.56-2.25-1.14-4.59-1.66-6.9-1.46-6.58-2.91-15.21-1.07-23.57,1.91-8.7,7.47-15.85,14.5-18.66,2.92-1.16,6.13-1.68,9.24-2.17,5.3-.85,10.31-1.65,13.08-5.48,2.95-4.09,1.68-9.83-.3-13.51-3.11-5.78-9.59-10.62-16.51-12.35-.88-.22-1.76-.38-2.62-.5-2.93.12-5.86.45-8.76.95-.93.37-1.8.82-2.62,1.37-25.65,17.1-23.33,38.27-20.87,60.69,1.25,11.37,2.53,23.13-.06,34.37-5.95,25.74-19.16,61.74-48.29,87.06-6.09,5.29-12.79,10.05-19.28,14.65-11.02,7.82-22.42,15.9-30.69,26.65-6.17,8.02-10.86,17.77-15.39,27.2-8.2,17.05-16.67,34.67-34.16,42.06-2.56,1.08-5.25,1.89-7.89,2.64,1.41,2.53,2.32,5.34,2.55,8.37.48,6.32-3.04,12.88-8.96,16.71-5.06,3.27-10.61,3.71-15.23,1.19-.12-.07-.23-.15-.33-.25-2.44-2.4-3.53-5.65-3.13-9.39.55-5.19,4.01-10.66,8.62-13.59,3.61-2.3,7.65-3.64,11.66-4.79-4.22-5.06-10.86-8.37-17.16-9.09-9.02-1.04-18.88,1.58-31.02,8.23-22.88,12.54-42.09,31.32-60.66,49.48-19.52,19.09-39.7,38.82-64.29,51.51-25.11,12.96-53.18,17.88-80.33,22.64-2.9.51-5.81,1.02-8.72,1.53,12.41.11,24.76,1.51,36.98,4.7,9.42,2.46,18.63,5.98,27.54,9.39,7.89,3.02,16.05,6.14,24.28,8.48,14.33,4.08,44.15,12.59,55.06-1.74,10.59-13.91,27.23-18.89,43.75-18.89ZM1453.57,1131.66c184.88,2.83,375.91,5.95,562.36,30.75,7.71,1.03,15.43,2.09,23.16,3.15,62.28,8.57,126.68,17.43,189.06,6.92,13.99-2.36,28.26-10.09,26.53-21.5-2.01-13.27-20.21-13.89-37.12-13.45-.9.02-1.79.04-2.68.04-41.04,0-75.79-25.03-109.42-49.25-28.98-20.88-58.95-42.46-93.22-48.67-18.93-3.43-38.68-1.98-57.79-.59-20.53,1.5-41.75,3.05-62.18-1.38-40.12-8.71-72.46-39.57-98.45-64.38-17.62-16.82-35.85-34.21-47.97-56.06-13.49-24.29-16.29-51.22-7.52-72.04.59-1.39,1.24-2.8,1.87-4.16,2.42-5.23,4.7-10.17,4.29-15.44-.28-3.59-2.96-7.33-6.38-8.88-1.56-.71-3.86-1.22-5.99.37-2.08,1.55-2.98,4.29-3.86,7.44l-20,71.43c-3.32,11.86-6.1,24.25-.57,34.06,4.96,8.8,15.14,12.92,24.99,16.9,1.71.69,3.41,1.38,5.07,2.09,33.08,14.08,58.88,43.08,69.03,77.57,10.4,35.37,24.53,62.04,42.81,80.62,9.13,2,18.33,3.76,27.58,5.27,4.29.7,8.71,1.42,12.26,4.17,3.79,2.94,5.84,8.83,2.84,12.93-4.53,6.19-13.94,2-16.72.57-10.02-5.17-19.17-11.88-27.48-20.2-53.66-11.81-105.25-31.4-155.49-52.88,0,4.78-1.47,9.68-5.18,13.15-7.45,6.94-19.77,5.29-34.68-4.64-26.81-17.85-53.41-36.77-79.06-56.22-30.44-23.08-65.58-51.28-95.36-85.44-12.24-14.04-23.87-29.37-35.12-44.19-29.72-39.17-60.46-79.67-105.07-99.77-.35-.16-.63-.44-.77-.8-9.03-21.98-21.25-45.85-43.49-56.3-4.58-2.15-9.34-3.51-14.17-4.21,4.71,2.64,8.68,6.48,11.06,10.9,2.39,4.44,3.85,11.47.09,16.69-3.5,4.84-9.36,5.78-15.03,6.69-2.95.47-6,.96-8.61,2-6.12,2.44-10.98,8.77-12.68,16.51-1.71,7.8-.33,16,1.07,22.28.51,2.28,1.08,4.59,1.64,6.83,1.29,5.17,2.62,10.51,3.24,15.94,1.22,10.67-.37,21.58-4.48,31.46,1.44,4.44,2.65,8.99,3.84,13.49,1.14,4.32,2.32,8.78,3.69,13.01,1.12,3.47,2.42,6.88,3.89,10.22,4.31,5.14,9.11,9.85,14.33,14.03,14.58,11.67,32.19,19.3,49.22,26.67,6.79,2.94,13.81,5.98,20.56,9.24,30.35,14.66,49.17,32.95,55.93,54.36,1.52,4.82,2.45,9.86,3.34,14.75,1.43,7.78,2.78,15.12,6.32,21.77,5.55,10.4,15.9,17.62,25.91,24.61,11.74,8.19,23.88,16.67,28.44,30.36,3.94,11.82,1.14,26.4-7.47,39-3.06,4.47-6.6,8.49-10.41,12.23ZM568.03,1161.44c4.21,2.68,8.92,4.58,12.85,5.64,43.93,11.83,90.06-.24,134.66-11.92,3.07-.8,6.15-1.61,9.24-2.41-51.84,7.25-104.28,11.7-156.75,8.69ZM1441.16,1134.51c-9.9,0-20.39.6-29.78,4.29-10.5,4.12-21.27,13.95-21.63,26.62-.04,1.29.04,2.57.23,3.86,16.64-3.58,31.28-15.03,43.29-24.41,4.27-3.34,8.6-6.72,12.73-10.32-1.59-.02-3.21-.04-4.84-.04ZM563.64,1158.16c65.47,4.31,131.01-3.28,195.43-13.61,9.57-2,19.18-3.67,28.76-4.78,11.49-1.96,22.93-3.97,34.33-5.97,26.93-4.72,54.77-9.61,79.47-22.35,24.18-12.48,44.2-32.05,63.56-50.99,18.72-18.3,38.07-37.23,61.32-49.96,12.71-6.96,23.14-9.7,32.8-8.58,7.41.85,15.23,4.95,19.92,11.2,2.84-.79,5.75-1.63,8.44-2.77,16.45-6.95,24.31-23.29,32.63-40.6,4.6-9.56,9.35-19.45,15.72-27.73,8.54-11.11,20.13-19.32,31.33-27.27,6.43-4.56,13.07-9.27,19.05-14.46,28.52-24.79,41.48-60.17,47.33-85.47,2.48-10.74,1.22-22.25,0-33.37-2.31-21.05-4.69-42.78,17.85-60.38-10.23,2.98-19.83,7.87-27.68,13.31-13.03,9.03-24.44,20.56-35.47,31.71-6.46,6.53-13.13,13.28-20.1,19.49-13.75,12.28-29.14,22.94-44.02,33.25-8.07,5.59-16.41,11.37-24.38,17.33-24.67,18.46-47.18,39.64-68.48,61.88-4.09,23.21-17.64,32.9-33.35,36.37-6.75,7.61-13.42,15.23-20.06,22.81-45.95,52.49-92.12,89.06-141.16,111.82-87.43,40.58-179.65,70.2-274.33,88.12.34.34.7.67,1.07.99ZM559.02,1157.84s.04,0,.05,0c0,0,0,0-.01-.01-.01,0-.03,0-.04,0ZM648.39,1036.21c-10.05,6.84-19.56,14.73-26.86,24.47-5.64,7.52-10.09,16.3-14.39,24.78-7.35,14.48-14.94,29.46-28.67,38.58-1.89,1.26-3.94,2.45-5.92,3.6-6.83,3.97-13.28,7.72-15.12,14.49-.96,3.51-.46,7,1.47,10.37.4.7.86,1.38,1.36,2.04,95.05-17.84,187.63-47.5,275.38-88.22,48.65-22.58,94.5-58.92,140.16-111.08,5.81-6.63,11.65-13.31,17.54-19.97-12.22,1.75-25.26.34-35.92-1.02-14.87,12.17-30.7,23.48-49.9,28.91-12.35,3.49-25.11,6.38-37.45,9.17-24.45,5.53-49.73,11.25-72.71,21.92-11.73,5.45-23.03,12.27-33.96,18.87-9.23,5.57-18.77,11.33-28.58,16.28-26.2,13.21-49.83,17.43-70.24,12.55-5.57-1.33-10.95-3.36-16.2-5.73ZM1087.99,1101.55c-3.9,3.03-7.51,6.83-10.65,11.27-6.86,9.68-11,21.08-15.01,32.11-.66,1.82-1.95,6.19.35,7.54.58.34,1.16.41,1.83.21,1.85-.52,3.8-2.86,4.92-4.95.79-1.48,1.6-2.97,2.41-4.48,7.35-13.6,14.9-27.55,16.15-41.69ZM1853.67,1111.14c7.15,6.59,14.9,12.02,23.27,16.34,1.6.82,9.72,4.71,12.92.33,1.94-2.65.36-6.75-2.26-8.79-2.95-2.29-6.98-2.94-10.89-3.58-7.73-1.26-15.41-2.7-23.05-4.3ZM1110.48,1090.32c11.69,0,22.85,5.22,33.69,10.29,2.54,1.19,5.17,2.42,7.73,3.54,18.26,8.01,35.48,11.05,51.18,9.03,18.54-2.39,34.51-12.27,42.74-26.43,3.5-6.02,5.66-12.89,7.76-19.53,2.02-6.39,4.1-13,7.4-19.02,6.03-11.03,16.54-20.62,30.38-27.73,12.29-6.32,25.71-10.13,38.69-13.81,11.5-3.26,20.54-6.73,33.19-12,7.28-3.03,13.73-9.42,16.07-15.9,1.49-4.13,1.31-7.99-.53-11.49-4.15-7.86-14.66-9.67-23.94-11.27l-1.9-.33c-38.24-6.72-72.36-34-88.11-69.44-6.44-7.74-11.82-16.41-15.93-25.62-3.12,4.41-6.66,8.52-10.11,12.53-3.31,3.84-6.73,7.82-9.71,11.97-4.93,6.88-12.52,20.38-8.06,33.41l.93,2.71c4.79,13.91,9.32,27.05,8.66,41.68-.75,16.77-7.62,32.03-18.85,41.86-6.9,6.05-15.27,10-22.66,13.48-2.87,1.35-5.75,2.7-8.62,4.05-27.04,12.69-55.01,25.8-78.74,44.39-3.15,2.47-6.72,5.41-9.15,9.05-2.51,3.78-3.47,7.98-2.61,11.54.68,2.81,1.04,5.63,1.14,8.44,4.36-2.57,8.97-4.26,13.69-4.98,1.91-.29,3.8-.43,5.69-.43ZM1566.02,940.64c-7.18,0-12.92,7.35-13.65,14.18-.7,6.52,1.62,13.62,7.08,21.71,17.48,25.86,48.86,39.92,74.08,51.21,18.34,8.21,36.82,16.49,55.49,24.53-.17-.7-.37-1.38-.6-2.03-2.16-6.11-6.47-11.08-11.46-16.48-29.79-32.2-62.87-61.62-98.34-87.43-3.94-2.87-7.84-5.47-12.09-5.68-.18,0-.35-.01-.53-.01ZM651.34,1034.24c4.56,1.97,9.2,3.65,13.95,4.79,19.69,4.71,42.64.57,68.19-12.31,9.7-4.89,19.2-10.62,28.38-16.17,11-6.64,22.37-13.5,34.24-19.02,23.27-10.81,48.71-16.56,73.31-22.12,12.3-2.78,25.02-5.66,37.3-9.13,17.87-5.05,32.39-15.04,46.63-26.55-.76-.1-1.5-.19-2.22-.29-10.63-1.35-21.17-4.22-31.36-6.99-14.39-3.92-29.28-7.98-44.26-7.61-26.41.64-50.62,14.63-71.98,26.97l-131.92,76.21c-6.59,3.8-13.5,7.8-20.25,12.23ZM1060.95,1039.48c3.59,1.86,7.94,1.43,11.98-1.18,4.94-3.19,7.99-8.8,7.6-13.96-.21-2.83-1.12-5.43-2.52-7.76-4.28,1.21-8.32,2.45-11.9,4.73-3.88,2.47-6.8,7.04-7.25,11.38-.2,1.91,0,4.62,2.11,6.79ZM960.6,931.63c11.28,1.39,24.22,2.5,35.83.16,10.55-11.88,21.28-23.72,32.35-35.29.46-1.28.8-4.05-.87-5.47-1.62-1.38-7.53-3.25-27.38,9.35-11.69,7.42-22.37,16.44-32.7,25.17-2.4,2.03-4.8,4.06-7.23,6.08ZM1027.51,902.2c-8.8,9.3-17.41,18.77-25.89,28.28,11.85-3.69,21.67-11.83,25.89-28.28ZM1539.36,909.47c-2.49,0-4.94.21-6.99,1.29-1.55.81-2.8,2.42-3.19,4.11-.18.79-.25,1.94.49,2.94,1.37,1.87,4.48,1.76,6.41.5,2.4-1.57,3.74-4.48,4.64-6.85.25-.64.47-1.29.67-1.95-.68-.02-1.36-.03-2.04-.03ZM1250.87,857.68c2.73,6.41,6.09,12.56,10,18.33-.07-.22-.14-.44-.21-.66-1.39-4.3-2.58-8.81-3.73-13.16-.9-3.39-1.8-6.81-2.81-10.18-.65,1.29-1.34,2.56-2.08,3.8-.37.63-.76,1.25-1.15,1.87ZM1243.2,829.1c1.02,8.58,3.15,17.04,6.28,25.13,1.23-2.08,2.33-4.23,3.3-6.43-2.29-6.81-5.2-13.27-9.58-18.7Z"/>
</svg>