<svg viewBox="172.75140607424072 16 1596.3509561304838 1590.4" xmlns:xlink="http://www.w3.org/1999/xlink" version="1.1" xmlns="http://www.w3.org/2000/svg" id="Layer_1" style="max-height: 500px" width="1596.3509561304838" height="1590.4">
  
  <defs>
    <style>
      .st0 {
        fill: none;
      }

      .st1 {
        clip-path: url(#clippath);
      }
    </style>
    <clipPath id="clippath">
      <rect height="1600" width="2844" y="0" class="st0"/>
    </clipPath>
  </defs>
  <g id="Layer_2">
    <g id="Layer_1-2">
      <g class="st1">
        <path d="M-86.6,1021.7c59.4,35,128,10.7,183.9-19.1,34.2-18.3,67.2-39.2,104-52,38.9-13.5,78.3-14,117.7-2.4,72,21.1,130.3,72,200.9,96.5,46.7,16.3,129.4,23.4,139.6-43,7.8-51.1-57-68.4-86.7-32.1-43.9,53.8,13.2,117.6,54.3,150.1,28.4,22.2,58.6,42,90.3,59.2,15.7,8.6,31.7,16.7,48,24.3,11.8,5.5,24.9,13.1,38.4,12,32.2-2.7,9.4-43.6,3.4-59.2l-45.3-118c-7.9-20.6-15.8-41.1-23.7-61.7-6-15.8-11-33.3-21.5-46.8-9.2-11.8-24.2-21.6-37.7-27.7-16.2-7.3-30-4.8-47.1-3.7-31.5,2-37.7-25.2-43.6-49.8-5.5-23.2-9.2-46.7-10.9-70.5-3.2-46,.6-92.2,11.3-137l-5.9-.8c7.3,62.7,9.7,125.9,7.4,189-.5,14.4-.8,29-2.2,43.4s-7.9,25.8-25.7,21.4c-9.3-2.3-16.5-8.5-23.5-14.9-20.8-19.1-35.1-44.9-43.1-71.8-17-56.8-10.3-122.7,7.3-178.6,16.2-51.4,46.5-98.6,92.8-127.6,45.4-28.5,101.8-36.6,153.5-22.5,3.2.9,22,5,23,8,1.7,5.6-8,6.3-9.8,6.6-2.6.4-5.8-.1-8.5-.2-17.8-.7-36-2.8-52.3-10.4-30.4-14.1-44.2-44.7-35.3-77.1,3.6-13,11.5-24,17.4-36s10.7-23.4,18.7-34c17.1-22.6,38.3-43.1,60.7-60.4,45-34.9,106.2-60.2,162.6-38.8,29.4,11.2,54.1,34.2,61.3,65.6s-3.4,66.1-33.4,81.4c-13.3,6.8-29.1,9.4-43.8,6.2-16.6-3.6-44.2-22.2-33-42.9,7.2-13.4,27.2-13.4,38.1-4.9,15.5,12.1,14.3,34.8,9.2,51.6l5.9.8c1.3-21.3,19.6-36.6,40-39.4,21.7-2.9,40.6,10.7,50.1,29.6,21.3,42.4-7.7,85.8-43.8,108l4.4,3.4c10.5-25.7,3.5-55.3-17.4-73.6-2.1-1.8-6.1-.1-5,2.9,11.5,33.3-1.5,73.2-32.9,90.9s-72.4,7.6-94.7-19.6l-2.1,5.1c90.4-6.9,143.3,78.8,164.8,154.7,23.6,83.2,23.7,173.5-.8,256.5-10.8,36.5-27.4,72.8-55.7,99.2-27.8,25.9-70,40.5-107.4,28.8-38.9-12.2-57.9-49.9-68.1-86.6-11.2-41.2-15.3-84.1-12-126.7,1.5-20.8,4.8-41.5,9.7-61.8,4.6-19,9.7-47.7,27.5-59.4,39.3-26.1,43.4,89,44.1,106.8,3.1,81.6-7.6,165.2,22.1,243.3,14.7,38.8,30.5,75.8,39.3,116.5,9.1,42.7,13,86.3,11.4,129.9-1.2,33.2-21.9,240.3-88.2,207.3-23.3-11.6-32.2-46.3-38.7-69.2-9.2-32.3-17.3-65.1-20.8-98.6-2.2-20.3-2.9-40.8-2.1-61.2.5-11.9,1.2-24.6,8.3-34.6,10.2-14.4,33.3-17.8,38.1,3.5,4.3,18.8-4.9,41.5-9.7,59.4-5.4,20.1-11.4,39.9-18.1,59.6-6.7,19.7-14.1,39.1-22.1,58.3-7.3,17.6-16.9,44.3-40.5,43.1-34.9-1.8-54.7-56-62.5-83.5-20.5-71.7-6-151.2,21.2-219.1,13.6-34,32.1-66.9,58.5-92.6,29.1-28.3,66.3-43.6,106.2-48.7,81-10.3,160.6,17,241.5,16.2,26.5-.3,56.3-.8,79.9-14.6,25.6-14.9,30-42.2,27.5-69.7-4.5-47.1-26.2-91-61-123.1-6.4-5.9-18.2-19-27.7-11.2-8.5,7-4.8,26.6-4.4,35.7.8,19,3.4,37.9,7.8,56.4,8.4,35.5,44.8,93.8,10.8,125.6-13.6,12.8-34.6,11.8-49.5,1.9-18.6-12.3-29.1-34.1-38-53.8-16.2-36-28-73.8-35-112.7-14.4-79.7-9.8-161.7,13.4-239.3,9.1-30.5,20.5-61.5,35.8-89.6,12.9-23.8,31.7-48.9,60.1-53.8,5.7-1,19.6-3.7,21.2,4.9,1.4,7.2-12.3,15.7-17.6,17.3-7.3,2.2-14.9.8-21.5-2.8-23-12.5-22.9-41.2-15.2-63l-5.9-.8c.6,15.8-19.7,17.6-29.1,9.5-6.5-5.7-9.8-14.9-11.9-23-4.9-19.7-4.6-41.3-.2-61.1,4.4-19.6,21.5-44.7,42.8-24.8,17.3,16.3,9.6,42.2,3.5,61.8h5.8c-6.4-22.4-1.1-46.5,14.2-64.1,13.9-16,38.6-25.7,58.8-15.3,29.7,15.3,8.8,51.9-16.1,58.1-24.1,6-49.3-10-60.6-30.8-12.2-22.5-7.8-50.2,6.2-70.8,15.1-22.4,40.6-34.5,67-37.1,48.7-4.8,94.8,24.4,125.7,59.8,32.1,36.9,47.9,87.5,46.3,136.2-.8,24.2-7.7,47.7-24.6,65.6-12.8,13.5-61.5,37.4-64.5,4.8-3.4-37.2,58.3-6.2,73.4,2.3,19.6,11.3,37.7,25.1,53.8,41,32.9,32.6,57.2,72.9,72.3,116.6,16.1,46.6,23.4,97.6,19.8,146.9-3.8,51.3-13.8,102.3-41.6,146.3-12.5,20-28.4,37.7-46.9,52.3-10,7.8-22.4,17.2-35.7,17-27.2-.3-21-27.5-11.2-42.3,25.5-38.8,49.6-77,57.1-123.8,6.8-42.4,6.9-88.4,1.1-130.9-2.1-15.2-14.2-97.5-42.4-84.9-14.6,6.5-18.1,32.7-20.2,46-3.4,21-2.7,42.5.2,63.5,7.1,51.2,28.3,99,41.5,148.6,27,101.6,32.1,209.5,6.5,311.9-10.9,43.7-28,86-53.3,123.4-12.7,18.9-27.6,36.2-44.4,51.5-18.6,16.9-41.6,35-68.2,33.8-59-2.8-47.4-98-38.8-135.7,5-22.1,13.7-44.1,26.7-62.8,6.8-9.8,15.1-19.6,26.3-24.4,16.9-7.2,34.9.1,37.8,19.1,3.5,23.1-10.8,51.5-19.9,72-9.8,22-21.1,43.2-33.9,63.6-22.1,35.3-46.5,68.5-82.5,90.7-15.7,9.7-34.9,18.7-53.9,16.7-20.8-2.2-34.2-18.9-42.6-36.6-16.2-34.5-18.6-75.5-18.3-113,.8-93.9,34.2-191,115.6-244.6,37.5-24.7,81.6-36.6,126.4-31.8,51,5.5,98,28.9,144.7,48.3,83.5,34.6,181.5,59.7,268.4,22.2,44.2-19,82.1-48.5,127.7-65.1,49.4-18,101.3-27.8,153.9-29.3,26.5-.8,53.1.6,79.4,4.2,25.3,3.5,49.6,11.2,74.7,15.1,13.7,2.2,24.9,6.2,36,14.8.5.4,6.1,4.1,6.5,5.5l-5.9,10.8c-.5,9.1-3.7,12.5-9.6,10.2-7.9.6-17-7.5-22-13.2-15.9-17.9-25.5-44.1-34.8-65.8-10.3-24.1-18.9-49.2-22.4-75.2-.9-6.8-1.5-13.7-1.6-20.6-.1-4-1.5-16.4,1.1-19.2l10-.8c8.2-4,11.5-3.1,9.6,2.8.5,3-1.1,6.8-2,9.7-1.8,6.1-4,12-6.8,17.7-10,20.4-27.4,42.5-51.1,46.1-21.7,3.2-45.6-5.6-63.4-17.6-41.2-27.9-62.7-80.6-74-127.2-11.4-47-13.4-98.2-.8-145.2,10.7-40.2,32.9-77.6,70.7-97.2l-4.1-4.1c-36.9,67-34.7,145.1,1.2,212,18.3,34.1,43.1,64.5,69.3,92.7,24.7,26.6,51.4,51.7,81.7,71.8,44.5,29.5,144.5,72.8,175.3,3.5,31.1-70-41-131.1-84.5-174.2-30.6-30.4-54.5-64.7-63.6-107.5-4.9-23.3-3.6-45.8-2.2-69.3,1.1-18.3,1.2-37.1-6.1-54.3-29.1-67.9-132.4-25-175.8,2.3-5.9,3.5-11.5,7.4-16.9,11.6-2.9,2.5-5,5.6-7.8,8.1l-9.3,6.1c-12.7-2.3-16.6-6.8-11.7-13.5,5.2-11,21.7-18.5,32-24.3,17.6-9.9,35.5-19,53.9-27.3,11.1-5.1,22.4-9.5,33.9-13.4,7.5-2.5,17.1-4.4,23.4-9.5,5.3-4.3,8.8-11.4,5.8-18.1-4.4-9.8-17.1-9.6-25.8-7.5-15.3,3.5-30.6,11.4-43.7,19.9-15,9.7-26,22.7-39.4,34.2-3.9,3.3-8.4,7.3-13.6,8.3-8.7,1.1-14.3-2-16.8-9.4-2.8-7.5,1.1-12.3,11.8-14.4,5-1.9,9.7,0,13.6-5,3.8-4.7,2.6-10.1,1.5-15.5-3.3-15.9-7.1-28.8-4.5-45.4,4.3-27.9,11.1-72.4-26.3-81.3-33.7-8-47.7,36.3-46.6,61.8,1.6,36.9,26.4,67.2,61,78.7,2.5.8,4.8-2.2,3.4-4.4-13.5-21.2-15.5-47.8-2-69.6,13.8-22.3,35-27.2,58.6-33.8,20.6-5.8,55.1-28.2,35.1-53.6-15.8-20-47.5-11.9-60.1,7.2-13.4,20.4-1.8,50.9,24.1,52.7,21,1.4,37-25,24.4-42.7-17.7-24.9-50.7-1.1-68.8,9.3-11.7,6.7-25.3,12.2-38.3,5.2-11.1-6-18.1-19-19-31.4-1.5-23.4,14.7-44,31.2-58.6,29.9-26.6,70.1-40.2,109.9-41.1,80.7-1.7,151.3,49.8,194,115,22.3,34.1,38.7,72.5,45.8,112.7,1,5.7,3.9,13.7,2.7,19.4l.3,4.6c-7.1,9.6-14.7,11.5-22.7,5.8-10-5-18.3-12.7-27-19.6-13.6-10.8-28.1-19.3-45.1-23.4-15.1-3.7-30.8-3.9-45.9-.7-10.5,2.3-30.4,8.5-32.9,21-6,31.5,54.8-5.8,61.9-9.9,20.5-11.7,43.8-21,67.9-19,22.8,1.9,43.9,12.7,62.4,25.6,34.7,24.3,60.4,60.8,68.2,102.8,4.9,26.3,3.1,53.3.6,79.8-.9,9.4-1,19.7-3.7,28.7-4.6,15.5-21.4,18.3-35.5,15.2-6.2-1.4-10.9-3.7-14.6-9.5-9.2-14.3,6.2-31.5,21.7-18.2,8.5,7.3,11.9,20.7,15.4,30.9,8.2,24,14.4,48.7,18.6,73.8,7.9,48.1,8.7,97.2,2.5,145.5-2.8,22.2-5.3,48.1-16.7,68-6.1,10.6-14.8,19.4-27.2,21.7-12.6,2.3-26.5-1.7-31.7-14.4l-5.5,2.3c23.8,51.9,41.2,106.5,51.8,162.6,5.1,26.9,15.1,66.6-13.3,84.2-26,16-56.2,1.9-78.1-14.1-3-2.2-5.5,2.3-3.6,4.7,9.4,12.1,7.3,29.2-2.5,40.4-11.7,13.5-31.3,15.4-47.5,9.8-26.8-9.1-42.9-34.2-55.5-58-26.2-49.4-42-111.1-26.4-166.3,7.6-26.9,33.8-62.4,66.5-51.1,20.4,7.1,30.6,36.4,38,54.9,11.2,27.6,16.1,57.3,14.4,87.1-.5,7.7-1.5,15.3-2.9,22.9-1.6,8.5.1,7.6-10,8.9-12.6,1.7-6,2.6-10.3-2.5-9.4-11.2-8.9-35.1-6.8-48.4,8.5-53.6,63.2-84.3,114.4-79.1,42,4.3,77.7,30,113.5,50.2,35.1,19.9,72.4,35.2,113.5,29.3,49.7-7.1,90.6-37.3,134.5-59.1,22.4-11.2,46-19.1,71.3-18.9,31.5.3,61,12,90.5,21.4,48.8,15.6,105.8,26.8,150.2-6.3,3.1-2.3.1-7.5-3-5.2-62,46.2-135.5,4-200.1-11.1-24.4-5.7-49.6-6.7-74-.2-26.4,7.1-50.3,21.3-73.9,34.5-31.6,17.7-64.4,35.7-101.1,39.5-29.6,3.1-57.7-5.1-84-18.1-43.2-21.3-82.6-54.4-131.6-61.5-50.5-7.3-106.1,18.3-122.6,68.9-7.2,21.9-7.8,55.3,8.4,73.8,4.5,5.1,11.4,8.4,18,4.8,8.6-4.6,9.1-19.8,10.3-27.9,4.6-32.1,1.4-64.8-9.2-95.3-7.3-21-17.1-47.8-34.7-62.5-16.9-14.2-41.5-7.6-57.6,4.6-21.3,16.2-29.3,44.1-32.2,69.6-4,36,1.9,72.7,14.2,106.6,10.7,29.6,25.7,62.5,49.5,83.9,19.5,17.6,51.9,27.9,74.8,10.3,16.9-13,21.2-37.6,8.1-54.4l-3.6,4.7c21.6,15.7,48.9,28.4,75.7,18.2,24.9-9.5,32.2-33.7,30.2-58.4-5.5-68.6-29.7-138.4-58.1-200.7-1.4-3-6.8-.8-5.5,2.3,9,22,38.3,24.6,55.8,11,29.1-22.7,30.6-73.5,33.6-106.8,4.1-45.5,2.1-91.3-6.2-136.3-4.3-23.2-10.3-46-18-68.2-4.7-13.5-9.9-30.7-24.6-36.4-25.8-10.1-34.4,22.5-17.1,37.3,9.6,8.2,25.9,8.6,37.4,5.3,13.1-3.7,17.7-13.8,19.7-26.4,6.7-42.1,9.6-89.5-5.7-130-13.3-35.4-38.4-64.3-69.9-84.7-34.9-22.6-72.4-28.8-111.1-12-9.6,4.3-19,9.3-27.9,14.8-4.5,2.7-8.9,5.4-13.4,7.9-3.6,2-10,5.9-13.3,6.2l-4.9,1.6-4.6-13.1c2.3-7.1,28.6-9.7,34.4-10,13.1-.7,26.2,1.1,38.6,5.4,22.3,7.7,37.1,25.4,56.8,37.2,8.9,5.4,24.4,12.3,32.8,2,8.8-10.8.2-37-2.5-48.7-4.7-20.3-11.5-40-20.2-58.9-33-71.9-93.6-135.4-172.2-155-66.1-16.4-160,3.9-191.6,71.3-11.8,25.1-4.7,65.7,28.4,69.2,17.2,1.8,31.8-9.4,45.7-17.9,9.6-5.9,20.8-11.2,32.3-9.9,19.2,2.2,23.1,24.6,9.6,36-12,10.1-29.9,2-36.1-10.9-7.7-15.9,2.9-33.1,17.3-40.3,12.6-6.3,33.8-4,38.8,11.7,5.6,17.8-13.9,31-27.6,36-18.9,6.8-38.3,8-54.4,21.3-13.5,11.2-22.3,27-24.8,44.3-2.3,17.4,2.2,34.2,11.5,48.9l3.4-4.4c-40.1-13.3-65.7-55.6-53.9-97.4,6-21.4,26.5-44.2,49.1-24.7,15.8,13.6,13.8,33.4,11.8,52-1.8,16.9-5.7,31.9-2.3,48.9.7,3.4,5,11.7,4.3,14.9l-4.7,6.4c-1.3,5.2-4.3,7.5-8.9,6.8-4.3,2.1-7.6,1.2-11,5.2-9.4,10.9.8,28.6,13.6,30.5,10.1,1.5,19-5.3,26-11.7,13.3-12.2,25-24.9,40.7-34.4,8-4.8,16.3-9,25-12.4,2.9-1.1,6-2.3,9-3.2,4.3-1.2,29.8-7.8,22.1,10.6-3.6,8.5-21.6,10.7-29.4,13.3s-15.4,5.9-23,9.2c-10.2,4.5-124.1,50.8-93.8,76.8,5.8,5,15.1,4.1,21.5.8,5.3-2.7,8-7.5,12.2-11.5,7.8-7.4,18.2-13.2,27.5-18.5,31-17.8,69.4-32.5,105.7-31.5,19.2.5,38,7.1,48.5,24.1,11.1,17.8,10.8,39.6,9.6,59.7-2.1,35.9-1.5,69,12.1,102.8,26.5,65.9,92.1,98.9,127.3,158.3,18,30.4,27.7,75,.8,103.7s-76.1,15.8-107.9,3.2c-72.3-28.6-134-93.1-177.5-156-49.5-71.6-64.2-159.2-20.9-237.8.8-1.4.4-3.3-1.1-4.1-.9-.6-2.1-.6-3.1,0-95.7,49.5-94.3,190.5-64.2,278.1,15.9,46,42.1,93.6,89.3,112.9,18.8,7.7,41.9,12.3,61,3,19.8-9.6,34.3-29.8,42.9-49.4,4.8-11.1,15.7-37.5-.6-45-19.3-8.9-24.6,19-24.8,31.4-.4,29.5,7,58.6,17.5,86,9.8,25.9,21,54,36.7,76.9,9.6,14,27.9,29.4,46.2,22.4,19.8-7.6,12.1-26.4-.5-36.3-21.3-16.7-49.9-18.8-75.6-24.4-30.5-6.7-61.5-10.4-92.7-11.2-62.6-1.5-125,8.8-183.8,30.5-55.7,20.6-102.3,62-160.5,76.1-64,15.4-131.2,1.9-192.2-19.6-57.5-20.2-111.9-52-172.7-61.6-104.5-16.4-197,54.5-234.9,148.5-21.5,53.2-27.3,111.9-23.4,168.8,2.5,36.1,9,84.2,39.2,108.5,30.8,24.8,72.8,2.6,99.4-17.7,40.9-31.2,69.5-78.4,92.4-123.8,12.4-24.6,25.6-51.9,30.3-79.2,2.8-16.3.5-35.5-16.4-43.1-43-19.2-73,48.8-82,79-8.6,28.8-10.7,59.5-9,89.4,1.2,20.7,5.2,44.2,22.8,57.6,40.7,31.1,92.2-15.7,118.3-44.5,77.7-85.6,101.4-210.4,97.3-322.6-2.3-63.5-14.3-126.4-33.5-186.8-19.7-61.9-46.7-129.1-26.5-194.5,2.9-9.4,8.2-29.9,23.5-15.9,5,4.6,7.7,16.3,10,22.5,5.3,14.7,9.2,29.9,11.6,45.3,5,30.8,5,62.1,3.7,93.2-1.4,32.2-5.8,62.8-18.3,92.6-5.9,13.8-12.7,27.2-20.4,40.1-7.8,13-17.8,24.7-25.2,37.8-8.3,14.7-10.6,34.2,7.3,42.6,20.1,9.4,41.4-6.6,56.1-18.7,43-35.4,69.3-87.8,79.4-141.9,20.5-109.8.7-231.6-76.9-316-17.2-18.8-37-35.1-58.7-48.4-18.5-11.3-45.2-27.4-67.7-24.4-13.8,1.8-28.1,14.7-22.2,29.7,6.5,16.8,29.4,17.8,44,13.7,47.5-13.3,61.6-67,58.2-110.4-4.2-54-25.8-103.2-66.6-139.3-37-32.8-88.8-53.9-137.8-36.6-40.7,14.4-71.6,60.1-55.1,103.3,14,36.7,64.7,59.5,94.9,27.2,28.6-30.6-2.4-65.4-38.3-58.6-39.8,7.5-60.4,53.5-49.9,90.1.4,1.6,2.1,2.5,3.7,2.1,1-.3,1.8-1.1,2.1-2.1,7.7-24.5,15.2-62.1-15.6-74.6-26.5-10.7-39.7,19.2-43.4,39.9-4.6,25.4-6.2,67.2,16.2,85.6,13.5,11,38.6,5,37.9-14.9,0-1.7-1.3-3-3-3-1.4,0-2.6.9-2.9,2.2-9,25.5-6.8,59.5,21.7,71.5,21,8.9,45.1-5.7,45.2-28.8,0-1.4-.9-2.5-2.2-2.9-61.7-10.8-91.2,50.9-110.2,98.9-31.8,79.9-45,165.8-36,251.5,4.3,42.4,14.1,84,29,123.9,11.8,31.3,26.8,74.4,59.6,89.4,26.9,12.3,55.7-2.4,62.8-30.6,4.6-18.2.5-37.1-5.3-54.6-7.7-23.2-16.3-45.5-20.5-69.7-2.2-12.7-3.6-25.5-4.2-38.3-.2-5.1-1.4-11.9-.2-16.9,1.7-7.2-3.7-4.7,7.7-7.5,8.5-2.1,7.4-2.2,12.8,2.6,15.8,14.2,29.1,31.1,39.2,49.8,17.7,32.5,39,96.2,8.3,126.8-25.4,25.4-72.4,22.9-105.6,21.9-48.2-1.4-95.4-11.8-143.3-16.2-41.7-3.9-85.2-3.6-125.2,10.2-34.8,12-63.7,34.3-86,63.4-46.4,60.6-70.4,145.2-70.6,221-.1,37.5,6.6,75.4,23.3,109.3,10.9,22.1,31.4,56.8,61.3,51.7,11.9-2,20.9-10.7,27.2-20.6,11.5-18.2,18.4-40.7,25.9-60.8,8.2-22.1,15.6-44.6,22.2-67.3,5.8-20.1,12.9-41.3,14.9-62.2,1.2-12.1-.4-26.7-11.9-33.6-10.1-6.1-23.1-2.7-31.6,4.5-12.3,10.4-14.5,27.5-15.3,42.7-1,23.1-.2,46.2,2.6,69.2,4.2,35.4,12.7,70.7,23.4,104.7,6.9,22.1,16.9,52.6,39.7,63.3,27.1,12.7,48.9-14.8,58.9-36.6,18-39.2,27.4-83.9,33-126.4,12.1-93.1-1-186.7-36.8-273.3-18.9-45.9-29-90.4-30.8-140.2-1.8-47.7,1.3-95.4-1.8-143-1.5-22.4-4-45.1-9.7-66.9-3-11.6-7.8-25.1-19.4-30.5-30.7-14.4-45.3,34.7-50.7,54.5-12,43.8-16.1,89.3-12.3,134.5,3.4,39.7,11.1,83.5,32.8,117.7,40.7,64,126.3,52.9,173,2,26.2-28.6,41.4-65.6,51.4-102.7,11.9-44.5,17.2-90.4,15.7-136.4-2.5-81.3-23-181.5-87.5-237.4-27.9-24.1-63.5-38.4-100.6-35.6-1.7,0-3,1.3-3,3,0,.8.3,1.6.9,2.1,24.1,29.3,68.3,39.3,102,20.5s48-61.9,35.6-97.7l-5,2.9c19.5,17.2,25.6,43.7,15.8,67.8-1,2.5,2.3,4.7,4.4,3.4,42.2-26,74-81.7,39.1-127-13.5-17.6-35.2-26.3-56.9-20.2-20.4,5.8-36.2,22.3-37.6,43.8-.2,3.5,4.9,3.9,5.9.8,6.7-22.1,5.2-54.6-20.9-63.2-18.4-6.1-41.6,4.1-39.9,25.8,2.1,28,35.4,41.1,59.5,39.1,26-2.2,49.6-18.1,60-42.1,27-61.8-25.9-120.7-85.4-130.4-73.6-11.9-142.2,37-189.2,88.4-10.9,11.9-21.4,24.2-28.6,38.7-7.8,15.6-17.7,31.6-23.5,48-10,28.7-3.3,60.6,21.3,79.3,11.4,8.7,25,14,39,16.9,9.5,1.8,19.1,3,28.8,3.3,7,.4,17.3,2.5,24.1-.5,6.3-2.8,7.9-8.4,3.8-13.8-7.6-10.1-32.8-13.2-44.1-15.3-64.1-11.8-130,8.3-176.6,53.9-52.1,51.2-73.6,126-77.4,197.3-2.3,42.7,3.1,86.8,24,124.7,11.9,21.6,42.5,65.8,72.7,55.3,13.2-4.6,15.5-17.5,16.5-29.8,2.1-25.5,2.6-51.3,2.8-76.9.5-51.3-2.2-102.6-8.2-153.6-.4-3.1-5-4.4-5.9-.8-14.7,61.9-16.8,126.4-5.1,189,4,21.5,7.4,55.8,26.8,69.9,9.6,7,21.2,6.6,32.4,5.5,19.4-1.9,34.2-.6,51,10,13.4,8.4,24.4,17.9,31.5,32.3,7.7,15.5,13,32.6,19.2,48.8,12.9,33.6,25.8,67.3,38.7,100.9l18.3,47.7c4,10.4,29.3,58.7,10.4,65.3-13.8,4.8-33.6-8.6-45.3-14.2-15.3-7.4-30.5-15.2-45.4-23.4-28.1-15.5-55-33.1-80.5-52.6-25-19.4-50.9-41.3-63.7-70.9-12.9-29.9-9.8-72.8,23.7-87.4,32.4-14.2,66.6,9.7,57.2,45.6-19.4,74.4-122.7,39.5-168.6,17.3-56.2-27.2-107.5-65.6-168.4-82.1-31.5-8.5-64-9.9-95.8-2.1-32.6,8.1-62.7,23.9-91.8,40.1-62.5,35-140.6,79.4-211.1,37.9-3.3-2-6.4,3.2-3,5.2h0Z"/>
      </g>
    </g>
  </g>
</svg>