<?xml version="1.0" encoding="UTF-8"?>
<svg id="Line_Art" data-name="Line Art" xmlns="http://www.w3.org/2000/svg" viewBox="0 0 800 500">
  <path d="M617.95,101.41c1.84-3.34,3.55-6.76,5.17-10.21,1.14-2.43,2.24-4.88,3.32-7.34,1.08-2.46,2.38-4.95,3.08-7.56,1.33-4.94-1.22-9.49-5.75-11.62-4.94-2.33-10.37-1.02-14.93,1.57-4.06,2.3-7.73,5.42-11.08,8.72.61-3.27,1.07-6.56,1.37-9.87.43-4.78.22-10.67-5.16-12.51-4.97-1.7-9.78,1.32-12.69,5.18-3.52,4.67-5.87,10.47-7.92,15.91-.69,1.84-1.31,3.71-1.89,5.58-1.86-3.5-4.17-6.76-7.05-9.67-3.45-3.49-8.09-6.73-13.25-5.38-3.73.97-6.24,4.18-7.68,7.59-3.89,9.27-1.05,19.92,2.73,28.74.31.72.66,1.42,1,2.13-4.25-2.72-8.79-4.95-13.44-6.91-3.84-1.62-9.7-5.02-13.1-.89-2.45,2.97-2.06,7.7-.95,11.12,1.4,4.32,4.4,8.33,7.3,11.76,3.85,4.54,8.48,8.39,13.59,11.46-2.91,3.58-5.62,7.6-7.01,11.91-1.68,5.22-.08,10.52,4.96,13.11,4.24,2.18,9.35,2.17,13.74.45.34-.13.66-.29.99-.43-.6.71-1.2,1.41-1.81,2.11-6.24,7.07-13.05,13.61-19.9,20.09-.48-.44-.96-.87-1.44-1.31-.29-28.72-21.96-51.06-36.47-74.01-4.42-6.99-8.34-14.3-11.03-22.14-.27-.77-1.57-1.18-1.96-.26-6.9,15.93-4.43,33.77-.29,50.09,3.95,15.57,9.82,31.85,22.75,42.24,1.39,1.12,2.86,2.14,4.36,3.08-.41.07-.82.13-1.23.21-1.03-1.02-2.51-1.63-3.95-1.53-2.67.17-4.79,2.13-6.56,3.94-4.91,5.01-9.78,10.06-14.67,15.08-.14.14-.21.29-.26.45-3.47.14-6.92.79-10.23,2.06-1.28.49-.72,2.57.57,2.07,3.47-1.32,7.08-1.93,10.69-1.98-.05.31,0,.63.27.88,7.97,7.87,13.41,17.89,15.89,28.76-.35-.49-.68-1-1.04-1.49-3.9-5.21-8.41-9.94-13.48-14.03-2.42-1.95-4.94-3.8-7.6-5.42-2.86-1.74-6.21-3.26-9.64-2.78-3.28.45-5.67,2.74-7.8,5.09-2.74,3.02-5.45,6.07-8.18,9.1-5.39,5.99-10.77,11.98-16.15,17.98-10.89,12.12-21.78,24.24-32.67,36.35-21.9,24.37-43.8,48.74-65.7,73.11-1.71,1.9-3.41,3.8-5.12,5.7-.91-.46-1.86-.87-2.88-1.13-.37-.09-.78,0-1.05.28-3.08,3.16-5.01,7.12-6.55,11.21-1.79,4.79-3.3,9.7-4.92,14.56l-10.34,30.97c-1.98,5.92-3.95,11.85-5.93,17.77-.27.81.57,1.51,1.32,1.32,8.8-2.17,16.96-6.34,23.91-12.15,1.06-.89-.47-2.4-1.52-1.52-6.15,5.14-13.33,8.89-21.02,11.07,6.48-19.44,12.89-38.9,19.46-58.3,1.56-4.62,3.35-9.28,6.67-12.92.46.14.89.34,1.33.53-.42.47-.84.94-1.26,1.41-.92,1.03.59,2.55,1.52,1.52.56-.62,1.12-1.25,1.68-1.87,3.05,2.07,5.15,5.42,6.05,9.08-1.32.67-2.53,1.58-3.54,2.75-3.06,3.56-4.24,9.72-.25,13.08.46.39,1.06.42,1.52,0,4.09-3.66,5.46-9.18,4.69-14.45,1.48-.49,3.06-.71,4.59-.65,3.48.14,6.98,1.65,9.23,4.36,2.24,2.71,2.81,6.44,2.03,9.81-.47,2.03-1.42,3.96-2.74,5.56-2.29.39-4.33,1.71-5.24,4.06-.29.73.59,1.61,1.32,1.32,1.88-.73,3.53-1.9,4.9-3.35.85-.05,1.71.05,2.48.29,2.19.69,3.45,2.48,3.93,4.53-.05.29-.13.58-.18.87-.08.46.1.85.4,1.1,0,.47-.03.95-.11,1.41-1.36,8.29-10.63,11.53-17.29,14.57-4.22,1.92-8.43,3.84-12.65,5.77,1.07-9.86-9.69-19.42-19.42-16.15-1.3.44-.75,2.51.57,2.07,8.88-2.98,18.98,6.59,16.37,15.63-.28.97.77,1.58,1.58,1.21,5.2-2.37,10.4-4.74,15.59-7.11,4.38-2,9-3.87,12.6-7.17,3.02-2.76,5.14-6.79,4.89-10.96,23.73-21.54,47.36-43.2,70.88-64.96,11.82-10.94,23.61-21.9,35.37-32.9,5.82-5.44,11.63-10.88,17.43-16.33,5.77-5.42,11.75-10.7,17.31-16.34,2.22-2.25,4.27-4.88,4.83-8.07.4-2.3.1-4.59-.53-6.81,2.17.59,4.53.37,6.57-.91.95-.6,1.79-1.35,2.53-2.2.71.09,1.49-.42,1.17-1.27-.02-.06-.05-.12-.07-.18,1.51-2.27,2.44-4.98,2.86-7.56.3-1.85.31-3.74.12-5.62,3.05-1.73,6-3.62,8.57-6.02.3-.28.56-.61.85-.91-.44,9.97-.1,19.9,2.49,29.7,2.35,8.88,6.52,17.43,13.09,23.95,5.85,5.81,13.55,9.37,21.73,10.25,8.83.96,18.09-1.58,24.21-8.25.68-.74.15-1.73-.76-1.83-7.62-.87-14.63-5.36-19.01-11.6-2.16-3.08-3.71-6.55-4.43-10.25-.95-4.88-.28-9.92.31-14.81.53-4.39.93-8.76.62-13.19-.27-3.89-.95-7.75-2.02-11.5-2.11-7.39-5.7-14.33-10.43-20.37-4.82-6.16-10.89-11.33-17.8-15,.07-.49.14-.98.23-1.48.05-.27,0-.5-.11-.71,7.44-7.15,14.8-14.63,21.09-22.83,1.46-1.38,2.73-2.94,3.77-4.65-.18,4.49.11,9,.83,13.44.96,5.91,2.73,11.67,5.24,17.11,2.06,4.48,4.81,9.81,9.73,11.69,4.43,1.69,8.46-1.03,10.06-5.15,1.82-4.66,1.16-10.01.54-14.83-.2-1.52-.44-3.04-.71-4.55,4.33,1.43,9.23,1.67,13.53.11,5.21-1.9,7.92-6.56,8-11.99.05-3.28-.75-6.34-2.13-9.11,3.18-1.05,6.24-2.47,9.04-4.26,4.12-2.62,7.74-5.97,10.66-9.89,2.94-3.96,5.72-9.07,6.01-14.08.51-8.86-8.26-11.81-16.06-12.57ZM531.57,179.42c1.2-1.14,2.41-2.28,3.62-3.42.25.12.5.25.75.37-.2,1.96-.23,3.9-.13,5.83-.51-.31-1.03-.63-1.58-.9-.62-.31-1.31-.02-1.52.6-.85-.82-1.72-1.62-2.55-2.45.38.32.95.42,1.42-.02ZM491.65,153.56c-3.86-7.1-6.41-14.81-8.5-22.6-2.11-7.88-3.86-15.91-4.47-24.07-.62-8.31.02-16.79,2.89-24.64,10.03,26.2,32.38,45.55,42.21,71.9,2.28,6.1,3.76,12.47,4.1,18.95-4.3-3.91-8.61-7.83-12.91-11.74-4.67-6.59-8.82-13.54-12.31-20.84-2.22-4.63-4.17-9.39-5.87-14.23-.18-.52-.74-.95-1.32-.75-3.36,1.18-5.3,4.27-5.76,7.7-.54,4.05,1.18,7.73,3.66,10.83,3.05,3.8,7.01,6.93,10.6,10.19,3.1,2.82,6.2,5.64,9.3,8.46,2.83,3.99,5.85,7.86,9.08,11.55,1.07,1.22,2.19,2.38,3.3,3.56-.11,0-.22-.02-.33-.02-4.24-2.55-9.18-3.96-14.1-3.96-8.33-4.43-15.08-12.02-19.58-20.3ZM527.96,176.08c0,.35,0,.71,0,1.06-1.81-1.91-3.57-3.86-5.28-5.87l5.29,4.81ZM508.46,155.45c-3.19-2.89-6.4-5.76-9.55-8.69-2.88-2.68-5.95-5.76-6.92-9.71-.78-3.18.19-7.31,3.17-8.99,3.45,9.58,7.92,18.76,13.29,27.39ZM504.07,177.1c.42-.14.85-.22,1.27-.33.17.49.2,1.11-.34,1.3-.37.13-.98-.14-1.26-.38-.6-.49-.35-.37.33-.59ZM334.08,373.03c-2-2.55-1.18-6.4.73-8.9.73-.96,1.66-1.71,2.68-2.31.43,4.06-.62,8.2-3.41,11.2ZM505.06,251.92c-1.58,2.92-4.25,5.13-6.63,7.37-2.9,2.73-5.8,5.46-8.7,8.19-5.74,5.39-11.48,10.78-17.23,16.16-11.5,10.76-23.02,21.49-34.57,32.2-22.97,21.29-46.03,42.48-69.2,63.55-2.04,1.86-4.08,3.71-6.13,5.57,5.46-23.24,24.48-40.65,40.57-57.12l61.89-63.34c5.13-5.25,10.25-10.49,15.38-15.74,3.95-4.04,8.83-8.6,9.08-14.65.2-4.69-2.94-8.6-7.03-10.55-4.5-2.14-9.46-2.08-14.02-.16-5.49,2.3-9.84,6.6-13.88,10.85-5.06,5.31-10.08,10.65-15.12,15.97-10.07,10.64-20.14,21.28-30.21,31.92-10.19,10.77-20.38,21.54-30.58,32.31-5.03,5.32-10.07,10.64-15.1,15.96-4.93,5.21-10.07,10.29-14.76,15.73-1.97,2.29-3.78,4.71-5.19,7.39-.65,1.22,1.21,2.31,1.86,1.08,3.06-5.8,7.97-10.38,12.43-15.1,4.97-5.26,9.95-10.51,14.92-15.77,9.82-10.38,19.65-20.76,29.47-31.14,9.95-10.51,19.89-21.02,29.84-31.53,4.91-5.19,9.82-10.38,14.74-15.57,4.52-4.78,8.89-9.8,13.74-14.24,4.05-3.71,9.17-7.31,14.91-7.2,4.36.08,9.35,2.23,11.2,6.44,2.42,5.53-2.13,10.87-5.71,14.6-4.91,5.11-9.9,10.14-14.85,15.2-20.13,20.6-40.26,41.21-60.39,61.81-8.95,9.16-18.2,18.13-26.43,27.96-7.32,8.75-13.86,18.39-17.46,29.3-.43,1.3-.8,2.62-1.14,3.94-1.05-1.53-2.58-2.69-4.55-3.19-.32-.08-.65-.12-.97-.17,3.07-4.63,3.71-10.91.48-15.7-3.45-5.13-10.76-7.36-16.65-5.53-1.04-3.95-3.33-7.55-6.59-9.88,20.26-22.55,40.52-45.09,60.78-67.64,21.24-23.64,42.48-47.27,63.72-70.91,2.22-2.48,4.49-5.74,7.57-7.21,3.45-1.64,7.25.11,10.24,1.93,5.41,3.29,10.34,7.45,14.69,12.04,3.65,3.84,6.86,8.08,9.63,12.6.68,3.57,1.61,7.22,3.91,10.04.58.71,1.26,1.29,1.99,1.78,0,.03.02.05.03.08,1.21,3.39,1.81,7.07.02,10.37ZM514.67,238.64c-2.24,2.3-5.37,2.79-7.91,1.42-.09-.22-.17-.44-.26-.66-1.5-3.67-3.33-7.2-5.39-10.58-.19-1.06-.36-2.11-.54-3.12-1.56-8.49-5.04-16.56-9.99-23.61,10.89,9.76,19.46,22.06,24.83,35.69-.24.29-.47.58-.74.85ZM516.85,235.7c-5.33-12.92-13.4-24.66-23.68-34.16-2.72-2.52-5.61-4.84-8.6-7.02,12.54.85,24.68,8.6,30.65,19.71,1.52,2.83,2.73,6.18,3.27,9.59-1.1.6-2.2,1.18-3.3,1.76-1.22.64-.14,2.5,1.08,1.86.83-.43,1.65-.88,2.48-1.32.22,3.36-.29,6.7-1.9,9.59ZM527.38,217.87c-2.1,1.87-4.45,3.4-6.89,4.81-.37-1.91-.92-3.79-1.61-5.58-3.36-8.64-10.13-15.72-18.25-20.07-5.23-2.8-11.09-4.49-16.98-4.73,3.06-3.15,6.13-6.3,9.19-9.45,1.68-1.72,3.32-3.48,5.04-5.16,1.3-1.28,3.18-3.01,5.18-2.69.06.01.13.04.2.05-.39.13-.76.27-1.06.47-1.25.81-1.12,2.51-.2,3.49.95,1.01,2.61,1.55,3.93,1.02,1.47-.58,1.92-2.28,1.54-3.7,1.1-.18,2.2-.28,3.31-.31,4.33,2.2,9.02,3.58,13.92,3.9,2.78,1.75,5.21,4.02,7,6.78.27.41.48.85.72,1.28-.45,8.83-1.44,17.7-1.97,26.55-.92,1.19-1.91,2.33-3.05,3.35ZM534.28,192.41c1.49,4.86,1.45,10.18-.09,15.03-.37,1.15-.84,2.25-1.37,3.32.45-6.12,1.05-12.23,1.47-18.35ZM564.4,211.07c1.09,3.82,1.78,7.75,1.99,11.72.25,4.6-.29,9.14-.83,13.7-.57,4.8-1,9.68,0,14.45.77,3.66,2.33,7.17,4.46,10.24,4.41,6.37,11.13,10.92,18.71,12.43-11.14,10.14-29.79,7.31-40.35-2.45-13.96-12.91-16.72-33.28-16.09-51.31.05-1.51.13-3.02.21-4.52,1.69-2.33,3.02-4.9,3.86-7.68,2-6.64,1.38-14.01-1.8-20.13.03-.65.05-1.3.08-1.95.43-.28.67-.81.42-1.29.34.22.65.48.97.72.81,6.81,3.2,13.43,6.09,19.74,1.09,2.38,2.25,4.73,3.44,7.07,0,.38-.01.76-.02,1.12-.47,13.07-4.44,26.91,1.25,39.43,1.28,2.82,2.99,5.62,5.7,7.26,2.28,1.38,5.33,1.78,7.2-.49,1.78-2.16,1.67-5.77,1.68-8.42,0-2.68-.27-5.36-.76-7.99-2.06-11.2-7.79-21.33-12.89-31.39.12-9.83-1.91-21.19-9.69-27.56-.2-2.09-.22-4.2-.05-6.32,12.81,7.13,22.4,19.53,26.42,33.63ZM547.54,215.66c3.41,6.64,6.81,13.29,9.13,20.39,1.69,5.19,2.75,10.59,2.52,16.07-.1,2.51-.2,7.26-3.89,6.38-3.1-.74-4.99-3.83-6.3-6.49-5.57-11.29-2.32-24.3-1.46-36.36ZM538.5,187.18c4.72,5.08,6.54,12.48,6.97,19.62-3.02-6.25-5.77-12.83-6.97-19.62ZM602.48,73.54c3.86-3.33,8.27-6.77,13.4-7.74,4.33-.82,9.72.9,11.47,5.31,1.03,2.6,0,5.28-1.03,7.7-.95,2.21-1.92,4.41-2.9,6.61-2.33,5.2-4.86,10.6-7.77,15.83-1.36-.07-2.65-.08-3.82-.04-9.63.27-19.46,3.05-27.19,8.9,1.96-3.29,3.7-6.72,5.27-10.16,3.08-6.79,5.45-13.88,7.07-21.14,1.74-1.84,3.58-3.6,5.5-5.26ZM577.12,136.63c.7,1.25,1.38,2.51,2.01,3.8,3.03,6.1,5.35,12.57,6.87,19.22-1.69-.89-3.28-1.96-4.71-3.21-5.74-4.98-8.66-11.98-8.64-19.29,1.49-.1,2.98-.28,4.46-.52ZM572.73,134.99c.11-1.26.28-2.53.57-3.79.04-.18.11-.35.15-.54,0,0,.01.01.02.02.87,1.3,1.7,2.62,2.5,3.97-1.08.15-2.16.27-3.24.35ZM577.02,127.97c3.76,0,7.61.55,11.31,1.62-3.37,1.51-7.3,2.34-10.71,1.12-.26-.89-.47-1.81-.6-2.74ZM579.15,134.3c-.21-.36-.41-.73-.6-1.11.3.07.6.15.92.19,4.1.54,8.14-.85,11.78-2.82,3.18,1.21,6.19,2.83,8.82,4.92,1.94,1.54,3.65,3.39,5.03,5.46-3.18.8-6.45,1.2-9.73,1.09-4.88-.15-10.32-1.25-13.93-4.78-.6-.58-1.1-1.22-1.57-1.87,0-.45-.27-.9-.72-1.08ZM591,128.23c-2.37-.83-4.82-1.46-7.29-1.86-2.26-.36-4.55-.56-6.84-.56-.02,0-.04,0-.05,0-.06-1.18-.05-2.38.02-3.58,3.16-5.52,7.84-10.13,13.45-13.26,7.18-4.01,15.83-5.91,24.18-5.68-5.88,10.13-13.29,19.37-23.46,24.94ZM577.58,116.5c.38-1.98.85-3.89,1.33-5.65,2.65-9.67,7.26-18.82,13.45-26.7.51-.65,1.05-1.28,1.58-1.91-2.2,8.35-5.41,16.43-9.59,24-1.92,3.49-3.99,7.27-6.76,10.27ZM577.7,68.76c2.03-4.49,4.3-10.02,8.5-12.9,1.87-1.28,4.26-1.92,6.5-1.39,2.45.57,3.86,2.51,4.29,4.91.44,2.48.07,5.12-.2,7.6-.29,2.72-.7,5.43-1.22,8.12-.17.9-.38,1.8-.57,2.7-3.39,3.65-6.46,7.62-9.1,11.84-3.98,6.37-7.18,13.47-9.16,20.83,1.05-9.66-.03-19.62-3.89-28.35,1.29-4.56,2.89-9.03,4.84-13.35ZM571.93,85.62c2.09,5.71,3.06,11.83,3.06,17.9,0,5.6-.78,11.18-2.24,16.57-.82.34-1.66.57-2.51.67-.29-1.21-.51-2.42-.66-3.61-.66-5.17-.55-10.52-.17-15.71.39-5.34,1.25-10.64,2.52-15.84ZM569.36,129.6c-.1.22-.18.45-.29.67-.74,1.61-1.55,3.19-2.39,4.75.43-1.99,1.08-4.11,2.68-5.42ZM566.42,129.72c-.34-2.59-1.02-5.08-1.97-7.45.96.35,1.96.59,2.98.72.76.73,1.46,1.53,2.14,2.35.21.47.44.93.69,1.37-.23.09-.48.15-.71.25-1.34.63-2.34,1.6-3.12,2.76ZM571.16,130.84c-.31,1.4-.51,2.83-.63,4.26-.48.01-.96.03-1.43.03.73-1.41,1.41-2.84,2.06-4.29ZM545.46,91.96c-1.21-4.35-2.06-8.81-1.53-13.34.42-3.57,1.57-7.46,4.12-10.1,7.23-7.5,16.59,3.54,20.26,9.52.84,1.37,1.57,2.81,2.24,4.26-.83,3.01-1.51,6.06-2.05,9.13-1.06,6.07-1.58,12.23-1.5,18.39.05,3.57.22,7.22,1,10.73-1.77-1.52-3.78-2.57-5.91-3.08-2.82-4.75-6.73-8.89-11.15-12.26-2.33-4.19-4.19-8.64-5.47-13.27ZM530.05,117.95c-3-3.24-5.7-6.92-7.62-10.91-1.4-2.9-2.26-7.43-.44-10.34,1.11-1.76,3.01-1.92,4.88-1.35,2.69.82,5.33,2.04,7.9,3.17,4.76,2.1,9.41,4.51,13.66,7.52.27.19.54.4.81.6,1.74,3.11,3.72,6.09,6.03,8.77.55.64,1.15,1.27,1.78,1.89-.73.11-1.45.27-2.18.51-4.98,1.64-9.1,5.38-12.48,9.27-.13.15-.26.31-.4.47-4.41-2.62-8.47-5.83-11.95-9.59ZM563.77,139.01c-.2.73-.43,1.46-.71,2.17-1.72,2.69-3.58,5.29-5.53,7.83-1.91,1.69-4.11,3.04-6.5,3.86-4.22,1.46-9.34,1.31-13-1.49-4.7-3.6-2.9-9.54-.44-13.91,1.42-2.51,3.08-4.91,4.91-7.18,2.77,1.52,5.66,2.84,8.64,3.89,4.17,1.47,8.5,2.4,12.88,2.83-.1.68-.18,1.35-.26,2ZM564.48,134.58c-.02.11-.06.21-.08.32-7.16-.68-14.17-2.85-20.51-6.28.96-1.09,1.95-2.15,2.98-3.14,3.28-3.13,7.51-6.19,12.23-6.25.04,0,.07,0,.11,0,.72.58,1.48,1.12,2.26,1.59,1.6,3.23,2.66,6.71,2.96,10.38.09,1.13.1,2.26.04,3.37ZM586.16,183.61c-1.14,1.7-3.09,2.73-5.17,2.43-2.32-.34-4.21-2.1-5.65-3.83-3.28-3.97-5.31-9.3-6.87-14.14-1.69-5.22-2.72-10.65-3.04-16.13-.21-3.6-.1-7.21.29-10.8.79-1.27,1.55-2.56,2.27-3.87.82.02,1.64,0,2.45-.02,0,1.08.03,2.17.15,3.25,1.03,9.5,7.26,17.91,15.96,21.8.59,3.01,1.04,6.04,1.3,9.09.34,3.99.65,8.73-1.7,12.23ZM606.65,157.48c-2.68,4.37-8.75,5.2-13.43,4.54-1.65-.23-3.26-.67-4.81-1.27-1.53-7.26-3.95-14.32-7.23-20.98,2.26,1.77,4.97,2.97,7.86,3.62,5.67,1.28,11.57.96,17.17-.56.3.58.61,1.15.84,1.77,1.54,4.03,1.93,9.08-.41,12.88ZM608.49,139.91c-.42.15-.84.26-1.27.39-2.51-3.98-6.26-7.26-10.45-9.54-1.04-.57-2.12-1.08-3.21-1.55.5-.31,1-.63,1.49-.95,8.64-5.76,15.26-13.96,20.57-22.79.41-.68.8-1.38,1.2-2.07,1.02.08,2.04.17,3.04.31,3.92.57,8.63,1.97,10.86,5.53,2.71,4.31.13,9.95-2.1,13.93-4.37,7.78-11.75,13.77-20.13,16.75Z"/>
  <path d="M601.1,212.68c-.42-2.98-2.74-5.32-5.43-6.47-.09-.04-.18-.06-.27-.1-1.37-2.24-3.44-4.07-5.86-5.04-2.3-.92-4.68-.94-6.92-.32-5.78-8.25-13.32-15.25-21.96-20.42-6.02-3.6-12.57-6.3-19.38-7.97-1.34-.33-1.92,1.74-.57,2.07,11.31,2.77,21.8,8.45,30.37,16.34,3.52,3.24,6.69,6.85,9.47,10.75-3.15,1.49-5.79,4.23-7.1,7.45-2.66,6.52.63,13.88,6.2,17.7.46.32.96.61,1.47.89.48,2.05,1.09,4.06,1.71,6.07.2.66.96,1,1.58.64,2.45-1.42,4.07-3.36,5.06-5.59.13-.05.26-.07.38-.13,2.66-1.22,4.01-4.03,4.48-6.79.02-.13.02-.27.04-.4,3.95-1.19,7.38-4.09,6.73-8.67ZM587.19,202.61c1.95.36,3.68,1.41,5.02,2.82-1.06-.04-2.12.11-3.15.43-.5-.44-1.02-.87-1.59-1.23-.94-.59-1.96-.97-2.99-1.12-.19-.3-.36-.61-.55-.9,1.06-.19,2.15-.21,3.26,0ZM589.83,210.08c1.45,2.24,2.35,4.78,2.55,7.45.05.69.06,1.4.03,2.12-.6.1-1.19.16-1.79.17-.36-3.74-1.55-7.52-3.03-10.73.34-.23.68-.43,1.04-.61.45.53.86,1.08,1.2,1.62ZM583.54,226.31c-.2-.08-.38-.19-.57-.27-.48-2.24-.76-4.5-.64-6.73,1.82,1.33,3.96,2.2,6.21,2.5,0,1.75-.26,3.48-.81,5.08-1.33.22-2.8-.04-4.19-.58ZM583.24,205.56c.57.93,1.1,1.88,1.6,2.84-1.92,1.79-3.15,4.03-3.85,6.49-1.15-1.68-2.09-3.84-1.73-5.9.33-1.92,2.07-3.31,3.97-3.43ZM585.88,210.51c1.15,2.53,2.02,5.18,2.44,7.98.06.39.09.78.12,1.18-2.15-.36-4.15-1.34-5.78-2.86.27-1.26.69-2.49,1.32-3.69.51-.96,1.15-1.84,1.89-2.61ZM574.65,213.42c.13-4.28,3.15-8.44,7.11-10.15.08.12.16.23.24.35-.94.22-1.85.63-2.66,1.28-2.08,1.67-2.6,4.33-2.07,6.84.48,2.27,1.63,4.28,3.17,5.91-.29,2.3-.22,4.69.11,6.98-3.58-2.57-6.03-6.79-5.9-11.22ZM584.46,231.59c-.3-.97-.59-1.96-.86-2.96,1,.32,2.03.51,3.05.53-.57.91-1.3,1.73-2.19,2.43ZM591.12,224.57c-.21.35-.44.65-.69.92.21-1.14.3-2.32.3-3.52.46-.02.93-.06,1.4-.13-.2.96-.5,1.89-1,2.73ZM598.56,215.77c-.76,1.66-2.33,2.69-4.01,3.31.05-4.01-1.22-8.21-3.71-11.36,1.01-.18,2.04-.16,3.07.12,1.18,2.31,1.5,5.03.5,7.51-.52,1.28,1.56,1.84,2.07.57.87-2.13.91-4.41.34-6.54,1.89,1.57,2.83,4.07,1.76,6.4Z"/>
  <path d="M289.68,422.21c-19.42,5.42-40.11,5.98-59.79,1.61-2.94-.65-5.91-1.42-8.86-2.3,12.21-14.24,21.99-30.74,29.08-48.04,7.27-17.75,14.92-41.54,2.56-58.86-4.85-6.79-12.37-12.11-20.88-12.62-8.55-.52-16.18,4.36-20.92,11.21-.86,1.25-1.59,2.57-2.25,3.91-6.36-3.69-14.15-4.97-21.34-3.52-8.15,1.65-14.87,7.15-18.22,14.75-3.44,7.82-3.52,16.68-2.49,25.02,1.16,9.36,3.45,18.79,6.53,27.7,3.19,9.23,7.79,18.01,14.84,24.88,6.86,6.68,15.41,11.36,24.29,14.8,1.68.65,3.39,1.25,5.1,1.82-9.38,10.58-20.85,20-34.78,22.61-4.21.79-8.53.79-12.74-.03-1.35-.26-1.93,1.81-.57,2.07,19.15,3.71,36.62-8.85,48.84-22.29.49-.54.95-1.1,1.43-1.65,17.82,5.58,36.98,6.94,55.43,4.24,5.17-.76,10.29-1.85,15.32-3.26,1.33-.37.77-2.45-.57-2.07ZM182.82,396.46c-5.15-7.74-8.2-16.63-10.53-25.56-2.12-8.15-3.97-16.48-4.15-24.93-.16-7.74,1.15-15.98,6.14-22.17,5.04-6.26,12.86-9.07,20.77-8.57,4.53.29,8.8,1.68,12.6,3.92-2.56,6.22-3.17,13.17-2.07,19.85.78,4.76,2.48,9.39,4.96,13.52,2.04,3.39,4.86,6.89,9.01,7.61,1.64.28,3.33-.04,4.55-1.24,1.53-1.52,1.69-3.77,1.81-5.8.26-4.41-.16-8.87-1.2-13.15-2.06-8.41-6.74-16.31-13.86-21.39-.13-.1-.28-.17-.42-.27,2.76-5.66,7.26-10.62,13.18-12.87,7.73-2.93,16.07-.43,22.17,4.81,15.6,13.4,11.87,35.63,5.96,52.88-6.19,18.08-15.34,35.14-26.92,50.34-1.88,2.47-3.88,4.97-5.98,7.42-14.13-4.51-27.7-11.92-36-24.39ZM209.48,320.31c2.26,1.57,4.32,3.45,6.1,5.63,5.26,6.44,7.93,14.85,8.22,23.1.1,3.01.7,10.05-4.16,8.92-4.15-.96-6.64-5.16-8.43-8.66-4.09-7.98-5.25-17.67-2.67-26.3.27-.9.59-1.8.95-2.69Z"/>
  <path d="M188.55,354.04c-1.38,0-1.39,2.15,0,2.15s1.39-2.15,0-2.15Z"/>
</svg>